<svg width="147" height="246" viewBox="0 0 147 246" fill="none" xmlns="http://www.w3.org/2000/svg">
    <g clip-path="url(#clip0_171_22026)">
    <mask id="mask0_171_22026" style="mask-type:luminance" maskUnits="userSpaceOnUse" x="-1149" y="-371" width="1441" height="819">
    <path d="M291.06 -370.496H-1148.94V447.004H291.06V-370.496Z" fill="white"/>
    </mask>
    <g mask="url(#mask0_171_22026)">
    <mask id="mask1_171_22026" style="mask-type:luminance" maskUnits="userSpaceOnUse" x="-149" y="-27" width="441" height="467">
    <mask id="mask2_171_22026" style="mask-type:luminance" maskUnits="userSpaceOnUse" x="-149" y="-27" width="441" height="467">
    <mask id="mask3_171_22026" style="mask-type:luminance" maskUnits="userSpaceOnUse" x="-163" y="-27" width="455" height="467">
    <mask id="mask4_171_22026" style="mask-type:luminance" maskUnits="userSpaceOnUse" x="-1149" y="-371" width="1441" height="811">
    <path fill-rule="evenodd" clip-rule="evenodd" d="M-1148.94 -370.496H291.06V439.504H-1148.94V-370.496Z" fill="white"/>
    </mask>
    <g mask="url(#mask4_171_22026)">
    <path d="M-71.3903 -26.7919L984.78 110.085L893.21 816.674L-162.961 679.794L-71.3903 -26.7919Z" fill="white"/>
    </g>
    </mask>
    <g mask="url(#mask3_171_22026)">
    <path d="M-71.3903 -26.7919L345.13 27.1881L267.82 623.699L-148.7 569.72L-71.3903 -26.7919Z" fill="white"/>
    </g>
    </mask>
    <g mask="url(#mask2_171_22026)">
    <path d="M-71.3903 -26.7919L984.78 110.085L893.21 816.674L-162.961 679.804L-71.3903 -26.7919Z" fill="white"/>
    </g>
    </mask>
    <g mask="url(#mask1_171_22026)">
    <path d="M18.9297 167.39C18.2197 167.298 17.5197 167.173 16.8297 167.012C16.1397 166.852 15.4497 166.659 14.7797 166.431C14.1097 166.204 13.4397 165.944 12.7997 165.652C12.1497 165.36 11.5197 165.037 10.8997 164.682C10.2797 164.328 9.67974 163.944 9.09974 163.531C8.52974 163.118 7.96969 162.677 7.42969 162.209C6.89969 161.742 6.38966 161.249 5.89966 160.731C5.40966 160.212 4.94966 159.672 4.51966 159.108C4.07966 158.545 3.67969 157.962 3.29969 157.358C2.91969 156.755 2.57965 156.135 2.25965 155.498C1.93965 154.86 1.65967 154.209 1.40967 153.544C1.15967 152.879 0.939638 152.203 0.749638 151.517C0.569638 150.83 0.419687 150.136 0.299687 149.434C0.179687 148.733 0.0996873 148.027 0.0496873 147.318C-0.000312746 146.608 -0.0103518 145.898 0.00964819 145.187C0.0296482 144.476 0.0896921 143.768 0.179692 143.063C0.269692 142.357 0.399697 141.658 0.559697 140.965C0.719697 140.272 0.909653 139.589 1.13965 138.915C1.36965 138.241 1.62968 137.58 1.91968 136.931C2.20968 136.283 2.52965 135.65 2.88965 135.034C3.23965 134.417 3.62968 133.819 4.03968 133.24C4.44968 132.661 4.88975 132.104 5.35975 131.568C5.82975 131.033 6.31973 130.521 6.83973 130.034C7.35973 129.547 7.89972 129.086 8.45972 128.652C9.02972 128.218 9.60972 127.813 10.2097 127.436C10.8197 127.059 11.4397 126.713 12.0697 126.397C12.7097 126.081 13.3597 125.797 14.0297 125.545C14.6897 125.293 15.3697 125.075 16.0597 124.889C16.7397 124.704 17.4397 124.553 18.1397 124.435C18.8397 124.318 19.5496 124.235 20.2496 124.187C20.9596 124.14 21.6697 124.127 22.3897 124.148C23.0997 124.17 23.7996 124.227 24.5096 124.318C25.2196 124.41 25.9097 124.535 26.6097 124.696C27.2997 124.856 27.9797 125.049 28.6597 125.277C29.3297 125.504 29.9897 125.764 30.6397 126.056C31.2897 126.348 31.9197 126.671 32.5397 127.026C33.1597 127.38 33.7497 127.764 34.3297 128.177C34.9097 128.59 35.4696 129.031 36.0096 129.498C36.5396 129.966 37.0497 130.459 37.5397 130.977C38.0297 131.496 38.4897 132.036 38.9197 132.6C39.3597 133.163 39.7597 133.746 40.1397 134.35C40.5197 134.953 40.8597 135.573 41.1797 136.21C41.4897 136.847 41.7797 137.499 42.0297 138.164C42.2797 138.829 42.4997 139.505 42.6897 140.191C42.8697 140.878 43.0197 141.572 43.1397 142.274C43.2597 142.975 43.3397 143.681 43.3897 144.39C43.4397 145.1 43.4497 145.81 43.4297 146.521C43.4097 147.232 43.3496 147.94 43.2596 148.645C43.1696 149.35 43.0396 150.049 42.8796 150.742C42.7196 151.434 42.5197 152.117 42.2997 152.791C42.0697 153.464 41.8096 154.125 41.5096 154.773C41.2196 155.421 40.8997 156.053 40.5397 156.67C40.1897 157.286 39.8097 157.883 39.3897 158.462C38.9797 159.041 38.5397 159.597 38.0697 160.133C37.5997 160.668 37.1097 161.179 36.5897 161.666C36.0697 162.153 35.5297 162.614 34.9697 163.048C34.4097 163.482 33.8197 163.887 33.2197 164.264C32.6197 164.641 31.9997 164.987 31.3597 165.303C30.7197 165.619 30.0697 165.903 29.4097 166.155C28.7397 166.407 28.0696 166.626 27.3796 166.812C26.6896 166.998 25.9997 167.149 25.2997 167.267C24.5997 167.385 23.8897 167.468 23.1797 167.516C22.4697 167.565 21.7597 167.578 21.0497 167.557C20.3397 167.536 19.6297 167.48 18.9297 167.39ZM24.2297 126.481C23.5997 126.399 22.9597 126.348 22.3197 126.328C21.6797 126.308 21.0397 126.32 20.3997 126.363C19.7597 126.406 19.1296 126.481 18.4996 126.586C17.8696 126.692 17.2398 126.828 16.6198 126.995C16.0098 127.162 15.3997 127.358 14.7997 127.585C14.1997 127.812 13.6097 128.067 13.0397 128.351C12.4697 128.635 11.9098 128.947 11.3698 129.286C10.8198 129.625 10.2997 129.99 9.78968 130.38C9.28968 130.771 8.79972 131.185 8.32972 131.624C7.86972 132.062 7.41964 132.522 6.99964 133.004C6.57964 133.486 6.1797 133.988 5.8097 134.508C5.4397 135.029 5.09967 135.567 4.77967 136.122C4.45967 136.677 4.16966 137.246 3.89966 137.829C3.63966 138.413 3.40971 139.007 3.19971 139.614C2.99971 140.22 2.81969 140.835 2.67969 141.459C2.53969 142.082 2.41973 142.711 2.33973 143.346C2.25973 143.98 2.2097 144.617 2.1897 145.257C2.1697 145.896 2.17973 146.535 2.21973 147.174C2.26973 147.812 2.33971 148.447 2.44971 149.078C2.54971 149.709 2.68975 150.334 2.85975 150.952C3.01975 151.569 3.21971 152.177 3.44971 152.776C3.66971 153.374 3.92972 153.96 4.20972 154.533C4.49972 155.107 4.80966 155.665 5.14966 156.207C5.48966 156.75 5.84975 157.275 6.23975 157.782C6.62975 158.288 7.04975 158.775 7.48975 159.241C7.91975 159.707 8.37976 160.151 8.86976 160.572C9.34976 160.993 9.84976 161.389 10.3698 161.761C10.8898 162.132 11.4297 162.477 11.9797 162.796C12.5397 163.115 13.1097 163.406 13.6897 163.669C14.2797 163.932 14.8697 164.165 15.4797 164.37C16.0797 164.574 16.6997 164.748 17.3197 164.892C17.9497 165.036 18.5697 165.149 19.2097 165.232C19.8397 165.314 20.4798 165.365 21.1198 165.384C21.7598 165.404 22.3997 165.392 23.0397 165.349C23.6797 165.306 24.3097 165.231 24.9397 165.126C25.5697 165.02 26.1997 164.884 26.8197 164.717C27.4297 164.55 28.0397 164.353 28.6397 164.127C29.2397 163.9 29.8297 163.645 30.3997 163.36C30.9697 163.076 31.5297 162.765 32.0697 162.426C32.6197 162.087 33.1397 161.722 33.6497 161.331C34.1497 160.941 34.6397 160.526 35.1097 160.088C35.5697 159.649 36.0197 159.189 36.4397 158.707C36.8597 158.225 37.2496 157.724 37.6296 157.203C37.9996 156.682 38.3397 156.144 38.6597 155.589C38.9797 155.034 39.2697 154.465 39.5297 153.882C39.7997 153.298 40.0298 152.703 40.2397 152.097C40.4398 151.491 40.6096 150.876 40.7596 150.252C40.8996 149.629 41.0097 149 41.0997 148.365C41.1797 147.731 41.2296 147.094 41.2496 146.455C41.2696 145.815 41.2497 145.176 41.2097 144.538C41.1697 143.9 41.0897 143.266 40.9897 142.635C40.8797 142.004 40.7397 141.38 40.5797 140.762C40.4097 140.145 40.2098 139.537 39.9897 138.939C39.7598 138.341 39.4997 137.755 39.2197 137.183C38.9297 136.609 38.6197 136.052 38.2797 135.509C37.9397 134.967 37.5797 134.442 37.1897 133.936C36.7997 133.429 36.3797 132.943 35.9497 132.477C35.5097 132.011 35.0497 131.567 34.5697 131.146C34.0797 130.725 33.5797 130.329 33.0597 129.957C32.5397 129.586 31.9997 129.24 31.4497 128.921C30.8997 128.602 30.3298 128.311 29.7397 128.048C29.1597 127.785 28.5697 127.551 27.9597 127.346C27.3497 127.141 26.7398 126.967 26.1198 126.822C25.4898 126.677 24.8597 126.564 24.2297 126.481Z" fill="white"/>
    <path d="M41.7297 148.448C41.6497 149.103 41.5296 149.753 41.3796 150.397C41.2296 151.04 41.0497 151.676 40.8397 152.302C40.6297 152.928 40.3898 153.542 40.1198 154.145C39.8498 154.747 39.5497 155.335 39.2197 155.908C38.8897 156.481 38.5297 157.036 38.1497 157.574C37.7597 158.112 37.3497 158.63 36.9197 159.128C36.4797 159.626 36.0297 160.101 35.5397 160.553C35.0597 161.006 34.5597 161.434 34.0397 161.838C33.5097 162.241 32.9697 162.618 32.4097 162.968C31.8497 163.318 31.2697 163.64 30.6797 163.933C30.0897 164.227 29.4798 164.49 28.8698 164.724C28.2498 164.958 27.6197 165.162 26.9797 165.334C26.3397 165.506 25.6997 165.647 25.0497 165.756C24.3997 165.865 23.7397 165.941 23.0797 165.986C22.4197 166.031 21.7597 166.043 21.0997 166.022C20.4397 166.002 19.7796 165.949 19.1296 165.865C18.4696 165.78 17.8197 165.663 17.1797 165.514C16.5297 165.365 15.8997 165.185 15.2697 164.974C14.6497 164.763 14.0297 164.522 13.4297 164.25C12.8297 163.979 12.2397 163.678 11.6697 163.349C11.0897 163.02 10.5396 162.663 9.99964 162.279C9.45964 161.895 8.9397 161.486 8.4397 161.051C7.9497 160.617 7.46966 160.158 7.01966 159.677C6.56966 159.196 6.13974 158.693 5.72974 158.17C5.32974 157.646 4.94974 157.104 4.59974 156.544C4.24974 155.983 3.92965 155.407 3.63965 154.815C3.34965 154.223 3.07974 153.618 2.84974 153C2.60974 152.382 2.40975 151.754 2.23975 151.116C2.06975 150.478 1.91971 149.833 1.81971 149.181C1.70971 148.529 1.62973 147.874 1.58973 147.214C1.53973 146.555 1.52969 145.895 1.54969 145.234C1.56969 144.574 1.61972 143.916 1.70972 143.261C1.78972 142.605 1.9097 141.956 2.0597 141.312C2.2097 140.668 2.38974 140.033 2.59974 139.406C2.80974 138.78 3.04971 138.166 3.31971 137.563C3.58971 136.961 3.88973 136.373 4.21973 135.8C4.54973 135.227 4.90968 134.672 5.28968 134.134C5.67968 133.596 6.08966 133.078 6.51966 132.58C6.95966 132.083 7.40965 131.607 7.88965 131.155C8.37965 130.702 8.87966 130.274 9.39966 129.871C9.92966 129.467 10.4697 129.091 11.0297 128.74C11.5897 128.39 12.1696 128.069 12.7596 127.775C13.3496 127.482 13.9497 127.218 14.5697 126.984C15.1897 126.75 15.8197 126.547 16.4597 126.374C17.0997 126.202 17.7397 126.061 18.3897 125.952C19.0397 125.843 19.6997 125.767 20.3597 125.722C21.0197 125.678 21.6797 125.666 22.3397 125.686C22.9997 125.706 23.6597 125.759 24.3097 125.844C24.9697 125.929 25.6196 126.046 26.2596 126.194C26.9096 126.343 27.5397 126.523 28.1697 126.734C28.7897 126.945 29.4096 127.187 30.0096 127.458C30.6096 127.73 31.1997 128.03 31.7697 128.359C32.3497 128.689 32.8997 129.045 33.4397 129.429C33.9797 129.813 34.4997 130.222 34.9897 130.657C35.4897 131.092 35.9697 131.55 36.4197 132.031C36.8697 132.513 37.2997 133.015 37.6997 133.539C38.1097 134.062 38.4797 134.604 38.8297 135.165C39.1897 135.725 39.5097 136.301 39.7997 136.893C40.0897 137.486 40.3597 138.091 40.5897 138.709C40.8297 139.327 41.0297 139.955 41.1997 140.593C41.3697 141.231 41.5098 141.875 41.6198 142.527C41.7298 143.179 41.8097 143.835 41.8497 144.494C41.8997 145.153 41.9097 145.813 41.8897 146.474C41.8697 147.134 41.8197 147.792 41.7297 148.448Z" fill="white" fill-opacity="0.2"/>
    </g>
    <mask id="mask5_171_22026" style="mask-type:luminance" maskUnits="userSpaceOnUse" x="-149" y="-27" width="441" height="467">
    <mask id="mask6_171_22026" style="mask-type:luminance" maskUnits="userSpaceOnUse" x="-149" y="-27" width="441" height="467">
    <mask id="mask7_171_22026" style="mask-type:luminance" maskUnits="userSpaceOnUse" x="-163" y="-27" width="455" height="467">
    <mask id="mask8_171_22026" style="mask-type:luminance" maskUnits="userSpaceOnUse" x="-1149" y="-371" width="1441" height="811">
    <path fill-rule="evenodd" clip-rule="evenodd" d="M-1148.94 -370.496H291.06V439.504H-1148.94V-370.496Z" fill="white"/>
    </mask>
    <g mask="url(#mask8_171_22026)">
    <path d="M-71.3903 -26.7919L984.78 110.085L893.21 816.674L-162.961 679.794L-71.3903 -26.7919Z" fill="white"/>
    </g>
    </mask>
    <g mask="url(#mask7_171_22026)">
    <path d="M-71.3903 -26.7919L345.13 27.1881L267.82 623.699L-148.7 569.72L-71.3903 -26.7919Z" fill="white"/>
    </g>
    </mask>
    <g mask="url(#mask6_171_22026)">
    <path d="M-71.3903 -26.7919L984.78 110.085L893.21 816.674L-162.961 679.804L-71.3903 -26.7919Z" fill="white"/>
    </g>
    </mask>
    <g mask="url(#mask5_171_22026)">
    <path d="M21.1597 134.028C21.3597 134.277 21.5098 134.552 21.6198 134.853C21.7398 135.154 21.8097 135.475 21.8397 135.816C21.8797 136.158 21.8697 136.512 21.8197 136.881C21.7697 137.249 21.6797 137.624 21.5497 138.006C21.4197 138.387 21.2497 138.768 21.0397 139.148C20.8297 139.528 20.5897 139.9 20.3197 140.263C20.0397 140.627 19.7397 140.976 19.4097 141.309C19.0797 141.642 18.7197 141.954 18.3397 142.245C17.9697 142.535 17.5797 142.799 17.1697 143.035C16.7597 143.271 16.3497 143.476 15.9197 143.649C15.4997 143.822 15.0797 143.96 14.6597 144.063C14.2397 144.167 13.8297 144.233 13.4297 144.262C13.0297 144.291 12.6397 144.283 12.2697 144.237C11.8997 144.192 11.5598 144.109 11.2398 143.991C10.9098 143.872 10.6198 143.718 10.3598 143.531C10.0998 143.343 9.8697 143.125 9.6797 142.876C9.4897 142.627 9.32974 142.352 9.21974 142.051C9.09974 141.75 9.02965 141.429 8.99965 141.087C8.95965 140.746 8.96967 140.391 9.01967 140.023C9.06967 139.654 9.15969 139.279 9.28969 138.898C9.42969 138.516 9.5897 138.136 9.7997 137.756C10.0097 137.376 10.2497 137.004 10.5197 136.64C10.7997 136.277 11.0997 135.928 11.4297 135.595C11.7697 135.261 12.1196 134.949 12.4997 134.659C12.8797 134.368 13.2697 134.105 13.6697 133.869C14.0797 133.632 14.4997 133.428 14.9197 133.255C15.3397 133.081 15.7597 132.943 16.1797 132.84C16.5997 132.737 17.0097 132.671 17.4097 132.642C17.8197 132.612 18.1997 132.62 18.5697 132.666C18.9397 132.712 19.2898 132.794 19.6098 132.913C19.9298 133.032 20.2198 133.185 20.4798 133.373C20.7398 133.561 20.9697 133.779 21.1597 134.028Z" fill="white"/>
    </g>
    <mask id="mask9_171_22026" style="mask-type:luminance" maskUnits="userSpaceOnUse" x="-149" y="-27" width="441" height="467">
    <mask id="mask10_171_22026" style="mask-type:luminance" maskUnits="userSpaceOnUse" x="-149" y="-27" width="441" height="467">
    <mask id="mask11_171_22026" style="mask-type:luminance" maskUnits="userSpaceOnUse" x="-163" y="-27" width="455" height="467">
    <mask id="mask12_171_22026" style="mask-type:luminance" maskUnits="userSpaceOnUse" x="-1149" y="-371" width="1441" height="811">
    <path fill-rule="evenodd" clip-rule="evenodd" d="M-1148.94 -370.496H291.06V439.504H-1148.94V-370.496Z" fill="white"/>
    </mask>
    <g mask="url(#mask12_171_22026)">
    <path d="M-71.3903 -26.7919L984.78 110.085L893.21 816.674L-162.961 679.794L-71.3903 -26.7919Z" fill="white"/>
    </g>
    </mask>
    <g mask="url(#mask11_171_22026)">
    <path d="M-71.3903 -26.7919L345.13 27.1881L267.82 623.699L-148.7 569.72L-71.3903 -26.7919Z" fill="white"/>
    </g>
    </mask>
    <g mask="url(#mask10_171_22026)">
    <path d="M-71.3903 -26.7919L984.78 110.085L893.21 816.674L-162.961 679.804L-71.3903 -26.7919Z" fill="white"/>
    </g>
    </mask>
    <g mask="url(#mask9_171_22026)">
    <path d="M9.5997 145.447C9.8397 145.575 10.0196 145.766 10.1596 146.018C10.2996 146.271 10.3896 146.567 10.4096 146.906C10.4396 147.244 10.4097 147.601 10.3197 147.974C10.2297 148.347 10.0796 148.709 9.88961 149.06C9.69961 149.411 9.46967 149.724 9.19967 149.999C8.92967 150.274 8.63969 150.491 8.33969 150.648C8.03969 150.806 7.74968 150.893 7.45968 150.908C7.16968 150.924 6.90965 150.868 6.67965 150.74C6.44965 150.612 6.25972 150.421 6.11972 150.169C5.97972 149.916 5.89972 149.62 5.86972 149.281C5.83972 148.943 5.87969 148.587 5.96969 148.213C6.05969 147.84 6.19961 147.478 6.38961 147.127C6.58961 146.776 6.81969 146.463 7.08969 146.188C7.34969 145.913 7.63966 145.696 7.93966 145.539C8.23966 145.381 8.53967 145.295 8.81967 145.279C9.10967 145.263 9.3697 145.319 9.5997 145.447Z" fill="white"/>
    </g>
    <mask id="mask13_171_22026" style="mask-type:luminance" maskUnits="userSpaceOnUse" x="-149" y="-27" width="441" height="467">
    <mask id="mask14_171_22026" style="mask-type:luminance" maskUnits="userSpaceOnUse" x="-149" y="-27" width="441" height="467">
    <mask id="mask15_171_22026" style="mask-type:luminance" maskUnits="userSpaceOnUse" x="-163" y="-27" width="455" height="467">
    <mask id="mask16_171_22026" style="mask-type:luminance" maskUnits="userSpaceOnUse" x="-1149" y="-371" width="1441" height="811">
    <path fill-rule="evenodd" clip-rule="evenodd" d="M-1148.94 -370.496H291.06V439.504H-1148.94V-370.496Z" fill="white"/>
    </mask>
    <g mask="url(#mask16_171_22026)">
    <path d="M-71.3903 -26.7919L984.78 110.085L893.21 816.674L-162.961 679.794L-71.3903 -26.7919Z" fill="white"/>
    </g>
    </mask>
    <g mask="url(#mask15_171_22026)">
    <path d="M-71.3903 -26.7919L345.13 27.1881L267.82 623.699L-148.7 569.72L-71.3903 -26.7919Z" fill="white"/>
    </g>
    </mask>
    <g mask="url(#mask14_171_22026)">
    <path d="M-71.3903 -26.7919L984.78 110.085L893.21 816.674L-162.961 679.804L-71.3903 -26.7919Z" fill="white"/>
    </g>
    </mask>
    <g mask="url(#mask13_171_22026)">
    <path d="M98.7597 84.3292C97.3897 84.1512 96.0197 83.9062 94.6697 83.5942C93.3197 83.2812 91.9897 82.9042 90.6697 82.4612C89.3597 82.0182 88.0697 81.5112 86.7997 80.9412C85.5397 80.3722 84.3098 79.7412 83.0998 79.0502C81.8998 78.3592 80.7398 77.6112 79.6098 76.8062C78.4798 76.0002 77.3898 75.1412 76.3498 74.2292C75.2998 73.3172 74.3098 72.3562 73.3498 71.3462C72.3998 70.3352 71.5097 69.2812 70.6597 68.1832C69.8097 67.0842 69.0197 65.9472 68.2897 64.7712C67.5497 63.5952 66.8797 62.3852 66.2597 61.1432C65.6497 59.9002 65.0898 58.6311 64.5998 57.3341C64.1098 56.0371 63.6797 54.7192 63.3197 53.3812C62.9597 52.0422 62.6697 50.6891 62.4397 49.3211C62.2097 47.9531 62.0497 46.5782 61.9497 45.1942C61.8597 43.8112 61.8297 42.4262 61.8797 41.0402C61.9197 39.6542 62.0297 38.2732 62.2097 36.8982C62.3897 35.5232 62.6297 34.1601 62.9397 32.8081C63.2597 31.4571 63.6297 30.1252 64.0797 28.8112C64.5197 27.4972 65.0298 26.2082 65.5998 24.9432C66.1698 23.6792 66.7998 22.4462 67.4898 21.2442C68.1798 20.0412 68.9298 18.8762 69.7298 17.7472C70.5398 16.6182 71.3997 15.5322 72.3097 14.4872C73.2197 13.4432 74.1797 12.4462 75.1897 11.4962C76.1997 10.5462 77.2598 9.64716 78.3598 8.80116C79.4498 7.95516 80.5897 7.16416 81.7697 6.43016C82.9397 5.69516 84.1497 5.02016 85.3997 4.40416C86.6397 3.78816 87.9097 3.23515 89.2097 2.74415C90.4997 2.25315 91.8197 1.82616 93.1597 1.46516C94.4997 1.10316 95.8498 0.808175 97.2197 0.579175C98.5897 0.351175 99.9598 0.190174 101.35 0.0961735C102.73 0.00317355 104.12 -0.0228457 105.5 0.0201543C106.89 0.0621543 108.27 0.173148 109.64 0.351148C111.02 0.529148 112.38 0.775171 113.73 1.08717C115.08 1.39917 116.42 1.77717 117.73 2.22017C119.05 2.66317 120.34 3.16915 121.6 3.73915C122.86 4.30915 124.1 4.93917 125.3 5.63017C126.5 6.32117 127.67 7.06917 128.8 7.87517C129.93 8.68017 131.01 9.53915 132.06 10.4512C133.1 11.3632 134.1 12.3252 135.05 13.3352C136 14.3452 136.9 15.3992 137.74 16.4982C138.59 17.5962 139.38 18.7332 140.12 19.9102C140.85 21.0862 141.53 22.2952 142.14 23.5372C142.76 24.7802 143.31 26.0492 143.8 27.3462C144.29 28.6432 144.72 29.9612 145.08 31.3002C145.44 32.6382 145.74 33.9922 145.97 35.3592C146.2 36.7272 146.36 38.1032 146.45 39.4862C146.54 40.8702 146.57 42.2552 146.53 43.6412C146.48 45.0272 146.37 46.4072 146.2 47.7822C146.02 49.1572 145.77 50.5192 145.46 51.8702C145.14 53.2202 144.76 54.5522 144.32 55.8652C143.88 57.1782 143.37 58.4672 142.8 59.7302C142.23 60.9942 141.6 62.2262 140.91 63.4282C140.21 64.6292 139.47 65.7942 138.66 66.9222C137.85 68.0502 136.99 69.1362 136.08 70.1802C135.17 71.2242 134.21 72.2202 133.2 73.1702C132.19 74.1201 131.13 75.0172 130.04 75.8632C128.94 76.7102 127.8 77.5002 126.63 78.2342C125.45 78.9692 124.24 79.6442 123 80.2602C121.76 80.8762 120.49 81.4302 119.19 81.9212C117.89 82.4132 116.58 82.8402 115.24 83.2022C113.9 83.5642 112.55 83.8602 111.18 84.0902C109.81 84.3192 108.44 84.4812 107.06 84.5762C105.67 84.6702 104.29 84.6972 102.9 84.6562C101.52 84.6152 100.14 84.5062 98.7597 84.3292ZM109.36 2.51216C108.06 2.34316 106.75 2.23816 105.43 2.19716C104.12 2.15716 102.81 2.18115 101.49 2.27015C100.18 2.35815 98.8797 2.51116 97.5797 2.72816C96.2797 2.94516 94.9998 3.22516 93.7298 3.56816C92.4598 3.91116 91.2098 4.31517 89.9798 4.78117C88.7498 5.24717 87.5398 5.77215 86.3598 6.35615C85.1898 6.94015 84.0397 7.58017 82.9197 8.27717C81.8097 8.97417 80.7297 9.72417 79.6897 10.5272C78.6397 11.3302 77.6397 12.1822 76.6897 13.0832C75.7297 13.9842 74.8197 14.9301 73.9497 15.9201C73.0797 16.9111 72.2697 17.9422 71.5097 19.0122C70.7397 20.0832 70.0297 21.1892 69.3797 22.3292C68.7197 23.4702 68.1197 24.6392 67.5797 25.8392C67.0397 27.0382 66.5597 28.2612 66.1397 29.5072C65.7197 30.7532 65.3597 32.0172 65.0697 33.2992C64.7697 34.5802 64.5398 35.8732 64.3698 37.1782C64.1998 38.4822 64.0997 39.7922 64.0497 41.1072C64.0097 42.4212 64.0397 43.7352 64.1297 45.0472C64.2197 46.3602 64.3697 47.6642 64.5897 48.9622C64.7997 50.2592 65.0797 51.5432 65.4297 52.8132C65.7697 54.0822 66.1697 55.3322 66.6397 56.5622C67.1097 57.7932 67.6297 58.9972 68.2097 60.1752C68.7997 61.3542 69.4397 62.5012 70.1397 63.6172C70.8297 64.7322 71.5797 65.8112 72.3897 66.8532C73.1897 67.8952 74.0397 68.8952 74.9397 69.8532C75.8397 70.8112 76.7897 71.7232 77.7797 72.5882C78.7697 73.4542 79.7998 74.2682 80.8698 75.0322C81.9398 75.7962 83.0497 76.5062 84.1897 77.1612C85.3297 77.8172 86.4997 78.4152 87.6997 78.9552C88.8997 79.4962 90.1198 79.9762 91.3698 80.3962C92.6198 80.8172 93.8797 81.1752 95.1597 81.4712C96.4397 81.7672 97.7397 82.0002 99.0397 82.1692C100.34 82.3382 101.65 82.4432 102.97 82.4832C104.28 82.5232 105.6 82.4992 106.91 82.4112C108.22 82.3222 109.53 82.1692 110.83 81.9522C112.12 81.7352 113.41 81.4552 114.68 81.1122C115.95 80.7692 117.2 80.3652 118.43 79.8992C119.66 79.4332 120.86 78.9092 122.04 78.3242C123.22 77.7402 124.37 77.1002 125.48 76.4032C126.6 75.7062 127.68 74.9562 128.72 74.1532C129.76 73.3512 130.76 72.4992 131.72 71.5982C132.68 70.6972 133.59 69.7512 134.45 68.7602C135.32 67.7692 136.13 66.7392 136.9 65.6682C137.66 64.5972 138.37 63.4921 139.03 62.3511C139.68 61.2111 140.28 60.0412 140.82 58.8422C141.36 57.6432 141.84 56.4202 142.26 55.1732C142.68 53.9272 143.04 52.6632 143.34 51.3812C143.63 50.1002 143.87 48.8071 144.04 47.5021C144.2 46.1981 144.31 44.8892 144.35 43.5752C144.38 42.2602 144.36 40.9472 144.27 39.6352C144.18 38.3232 144.03 37.0191 143.81 35.7221C143.59 34.4251 143.31 33.1422 142.97 31.8732C142.62 30.6042 142.22 29.3542 141.75 28.1252C141.28 26.8952 140.76 25.6912 140.18 24.5132C139.59 23.3352 138.95 22.1892 138.25 21.0742C137.56 19.9582 136.81 18.8802 136 17.8382C135.2 16.7972 134.35 15.7972 133.45 14.8392C132.55 13.8812 131.6 12.9692 130.61 12.1042C129.62 11.2392 128.59 10.4242 127.52 9.66017C126.45 8.89517 125.35 8.18516 124.21 7.53016C123.07 6.87416 121.9 6.27517 120.7 5.73417C119.5 5.19317 118.28 4.71215 117.03 4.29115C115.79 3.87015 114.52 3.51018 113.24 3.21318C111.96 2.91618 110.67 2.68216 109.36 2.51216Z" fill="white"/>
    <path d="M144.23 47.5272C144.06 48.8382 143.83 50.1372 143.53 51.4252C143.23 52.7132 142.87 53.9832 142.45 55.2352C142.03 56.4872 141.54 57.7162 141 58.9212C140.46 60.1262 139.86 61.3012 139.2 62.4472C138.54 63.5932 137.83 64.7042 137.06 65.7802C136.29 66.8552 135.47 67.8912 134.6 68.8862C133.73 69.8822 132.82 70.8322 131.85 71.7382C130.89 72.6432 129.89 73.4992 128.84 74.3062C127.79 75.1122 126.71 75.8662 125.59 76.5662C124.47 77.2662 123.31 77.9102 122.13 78.4962C120.95 79.0832 119.74 79.6112 118.5 80.0792C117.26 80.5472 116.01 80.9532 114.73 81.2982C113.46 81.6422 112.17 81.9242 110.86 82.1422C109.56 82.3602 108.25 82.5132 106.93 82.6022C105.61 82.6912 104.29 82.7152 102.97 82.6752C101.65 82.6342 100.33 82.5292 99.0197 82.3592C97.7097 82.1892 96.4098 81.9562 95.1198 81.6582C93.8298 81.3612 92.5597 81.0012 91.3097 80.5782C90.0597 80.1562 88.8296 79.6732 87.6296 79.1302C86.4196 78.5872 85.2397 77.9862 84.0997 77.3282C82.9497 76.6692 81.8397 75.9562 80.7697 75.1892C79.6897 74.4212 78.6497 73.6032 77.6597 72.7332C76.6597 71.8642 75.7097 70.9482 74.8097 69.9852C73.8997 69.0222 73.0498 68.0172 72.2397 66.9702C71.4297 65.9232 70.6797 64.8392 69.9797 63.7192C69.2797 62.5982 68.6297 61.4452 68.0497 60.2612C67.4597 59.0772 66.9297 57.8672 66.4597 56.6312C65.9997 55.3952 65.5896 54.1392 65.2496 52.8632C64.8996 51.5872 64.6197 50.2972 64.3997 48.9942C64.1797 47.6902 64.0297 46.3792 63.9397 45.0602C63.8497 43.7422 63.8298 42.4222 63.8698 41.1012C63.9098 39.7802 64.0097 38.4642 64.1797 37.1542C64.3497 35.8432 64.5896 34.5442 64.8796 33.2562C65.1796 31.9682 65.5397 30.6982 65.9597 29.4462C66.3897 28.1942 66.8697 26.9652 67.4097 25.7602C67.9597 24.5552 68.5597 23.3802 69.2097 22.2342C69.8697 21.0882 70.5897 19.9772 71.3497 18.9012C72.1197 17.8262 72.9397 16.7902 73.8097 15.7952C74.6797 14.7992 75.5997 13.8492 76.5597 12.9432C77.5197 12.0382 78.5297 11.1822 79.5697 10.3752C80.6197 9.56921 81.6997 8.8152 82.8297 8.1152C83.9497 7.4152 85.0997 6.7712 86.2797 6.1842C87.4697 5.5982 88.6797 5.0702 89.9097 4.6022C91.1497 4.1342 92.4097 3.72821 93.6797 3.38321C94.9597 3.03821 96.2497 2.75721 97.5497 2.53921C98.8597 2.32121 100.17 2.16822 101.49 2.07922C102.8 1.99022 104.12 1.96522 105.44 2.00622C106.77 2.04722 108.08 2.1522 109.39 2.3222C110.7 2.4922 112 2.72522 113.29 3.02322C114.58 3.32022 115.85 3.68021 117.1 4.10321C118.35 4.52521 119.58 5.00821 120.79 5.55121C121.99 6.09421 123.17 6.69421 124.31 7.35321C125.46 8.01121 126.57 8.72522 127.65 9.49222C128.72 10.2602 129.76 11.0782 130.75 11.9482C131.75 12.8172 132.7 13.7332 133.61 14.6962C134.51 15.6592 135.37 16.6642 136.17 17.7112C136.98 18.7582 137.73 19.8412 138.44 20.9622C139.14 22.0832 139.78 23.2362 140.37 24.4202C140.95 25.6042 141.48 26.8142 141.95 28.0502C142.42 29.2862 142.82 30.5422 143.17 31.8182C143.51 33.0942 143.79 34.3842 144.01 35.6872C144.23 36.9912 144.38 38.3022 144.47 39.6202C144.56 40.9392 144.59 42.2592 144.55 43.5802C144.5 44.9012 144.4 46.2172 144.23 47.5272Z" fill="white" fill-opacity="0.2"/>
    </g>
    <mask id="mask17_171_22026" style="mask-type:luminance" maskUnits="userSpaceOnUse" x="-149" y="-27" width="441" height="467">
    <mask id="mask18_171_22026" style="mask-type:luminance" maskUnits="userSpaceOnUse" x="-149" y="-27" width="441" height="467">
    <mask id="mask19_171_22026" style="mask-type:luminance" maskUnits="userSpaceOnUse" x="-163" y="-27" width="455" height="467">
    <mask id="mask20_171_22026" style="mask-type:luminance" maskUnits="userSpaceOnUse" x="-1149" y="-371" width="1441" height="811">
    <path fill-rule="evenodd" clip-rule="evenodd" d="M-1148.94 -370.496H291.06V439.504H-1148.94V-370.496Z" fill="white"/>
    </mask>
    <g mask="url(#mask20_171_22026)">
    <path d="M-71.3903 -26.7919L984.78 110.085L893.21 816.674L-162.961 679.794L-71.3903 -26.7919Z" fill="white"/>
    </g>
    </mask>
    <g mask="url(#mask19_171_22026)">
    <path d="M-71.3903 -26.7919L345.13 27.1881L267.82 623.699L-148.7 569.72L-71.3903 -26.7919Z" fill="white"/>
    </g>
    </mask>
    <g mask="url(#mask18_171_22026)">
    <path d="M-71.3903 -26.7919L984.78 110.085L893.21 816.674L-162.961 679.804L-71.3903 -26.7919Z" fill="white"/>
    </g>
    </mask>
    <g mask="url(#mask17_171_22026)">
    <path d="M103.09 18.6891C103.48 19.1871 103.78 19.7371 104.01 20.3391C104.24 20.9401 104.39 21.5821 104.45 22.2651C104.52 22.9471 104.5 23.6571 104.4 24.3941C104.3 25.1311 104.12 25.8801 103.86 26.6431C103.6 27.4061 103.26 28.1681 102.85 28.9271C102.43 29.6871 101.95 30.4311 101.4 31.1581C100.85 31.8851 100.25 32.5821 99.5798 33.2491C98.9198 33.9161 98.2097 34.5401 97.4497 35.1211C96.6997 35.7021 95.9098 36.2291 95.0998 36.7011C94.2898 37.1741 93.4598 37.5831 92.6098 37.9301C91.7698 38.2761 90.9298 38.5521 90.0898 38.7581C89.2498 38.9651 88.4198 39.0971 87.6198 39.1561C86.8198 39.2151 86.0397 39.1981 85.3097 39.1071C84.5697 39.0161 83.8798 38.8511 83.2298 38.6131C82.5898 38.3761 82.0098 38.0691 81.4798 37.6941C80.9598 37.3191 80.5098 36.8821 80.1198 36.3841C79.7398 35.8861 79.4297 35.3361 79.1997 34.7351C78.9697 34.1331 78.8297 33.4911 78.7597 32.8081C78.6897 32.1261 78.7097 31.4161 78.8097 30.6801C78.9097 29.9431 79.0898 29.1931 79.3498 28.4301C79.6198 27.6671 79.9498 26.9061 80.3698 26.1461C80.7798 25.3861 81.2597 24.6431 81.8097 23.9151C82.3597 23.1881 82.9697 22.4911 83.6297 21.8241C84.2997 21.1571 85.0097 20.5331 85.7597 19.9521C86.5197 19.3711 87.2998 18.8441 88.1198 18.3721C88.9298 17.8991 89.7598 17.4901 90.5998 17.1441C91.4498 16.7971 92.2897 16.5211 93.1297 16.3151C93.9697 16.1081 94.7898 15.9761 95.5898 15.9171C96.3998 15.8591 97.1697 15.8751 97.9097 15.9661C98.6497 16.0581 99.3398 16.2221 99.9798 16.4601C100.62 16.6981 101.21 17.0041 101.73 17.3791C102.25 17.7541 102.71 18.1911 103.09 18.6891Z" fill="white"/>
    </g>
    <mask id="mask21_171_22026" style="mask-type:luminance" maskUnits="userSpaceOnUse" x="-149" y="-27" width="441" height="467">
    <mask id="mask22_171_22026" style="mask-type:luminance" maskUnits="userSpaceOnUse" x="-149" y="-27" width="441" height="467">
    <mask id="mask23_171_22026" style="mask-type:luminance" maskUnits="userSpaceOnUse" x="-163" y="-27" width="455" height="467">
    <mask id="mask24_171_22026" style="mask-type:luminance" maskUnits="userSpaceOnUse" x="-1149" y="-371" width="1441" height="811">
    <path fill-rule="evenodd" clip-rule="evenodd" d="M-1148.94 -370.496H291.06V439.504H-1148.94V-370.496Z" fill="white"/>
    </mask>
    <g mask="url(#mask24_171_22026)">
    <path d="M-71.3903 -26.7919L984.78 110.085L893.21 816.674L-162.961 679.794L-71.3903 -26.7919Z" fill="white"/>
    </g>
    </mask>
    <g mask="url(#mask23_171_22026)">
    <path d="M-71.3903 -26.7919L345.13 27.1881L267.82 623.699L-148.7 569.72L-71.3903 -26.7919Z" fill="white"/>
    </g>
    </mask>
    <g mask="url(#mask22_171_22026)">
    <path d="M-71.3903 -26.7919L984.78 110.085L893.21 816.674L-162.961 679.804L-71.3903 -26.7919Z" fill="white"/>
    </g>
    </mask>
    <g mask="url(#mask21_171_22026)">
    <path d="M79.9697 41.5292C80.1997 41.6562 80.4098 41.8162 80.5998 42.0082C80.7898 42.2002 80.9497 42.4222 81.0897 42.6722C81.2297 42.9222 81.3397 43.1972 81.4197 43.4952C81.5097 43.7942 81.5597 44.1112 81.5897 44.4472C81.6097 44.7822 81.6097 45.1302 81.5797 45.4892C81.5497 45.8492 81.4897 46.2142 81.3997 46.5832C81.3097 46.9532 81.1897 47.3212 81.0497 47.6872C80.8997 48.0522 80.7397 48.4092 80.5397 48.7572C80.3497 49.1042 80.1397 49.4362 79.8997 49.7532C79.6697 50.0692 79.4197 50.3632 79.1597 50.6362C78.8897 50.9092 78.6097 51.1542 78.3297 51.3732C78.0397 51.5912 77.7497 51.7792 77.4497 51.9352C77.1497 52.0912 76.8497 52.2132 76.5497 52.3002C76.2597 52.3882 75.9697 52.4402 75.6797 52.4552C75.3897 52.4712 75.1198 52.4512 74.8598 52.3942C74.5898 52.3372 74.3498 52.2462 74.1198 52.1192C73.8898 51.9922 73.6798 51.8322 73.4898 51.6402C73.2998 51.4472 73.1397 51.2262 72.9997 50.9762C72.8597 50.7262 72.7497 50.4512 72.6697 50.1522C72.5797 49.8542 72.5297 49.5372 72.4997 49.2012C72.4797 48.8652 72.4797 48.5182 72.5097 48.1582C72.5397 47.7992 72.5997 47.4342 72.6897 47.0642C72.7797 46.6942 72.8997 46.3272 73.0397 45.9612C73.1897 45.5952 73.3597 45.2392 73.5497 44.8912C73.7397 44.5432 73.9497 44.2112 74.1897 43.8952C74.4197 43.5792 74.6697 43.2842 74.9297 43.0122C75.1997 42.7392 75.4797 42.4942 75.7597 42.2752C76.0497 42.0572 76.3397 41.8692 76.6397 41.7132C76.9397 41.5572 77.2397 41.4352 77.5397 41.3482C77.8297 41.2602 78.1297 41.2082 78.4097 41.1922C78.6997 41.1772 78.9698 41.1972 79.2298 41.2542C79.4998 41.3102 79.7397 41.4022 79.9697 41.5292Z" fill="white"/>
    </g>
    <mask id="mask25_171_22026" style="mask-type:luminance" maskUnits="userSpaceOnUse" x="-149" y="-27" width="441" height="467">
    <mask id="mask26_171_22026" style="mask-type:luminance" maskUnits="userSpaceOnUse" x="-149" y="-27" width="441" height="467">
    <mask id="mask27_171_22026" style="mask-type:luminance" maskUnits="userSpaceOnUse" x="-163" y="-27" width="455" height="467">
    <mask id="mask28_171_22026" style="mask-type:luminance" maskUnits="userSpaceOnUse" x="-1149" y="-371" width="1441" height="811">
    <path fill-rule="evenodd" clip-rule="evenodd" d="M-1148.94 -370.496H291.06V439.504H-1148.94V-370.496Z" fill="white"/>
    </mask>
    <g mask="url(#mask28_171_22026)">
    <path d="M-71.3903 -26.7919L984.78 110.085L893.21 816.674L-162.961 679.794L-71.3903 -26.7919Z" fill="white"/>
    </g>
    </mask>
    <g mask="url(#mask27_171_22026)">
    <path d="M-71.3903 -26.7919L345.13 27.1881L267.82 623.699L-148.7 569.72L-71.3903 -26.7919Z" fill="white"/>
    </g>
    </mask>
    <g mask="url(#mask26_171_22026)">
    <path d="M-71.3903 -26.7919L984.78 110.085L893.21 816.674L-162.961 679.804L-71.3903 -26.7919Z" fill="white"/>
    </g>
    </mask>
    <g mask="url(#mask25_171_22026)">
    <path d="M77.8497 245.676C76.9497 245.559 76.0497 245.398 75.1597 245.192C74.2697 244.987 73.3897 244.738 72.5297 244.446C71.6597 244.155 70.8097 243.821 69.9797 243.446C69.1497 243.072 68.3397 242.657 67.5497 242.202C66.7597 241.747 65.9896 241.255 65.2496 240.725C64.4996 240.195 63.7897 239.629 63.0997 239.029C62.4097 238.429 61.7596 237.796 61.1296 237.131C60.5096 236.467 59.9197 235.773 59.3597 235.05C58.7997 234.327 58.2797 233.579 57.7997 232.805C57.3197 232.031 56.8697 231.235 56.4697 230.417C56.0597 229.6 55.6998 228.764 55.3698 227.911C55.0498 227.057 54.7697 226.19 54.5297 225.309C54.2897 224.428 54.0997 223.538 53.9497 222.638C53.7997 221.738 53.6896 220.833 53.6296 219.922C53.5696 219.012 53.5497 218.1 53.5797 217.188C53.6097 216.276 53.6797 215.368 53.7997 214.463C53.9197 213.558 54.0797 212.661 54.2797 211.772C54.4897 210.883 54.7397 210.006 55.0297 209.141C55.3197 208.277 55.6497 207.428 56.0297 206.597C56.3997 205.765 56.8197 204.953 57.2697 204.162C57.7297 203.371 58.2196 202.604 58.7496 201.861C59.2796 201.118 59.8497 200.403 60.4497 199.716C61.0497 199.029 61.6797 198.373 62.3497 197.748C63.0097 197.123 63.6997 196.532 64.4297 195.975C65.1497 195.418 65.8997 194.898 66.6697 194.415C67.4497 193.931 68.2397 193.487 69.0597 193.082C69.8797 192.677 70.7097 192.312 71.5697 191.989C72.4197 191.666 73.2897 191.386 74.1697 191.148C75.0497 190.91 75.9397 190.716 76.8397 190.566C77.7397 190.415 78.6497 190.309 79.5597 190.248C80.4697 190.186 81.3797 190.17 82.2897 190.198C83.1997 190.226 84.1097 190.299 85.0197 190.416C85.9197 190.533 86.8197 190.695 87.7097 190.9C88.5997 191.106 89.4697 191.354 90.3397 191.646C91.1997 191.938 92.0496 192.271 92.8796 192.646C93.7196 193.021 94.5297 193.436 95.3197 193.891C96.1097 194.345 96.8798 194.838 97.6198 195.368C98.3598 195.898 99.0796 196.463 99.7596 197.063C100.45 197.664 101.11 198.296 101.73 198.961C102.36 199.626 102.95 200.32 103.51 201.043C104.06 201.765 104.58 202.514 105.07 203.288C105.55 204.062 105.99 204.858 106.4 205.675C106.81 206.493 107.17 207.328 107.49 208.182C107.82 209.035 108.1 209.902 108.33 210.783C108.57 211.664 108.77 212.555 108.92 213.455C109.07 214.355 109.17 215.26 109.23 216.17C109.3 217.081 109.31 217.992 109.28 218.904C109.26 219.816 109.18 220.725 109.07 221.63C108.95 222.534 108.79 223.431 108.58 224.32C108.37 225.208 108.12 226.085 107.83 226.949C107.54 227.813 107.21 228.661 106.83 229.493C106.46 230.324 106.04 231.135 105.59 231.926C105.13 232.717 104.64 233.483 104.11 234.226C103.58 234.968 103.01 235.683 102.41 236.37C101.81 237.057 101.18 237.713 100.51 238.337C99.8496 238.962 99.1597 239.553 98.4297 240.11C97.7097 240.667 96.9597 241.187 96.1897 241.67C95.4097 242.153 94.6197 242.598 93.7997 243.003C92.9797 243.408 92.1497 243.772 91.2997 244.096C90.4397 244.419 89.5797 244.7 88.6897 244.938C87.8097 245.176 86.9197 245.37 86.0197 245.521C85.1197 245.672 84.2197 245.779 83.3097 245.84C82.3997 245.903 81.4897 245.92 80.5797 245.892C79.6597 245.865 78.7597 245.793 77.8497 245.676ZM84.7297 192.578C83.8997 192.47 83.0597 192.403 82.2197 192.377C81.3797 192.352 80.5397 192.367 79.6997 192.424C78.8597 192.481 78.0197 192.578 77.1997 192.717C76.3697 192.856 75.5397 193.035 74.7297 193.254C73.9197 193.474 73.1197 193.732 72.3297 194.03C71.5497 194.328 70.7797 194.664 70.0197 195.038C69.2697 195.411 68.5397 195.821 67.8197 196.267C67.1097 196.712 66.4196 197.192 65.7496 197.705C65.0896 198.219 64.4497 198.764 63.8297 199.34C63.2197 199.916 62.6397 200.521 62.0897 201.154C61.5297 201.788 61.0097 202.447 60.5197 203.132C60.0297 203.817 59.5797 204.524 59.1597 205.253C58.7397 205.982 58.3596 206.73 58.0096 207.497C57.6696 208.264 57.3597 209.046 57.0897 209.843C56.8197 210.64 56.5997 211.448 56.4097 212.268C56.2197 213.088 56.0697 213.914 55.9597 214.749C55.8497 215.583 55.7796 216.42 55.7596 217.261C55.7296 218.102 55.7497 218.942 55.8097 219.781C55.8597 220.62 55.9597 221.455 56.0997 222.284C56.2397 223.114 56.4197 223.935 56.6397 224.747C56.8597 225.559 57.1097 226.358 57.4097 227.145C57.7097 227.931 58.0497 228.701 58.4197 229.455C58.7897 230.209 59.1997 230.942 59.6497 231.655C60.0897 232.369 60.5697 233.059 61.0897 233.725C61.5997 234.391 62.1497 235.031 62.7197 235.643C63.2997 236.256 63.8997 236.839 64.5397 237.393C65.1697 237.946 65.8296 238.467 66.5096 238.955C67.1996 239.444 67.9097 239.898 68.6397 240.317C69.3697 240.736 70.1096 241.118 70.8796 241.464C71.6496 241.809 72.4297 242.116 73.2297 242.385C74.0197 242.654 74.8297 242.883 75.6497 243.072C76.4697 243.262 77.2996 243.41 78.1296 243.518C78.9696 243.627 79.7997 243.694 80.6497 243.719C81.4897 243.745 82.3297 243.73 83.1697 243.673C83.9997 243.616 84.8397 243.519 85.6697 243.38C86.4997 243.241 87.3196 243.062 88.1296 242.843C88.9396 242.623 89.7397 242.365 90.5297 242.067C91.3197 241.769 92.0897 241.433 92.8397 241.06C93.5897 240.686 94.3297 240.277 95.0397 239.831C95.7497 239.385 96.4397 238.906 97.1097 238.393C97.7797 237.879 98.4197 237.334 99.0297 236.758C99.6397 236.182 100.23 235.577 100.78 234.943C101.33 234.31 101.85 233.651 102.34 232.966C102.83 232.281 103.28 231.574 103.7 230.845C104.12 230.116 104.51 229.368 104.85 228.601C105.2 227.834 105.5 227.052 105.77 226.255C106.04 225.458 106.27 224.65 106.46 223.83C106.65 223.011 106.8 222.184 106.91 221.35C107.01 220.516 107.08 219.678 107.1 218.838C107.13 217.997 107.11 217.157 107.06 216.318C107 215.479 106.9 214.645 106.76 213.816C106.62 212.986 106.44 212.166 106.22 211.354C106 210.542 105.74 209.743 105.45 208.957C105.15 208.17 104.81 207.4 104.44 206.647C104.06 205.894 103.65 205.16 103.21 204.447C102.76 203.734 102.28 203.044 101.77 202.378C101.26 201.712 100.71 201.072 100.14 200.46C99.5597 199.847 98.9597 199.264 98.3197 198.711C97.6897 198.157 97.0297 197.636 96.3397 197.148C95.6597 196.659 94.9497 196.205 94.2197 195.786C93.4997 195.366 92.7497 194.984 91.9797 194.638C91.2097 194.292 90.4297 193.984 89.6397 193.715C88.8397 193.446 88.0297 193.216 87.2097 193.026C86.3897 192.836 85.5697 192.687 84.7297 192.578Z" fill="white"/>
    <path d="M107.41 221.415C107.3 222.266 107.15 223.109 106.96 223.945C106.76 224.781 106.53 225.605 106.26 226.418C105.98 227.231 105.67 228.028 105.32 228.81C104.96 229.592 104.57 230.355 104.15 231.099C103.72 231.842 103.26 232.563 102.76 233.262C102.26 233.96 101.73 234.632 101.16 235.278C100.6 235.924 99.9996 236.541 99.3796 237.129C98.7496 237.716 98.0996 238.272 97.4196 238.795C96.7396 239.319 96.0396 239.808 95.3096 240.262C94.5796 240.717 93.8397 241.134 93.0697 241.515C92.2997 241.896 91.5097 242.239 90.7097 242.542C89.9097 242.846 89.0896 243.11 88.2696 243.333C87.4396 243.557 86.5996 243.74 85.7496 243.881C84.9096 244.023 84.0597 244.122 83.1997 244.18C82.3497 244.238 81.4896 244.254 80.6296 244.227C79.7696 244.201 78.9197 244.133 78.0697 244.022C77.2197 243.912 76.3696 243.76 75.5396 243.567C74.6996 243.374 73.8797 243.141 73.0697 242.866C72.2497 242.592 71.4596 242.279 70.6696 241.927C69.8896 241.574 69.1296 241.184 68.3796 240.757C67.6396 240.329 66.9197 239.867 66.2197 239.368C65.5197 238.87 64.8497 238.339 64.1997 237.775C63.5597 237.21 62.9397 236.616 62.3497 235.991C61.7697 235.366 61.2096 234.714 60.6896 234.034C60.1596 233.355 59.6697 232.651 59.2197 231.924C58.7597 231.196 58.3497 230.448 57.9697 229.68C57.5897 228.911 57.2396 228.126 56.9396 227.324C56.6396 226.522 56.3696 225.706 56.1496 224.878C55.9196 224.05 55.7397 223.213 55.5997 222.367C55.4597 221.521 55.3596 220.67 55.2996 219.814C55.2396 218.958 55.2296 218.102 55.2496 217.245C55.2796 216.387 55.3497 215.533 55.4597 214.682C55.5697 213.832 55.7196 212.989 55.9096 212.153C56.1096 211.317 56.3397 210.493 56.6097 209.68C56.8897 208.867 57.1996 208.07 57.5496 207.288C57.9096 206.506 58.2997 205.743 58.7197 204.999C59.1497 204.255 59.6097 203.534 60.1097 202.836C60.6097 202.138 61.1397 201.466 61.7097 200.82C62.2697 200.174 62.8697 199.557 63.4897 198.969C64.1197 198.382 64.7697 197.826 65.4497 197.303C66.1297 196.779 66.8296 196.29 67.5596 195.836C68.2896 195.381 69.0296 194.963 69.7996 194.583C70.5696 194.202 71.3596 193.859 72.1596 193.555C72.9596 193.252 73.7797 192.988 74.5997 192.764C75.4297 192.541 76.2697 192.358 77.1197 192.217C77.9597 192.075 78.8096 191.976 79.6696 191.918C80.5196 191.86 81.3797 191.844 82.2397 191.871C83.0997 191.897 83.9496 191.965 84.7996 192.076C85.6496 192.186 86.4997 192.337 87.3297 192.531C88.1697 192.724 88.9896 192.957 89.7996 193.231C90.6196 193.505 91.4097 193.819 92.1997 194.171C92.9797 194.524 93.7397 194.914 94.4897 195.341C95.2297 195.768 95.9496 196.231 96.6496 196.729C97.3496 197.228 98.0196 197.759 98.6696 198.323C99.3096 198.887 99.9296 199.482 100.52 200.107C101.1 200.732 101.66 201.384 102.18 202.063C102.71 202.743 103.2 203.446 103.65 204.174C104.1 204.901 104.52 205.649 104.9 206.418C105.28 207.187 105.63 207.972 105.93 208.774C106.23 209.576 106.5 210.391 106.72 211.22C106.95 212.048 107.13 212.885 107.27 213.731C107.41 214.577 107.51 215.428 107.57 216.284C107.63 217.139 107.64 217.996 107.62 218.853C107.59 219.711 107.52 220.565 107.41 221.415Z" fill="white" fill-opacity="0.2"/>
    </g>
    <mask id="mask29_171_22026" style="mask-type:luminance" maskUnits="userSpaceOnUse" x="-149" y="-27" width="441" height="467">
    <mask id="mask30_171_22026" style="mask-type:luminance" maskUnits="userSpaceOnUse" x="-149" y="-27" width="441" height="467">
    <mask id="mask31_171_22026" style="mask-type:luminance" maskUnits="userSpaceOnUse" x="-163" y="-27" width="455" height="467">
    <mask id="mask32_171_22026" style="mask-type:luminance" maskUnits="userSpaceOnUse" x="-1149" y="-371" width="1441" height="811">
    <path fill-rule="evenodd" clip-rule="evenodd" d="M-1148.94 -370.496H291.06V439.504H-1148.94V-370.496Z" fill="white"/>
    </mask>
    <g mask="url(#mask32_171_22026)">
    <path d="M-71.3903 -26.7919L984.78 110.085L893.21 816.674L-162.961 679.794L-71.3903 -26.7919Z" fill="white"/>
    </g>
    </mask>
    <g mask="url(#mask31_171_22026)">
    <path d="M-71.3903 -26.7919L345.13 27.1881L267.82 623.699L-148.7 569.72L-71.3903 -26.7919Z" fill="white"/>
    </g>
    </mask>
    <g mask="url(#mask30_171_22026)">
    <path d="M-71.3903 -26.7919L984.78 110.085L893.21 816.674L-162.961 679.804L-71.3903 -26.7919Z" fill="white"/>
    </g>
    </mask>
    <g mask="url(#mask29_171_22026)">
    <path d="M80.7097 202.696C80.9597 203.019 81.1596 203.376 81.3096 203.767C81.4596 204.158 81.5497 204.574 81.5997 205.017C81.6397 205.46 81.6296 205.921 81.5596 206.399C81.4996 206.877 81.3797 207.364 81.2097 207.859C81.0397 208.354 80.8196 208.849 80.5496 209.342C80.2896 209.835 79.9697 210.317 79.6197 210.789C79.2597 211.261 78.8696 211.714 78.4296 212.147C77.9996 212.579 77.5396 212.984 77.0496 213.361C76.5596 213.738 76.0596 214.08 75.5296 214.387C74.9996 214.693 74.4596 214.959 73.9096 215.184C73.3696 215.408 72.8196 215.587 72.2696 215.721C71.7296 215.855 71.1996 215.941 70.6696 215.979C70.1496 216.017 69.6496 216.006 69.1696 215.947C68.6896 215.888 68.2397 215.781 67.8297 215.626C67.4097 215.472 67.0296 215.273 66.6896 215.03C66.3496 214.786 66.0596 214.503 65.8096 214.179C65.5596 213.856 65.3597 213.499 65.2097 213.109C65.0597 212.718 64.9696 212.301 64.9196 211.858C64.8796 211.415 64.8897 210.955 64.9597 210.476C65.0197 209.998 65.1396 209.511 65.3096 209.016C65.4796 208.521 65.6997 208.027 65.9597 207.534C66.2297 207.041 66.5496 206.558 66.8996 206.086C67.2596 205.614 67.6497 205.162 68.0797 204.729C68.5197 204.296 68.9797 203.891 69.4697 203.514C69.9497 203.137 70.4597 202.796 70.9897 202.489C71.5197 202.182 72.0597 201.917 72.6097 201.692C73.1497 201.467 73.6996 201.288 74.2496 201.154C74.7896 201.02 75.3197 200.934 75.8497 200.896C76.3697 200.858 76.8697 200.869 77.3497 200.929C77.8297 200.988 78.2796 201.095 78.6896 201.249C79.1096 201.404 79.4897 201.602 79.8297 201.846C80.1697 202.09 80.4597 202.373 80.7097 202.696Z" fill="white"/>
    </g>
    <mask id="mask33_171_22026" style="mask-type:luminance" maskUnits="userSpaceOnUse" x="-149" y="-27" width="441" height="467">
    <mask id="mask34_171_22026" style="mask-type:luminance" maskUnits="userSpaceOnUse" x="-149" y="-27" width="441" height="467">
    <mask id="mask35_171_22026" style="mask-type:luminance" maskUnits="userSpaceOnUse" x="-163" y="-27" width="455" height="467">
    <mask id="mask36_171_22026" style="mask-type:luminance" maskUnits="userSpaceOnUse" x="-1149" y="-371" width="1441" height="811">
    <path fill-rule="evenodd" clip-rule="evenodd" d="M-1148.94 -370.496H291.06V439.504H-1148.94V-370.496Z" fill="white"/>
    </mask>
    <g mask="url(#mask36_171_22026)">
    <path d="M-71.3903 -26.7919L984.78 110.085L893.21 816.674L-162.961 679.794L-71.3903 -26.7919Z" fill="white"/>
    </g>
    </mask>
    <g mask="url(#mask35_171_22026)">
    <path d="M-71.3903 -26.7919L345.13 27.1881L267.82 623.699L-148.7 569.72L-71.3903 -26.7919Z" fill="white"/>
    </g>
    </mask>
    <g mask="url(#mask34_171_22026)">
    <path d="M-71.3903 -26.7919L984.78 110.085L893.21 816.674L-162.961 679.804L-71.3903 -26.7919Z" fill="white"/>
    </g>
    </mask>
    <g mask="url(#mask33_171_22026)">
    <path d="M65.7097 217.521C66.0097 217.688 66.2497 217.935 66.4297 218.263C66.6097 218.591 66.7196 218.975 66.7496 219.415C66.7896 219.854 66.7496 220.317 66.6296 220.801C66.5096 221.286 66.3297 221.756 66.0797 222.211C65.8197 222.667 65.5197 223.073 65.1797 223.431C64.8297 223.788 64.4597 224.069 64.0697 224.274C63.6797 224.478 63.2897 224.591 62.9197 224.611C62.5497 224.632 62.2097 224.559 61.9097 224.393C61.6097 224.227 61.3697 223.979 61.1797 223.651C60.9997 223.323 60.8898 222.94 60.8598 222.5C60.8198 222.06 60.8697 221.598 60.9797 221.113C61.0997 220.629 61.2897 220.159 61.5397 219.703C61.7897 219.247 62.0897 218.841 62.4397 218.484C62.7797 218.126 63.1497 217.845 63.5497 217.641C63.9397 217.436 64.3197 217.324 64.6897 217.303C65.0697 217.282 65.4097 217.355 65.7097 217.521Z" fill="white"/>
    </g>
    <mask id="mask37_171_22026" style="mask-type:luminance" maskUnits="userSpaceOnUse" x="126" y="136" width="166" height="304">
    <mask id="mask38_171_22026" style="mask-type:luminance" maskUnits="userSpaceOnUse" x="-1149" y="-371" width="1441" height="811">
    <path fill-rule="evenodd" clip-rule="evenodd" d="M-1148.94 -370.496H291.06V439.504H-1148.94V-370.496Z" fill="white"/>
    </mask>
    <g mask="url(#mask38_171_22026)">
    <path fill-rule="evenodd" clip-rule="evenodd" d="M126.46 136.239H291.3V439.744H126.46V136.239Z" fill="white"/>
    </g>
    </mask>
    <g mask="url(#mask37_171_22026)">
    <path d="M126.81 359.523C127 358.812 127.13 358.036 127.78 356.614C127.52 357.777 130.17 353.963 130.17 354.028C130.43 353.382 128.81 354.933 129.07 354.868C128.42 355.709 127.9 355.903 128.68 355.192C128.75 354.739 131.2 352.735 130.94 352.735C131.98 352.024 131.78 352.218 131.2 352.735C131.01 352.864 130.88 352.994 130.68 353.188C130.88 353.058 131.01 352.864 131.2 352.735C132.88 351.313 134.24 350.666 135.6 348.727C134.89 350.279 137.21 346.529 137.08 345.301C137.02 344.59 136.96 344.719 136.89 344.719C136.89 344.719 136.89 344.59 136.76 343.297C136.37 341.746 136.5 343.038 136.5 343.62C136.31 341.293 135.14 339.418 134.63 338.19C134.76 338.578 134.89 338.966 135.08 339.354C134.82 338.643 134.56 338.061 134.3 337.479L134.76 338.061C134.43 337.414 134.11 336.832 134.05 336.897C133.79 336.121 134.56 337.285 134.05 335.798C133.53 334.893 132.75 332.954 132.37 332.695C133.72 335.346 132.3 332.954 132.95 334.441C132.62 333.794 132.17 332.825 132.37 333.536C130.88 330.756 131.98 332.113 130.75 329.14C130.75 329.592 130.23 328.558 130.1 328.041C130.62 329.269 130.56 328.558 130.23 327.394C129.46 325.455 129.59 325.196 129.33 324.162C129.46 324.55 129.52 324.938 129.71 325.326C129.71 324.485 129.33 323.516 129.2 322.481C129.2 322.481 129.2 322.611 129.2 322.74C128.42 318.603 128.49 314.983 129.97 311.039C129.91 311.815 129.84 311.944 130.56 310.199C130.04 311.556 129.59 312.914 129.13 314.336C129.46 313.431 129.78 312.591 130.17 311.75C129.84 312.785 129.33 314.142 129.13 315.176C129.59 313.884 129.52 314.013 129.52 314.659C129.65 312.849 130.68 311.298 131.14 309.358H130.68C131.52 306.32 132.69 304.187 133.66 300.373C133.59 300.761 133.46 301.213 133.4 301.601C133.72 301.149 134.11 299.274 134.5 298.046C134.3 298.11 134.5 297.334 134.5 296.753C134.63 296.817 135.08 293.973 135.4 293.65C135.4 290.417 135.4 288.672 133.66 285.828C133.98 286.733 133.21 285.569 134.11 287.379C133.59 286.474 133.14 285.698 133.21 285.634C132.37 284.276 131.65 282.143 130.94 280.462C130.94 280.204 130.36 278.846 130.94 279.622C127.78 274.062 127.71 266.628 130.75 261.327C130.68 261.392 130.68 261.327 130.62 261.457C131.78 259 131.78 260.034 133.27 257.449C133.98 255.962 132.17 258.806 132.69 257.901C132.88 256.608 135.47 254.216 136.18 252.923L135.79 253.311C136.76 251.889 138.57 250.338 140.38 248.334C141.54 247.041 144.58 244.455 145.49 242.451C144.97 243.033 144.84 243.356 144.91 242.904C145.23 242.451 145.23 242.516 145.29 242.516C145.81 242.386 146.59 239.413 146.26 238.702C146.2 239.348 145.94 240.188 145.75 240.77C145.81 239.607 146.39 238.184 146.46 236.956L146.33 237.085C146.72 233.789 146.98 233.789 147.04 230.168V230.556C147.43 228.617 146.98 228.876 147.17 226.936C146.46 225.32 147.23 222.153 147.17 219.437C146.98 220.795 146.91 223.51 146.78 225.191C146.78 223.898 146.78 220.795 146.85 220.149C146.85 220.666 146.78 221.312 146.85 221.829C147.04 220.213 147.1 218.145 147.17 215.559C146.52 214.718 147.1 208.706 147.49 207.026C151.76 204.052 156.03 201.595 161.46 200.884C159.58 201.531 163.07 200.755 162.75 201.272C163.98 201.272 164.43 201.272 164.56 201.272H164.3C164.43 201.272 164.49 201.272 164.56 201.272C165.85 201.272 167.14 201.466 168.37 201.854C169.28 202.048 167.27 201.272 167.4 201.272C169.86 202.113 168.44 201.402 170.44 202.177C170.44 202.5 172.12 203.341 172.57 203.858C171.93 203.406 171.28 203.018 170.57 202.694C172.83 204.44 174.84 205.474 175.81 208.125C175.68 207.607 175.48 207.155 175.29 206.767C177.68 209.547 174.97 214.524 172.9 216.011C172.7 216.334 172.51 216.787 173.09 216.076C170.57 219.244 166.5 222.928 165.01 226.678C165.01 226.548 164.95 226.419 164.82 226.29C164.82 226.29 164.62 226.225 164.56 226.225C164.56 226.225 164.49 226.225 164.43 226.354C164.3 226.613 164.3 226.807 164.49 227.001C164.49 227.001 164.69 227.066 164.75 227.13C164.75 227.13 164.88 227.066 164.88 227.001H164.95C164.56 227.647 164.17 228.164 163.98 229.199C164.36 228.876 163.2 231.461 163.39 232.496C163.46 232.172 163.52 231.849 163.59 231.591C163.46 235.34 163.46 238.314 164.17 242.063C164.75 242.645 165.79 245.942 166.3 246.911C169.6 255.897 173.29 265.4 172.25 275.42C172.25 274.967 170.64 279.686 170.83 279.557L170.96 279.169C170.96 280.139 169.67 282.337 168.5 283.824H167.98C163.78 288.672 163.46 295.912 163.01 301.342H163.2C163.2 304.316 163.33 306.837 163.85 309.811V309.035C164.3 311.168 163.85 311.88 164.49 313.754L165.01 314.207C166.24 318.021 169.73 320.348 171.6 323.71C171.6 323.645 171.6 323.451 171.28 322.869C171.99 323.451 174.26 328.881 173.48 329.334C174.13 331.014 173.54 333.988 173.29 335.669L173.54 335.346C173.54 335.54 171.93 340.711 172.45 339.677C172.12 341.293 171.93 340.97 171.48 343.232L171.86 342.392C171.15 344.978 169.92 347.434 170.05 349.309C169.86 349.568 169.47 350.602 169.41 351.765C169.41 351.959 169.54 351.507 169.6 351.313C169.34 354.222 169.15 355.903 169.6 358.488C169.67 358.488 169.73 358.682 169.79 358.876C169.47 356.484 169.47 354.481 169.47 354.287C169.67 354.287 169.73 356.42 169.99 354.739C169.86 356.614 169.67 359.781 170.57 361.591V361.398C170.83 362.432 171.15 363.208 171.67 364.048C172.12 364.5 173.16 366.311 173.67 366.828C173.48 366.828 174.38 367.927 173.41 367.022C173.67 367.28 172.77 366.181 172.64 365.923C172.25 365.405 171.73 364.694 171.28 363.789C174.06 370.125 180.59 373.939 186.02 377.235C185.57 376.848 185.05 376.395 184.79 376.201C186.41 377.3 188.09 379.369 188.48 381.243C189.51 383.441 188.15 379.886 189.45 382.989L189.32 382.536C191.9 387.967 191.45 393.72 193.84 399.215C193.71 398.956 193.65 398.827 193.58 398.762C195.07 403.74 198.11 407.877 202.05 411.303C204.9 414.342 206.77 419.707 206.77 423.521L207.09 423.974C206.97 428.434 208.32 431.214 208.26 436.45L208.06 435.933C208.19 437.484 208.26 440.781 208.39 440.523C208.39 440.652 208.26 441.04 208.39 441.622H208.52V445.436C208.65 448.345 208.9 444.983 209.03 449.25C209.03 450.866 208.78 453.775 208.65 453.193C208.65 452.547 208.58 451.577 208.45 451.512V452.805V452.935C208.45 452.935 208.45 452.935 208.39 452.935C208.39 453.064 208.39 453.193 208.39 453.193C208.26 453.193 208.06 453.322 208 453.258L193.84 455.585L191.64 454.939L191.77 455.068C191.52 454.874 189.51 454.357 189.19 454.228C189.19 454.228 189.45 454.357 189.83 454.551C188.48 454.357 187.83 453.71 187.18 453.84L185.7 453.322C185.96 453.452 185.37 453.452 186.34 453.71C183.63 453.064 182.08 452.159 180.98 452.094H181.17C178.39 451.254 179.62 451.512 179.23 451.254C178.39 450.995 176.91 450.607 176.26 449.961C176.26 449.832 176.26 449.638 176.26 449.508C176 449.185 175.55 448.539 175.55 448.668C174.9 447.311 175.74 448.862 175.42 448.022C174.45 446.987 173.54 443.69 172.83 442.85C172.77 442.139 173.54 444.531 173.03 442.591C172.7 442.333 172.51 441.557 172.25 440.652C172.25 440.652 172.25 440.523 172.32 440.523C172.32 440.329 172.19 440.2 172.06 440.135C171.93 439.682 171.8 439.165 171.54 438.713C171.54 439.295 172.12 440.846 171.41 439.23C171.41 438.131 170.25 435.998 169.79 434.575C170.05 434.382 168.7 431.537 167.53 429.339C166.5 427.788 164.62 425.073 163.33 423.78C163.01 422.875 161.2 421.323 160.23 420.483C160.23 420.677 160.36 420.871 161 421.582C159.9 420.677 159.71 420.354 158.35 419.19L158.55 419.578C156.8 418.285 155.12 416.863 152.79 415.182C152.79 414.988 153.76 415.505 153.63 415.247C153.25 414.923 152.86 414.665 152.41 414.277C152.41 414.342 152.47 414.536 152.79 414.794C152.6 414.6 152.15 414.148 151.69 413.889C151.95 414.212 152.21 414.471 152.53 414.794C151.5 414.018 152.08 414.277 151.31 413.631C151.24 413.76 150.66 413.178 150.72 413.372C150.92 413.566 151.44 413.954 151.69 414.212C150.92 413.631 150.01 412.855 149.3 412.144C149.43 412.144 149.43 412.014 148.98 411.303C148.46 410.334 148.33 410.14 148.2 410.14C147.82 410.075 147.17 407.619 147.36 407.554C146.78 406.584 146.33 400.702 146.78 402.77C146.65 398.956 145.94 394.948 144.71 391.457H144.65C143.87 389.453 142.58 385.769 141.16 384.734C140.25 383.377 140.19 383.118 138.57 381.308C139.54 382.666 138.12 380.92 139.61 382.73C138.18 381.05 137.73 380.726 136.37 378.916C136.76 379.627 135.08 377.882 134.43 377.042L135.6 378.076C134.82 377.171 134.11 376.395 133.46 375.619L133.66 376.201C129.59 371.935 126.35 363.595 126.87 359.652L126.81 359.523ZM131.59 307.936H131.52C131.52 307.936 131.52 308.001 131.52 308.066H131.59C131.59 308.066 131.59 308.001 131.59 307.936ZM130.56 261.909C130.56 261.909 130.36 261.844 130.3 261.78C130.3 261.844 130.23 261.974 130.3 262.038C130.3 262.038 130.49 262.168 130.56 262.103C130.68 262.103 130.75 261.974 130.62 261.844L130.56 261.909ZM130.94 278.975C130.94 279.04 130.94 279.105 130.88 279.234C130.88 279.234 130.88 279.234 131.01 279.299C131.01 279.234 131.01 279.169 131.07 279.04C131.07 279.04 131.07 279.04 131.01 278.975H130.94ZM133.92 275.872C134.05 276.39 134.24 276.907 134.43 277.359C134.43 277.359 134.56 277.424 134.56 277.359C134.63 277.359 134.76 277.295 134.76 277.23C134.76 277.165 134.76 277.036 134.76 276.971C134.76 276.39 134.69 275.808 134.43 275.291C134.43 275.226 134.3 275.161 134.24 275.097C134.24 275.161 134.11 275.226 134.05 275.291C133.98 275.485 133.85 275.678 133.92 275.872ZM134.63 271.929C134.63 271.929 134.56 271.929 134.5 271.929C134.5 271.929 134.5 271.994 134.5 272.058C134.5 272.188 134.63 272.188 134.69 272.058C134.69 272.058 134.69 271.994 134.69 271.929H134.63ZM134.3 265.012C134.3 265.012 134.24 265.141 134.18 265.271C134.24 265.529 134.37 265.723 134.69 265.723C134.89 265.723 135.02 265.594 134.95 265.465C134.95 265.206 134.56 264.947 134.3 265.077V265.012ZM135.66 305.35L135.53 305.415C135.53 305.48 135.53 305.48 135.66 305.415C135.73 305.415 135.79 305.286 135.92 305.286C135.73 305.092 135.73 305.286 135.66 305.415V305.35ZM135.79 305.997C135.73 305.997 135.66 306.062 135.53 306.126C135.6 306.126 135.73 306.191 135.79 306.255C135.86 306.255 135.92 306.191 136.05 306.126C135.99 306.126 135.86 305.997 135.79 305.997ZM135.99 322.417C135.99 322.417 135.92 322.417 135.86 322.417C135.86 322.417 135.86 322.417 135.86 322.481C135.86 322.481 135.92 322.481 135.99 322.481C136.11 322.481 136.11 322.417 135.99 322.352V322.417ZM136.18 326.683C136.18 326.489 135.86 326.36 135.79 326.425C135.66 326.554 135.73 326.683 135.79 326.813C135.86 327.006 135.92 327.136 136.05 327.33C136.11 327.2 136.24 327.136 136.24 327.071C136.24 326.942 136.24 326.813 136.24 326.683H136.18ZM172.77 214.072C172.9 214.137 173.03 214.266 173.16 214.201C173.22 214.201 173.35 213.943 173.35 213.878C173.22 213.361 173.03 212.844 172.64 212.456C172.64 212.456 172.45 212.391 172.38 212.327C172.32 212.327 172.19 212.456 172.19 212.456C172.32 213.038 172.25 213.619 172.77 214.007V214.072ZM172.51 207.672V207.478C172.51 207.478 172.38 207.349 172.25 207.349C172.25 207.349 172.19 207.478 172.12 207.543C172.12 207.672 172.32 207.737 172.45 207.672H172.51ZM169.92 210.387C170.25 210.581 170.31 210.969 170.51 211.228C170.57 211.357 170.64 211.486 170.83 211.421C170.96 211.421 171.22 210.71 171.09 210.646C170.76 210.387 170.44 210.193 170.12 209.999C170.12 209.999 169.99 210.129 169.86 210.129C169.86 210.193 169.86 210.387 169.86 210.387H169.92ZM169.79 208.448C169.79 208.448 169.92 208.319 169.92 208.254C169.92 208.125 169.92 207.931 169.79 207.931C169.67 207.931 169.54 208.06 169.47 208.189C169.47 208.319 169.6 208.448 169.73 208.448H169.79ZM167.86 204.828C167.79 204.569 167.66 204.375 167.53 204.181C167.47 204.052 167.34 203.923 167.14 204.052C167.01 204.117 166.95 204.246 166.89 204.375C166.89 204.375 166.89 204.44 166.89 204.504C166.89 204.957 167.01 205.086 167.47 205.216C167.66 205.216 167.86 205.022 167.79 204.892L167.86 204.828ZM166.89 216.658C167.08 216.658 167.14 216.593 167.14 216.399C167.14 216.399 167.08 216.27 167.08 216.334C166.95 216.334 166.82 216.464 166.76 216.593C166.76 216.593 166.82 216.658 166.89 216.658ZM166.89 203.212C166.89 203.212 167.08 203.212 167.14 203.147C167.34 202.824 167.14 202.307 166.82 202.177C166.69 202.177 166.5 202.307 166.43 202.371C166.43 202.694 166.56 203.018 166.89 203.212ZM164.95 222.734C164.95 222.734 165.14 222.67 165.14 222.605C165.14 222.476 165.14 222.282 165.14 222.282C165.14 221.829 165.08 221.506 164.75 221.247C164.69 221.247 164.56 221.247 164.49 221.247C164.43 221.247 164.36 221.377 164.3 221.441C164.24 221.959 164.56 222.346 164.95 222.67V222.734ZM171.28 271.153H171.41C171.54 271.153 171.73 271.153 171.67 270.895C171.67 270.83 171.54 270.765 171.48 270.701C171.28 270.636 171.22 270.701 171.15 270.895V271.024C171.15 271.024 171.09 271.153 171.02 271.218C171.02 271.218 171.15 271.153 171.22 271.089L171.28 271.153ZM168.57 263.331L168.63 263.267C168.63 263.137 168.5 263.008 168.37 263.008C168.37 263.008 168.37 263.073 168.31 263.137C168.31 263.331 168.37 263.396 168.57 263.396V263.331ZM166.05 257.061C166.05 257.061 166.11 257.061 166.17 257.061V256.996C166.17 256.996 166.11 256.996 166.05 256.996V257.061ZM164.62 253.182C164.82 253.893 165.01 254.604 165.14 255.315C165.27 255.833 165.66 256.156 166.11 256.35C166.11 256.35 166.17 256.35 166.24 256.35C166.24 256.35 166.3 256.285 166.3 256.22C166.3 256.091 166.3 255.897 166.24 255.832C165.72 254.798 165.27 253.764 165.08 252.665C165.08 252.665 164.95 252.536 164.88 252.536C164.69 252.536 164.62 252.665 164.56 252.859C164.56 252.923 164.56 253.117 164.56 253.247L164.62 253.182ZM171.54 332.437C171.54 332.437 171.54 332.501 171.6 332.566C171.6 332.566 171.6 332.501 171.54 332.437C171.54 332.437 171.54 332.372 171.48 332.307C171.48 332.307 171.48 332.372 171.54 332.437ZM169.41 346.658C169.54 346.658 169.6 346.594 169.47 346.529C169.47 346.529 169.41 346.529 169.34 346.529C169.34 346.529 169.34 346.529 169.34 346.594C169.34 346.594 169.41 346.594 169.47 346.594L169.41 346.658ZM172.38 365.406C172.38 365.018 171.73 364.307 171.73 364.371C171.93 364.63 172.06 365.018 172.38 365.406ZM195.2 429.145C195.26 429.145 195.33 429.145 195.46 429.081C195.46 429.081 195.33 428.951 195.26 428.951C195.2 428.951 195.14 429.016 195.07 429.081C195.07 429.081 195.14 429.21 195.2 429.145ZM192.16 443.044C192.16 443.044 192.16 443.044 192.03 443.044C192.03 443.109 192.03 443.173 191.97 443.303C191.97 443.432 192.1 443.432 192.16 443.303C192.16 443.303 192.16 443.173 192.16 443.044ZM191.77 448.991C191.97 448.991 192.16 448.862 192.16 448.603C192.16 448.41 191.97 448.086 191.71 448.086C191.52 448.086 191.13 448.28 191.13 448.409C191.13 448.603 191.52 448.991 191.77 448.927V448.991ZM188.93 445.888C188.93 446.018 189.06 446.018 189.06 445.888C189.06 445.888 189.06 445.824 189.06 445.759H188.99C188.99 445.759 188.99 445.824 188.99 445.888H188.93ZM186.47 453.387C186.54 453.387 186.6 453.387 186.67 453.387L185.76 453.129C185.96 453.193 186.21 453.258 186.41 453.387H186.47ZM186.6 415.053C186.6 414.923 186.47 414.923 186.47 415.053C186.47 415.053 186.47 415.053 186.54 415.117L186.6 415.053ZM186.02 420.612C186.02 420.677 186.15 420.742 186.21 420.806C186.21 420.742 186.34 420.677 186.34 420.612C186.34 420.418 186.21 420.354 186.09 420.418C185.96 420.418 185.96 420.548 186.09 420.677L186.02 420.612ZM185.63 449.638C185.7 449.638 185.83 449.767 185.89 449.767C186.02 449.767 186.21 449.638 186.21 449.508C186.21 449.056 186.09 448.668 185.7 448.41C185.7 448.41 185.5 448.474 185.5 448.539C185.5 448.733 185.5 448.927 185.57 449.056C185.5 449.25 185.44 449.444 185.57 449.638H185.63ZM185.44 379.304C185.83 379.563 186.21 379.821 185.83 380.338V380.468C185.89 380.597 186.02 380.726 186.28 380.662C186.41 380.662 186.6 380.532 186.6 380.338C186.54 379.757 186.34 379.175 185.7 378.981C185.63 378.981 185.5 378.981 185.44 378.981C185.44 379.046 185.44 379.175 185.5 379.24L185.44 379.304ZM181.17 438.648C181.17 438.648 181.24 438.648 181.3 438.648V438.583C181.3 438.583 181.24 438.583 181.17 438.583V438.648ZM180.27 414.73C180.27 414.73 180.27 414.73 180.2 414.794C180.27 414.794 180.33 414.794 180.46 414.859C180.46 414.859 180.46 414.859 180.53 414.794C180.46 414.794 180.4 414.794 180.27 414.73ZM180.4 448.991C180.4 448.991 180.53 449.056 180.59 449.121C180.78 449.121 180.85 448.927 180.78 448.797C180.78 448.797 180.65 448.668 180.59 448.668C180.4 448.668 180.4 448.862 180.4 448.991ZM180.14 437.42C180.4 437.42 180.91 436.903 180.78 436.773C180.65 436.579 180.4 436.515 180.2 436.386C180.07 436.386 179.81 436.709 179.81 436.967C179.81 437.161 179.94 437.355 180.14 437.42ZM177.55 440.458H177.68C177.68 440.394 177.68 440.329 177.55 440.329C177.55 440.329 177.49 440.329 177.42 440.394C177.42 440.394 177.49 440.394 177.55 440.458ZM174.45 425.978C174.32 425.978 174.19 425.978 174 425.978C174.13 426.042 174.19 426.107 174.26 426.172C174.38 426.172 174.51 426.172 174.58 426.042C174.58 426.042 174.51 425.978 174.45 425.978ZM175.48 375.102C175.48 374.844 175.22 374.585 175.1 374.65C175.03 374.65 174.97 374.779 174.97 374.844C174.97 375.038 175.16 375.167 175.35 375.167C175.35 375.167 175.55 375.102 175.55 375.038L175.48 375.102ZM175.29 403.611C175.29 403.611 175.29 403.546 175.29 403.481C175.35 403.029 175.29 402.77 174.77 402.576C174.64 402.576 174.58 402.576 174.51 402.641C174.51 403.093 174.9 403.287 175.16 403.546C175.16 403.546 175.22 403.546 175.29 403.546V403.611ZM174.71 439.553C174.77 439.553 174.9 439.553 174.97 439.424C174.97 439.295 175.03 439.165 175.03 439.036C175.03 438.971 174.97 438.907 174.9 438.842H174.77C174.64 438.971 174.58 439.165 174.45 439.359C174.58 439.424 174.64 439.553 174.71 439.553ZM174.13 432.054H174.26C174.38 432.054 174.38 431.925 174.26 431.86C174.26 431.86 174.19 431.86 174.13 431.86C174.13 431.86 174.13 431.925 174.13 431.99V432.054ZM173.93 430.374C173.93 430.503 174.06 430.503 174.19 430.374C174.19 430.374 174.26 430.374 174.32 430.309C174.51 429.986 174.32 429.469 174.06 429.275H173.93C173.87 429.275 173.8 429.404 173.67 429.533C173.74 429.792 173.87 430.05 173.93 430.309V430.374ZM171.22 411.691H171.09C171.09 411.691 171.09 411.756 171.02 411.821C171.02 411.821 171.09 411.885 171.15 411.885C171.28 411.885 171.35 411.821 171.28 411.756L171.22 411.691ZM172.32 387.579C172.45 387.579 172.45 387.579 172.45 387.449C172.45 387.449 172.38 387.449 172.32 387.449C172.32 387.449 172.32 387.514 172.32 387.579C172.32 387.579 172.25 387.579 172.19 387.643C172.19 387.643 172.19 387.643 172.25 387.643L172.32 387.579ZM172.32 372.904C172.45 372.904 172.57 372.84 172.64 372.71C172.7 372.581 172.51 372.323 172.32 372.323C172.12 372.323 171.93 372.323 171.86 372.581C171.86 372.84 172.06 372.84 172.25 372.84L172.32 372.904ZM171.41 423.715C171.54 423.715 171.67 423.715 171.73 423.521C171.73 423.263 171.54 423.198 171.35 423.198C171.22 423.198 171.02 423.327 171.02 423.392C171.02 423.586 171.22 423.715 171.41 423.78V423.715ZM171.09 417.768C171.28 417.833 171.6 417.574 171.6 417.38C171.6 417.186 171.48 416.992 171.28 416.927C171.15 416.927 170.96 416.927 170.83 416.927C170.83 416.927 170.76 416.863 170.7 416.798V416.863C170.7 416.863 170.76 416.863 170.83 416.863C170.83 416.992 170.7 417.121 170.7 417.251C170.7 417.445 170.89 417.574 171.09 417.639V417.768ZM170.05 398.374C170.18 398.374 170.18 398.245 170.05 398.18C169.99 398.051 169.86 397.987 169.73 397.987C169.73 397.987 169.73 398.116 169.67 398.245C169.73 398.374 169.86 398.439 169.99 398.374H170.05ZM169.67 392.427C169.73 392.427 169.86 392.427 169.86 392.298C169.86 392.168 169.86 391.975 169.73 391.975C169.6 391.975 169.47 391.975 169.41 392.168C169.41 392.362 169.41 392.427 169.6 392.427H169.67ZM169.28 375.361C169.28 375.296 169.41 375.167 169.34 375.102C169.34 375.038 169.28 374.973 169.21 374.844C169.21 374.908 169.08 375.038 169.08 375.102C169.08 375.167 169.15 375.232 169.21 375.361H169.28ZM168.7 364.694C168.89 364.565 168.95 364.048 168.7 363.919C168.7 363.919 168.5 363.919 168.44 363.919C168.37 364.048 168.31 364.177 168.24 364.307C168.37 364.436 168.44 364.565 168.5 364.63H168.63L168.7 364.694ZM167.98 415.635C168.11 415.699 168.31 415.764 168.37 415.635C168.5 415.635 168.57 415.376 168.57 415.247C168.57 414.794 168.18 414.6 167.79 414.406C167.66 414.406 167.47 414.536 167.47 414.6C167.47 415.053 167.66 415.311 167.98 415.57V415.635ZM165.2 417.186C165.53 417.509 165.72 417.445 165.85 417.186C165.98 416.927 165.92 416.734 165.59 416.669C165.53 416.669 165.4 416.669 165.2 416.669C165.2 416.669 164.95 416.734 164.95 416.863C164.95 416.992 165.01 417.121 165.14 417.186H165.2ZM164.24 356.678C164.36 356.808 164.49 356.808 164.62 356.678C164.69 356.549 164.75 356.42 164.75 356.291C164.69 356.032 164.24 355.773 163.91 355.838C163.91 355.838 163.85 355.967 163.78 356.097C163.91 356.291 164.11 356.485 164.24 356.614V356.678ZM163.98 351.442C164.24 351.572 164.43 351.313 164.62 351.184V351.313C164.69 351.313 164.69 351.313 164.62 351.184C164.56 351.054 164.49 350.925 164.43 350.796C164.11 350.537 163.72 350.473 163.65 350.666C163.65 350.86 163.78 351.248 163.98 351.378V351.442ZM162.62 252.794C162.62 252.794 162.55 252.794 162.49 252.859C162.49 252.924 162.55 252.988 162.62 253.053L162.68 252.988C162.68 252.923 162.62 252.859 162.55 252.794H162.62ZM163.39 286.216C163.39 286.216 163.46 286.151 163.39 286.086C163.39 286.086 163.33 286.086 163.27 286.022H163.14C163.14 286.151 163.14 286.151 163.33 286.151L163.39 286.216ZM162.81 420.677C162.88 420.677 163.01 420.677 163.01 420.548C163.01 420.418 163.01 420.289 162.81 420.224C162.75 420.224 162.62 420.289 162.62 420.354C162.62 420.483 162.62 420.612 162.81 420.677ZM162.43 274.838C162.43 274.903 162.55 274.967 162.62 275.032C162.68 275.032 162.75 274.903 162.81 274.838C163.14 274.256 163.2 273.61 163.01 272.963C162.94 272.705 162.81 272.446 162.68 272.123C162.68 272.123 162.49 271.994 162.43 272.058C162.36 272.058 162.23 272.123 162.23 272.188C162.23 272.317 162.23 272.446 162.17 272.64C162.17 272.834 162.17 273.028 162.17 273.222C162.17 273.739 162.1 274.321 162.43 274.773V274.838ZM160.68 405.679C160.68 405.679 160.62 405.679 160.55 405.679V405.744C160.55 405.744 160.62 405.744 160.68 405.744C160.81 405.744 160.81 405.615 160.68 405.615V405.679ZM161.71 353.123C161.71 352.994 161.39 352.8 161.13 352.8C161.13 352.8 161 352.929 161 352.994C161 353.188 161.13 353.382 161.39 353.382C161.52 353.382 161.65 353.317 161.71 353.058V353.123ZM161 408.2C161.07 408.2 161.13 408.071 161.2 408.006C161.2 407.813 160.87 407.489 160.62 407.489C160.62 407.489 160.49 407.619 160.49 407.683C160.49 408.006 160.74 408.2 161.07 408.2H161ZM159.84 389.841C159.84 389.971 159.97 389.971 160.03 389.841C160.1 389.712 160.29 389.518 160.1 389.389C160.1 389.389 160.03 389.389 159.97 389.389C159.77 389.518 159.77 389.647 159.84 389.841ZM159.97 255.251C159.97 255.251 159.84 255.121 159.77 255.121C159.65 255.121 159.58 255.315 159.58 255.445C159.65 255.445 159.71 255.574 159.77 255.509C159.97 255.509 160.03 255.38 159.97 255.186V255.251ZM159.65 275.42C159.77 275.42 159.77 275.291 159.71 275.161C159.71 275.161 159.65 275.161 159.58 275.097C159.58 275.161 159.52 275.291 159.45 275.355C159.45 275.355 159.52 275.42 159.58 275.42H159.65ZM156.09 232.754C156.09 232.754 156.03 232.754 155.96 232.754C155.96 232.754 156.09 232.819 156.09 232.884C156.09 232.884 156.09 232.884 156.09 232.819C156.09 232.819 156.03 232.819 155.96 232.819L156.09 232.754ZM157.58 293.003C157.58 293.003 157.64 293.003 157.71 293.003C157.71 293.003 157.71 293.003 157.71 292.939C157.71 292.939 157.64 292.939 157.58 292.939C157.45 292.939 157.45 293.003 157.58 293.068V293.003ZM156.41 249.562C156.41 249.562 156.41 249.497 156.41 249.433C156.41 249.433 156.35 249.433 156.28 249.433C156.28 249.433 156.28 249.497 156.28 249.562C156.28 249.562 156.35 249.562 156.41 249.562ZM155.9 248.98C156.03 248.98 156.15 248.98 156.22 248.786C156.22 248.722 156.15 248.592 156.09 248.528C155.96 248.528 155.77 248.528 155.77 248.722C155.77 248.786 155.77 248.915 155.9 248.98ZM155.38 353.446C155.38 353.64 155.38 353.834 155.38 353.963C155.38 353.963 155.38 354.028 155.44 354.093C155.44 354.028 155.57 353.963 155.57 353.899C155.57 353.705 155.51 353.575 155.31 353.446C155.31 353.382 155.31 353.317 155.25 353.317C155.25 353.317 155.25 353.382 155.31 353.446H155.38ZM155.25 247.105C155.44 247.235 155.51 247.623 155.64 247.881C155.64 247.881 155.77 247.946 155.77 247.881C155.77 247.881 155.96 247.752 155.9 247.752C155.83 247.299 155.7 246.911 155.57 246.459C155.51 246.2 155.31 246.006 155.06 245.942C155.06 245.877 155.06 245.748 155.06 245.683C155.06 245.683 154.99 245.619 154.93 245.554C154.93 245.619 154.8 245.748 154.86 245.813C154.86 245.877 154.99 245.942 155.06 246.006C155.06 246.394 154.8 246.718 155.25 247.041V247.105ZM154.67 413.437C154.67 413.372 154.73 413.307 154.73 413.243C154.73 413.243 154.73 413.243 154.6 413.178C154.6 413.243 154.54 413.307 154.47 413.372C154.47 413.372 154.54 413.372 154.6 413.437H154.67ZM154.67 402.188C154.67 402.188 154.73 402.188 154.8 402.188L154.93 402.124C154.8 401.865 154.6 401.671 154.34 401.542H154.28C154.28 401.542 154.28 401.607 154.28 401.671C154.34 401.93 154.47 402.124 154.73 402.188H154.67ZM154.09 391.134H154.22C154.22 391.069 154.22 391.005 154.09 391.005C154.09 391.005 154.02 391.005 154.02 391.069C154.02 391.069 154.09 391.069 154.15 391.134H154.09ZM153.63 241.611C153.63 241.611 153.76 241.481 153.76 241.417C153.76 241.417 153.76 241.352 153.76 241.287C153.63 240.964 153.5 240.641 153.37 240.318C153.37 240.318 153.25 240.253 153.12 240.188C153.12 240.188 153.05 240.253 153.05 240.318C153.18 240.77 153.18 241.223 153.5 241.546L153.63 241.611ZM152.79 238.637C152.79 238.637 152.92 238.508 152.86 238.443C152.86 238.378 152.79 238.314 152.73 238.249C152.73 238.249 152.6 238.378 152.6 238.443C152.6 238.572 152.6 238.702 152.79 238.702V238.637ZM152.53 220.278C152.66 220.278 152.73 220.149 152.73 220.019C152.73 220.019 152.73 219.955 152.6 219.955C152.47 219.955 152.34 219.955 152.34 220.149C152.34 220.149 152.47 220.342 152.47 220.278H152.53ZM152.08 351.571C152.15 351.571 152.28 351.507 152.28 351.442C152.28 351.313 152.28 351.184 152.08 351.119C152.02 351.119 151.89 351.184 151.89 351.248C151.89 351.378 151.89 351.571 152.08 351.571ZM152.08 345.947C152.21 345.947 152.21 345.818 152.08 345.753C152.08 345.753 151.95 345.689 151.89 345.624C151.89 345.689 151.82 345.818 151.89 345.818C151.89 345.818 152.02 345.883 152.08 345.947ZM147.3 211.68C147.3 211.68 147.17 211.68 147.23 211.745C147.23 211.809 147.23 211.874 147.3 211.939C147.3 211.939 147.43 211.939 147.36 211.874C147.36 211.809 147.36 211.745 147.3 211.615V211.68ZM147.3 221.959C147.17 221.959 147.04 221.959 146.98 222.153C146.98 222.282 147.1 222.411 147.43 222.476C147.43 222.476 147.49 222.346 147.56 222.217C147.56 222.023 147.43 222.023 147.3 222.023V221.959ZM147.17 305.286L147.3 305.415C147.43 305.415 147.49 305.286 147.49 305.156C147.49 305.156 147.49 305.156 147.36 305.092C147.17 305.092 147.1 305.156 147.1 305.286H147.17ZM148.33 249.109C148.2 249.109 148.2 249.239 148.33 249.303H148.46C148.46 249.303 148.46 249.239 148.46 249.174C148.46 249.174 148.4 249.174 148.33 249.174V249.109ZM148.79 245.489L148.72 245.554L148.79 245.619C148.91 245.619 148.91 245.489 148.79 245.425V245.489ZM151.24 284.276L151.31 284.212C151.31 284.147 151.31 284.082 151.24 283.953L151.11 284.082C151.11 284.082 151.18 284.212 151.24 284.276ZM150.66 263.654C150.66 263.59 150.72 263.461 150.72 263.396C150.72 263.267 150.72 263.137 150.34 263.073C150.34 263.073 150.34 263.073 150.34 263.202C150.34 263.267 150.34 263.396 150.47 263.461C150.47 263.525 150.6 263.59 150.66 263.654ZM149.17 273.157C149.17 273.157 149.3 273.287 149.43 273.287C149.43 273.222 149.5 273.093 149.43 273.028C149.43 273.028 149.3 272.963 149.17 272.899C149.04 272.899 149.04 273.028 149.17 273.157ZM148.2 249.885C148.2 249.885 148.27 249.885 148.33 249.885C148.33 250.014 148.33 250.208 148.33 250.338C148.4 250.532 148.53 250.661 148.79 250.661C148.79 250.661 148.98 250.532 148.98 250.467C149.04 250.273 148.98 250.079 148.79 249.95C148.66 249.885 148.53 249.885 148.33 249.82C148.33 249.82 148.27 249.691 148.2 249.691V249.756V249.885ZM148.01 248.398C148.01 248.398 148.14 248.463 148.2 248.528C148.2 248.463 148.33 248.334 148.33 248.269C148.33 248.075 148.2 247.946 148.07 247.817C148.07 247.817 148.01 247.752 147.94 247.687V247.752C147.94 247.752 147.94 247.752 148.01 247.752C148.01 247.946 148.01 248.14 148.01 248.269V248.398ZM147.56 403.029C147.69 403.029 147.82 402.899 147.88 402.77C147.88 402.641 147.82 402.512 147.69 402.447C147.49 402.382 147.49 402.576 147.43 402.641C147.43 402.835 147.43 402.964 147.62 402.964L147.56 403.029ZM147.04 396.37C147.04 396.435 146.98 396.564 146.91 396.629C146.91 396.952 147.17 397.017 147.36 397.081C147.43 397.081 147.56 397.081 147.56 396.952C147.62 396.758 147.56 396.564 147.43 396.435C147.3 396.37 147.17 396.37 146.98 396.306C146.98 396.241 146.85 396.176 146.85 396.112C146.65 396.306 146.85 396.306 146.98 396.37H147.04ZM147.04 283.177C147.04 283.177 147.1 283.177 147.17 283.177C147.17 283.177 147.3 283.113 147.23 283.113C147.04 282.789 146.91 282.466 146.72 282.078C146.65 281.949 146.59 281.949 146.52 282.078C146.52 282.078 146.52 282.143 146.52 282.208C146.59 282.595 146.72 282.919 147.04 283.177ZM146.52 244.52C146.52 244.52 146.59 244.649 146.65 244.649C146.65 244.584 146.65 244.455 146.65 244.455C146.65 244.455 146.52 244.326 146.46 244.326C146.46 244.261 146.46 244.132 146.46 244.067C146.46 244.067 146.46 243.938 146.39 243.938C146.26 243.938 146.26 244.002 146.33 244.132C146.33 244.196 146.46 244.261 146.52 244.326C146.52 244.39 146.52 244.455 146.52 244.584V244.52ZM145.81 346.982C145.94 347.046 146.13 347.111 146.2 347.111C146.46 347.046 146.39 346.788 146.33 346.594C146.13 346.206 146.01 345.883 145.81 345.495C145.75 345.301 145.36 345.172 145.36 345.236C145.36 345.366 145.23 345.495 145.29 345.495C145.29 346.206 145.36 346.658 145.88 346.917L145.81 346.982ZM145.49 340.323C145.49 340.323 145.42 340.194 145.36 340.259C145.23 340.259 145.16 340.388 145.23 340.517C145.23 340.517 145.29 340.517 145.36 340.582C145.49 340.582 145.55 340.453 145.49 340.388V340.323ZM145.49 260.875V260.939C145.55 260.939 145.49 260.939 145.49 260.875C145.36 260.487 145.23 260.293 145.04 260.358C145.04 260.358 144.91 260.552 144.97 260.616C144.97 260.939 145.29 260.875 145.49 260.875ZM144.84 258.612C144.97 258.612 145.1 258.483 145.04 258.354C145.04 258.354 144.84 258.289 144.78 258.354C144.78 258.354 144.71 258.483 144.65 258.548C144.65 258.548 144.78 258.677 144.84 258.677V258.612ZM144 295.977C143.87 295.912 143.81 295.848 143.68 295.783C143.68 295.654 143.68 295.524 143.55 295.395C143.55 295.395 143.42 295.395 143.29 295.395C143.29 295.46 143.29 295.589 143.29 295.654C143.35 295.718 143.48 295.783 143.61 295.848C143.61 295.977 143.61 296.106 143.74 296.236C143.74 296.236 143.87 296.236 144 296.3C144 296.236 144 296.106 144 296.042V295.977ZM143.35 353.705C143.48 353.705 143.48 353.64 143.35 353.575C143.35 353.575 143.29 353.575 143.23 353.575C143.23 353.575 143.23 353.64 143.23 353.705C143.23 353.705 143.29 353.705 143.35 353.705ZM143.48 344.331C143.48 344.331 143.68 344.331 143.74 344.331C143.94 344.137 144.07 343.943 143.94 343.685C143.74 343.297 143.48 343.038 143.1 342.909H142.97C142.97 342.974 142.77 343.103 142.84 343.103C143.03 343.491 143.29 343.943 143.48 344.331ZM142.64 341.293C142.71 341.293 142.84 341.358 142.9 341.422C142.9 341.422 142.97 341.358 142.97 341.293C142.97 341.099 142.84 341.034 142.71 341.034C142.58 341.034 142.58 341.164 142.71 341.293H142.64ZM141.74 328.364L141.8 328.299C141.8 328.235 141.74 328.17 141.67 328.105C141.67 328.105 141.67 328.17 141.61 328.235C141.61 328.299 141.67 328.364 141.74 328.429V328.364ZM141.22 368.573C141.35 368.573 141.42 368.508 141.29 368.444C141.29 368.444 141.22 368.444 141.16 368.444C141.16 368.444 141.16 368.508 141.09 368.573C141.09 368.573 141.16 368.638 141.22 368.638V368.573ZM140.19 275.872C140.19 275.872 140.19 275.872 140.12 275.937L140.19 276.002C140.32 276.002 140.32 275.872 140.19 275.808V275.872ZM140.25 281.82C140.06 281.82 139.93 282.014 139.86 282.208C139.99 282.208 140.12 282.337 140.19 282.337C140.38 282.337 140.58 282.272 140.51 282.014C140.51 281.884 140.32 281.755 140.19 281.82H140.25ZM140.06 349.309C140.06 349.309 140.12 349.244 140.19 349.18H140.12C140.12 349.18 140.12 349.18 140.12 349.244C140.06 349.244 139.99 349.309 139.93 349.374C140.12 349.568 140.12 349.374 140.12 349.244L140.06 349.309ZM139.93 337.802C140.06 337.996 140.32 338.061 140.58 337.931C140.7 337.931 140.83 337.802 140.83 337.673C140.83 337.285 140.45 336.962 140.12 336.897C140.06 336.897 139.93 336.897 139.86 337.026C139.67 337.285 139.73 337.608 139.86 337.802H139.93ZM139.41 335.669C139.54 335.927 139.86 336.186 139.93 335.992C139.99 335.798 140.06 335.604 140.06 335.41C140.06 334.958 139.48 334.893 139.28 334.57C139.28 334.635 139.22 334.699 139.15 334.829C139.22 335.087 139.35 335.346 139.41 335.604V335.669ZM137.15 295.524C137.15 295.524 137.02 295.654 136.96 295.718C136.96 295.848 136.96 295.977 137.15 295.977C137.21 295.977 137.34 295.912 137.34 295.848C137.34 295.718 137.28 295.589 137.08 295.589L137.15 295.524ZM137.86 331.014C137.86 331.014 137.8 330.95 137.73 331.014C137.73 331.014 137.67 331.079 137.67 331.144C137.67 331.467 137.86 331.661 137.99 331.919C137.99 331.919 138.05 331.919 138.12 331.919C138.12 331.919 138.12 331.855 138.12 331.79C138.12 331.532 138.05 331.338 137.86 331.144V331.014ZM137.86 355.58C138.18 355.127 138.18 354.61 137.86 354.287C137.8 354.222 137.6 354.157 137.54 354.093C137.34 354.093 137.28 354.222 137.21 354.416C137.15 354.868 137.34 355.256 137.6 355.58C137.6 355.58 137.8 355.58 137.86 355.58ZM137.34 360.169H137.6C137.73 359.911 137.6 359.329 137.34 359.264C137.28 359.264 136.96 359.523 136.96 359.717C136.96 359.975 137.08 360.169 137.34 360.234V360.169ZM136.89 373.228C136.89 373.228 136.96 373.228 137.02 373.228V373.163C137.02 373.163 136.96 373.163 136.89 373.163V373.228Z" fill="#0EAB63"/>
    </g>
    </g>
    </g>
    <defs>
    <clipPath id="clip0_171_22026">
    <rect width="146.547" height="245.905" fill="white"/>
    </clipPath>
    </defs>
    </svg>
    