<svg width="90" height="90" viewBox="0 0 90 90" fill="none" xmlns="http://www.w3.org/2000/svg">
    <g clip-path="url(#clip0_171_22029)">
    <mask id="mask0_171_22029" style="mask-type:luminance" maskUnits="userSpaceOnUse" x="-361" y="-536" width="1441" height="819">
    <path d="M1079.53 -535.421H-360.469V282.079H1079.53V-535.421Z" fill="white"/>
    </mask>
    <g mask="url(#mask0_171_22029)">
    <mask id="mask1_171_22029" style="mask-type:luminance" maskUnits="userSpaceOnUse" x="-361" y="-220" width="456" height="495">
    <mask id="mask2_171_22029" style="mask-type:luminance" maskUnits="userSpaceOnUse" x="-361" y="-536" width="1441" height="811">
    <path fill-rule="evenodd" clip-rule="evenodd" d="M-360.469 -535.421H1079.53V274.579H-360.469V-535.421Z" fill="white"/>
    </mask>
    <g mask="url(#mask2_171_22029)">
    <path fill-rule="evenodd" clip-rule="evenodd" d="M-360.709 -219.062H94.3842V274.819H-360.709V-219.062Z" fill="white"/>
    </g>
    </mask>
    <g mask="url(#mask1_171_22029)">
    <path d="M44.5982 89.12C43.7042 89.121 42.8112 89.095 41.9182 89.042C41.0262 88.989 40.1363 88.909 39.2483 88.803C38.3613 88.696 37.4773 88.563 36.5973 88.403C35.7183 88.244 34.8443 88.058 33.9763 87.845C33.1073 87.633 32.2462 87.395 31.3922 87.131C30.5382 86.866 29.6933 86.577 28.8563 86.262C28.0193 85.947 27.1933 85.607 26.3773 85.2421C25.5613 84.8771 24.7563 84.488 23.9643 84.075C23.1713 83.662 22.3912 83.225 21.6252 82.765C20.8582 82.305 20.1063 81.822 19.3693 81.317C18.6323 80.812 17.9103 80.284 17.2043 79.736C16.4993 79.187 15.8103 78.617 15.1393 78.027C14.4673 77.437 13.8142 76.827 13.1802 76.197C12.5452 75.568 11.9303 74.92 11.3343 74.253C10.7383 73.587 10.1633 72.903 9.60926 72.201C9.05426 71.5 8.52126 70.783 8.01026 70.05C7.49826 69.316 7.01025 68.568 6.54325 67.806C6.07725 67.043 5.63427 66.267 5.21427 65.478C4.79527 64.688 4.39926 63.887 4.02826 63.074C3.65626 62.261 3.31025 61.437 2.98825 60.603C2.66625 59.769 2.36924 58.926 2.09824 58.074C1.82724 57.222 1.58225 56.363 1.36325 55.496C1.14325 54.629 0.950268 53.757 0.783268 52.879C0.616268 52 0.476248 51.118 0.362248 50.231C0.248248 49.345 0.161261 48.455 0.101261 47.563C0.0412613 46.671 0.0072552 45.778 0.0012552 44.884C-0.0057448 43.99 0.0152598 43.097 0.0622598 42.204C0.10926 41.311 0.183245 40.421 0.284245 39.533C0.385245 38.644 0.51324 37.76 0.66724 36.879C0.82124 35.999 1.00126 35.124 1.20826 34.254C1.41526 33.384 1.64725 32.521 1.90625 31.665C2.16525 30.81 2.44925 29.963 2.75925 29.124C3.06825 28.285 3.40324 27.457 3.76224 26.638C4.12224 25.82 4.50625 25.013 4.91425 24.217C5.32225 23.422 5.75426 22.64 6.20926 21.87C6.66426 21.101 7.14225 20.346 7.64325 19.605C8.14325 18.864 8.66624 18.139 9.21024 17.43C9.75424 16.721 10.3192 16.029 10.9052 15.354C11.4912 14.678 12.0973 14.021 12.7223 13.383C13.3483 12.744 13.9922 12.125 14.6552 11.525C15.3172 10.925 15.9983 10.345 16.6953 9.78599C17.3933 9.22699 18.1073 8.68999 18.8373 8.17399C19.5673 7.65799 20.3113 7.16404 21.0713 6.69304C21.8313 6.22104 22.6042 5.77404 23.3912 5.34904C24.1772 4.92404 24.9763 4.52302 25.7873 4.14702C26.5973 3.77002 27.4193 3.41805 28.2513 3.09105C29.0833 2.76405 29.9243 2.46202 30.7743 2.18602C31.6243 1.90902 32.4823 1.65803 33.3473 1.43303C34.2123 1.20803 35.0832 1.01002 35.9602 0.837018C36.8372 0.665018 37.7193 0.51903 38.6053 0.39903C39.4913 0.28003 40.3802 0.187015 41.2712 0.121015C42.1632 0.0550146 43.0553 0.0160102 43.9493 0.00401024C44.8433 -0.00798976 45.7362 0.00701658 46.6292 0.0480166C47.5222 0.0900166 48.4132 0.158034 49.3022 0.253034C50.1912 0.348034 51.0763 0.470001 51.9583 0.619C52.8393 0.767 53.7163 0.942048 54.5873 1.14305C55.4583 1.34505 56.3223 1.57199 57.1793 1.82499C58.0373 2.07799 58.8863 2.35699 59.7263 2.66099C60.5673 2.96599 61.3973 3.29503 62.2183 3.64903C63.0393 4.00403 63.8482 4.38202 64.6462 4.78502C65.4442 5.18802 66.2293 5.61505 67.0013 6.06505C67.7743 6.51605 68.5322 6.98903 69.2752 7.48503C70.0192 7.98103 70.7472 8.49901 71.4602 9.03801C72.1732 9.57801 72.8682 10.139 73.5472 10.72C74.2262 11.302 74.8873 11.904 75.5303 12.525C76.1722 13.146 76.7962 13.787 77.4002 14.446C78.0042 15.105 78.5882 15.781 79.1513 16.475C79.7153 17.169 80.2573 17.88 80.7773 18.606C81.2983 19.333 81.7963 20.075 82.2723 20.831C82.7493 21.588 83.2013 22.358 83.6313 23.142C84.0613 23.926 84.4672 24.723 84.8482 25.531C85.2302 26.3391 85.5873 27.158 85.9193 27.988C86.2523 28.818 86.5593 29.657 86.8413 30.506C87.1233 31.354 87.3793 32.21 87.6103 33.074C87.8403 33.938 88.0443 34.808 88.2223 35.684C88.4003 36.56 88.5523 37.44 88.6773 38.326C88.8023 39.211 88.9013 40.099 88.9723 40.99C89.0443 41.881 89.0883 42.774 89.1063 43.667C89.1243 44.561 89.1153 45.455 89.0793 46.348C89.0433 47.241 88.9812 48.133 88.8912 49.022C88.8022 49.912 88.6862 50.798 88.5433 51.68C88.4003 52.563 88.2313 53.44 88.0353 54.313C87.8393 55.185 87.6182 56.051 87.3702 56.91C87.1222 57.768 86.8493 58.619 86.5503 59.462C86.2513 60.304 85.9273 61.137 85.5783 61.96C85.2293 62.783 84.8553 63.595 84.4573 64.395C84.0592 65.196 83.6383 65.984 83.1923 66.759C82.7473 67.534 82.2792 68.295 81.7882 69.042C81.2972 69.789 80.7833 70.521 80.2483 71.237C79.7133 71.953 79.1573 72.652 78.5803 73.335C78.0023 74.017 77.4052 74.682 76.7882 75.329C76.1702 75.975 75.5342 76.603 74.8792 77.211C74.2243 77.82 73.5512 78.408 72.8612 78.976C72.1712 79.543 71.4643 80.09 70.7403 80.615C70.0173 81.141 69.2792 81.644 68.5252 82.125C67.7712 82.606 67.0042 83.063 66.2232 83.498C62.9182 85.343 59.4343 86.742 55.7703 87.694C52.1073 88.647 48.3832 89.122 44.5982 89.12ZM44.4602 2.03599C43.5712 2.03599 42.6833 2.06302 41.7963 2.11802C40.9083 2.17302 40.0232 2.25601 39.1412 2.36601C38.2592 2.47701 37.3813 2.61501 36.5073 2.78001C35.6343 2.94501 34.7662 3.13801 33.9052 3.35801C33.0432 3.57701 32.1893 3.82403 31.3433 4.09703C30.4973 4.37003 29.6603 4.669 28.8333 4.994C28.0053 5.32 27.1893 5.67104 26.3843 6.04704C25.5783 6.42404 24.7853 6.825 24.0053 7.252C23.2243 7.678 22.4582 8.12803 21.7062 8.60203C20.9542 9.07603 20.2173 9.57304 19.4963 10.094C18.7752 10.614 18.0713 11.156 17.3843 11.72C16.6973 12.285 16.0282 12.87 15.3782 13.476C14.7272 14.082 14.0963 14.708 13.4853 15.354C12.8743 15.999 12.2833 16.6631 11.7133 17.3461C11.1433 18.0281 10.5963 18.7281 10.0703 19.4451C9.54426 20.1621 9.04125 20.8951 8.56025 21.643C8.08025 22.391 7.62426 23.154 7.19226 23.931C6.75926 24.708 6.35127 25.497 5.96827 26.3C5.58527 27.102 5.22824 27.916 4.89624 28.741C4.56424 29.565 4.25824 30.4 3.97825 31.244C3.69825 32.088 3.44527 32.94 3.21827 33.799C2.99127 34.659 2.79227 35.525 2.61927 36.398C2.44727 37.27 2.30225 38.147 2.18525 39.028C2.06725 39.909 1.97726 40.794 1.91526 41.68C1.85326 42.567 1.81826 43.456 1.81226 44.345C1.80526 45.234 1.82625 46.1221 1.87525 47.0101C1.92425 47.8981 2.00126 48.783 2.10526 49.666C2.21026 50.549 2.34226 51.428 2.50126 52.303C2.66026 53.178 2.84725 54.047 3.06125 54.91C3.27425 55.773 3.51526 56.628 3.78226 57.476C4.05026 58.324 4.34324 59.163 4.66324 59.993C4.98324 60.823 5.32825 61.641 5.69925 62.449C6.07025 63.257 6.46624 64.053 6.88724 64.836C7.30824 65.62 7.75326 66.389 8.22126 67.144C8.69026 67.9 9.18325 68.64 9.69825 69.365C10.2132 70.089 10.7502 70.797 11.3102 71.488C11.8702 72.179 12.4502 72.852 13.0522 73.506C13.6532 74.161 14.2753 74.796 14.9163 75.412C15.5583 76.028 16.2182 76.623 16.8962 77.197C17.5752 77.772 18.2713 78.324 18.9843 78.855C19.6973 79.386 20.4272 79.8941 21.1722 80.3801C21.9172 80.8651 22.6763 81.326 23.4503 81.764C24.2243 82.202 25.0112 82.615 25.8102 83.004C26.6102 83.392 27.4213 83.755 28.2443 84.093C29.0663 84.431 29.8983 84.742 30.7403 85.028C31.5823 85.314 32.4323 85.573 33.2913 85.805C34.1493 86.038 35.0133 86.243 35.8843 86.421C36.7563 86.6 37.6312 86.751 38.5122 86.874C39.3922 86.998 40.2763 87.094 41.1623 87.162C42.0493 87.23 42.9363 87.271 43.8263 87.283C44.7153 87.296 45.6032 87.281 46.4912 87.238C47.3792 87.195 48.2653 87.125 49.1493 87.026C50.0323 86.928 50.9122 86.802 51.7882 86.649C52.6642 86.495 53.5343 86.315 54.3983 86.107C55.2633 85.899 56.1203 85.664 56.9702 85.403C57.8192 85.141 58.6603 84.8531 59.4923 84.539C60.3243 84.225 61.1452 83.885 61.9562 83.52C62.7662 83.154 63.5643 82.764 64.3503 82.348C65.1363 81.933 65.9092 81.493 66.6672 81.029C67.4262 80.566 68.1693 80.079 68.8973 79.568C69.6253 79.058 70.3373 78.5251 71.0323 77.9711C71.7263 77.4161 72.4033 76.84 73.0623 76.2421C73.7213 75.6451 74.3603 75.028 74.9803 74.391C75.6003 73.754 76.2002 73.098 76.7792 72.423C77.3582 71.748 77.9153 71.0561 78.4513 70.3461C78.9873 69.6371 79.5003 68.911 79.9903 68.1691C80.4803 67.4281 80.9473 66.671 81.3903 65.9C81.8333 65.13 82.2523 64.346 82.6453 63.548C83.0393 62.751 83.4083 61.9431 83.7513 61.1221C84.0953 60.3021 84.4123 59.472 84.7033 58.632C84.9953 57.792 85.2603 56.944 85.4983 56.087C85.7363 55.23 85.9483 54.3671 86.1323 53.4971C86.3163 52.6281 86.4733 51.753 86.6032 50.873C86.7322 49.993 86.8343 49.111 86.9083 48.225C86.9833 47.339 87.0293 46.451 87.0483 45.562C87.0673 44.673 87.0583 43.784 87.0212 42.896C86.9842 42.008 86.9202 41.121 86.8272 40.237C86.7352 39.353 86.6153 38.472 86.4683 37.595C86.3203 36.718 86.1463 35.847 85.9443 34.981C85.7422 34.115 85.5133 33.256 85.2573 32.405C85.0023 31.553 84.7203 30.71 84.4113 29.876C84.1033 29.042 83.7692 28.219 83.4092 27.406C83.0492 26.5931 82.6643 25.792 82.2542 25.003C81.8442 24.214 81.4093 23.439 80.9513 22.677C80.4923 21.915 80.0103 21.168 79.5053 20.437C79.0003 19.705 78.4723 18.99 77.9222 18.292C77.3722 17.593 76.8013 16.912 76.2083 16.249C75.6153 15.587 75.0033 14.943 74.3702 14.319C73.7372 13.694 73.0853 13.09 72.4143 12.506C71.7433 11.923 71.0553 11.3601 70.3493 10.8201C69.6432 10.279 68.9213 9.76103 68.1833 9.26603C67.4453 8.77003 66.6913 8.29902 65.9243 7.85002C65.1563 7.40202 64.3753 6.97802 63.5803 6.57902C62.7863 6.17902 61.9803 5.80504 61.1623 5.45604C60.3443 5.10704 59.5163 4.78404 58.6783 4.48704C57.8413 4.19004 56.9943 3.91903 56.1393 3.67503C52.3223 2.58603 48.4292 2.03999 44.4602 2.03599Z" fill="white"/>
    <path d="M87.1103 44.55C87.1103 45.945 87.0422 47.336 86.9052 48.724C86.7692 50.112 86.5642 51.491 86.2922 52.859C86.0202 54.227 85.6813 55.578 85.2773 56.913C84.8723 58.248 84.4023 59.559 83.8693 60.848C83.3353 62.137 82.7392 63.396 82.0822 64.627C81.4242 65.857 80.7083 67.052 79.9333 68.212C79.1583 69.371 78.3282 70.49 77.4432 71.569C76.5592 72.647 75.6232 73.679 74.6372 74.666C73.6502 75.652 72.6183 76.587 71.5403 77.472C70.4622 78.357 69.3433 79.187 68.1833 79.962C67.0233 80.737 65.8282 81.453 64.5982 82.111C63.3682 82.768 62.1093 83.364 60.8203 83.8979C59.5312 84.4319 58.2203 84.901 56.8853 85.306C55.5503 85.711 54.1992 86.049 52.8312 86.322C51.4632 86.594 50.0852 86.798 48.6972 86.935C47.3092 87.072 45.9172 87.14 44.5222 87.14C43.1282 87.14 41.7362 87.072 40.3482 86.935C38.9602 86.798 37.5823 86.594 36.2143 86.322C34.8463 86.049 33.4942 85.711 32.1602 85.306C30.8252 84.901 29.5133 84.4319 28.2253 83.8979C26.9363 83.364 25.6772 82.768 24.4472 82.111C23.2162 81.453 22.0212 80.737 20.8622 79.962C19.7022 79.187 18.5832 78.357 17.5052 77.472C16.4272 76.587 15.3943 75.652 14.4083 74.666C13.4223 73.679 12.4863 72.647 11.6013 71.569C10.7173 70.49 9.88724 69.371 9.11224 68.212C8.33724 67.052 7.62126 65.857 6.96326 64.627C6.30626 63.396 5.71024 62.137 5.17624 60.848C4.64224 59.56 4.17325 58.248 3.76825 56.913C3.36325 55.578 3.02523 54.227 2.75323 52.859C2.48123 51.491 2.27625 50.112 2.13925 48.724C2.00325 47.336 1.93427 45.945 1.93427 44.55C1.93427 43.155 2.00325 41.763 2.13925 40.375C2.27625 38.987 2.48123 37.609 2.75323 36.241C3.02523 34.873 3.36325 33.521 3.76825 32.186C4.17325 30.852 4.64224 29.54 5.17624 28.251C5.71024 26.962 6.30526 25.703 6.96326 24.473C7.62026 23.243 8.33724 22.048 9.11224 20.888C9.88724 19.728 10.7173 18.609 11.6013 17.531C12.4863 16.452 13.4223 15.42 14.4083 14.434C15.3943 13.447 16.4262 12.512 17.5052 11.627C18.5832 10.742 19.7022 9.91196 20.8622 9.13696C22.0212 8.36196 23.2163 7.64598 24.4463 6.98798C25.6773 6.33098 26.9363 5.73499 28.2253 5.20099C29.5133 4.66799 30.8252 4.19797 32.1602 3.79297C33.4942 3.38797 34.8463 3.04995 36.2143 2.77795C37.5823 2.50595 38.9602 2.301 40.3482 2.164C41.7362 2.028 43.1282 1.95898 44.5222 1.95898C45.9172 1.95898 47.3092 2.028 48.6972 2.164C50.0852 2.301 51.4632 2.50595 52.8312 2.77795C54.1992 3.04995 55.5503 3.38797 56.8853 3.79297C58.2203 4.19797 59.5312 4.66799 60.8203 5.20099C62.1093 5.73499 63.3682 6.33098 64.5982 6.98798C65.8282 7.64598 67.0233 8.36196 68.1833 9.13696C69.3433 9.91196 70.4622 10.742 71.5403 11.627C72.6183 12.512 73.6502 13.447 74.6372 14.434C75.6232 15.42 76.5592 16.452 77.4432 17.531C78.3282 18.609 79.1583 19.728 79.9333 20.888C80.7083 22.048 81.4242 23.243 82.0822 24.473C82.7392 25.703 83.3353 26.962 83.8683 28.251C84.4023 29.54 84.8723 30.852 85.2773 32.186C85.6813 33.521 86.0202 34.873 86.2922 36.241C86.5642 37.609 86.7692 38.987 86.9052 40.375C87.0422 41.763 87.1103 43.155 87.1103 44.55Z" fill="white" fill-opacity="0.2"/>
    </g>
    <mask id="mask3_171_22029" style="mask-type:luminance" maskUnits="userSpaceOnUse" x="-361" y="-220" width="456" height="495">
    <mask id="mask4_171_22029" style="mask-type:luminance" maskUnits="userSpaceOnUse" x="-361" y="-536" width="1441" height="811">
    <path fill-rule="evenodd" clip-rule="evenodd" d="M-360.469 -535.421H1079.53V274.579H-360.469V-535.421Z" fill="white"/>
    </mask>
    <g mask="url(#mask4_171_22029)">
    <path fill-rule="evenodd" clip-rule="evenodd" d="M-360.709 -219.062H94.3842V274.819H-360.709V-219.062Z" fill="white"/>
    </g>
    </mask>
    <g mask="url(#mask3_171_22029)">
    <path d="M51.9283 14.8481C52.8943 15.1221 53.8343 15.4571 54.7463 15.8511C55.6583 16.2441 56.5263 16.6901 57.3493 17.1881C58.1723 17.6861 58.9353 18.2271 59.6383 18.8101C60.3403 19.3931 60.9693 20.0071 61.5243 20.6531C62.0793 21.2981 62.5493 21.9631 62.9353 22.6461C63.3213 23.3301 63.6153 24.0191 63.8173 24.7141C64.0193 25.4091 64.1253 26.0961 64.1363 26.7751C64.1473 27.4551 64.0613 28.1141 63.8803 28.7521C63.6983 29.3911 63.4243 29.9961 63.0583 30.5691C62.6913 31.1411 62.2403 31.6701 61.7023 32.1551C61.1653 32.6391 60.5523 33.0711 59.8653 33.4491C59.1773 33.8271 58.4273 34.1451 57.6163 34.4021C56.8053 34.6591 55.9473 34.8511 55.0433 34.9771C54.1383 35.1041 53.2053 35.1621 52.2433 35.1531C51.2813 35.1431 50.3093 35.0661 49.3263 34.9211C48.3433 34.7761 47.3683 34.5671 46.4023 34.2921C45.4363 34.0171 44.4963 33.6831 43.5843 33.2891C42.6723 32.8951 41.8043 32.4491 40.9813 31.9511C40.1583 31.4531 39.3953 30.9131 38.6923 30.3301C37.9903 29.7471 37.3613 29.1331 36.8063 28.4871C36.2513 27.8411 35.7813 27.1771 35.3953 26.4941C35.0093 25.8101 34.7153 25.1211 34.5133 24.4261C34.3113 23.7311 34.2053 23.0441 34.1943 22.3641C34.1843 21.6851 34.2693 21.0261 34.4503 20.3871C34.6323 19.7491 34.9063 19.1431 35.2723 18.5711C35.6393 17.9981 36.0913 17.4701 36.6283 16.9851C37.1653 16.5011 37.7783 16.0691 38.4653 15.6911C39.1533 15.3131 39.9033 14.9951 40.7143 14.7381C41.5263 14.4811 42.3833 14.2891 43.2883 14.1621C44.1923 14.0361 45.1253 13.9781 46.0873 13.9871C47.0493 13.9971 48.0223 14.0741 49.0053 14.2191C49.9883 14.3631 50.9623 14.5731 51.9283 14.8481Z" fill="white"/>
    </g>
    <mask id="mask5_171_22029" style="mask-type:luminance" maskUnits="userSpaceOnUse" x="-361" y="-220" width="456" height="495">
    <mask id="mask6_171_22029" style="mask-type:luminance" maskUnits="userSpaceOnUse" x="-361" y="-536" width="1441" height="811">
    <path fill-rule="evenodd" clip-rule="evenodd" d="M-360.469 -535.421H1079.53V274.579H-360.469V-535.421Z" fill="white"/>
    </mask>
    <g mask="url(#mask6_171_22029)">
    <path fill-rule="evenodd" clip-rule="evenodd" d="M-360.709 -219.062H94.3842V274.819H-360.709V-219.062Z" fill="white"/>
    </g>
    </mask>
    <g mask="url(#mask5_171_22029)">
    <path d="M29.9932 23.4831C30.0292 23.7571 30.0252 24.0351 29.9792 24.3151C29.9342 24.5951 29.8492 24.8721 29.7242 25.1471C29.5992 25.4211 29.4363 25.688 29.2353 25.947C29.0353 26.206 28.8013 26.4521 28.5333 26.6851C28.2653 26.9181 27.9682 27.1341 27.6432 27.3331C27.3182 27.5311 26.9702 27.7091 26.6002 27.8651C26.2302 28.0211 25.8452 28.1531 25.4452 28.2611C25.0442 28.3681 24.6372 28.4501 24.2212 28.5051C23.8062 28.5611 23.3902 28.5891 22.9762 28.5891C22.5612 28.5901 22.1553 28.5641 21.7573 28.5101C21.3593 28.4561 20.9772 28.3761 20.6122 28.2691C20.2462 28.1631 19.9032 28.032 19.5842 27.877C19.2642 27.722 18.9732 27.546 18.7122 27.348C18.4512 27.151 18.2242 26.9361 18.0312 26.7041C17.8382 26.4711 17.6843 26.226 17.5673 25.968C17.4503 25.709 17.3732 25.4431 17.3372 25.1681C17.3002 24.8941 17.3042 24.6171 17.3492 24.3371C17.3952 24.0571 17.4802 23.7791 17.6052 23.5051C17.7302 23.2301 17.8932 22.9631 18.0942 22.7041C18.2942 22.4451 18.5283 22.1991 18.7963 21.9661C19.0643 21.7331 19.3612 21.5171 19.6862 21.3191C20.0112 21.1201 20.3592 20.9431 20.7292 20.7871C21.0992 20.6301 21.4842 20.4991 21.8842 20.3911C22.2842 20.2831 22.6922 20.2011 23.1082 20.1461C23.5232 20.0911 23.9382 20.063 24.3532 20.062C24.7682 20.061 25.1742 20.0881 25.5722 20.1421C25.9702 20.1961 26.3512 20.276 26.7172 20.382C27.0832 20.489 27.4262 20.6191 27.7452 20.7741C28.0652 20.9291 28.3562 21.1051 28.6172 21.3031C28.8782 21.5001 29.1052 21.7151 29.2982 21.9481C29.4902 22.1801 29.6452 22.425 29.7622 22.684C29.8792 22.942 29.9562 23.2091 29.9932 23.4831Z" fill="white"/>
    </g>
    </g>
    </g>
    <defs>
    <clipPath id="clip0_171_22029">
    <rect width="89.1153" height="89.1201" fill="white"/>
    </clipPath>
    </defs>
    </svg>
    