<svg width="811" height="148" viewBox="0 0 811 148" fill="none" xmlns="http://www.w3.org/2000/svg">
<g id="CH&#195;&#131;O">
<path id="Vector" d="M809.989 145.589C809.989 146.259 809.412 146.836 808.742 146.836C808.445 146.836 808.128 146.817 807.812 146.836C800.816 147.413 793.485 146.78 786.452 146.743C771.008 146.668 755.564 146.612 740.121 146.538C690.051 146.334 639.999 146.129 589.928 145.943C524.284 145.682 458.658 145.44 393.033 145.217C323.946 144.994 254.878 144.789 185.792 144.622C124.687 144.492 63.5646 144.38 2.46015 144.38C1.77208 144.38 1.19508 143.803 1.19508 143.115C1.19508 123.317 1.19508 103.501 1.19508 83.7039C0.301964 83.3874 0.469424 82.1595 1.19508 81.7874C1.19508 61.9894 1.19508 42.1737 1.19508 22.3762C1.19508 20.7946 3.57674 20.7574 3.70717 22.2273C3.74401 22.2459 3.78122 22.2645 3.81844 22.2831C24.0254 33.8749 48.0092 28.2371 69.0722 22.3946C79.5661 19.4735 90.0979 16.5335 100.964 15.3799C111.551 14.2451 121.804 15.3242 131.87 18.7849C141.303 22.0226 150.607 26.6185 160.729 27.1207C171.558 27.6605 181.977 23.6044 192.788 23.7345C206.613 23.9019 220.531 26.0417 234.206 27.9396C242.747 29.1118 251.25 30.5073 259.735 31.9214C273.113 30.5443 286.547 30.4515 299.962 31.6609C316.969 33.1865 333.808 36.2939 350.87 37.5034C412.235 41.8389 471.069 19.3807 531.262 11.8262C560.009 8.19808 589.556 8.2353 617.466 16.813C632.463 21.4274 647.088 28.777 662.978 29.6516C678.068 30.4889 691.428 24.1068 704.229 16.8686C714.575 11.0449 725.404 3.75091 737.275 1.57393C747.006 -0.212125 757.146 0.718208 766.859 2.20674C781.149 4.38353 795.457 8.04923 809.077 12.9242C809.58 13.1102 809.971 13.5382 809.971 14.1148C809.971 57.9341 809.989 101.771 809.989 145.589Z" fill="#D8B880"/>
<path id="Vector_2" d="M809.975 14.1091C809.975 13.5334 809.586 13.1054 809.07 12.9206C795.451 8.0444 781.154 4.38224 766.861 2.2034C757.149 0.722867 747.008 -0.214536 737.27 1.56947C725.395 3.74515 714.579 11.0377 704.238 16.8731C691.424 24.1036 678.074 30.4917 662.981 29.654C647.083 28.7715 632.46 21.423 617.461 16.8139C589.547 8.23586 560.008 8.20665 531.262 11.8195C471.074 19.384 412.23 41.8415 350.862 37.5038C333.814 36.2988 316.975 33.1785 299.959 31.654C286.567 30.4543 273.153 30.5612 259.791 31.9238C251.276 30.5106 242.765 29.1181 234.215 27.9321C220.535 26.0348 206.617 23.9105 192.783 23.7352C181.977 23.5984 171.553 27.6569 160.731 27.1188C150.616 26.6159 141.302 22.0241 131.877 18.7836C121.804 15.3209 111.552 14.2386 100.96 15.3765C90.1056 16.5428 79.5588 19.4752 69.0704 22.3888C48.0123 28.2386 24.0332 33.8796 3.81669 22.2898C3.77408 22.2655 3.73408 22.2664 3.69203 22.2482C3.54671 20.7667 1.18925 20.7983 1.18925 22.379C1.18925 42.1919 1.18925 62.0052 1.18925 81.8181C0.481078 82.1897 0.333713 83.3494 1.18925 83.6983C1.18925 103.504 1.18925 123.31 1.18925 143.115C1.18925 143.799 1.76866 144.38 2.45394 144.38C63.5677 144.381 124.681 144.489 185.795 144.628C254.875 144.785 323.955 144.99 393.035 145.22C458.663 145.438 524.292 145.679 589.92 145.937C639.99 146.134 690.06 146.333 740.13 146.544C755.571 146.61 771.012 146.676 786.453 146.743C793.48 146.774 800.809 147.412 807.82 146.838C808.123 146.813 808.438 146.841 808.743 146.842C809.416 146.845 809.988 146.269 809.988 145.596C809.984 101.767 809.979 57.9381 809.975 14.1091ZM122.646 18.9572C132.64 21.1524 141.786 26.0395 151.712 28.4674C156.651 29.6754 161.661 30.1286 166.732 29.7145C171.875 29.2943 176.93 28.2146 182.017 27.3972C189.973 26.1185 197.746 26.5336 205.721 27.253C213.086 27.9172 220.43 28.8018 227.761 29.7664C235.105 30.7326 242.435 31.8066 249.765 32.8726C250.096 32.9207 250.427 32.9717 250.759 33.0201C226.008 36.5327 201.952 43.7307 178.307 51.7125C128.14 68.6474 76.5312 90.8483 22.3977 85.2408C16.1085 84.5894 9.8827 83.5132 3.7185 82.1231C3.7185 62.9655 3.7185 43.8081 3.7185 24.6505C41.9788 46.2686 82.98 10.2448 122.646 18.9572ZM753.134 144.097C705.843 143.886 658.551 143.68 611.258 143.492C546.876 143.235 482.493 142.994 418.111 142.775C348.662 142.538 279.214 142.324 209.765 142.155C147.328 142.003 84.8908 141.881 22.4534 141.855C16.2084 141.852 9.9635 141.851 3.71873 141.851C3.71873 122.665 3.71873 103.48 3.71873 84.2945C55.5602 95.7712 106.611 79.098 155.321 62.1187C181.025 53.1587 206.793 44.0284 233.486 38.4322C242.056 36.6356 250.711 35.2194 259.418 34.3031C259.599 34.3189 259.767 34.3044 259.918 34.2554C264.787 33.754 269.67 33.4027 274.566 33.2399C290.715 32.7031 306.68 34.5786 322.66 36.6979C339.048 38.8715 355.372 40.73 371.932 40.3649C386.613 40.0413 401.24 38.4079 415.737 36.131C445.978 31.3814 475.663 23.7516 505.759 18.236C535.345 12.814 565.91 9.34334 595.823 14.2492C610.882 16.7188 624.776 22.0848 639.172 26.8903C652.999 31.5059 667.168 34.0589 681.456 29.9469C694.246 26.2659 705.446 18.754 717.038 12.4722C727.571 6.76409 737.453 2.95884 749.515 3.09355C768.296 3.30325 787.248 8.2796 804.998 14.1342C805.838 14.4112 806.674 14.6996 807.51 14.9892C807.505 58.1077 807.501 101.226 807.497 144.345C789.376 144.26 771.255 144.178 753.134 144.097Z" fill="#D8B880"/>
<path id="Vector_3" d="M348.848 98.6721C336.085 98.1372 323.286 98.2419 310.575 99.5859C297.856 100.931 284.714 103.121 272.616 107.377C271.965 107.606 271.079 107.227 270.768 106.626C267.119 99.5489 258.759 98.2179 251.497 98.3599C223.973 98.8982 199.806 120.632 171.674 114.449C170.281 114.143 170.898 112.127 172.254 112.347C180.486 113.685 188.951 112.539 196.931 110.341C211.018 106.461 224.203 99.7414 238.509 96.5798C245.201 95.1007 252.269 94.3191 259.079 95.4087C264.6 96.2916 270.328 98.8716 273.041 103.912C285.206 100.984 297.22 98.1282 309.699 96.7203C322.698 95.2537 335.821 94.9022 348.848 96.1718C350.422 96.3249 350.478 98.7398 348.848 98.6721ZM112.458 55.0438C105.751 58.825 97.9265 57.8962 90.6614 56.6231C86.8682 55.9585 83.0671 55.2228 79.2116 55.0425C75.4726 54.868 71.8925 55.434 68.2679 56.2936C64.6669 57.1476 61.0096 58.2274 57.2684 58.0119C53.2603 57.7812 49.7072 55.8076 45.9509 54.6075C41.2443 53.1039 35.0781 53.0652 32.2216 57.7948C31.5356 58.9311 33.1964 59.8067 33.9537 58.8072C38.4931 52.8156 46.8665 57.8562 52.156 59.5894C59.0304 61.8421 65.4259 59.2785 72.2 58.0504C85.7554 55.5929 100.952 65.2164 113.543 56.9018C114.692 56.1432 113.675 54.3579 112.458 55.0438ZM669.749 36.8554C659.547 39.1258 652.124 46.3338 644.23 52.6638C639.85 56.1758 635.206 59.3711 629.913 61.3421C624.054 63.524 617.82 64.4385 611.609 64.8614C599.135 65.7104 586.669 65.4157 574.215 66.7879C561.623 68.1752 549.144 70.5044 536.916 73.822C523.044 77.5857 509.577 82.5835 496.609 88.7816C495.181 89.4639 496.427 91.5272 497.841 90.8903C521.486 80.2417 546.747 73.0535 572.518 70.0482C585.003 68.5922 597.473 68.7498 609.994 68.0517C621.197 67.4273 632.116 65.2449 641.423 58.6566C650.831 51.9969 658.795 42.0299 670.36 39.0703C671.797 38.7025 671.189 36.5352 669.749 36.8554Z" fill="#C48551"/>
</g>
</svg>
