<svg width="708" height="136" viewBox="0 0 708 136" fill="none" xmlns="http://www.w3.org/2000/svg">
<g id="CHAO2" clip-path="url(#clip0_104_3234)">
<g id="Clip path group">
<mask id="mask0_104_3234" style="mask-type:luminance" maskUnits="userSpaceOnUse" x="0" y="-655" width="1441" height="818">
<g id="clip0_103_8241">
<path id="rect532" d="M1440.21 -654.918H0.211914V162.582H1440.21V-654.918Z" fill="white"/>
</g>
</mask>
<g mask="url(#mask0_104_3234)">
<g id="g528">
<g id="g535">
<g id="Mask group">
<mask id="mask1_104_3234" style="mask-type:luminance" maskUnits="userSpaceOnUse" x="-1" y="-1" width="709" height="137">
<g id="Group">
<g id="Mask group_2">
<mask id="mask2_104_3234" style="mask-type:luminance" maskUnits="userSpaceOnUse" x="-733" y="-675" width="1441" height="811">
<g id="Group_2">
<path id="path345" fill-rule="evenodd" clip-rule="evenodd" d="M-732.674 -674.957H707.326V135.043H-732.674V-674.957Z" fill="white"/>
</g>
</mask>
<g mask="url(#mask2_104_3234)">
<g id="g346">
<path id="path346" fill-rule="evenodd" clip-rule="evenodd" d="M-0.614746 -0.316406H707.566V135.284H-0.614746V-0.316406Z" fill="white"/>
</g>
</g>
</g>
</g>
</mask>
<g mask="url(#mask1_104_3234)">
<g id="g349">
<path id="path347" d="M0.211952 145.151C0.211952 145.82 0.787985 146.397 1.45798 146.397C1.75598 146.397 2.07198 146.379 2.38798 146.397C9.38498 146.974 16.7159 146.341 23.7489 146.304C39.1919 146.23 54.636 146.174 70.079 146.1C120.15 145.895 170.202 145.69 220.273 145.504C285.916 145.244 351.546 145.002 417.166 144.779C486.256 144.555 555.326 144.35 624.406 144.182C685.516 144.052 746.636 143.94 807.736 143.94C808.426 143.94 809.006 143.365 809.006 142.676C809.006 122.879 809.006 103.063 809.006 83.2645C809.896 82.9485 809.736 81.7205 809.006 81.3485C809.006 61.5505 809.006 41.7345 809.006 21.9375C809.006 20.3555 806.626 20.3185 806.496 21.7885C806.456 21.8075 806.416 21.8255 806.386 21.8445C786.176 33.4355 762.196 27.7985 741.126 21.9555C730.636 19.0345 720.106 16.0945 709.236 14.9405C698.646 13.8065 688.396 14.8855 678.326 18.3455C668.896 21.5835 659.596 26.1795 649.476 26.6815C638.646 27.2215 628.226 23.1655 617.416 23.2955C603.586 23.4625 589.666 25.6025 575.996 27.5005C567.456 28.6725 558.946 30.0685 550.466 31.4825C537.086 30.1055 523.656 30.0125 510.236 31.2215C493.236 32.7475 476.396 35.8555 459.326 37.0645C397.966 41.3995 339.136 18.9415 278.936 11.3875C250.192 7.75951 220.644 7.79651 192.734 16.3745C177.737 20.9885 163.112 28.3385 147.223 29.2125C132.132 30.0495 118.773 23.6675 105.971 16.4295C95.626 10.6055 84.7969 3.31149 72.9259 1.13549C63.1939 -0.651506 53.054 0.279513 43.341 1.76751C29.052 3.94451 14.743 7.61053 1.12296 12.4855C0.620963 12.6715 0.229958 13.0995 0.229958 13.6755C0.229958 57.4955 0.210952 101.333 0.211952 145.151Z" fill="#D8B880"/>
<path id="path348" d="M0.224915 13.6706C0.224915 13.0946 0.613944 12.6666 1.12994 12.4816C14.7499 7.60561 29.0469 3.94363 43.3389 1.76463C53.0509 0.28363 63.1929 -0.653403 72.9299 1.1306C84.8059 3.3066 95.6209 10.5986 105.963 16.4346C118.777 23.6646 132.126 30.0526 147.219 29.2156C163.118 28.3326 177.741 20.9846 192.739 16.3746C220.653 7.79661 250.192 7.7676 278.936 11.3806C339.126 18.9456 397.966 41.4026 459.336 37.0646C476.386 35.8596 493.226 32.7396 510.246 31.2156C523.636 30.0156 537.046 30.1226 550.406 31.4846C558.926 30.0716 567.436 28.6796 575.986 27.4936C589.666 25.5956 603.586 23.4716 617.416 23.2966C628.226 23.1596 638.646 27.2186 649.466 26.6796C659.586 26.1766 668.896 21.5856 678.326 18.3446C688.396 14.8816 698.646 13.7996 709.236 14.9376C720.096 16.1036 730.646 19.0366 741.126 21.9496C762.186 27.7996 786.166 33.4406 806.386 21.8506C806.426 21.8266 806.466 21.8276 806.506 21.8096C806.656 20.3276 809.016 20.3596 809.016 21.9406C809.016 41.7526 809.016 61.5666 809.016 81.3796C809.716 81.7506 809.866 82.9106 809.016 83.2596C809.016 103.066 809.016 122.871 809.016 142.677C809.016 143.361 808.436 143.942 807.746 143.942C746.636 143.942 685.516 144.051 624.406 144.19C555.326 144.347 486.246 144.552 417.166 144.781C351.536 145 285.906 145.241 220.28 145.499C170.211 145.695 120.141 145.894 70.0709 146.106C54.6299 146.171 39.1889 146.237 23.7479 146.305C16.7199 146.336 9.39094 146.974 2.37994 146.399C2.07694 146.375 1.76195 146.402 1.45795 146.403C0.784947 146.406 0.211914 145.83 0.211914 145.158C0.216914 101.328 0.220915 57.4996 0.224915 13.6706ZM687.556 18.5186C677.556 20.7136 668.416 25.6006 658.486 28.0286C653.546 29.2366 648.536 29.6896 643.466 29.2756C638.326 28.8556 633.266 27.7756 628.186 26.9586C620.226 25.6796 612.456 26.0946 604.476 26.8146C597.116 27.4786 589.766 28.3626 582.436 29.3276C575.096 30.2936 567.766 31.3676 560.436 32.4336C560.106 32.4816 559.776 32.5326 559.446 32.5816C584.196 36.0936 608.246 43.2916 631.896 51.2736C682.056 68.2086 733.666 90.4096 787.806 84.8016C794.096 84.1506 800.316 83.0746 806.486 81.6846C806.486 62.5266 806.486 43.3697 806.486 24.2117C768.226 45.8297 727.216 9.8056 687.556 18.5186ZM57.0659 143.659C104.358 143.448 151.65 143.242 198.942 143.053C263.325 142.797 327.706 142.556 392.086 142.336C461.536 142.099 530.986 141.886 600.436 141.717C662.876 141.564 725.306 141.442 787.746 141.416C793.996 141.414 800.236 141.412 806.486 141.412C806.486 122.227 806.486 103.042 806.486 83.8556C754.636 95.3326 703.586 78.6596 654.876 61.6796C629.176 52.7196 603.406 43.5896 576.716 37.9936C568.146 36.1966 559.486 34.7806 550.786 33.8646C550.606 33.8796 550.436 33.8656 550.286 33.8166C545.416 33.3156 540.526 32.9636 535.636 32.8006C519.486 32.2646 503.516 34.1396 487.536 36.2586C471.156 38.4326 454.826 40.2916 438.266 39.9256C423.586 39.6026 408.956 37.9686 394.466 35.6926C364.226 30.9426 334.536 23.3126 304.446 17.7976C274.856 12.3756 244.291 8.90465 214.377 13.8107C199.318 16.2797 185.424 21.6456 171.028 26.4516C157.201 31.0666 143.032 33.6206 128.745 29.5076C115.955 25.8266 104.755 18.3156 93.1629 12.0336C82.6289 6.32561 72.7479 2.51964 60.6849 2.65464C41.9049 2.86464 22.9529 7.8406 5.20294 13.6956C4.36294 13.9726 3.52692 14.2606 2.69092 14.5506C2.69492 57.6686 2.69892 100.788 2.70392 143.906C20.8239 143.821 38.9449 143.74 57.0659 143.659Z" fill="#D8B880"/>
<path id="path349" d="M461.356 98.2339C474.116 97.6989 486.916 97.8029 499.626 99.1469C512.346 100.492 525.486 102.683 537.586 106.939C538.236 107.167 539.126 106.789 539.436 106.187C543.086 99.1099 551.446 97.7799 558.706 97.9209C586.226 98.4599 610.396 120.193 638.526 114.011C639.916 113.705 639.306 111.688 637.946 111.908C629.716 113.246 621.246 112.101 613.266 109.903C599.186 106.022 585.996 99.3029 571.696 96.1409C564.996 94.6619 557.936 93.8809 551.126 94.9699C545.596 95.8529 539.876 98.4329 537.156 103.473C524.996 100.546 512.976 97.6899 500.506 96.2819C487.506 94.8149 474.376 94.4639 461.356 95.7329C459.776 95.8859 459.726 98.3009 461.356 98.2339ZM697.746 54.6049C704.446 58.3869 712.276 57.4579 719.536 56.1849C723.336 55.5199 727.136 54.7839 730.986 54.6039C734.726 54.4299 738.306 54.9959 741.936 55.8549C745.536 56.7089 749.186 57.7889 752.936 57.5729C756.936 57.3429 760.496 55.3689 764.246 54.1689C768.956 52.6649 775.126 52.6269 777.976 57.3559C778.666 58.4929 777.006 59.3679 776.246 58.3689C771.706 52.3769 763.336 57.4179 758.046 59.1509C751.166 61.4039 744.776 58.8399 737.996 57.6119C724.446 55.1539 709.246 64.7779 696.656 56.4629C695.506 55.7049 696.526 53.9199 697.746 54.6049ZM140.451 36.4169C150.653 38.6869 158.076 45.8949 165.971 52.2249C170.351 55.7369 174.995 58.9329 180.287 60.9039C186.146 63.0859 192.38 63.9999 198.591 64.4229C211.065 65.2719 223.532 64.9769 235.985 66.3499C248.578 67.7369 261.056 70.0659 273.286 73.3839C287.156 77.1469 300.626 82.1449 313.596 88.3429C315.016 89.0249 313.776 91.0889 312.356 90.4519C288.716 79.8029 263.454 72.6149 237.683 69.6099C225.198 68.1539 212.728 68.3109 200.206 67.6129C189.004 66.9889 178.084 64.8059 168.777 58.2179C159.369 51.5589 151.406 41.5919 139.84 38.6319C138.403 38.2639 139.012 36.0969 140.451 36.4169Z" fill="#C48551"/>
</g>
</g>
</g>
</g>
</g>
</g>
</g>
</g>
<defs>
<clipPath id="clip0_104_3234">
<rect width="707.354" height="135.128" fill="white" transform="translate(0.211914 0.155762)"/>
</clipPath>
</defs>
</svg>
