<svg width="811" height="148" viewBox="0 0 811 148" fill="none" xmlns="http://www.w3.org/2000/svg">
<g id="CHAO1_ENFEITADO" clip-path="url(#clip0_104_3236)">
<g id="Clip path group">
<mask id="mask0_104_3236" style="mask-type:luminance" maskUnits="userSpaceOnUse" x="-631" y="-644" width="1441" height="819">
<g id="clip0_103_8241">
<path id="rect532" d="M809.287 -643.117H-630.713V174.383H809.287V-643.117Z" fill="white"/>
</g>
</mask>
<g mask="url(#mask0_104_3236)">
<g id="g528">
<g id="g534">
<g id="g299">
<path id="path297" d="M810.566 145.548C810.566 146.217 809.989 146.794 809.319 146.794C809.022 146.794 808.705 146.776 808.389 146.794C801.393 147.371 794.062 146.738 787.029 146.701C771.585 146.627 756.141 146.571 740.698 146.497C690.628 146.292 640.576 146.087 590.505 145.901C524.861 145.641 459.235 145.399 393.61 145.176C324.523 144.953 255.455 144.748 186.369 144.58C125.264 144.45 62.2654 147.085 1.16089 147.085C0.472891 147.085 1.77245 143.762 1.77245 143.073V22.335C1.77245 20.753 4.15404 20.716 4.28454 22.186C4.32134 22.205 4.35854 22.223 4.39574 22.242C24.6027 33.833 48.5865 28.196 69.6495 22.353C80.1434 19.432 90.6751 16.4919 101.541 15.3379C112.129 14.2039 122.381 15.283 132.447 18.743C141.881 21.981 151.184 26.577 161.306 27.079C172.135 27.619 182.554 23.563 193.365 23.693C207.19 23.86 221.108 25.9999 234.783 27.8979C243.324 29.0699 251.827 30.466 260.312 31.88C273.69 30.503 287.124 30.41 300.539 31.619C317.546 33.145 334.385 36.253 351.447 37.462C412.812 41.797 471.646 19.339 531.839 11.785C560.586 8.15697 590.133 8.19397 618.043 16.772C633.04 21.386 647.665 28.736 663.555 29.61C678.645 30.447 692.005 24.065 704.806 16.827C715.152 11.003 725.981 3.70896 737.852 1.53296C747.583 -0.254045 757.724 0.676974 767.436 2.16497C781.726 4.34197 796.034 8.00799 809.655 12.883C810.157 13.069 810.548 13.497 810.548 14.073C810.548 57.893 810.566 101.73 810.566 145.548Z" fill="#D8B880"/>
<path id="path299" d="M349.425 98.6314C336.662 98.0964 323.863 98.2004 311.152 99.5444C298.433 100.889 285.291 103.08 273.193 107.336C272.542 107.564 271.656 107.186 271.345 106.584C267.696 99.5074 259.337 98.1774 252.074 98.3184C224.55 98.8574 200.383 120.59 172.251 114.408C170.858 114.102 171.475 112.085 172.831 112.305C181.063 113.643 189.528 112.498 197.508 110.3C211.595 106.419 224.78 99.7004 239.086 96.5384C245.778 95.0594 252.846 94.2784 259.656 95.3674C265.178 96.2504 270.905 98.8304 273.618 103.87C285.783 100.943 297.797 98.0873 310.276 96.6793C323.275 95.2123 336.398 94.8614 349.425 96.1304C350.999 96.2834 351.055 98.6984 349.425 98.6314ZM113.035 55.0023C106.328 58.7843 98.5037 57.8554 91.2386 56.5824C87.4454 55.9174 83.6442 55.1814 79.7888 55.0014C76.0497 54.8274 72.4696 55.3933 68.845 56.2523C65.2441 57.1063 61.5868 58.1864 57.8456 57.9704C53.8375 57.7404 50.2844 55.7664 46.5281 54.5664C41.8215 53.0624 35.6553 53.0244 32.7988 57.7534C32.1127 58.8904 33.7736 59.7654 34.5309 58.7664C39.0703 52.7744 47.4437 57.8154 52.7332 59.5484C59.6076 61.8014 66.0031 59.2374 72.7772 58.0094C86.3325 55.5514 101.529 65.1754 114.121 56.8604C115.269 56.1024 114.252 54.3173 113.035 55.0023ZM670.327 36.8144C660.124 39.0844 652.701 46.2924 644.807 52.6224C640.427 56.1344 635.783 59.3304 630.49 61.3014C624.631 63.4834 618.397 64.3974 612.186 64.8204C599.712 65.6694 587.246 65.3744 574.792 66.7474C562.2 68.1344 549.721 70.4634 537.493 73.7814C523.621 77.5444 510.154 82.5424 497.186 88.7404C495.758 89.4224 497.004 91.4864 498.418 90.8494C522.064 80.2004 547.324 73.0123 573.095 70.0073C585.58 68.5513 598.05 68.7083 610.572 68.0103C621.774 67.3863 632.693 65.2034 642 58.6154C651.409 51.9564 659.372 41.9894 670.937 39.0294C672.374 38.6614 671.766 36.4944 670.327 36.8144Z" fill="#C48551"/>
<path id="path298" d="M810.553 14.0681C810.553 13.4921 810.164 13.0641 809.648 12.8791C796.028 8.00307 781.731 4.34109 767.439 2.16209C757.727 0.681091 747.585 -0.255942 737.848 1.52806C725.972 3.70406 715.157 10.9961 704.815 16.8321C692.001 24.0621 678.652 30.4501 663.559 29.6131C647.66 28.7301 633.037 21.3821 618.039 16.7721C590.125 8.19408 560.586 8.16506 531.839 11.7781C471.652 19.3431 412.808 41.8001 351.44 37.4621C334.392 36.2571 317.553 33.1371 300.537 31.6131C287.145 30.4131 273.73 30.5201 260.368 31.8821C251.853 30.4691 243.343 29.0771 234.792 27.8911C221.113 25.9931 207.195 23.8691 193.36 23.6941C182.554 23.5571 172.13 27.6161 161.309 27.0771C151.194 26.5741 141.88 21.9831 132.455 18.7421C122.382 15.2791 112.13 14.1971 101.538 15.3351C90.6836 16.5011 80.1368 19.4341 69.6484 22.3471C48.5903 28.1971 24.6112 33.8381 4.39472 22.2481C4.35212 22.2241 4.31212 22.2251 4.27002 22.2071L809.32 146.8C809.993 146.803 810.566 146.227 810.566 145.555C810.562 101.725 810.557 57.8971 810.553 14.0681ZM123.224 18.9161C133.218 21.1111 142.364 25.9981 152.29 28.4261C157.229 29.6341 162.239 30.0871 167.31 29.6731C172.452 29.2531 177.508 28.1731 182.594 27.3561C190.55 26.0771 198.323 26.4921 206.299 27.2121C213.663 27.8761 221.008 28.7601 228.338 29.7251C235.682 30.6911 243.013 31.7651 250.343 32.8311C250.674 32.8791 251.005 32.9301 251.336 32.9791C226.586 36.4911 202.529 43.6891 178.884 51.6711L123.224 18.9161ZM155.899 62.0771C181.603 53.1171 207.37 43.9871 234.064 38.3911C242.634 36.5941 251.289 35.1781 259.996 34.2621C260.177 34.2771 260.344 34.2631 260.496 34.2141C265.364 33.7131 270.248 33.3611 275.143 33.1981C291.292 32.6621 307.258 34.5371 323.237 36.6561C339.626 38.8301 355.949 40.6891 372.51 40.3231C387.191 40.0001 401.817 38.3661 416.315 36.0901C446.556 31.3401 476.24 23.7101 506.336 18.1951C535.922 12.7731 566.487 9.30211 596.401 14.2081C611.46 16.6771 625.354 22.0431 639.75 26.8491C653.577 31.4641 667.746 34.0181 682.033 29.9051C694.823 26.2241 706.023 18.7131 717.615 12.4311C728.149 6.72307 738.03 2.91711 750.093 3.05211C768.873 3.26211 787.825 8.23806 805.575 14.0931C806.415 14.3701 807.251 14.6581 808.087 14.9481L155.899 62.0771Z" fill="#D8B880"/>
</g>
<g id="Mask group">
<mask id="mask1_104_3236" style="mask-type:luminance" maskUnits="userSpaceOnUse" x="161" y="17" width="131" height="119">
<g id="Group">
<g id="Mask group_2">
<mask id="mask2_104_3236" style="mask-type:luminance" maskUnits="userSpaceOnUse" x="161" y="17" width="131" height="119">
<g id="Group_2">
<g id="Mask group_3">
<mask id="mask3_104_3236" style="mask-type:luminance" maskUnits="userSpaceOnUse" x="161" y="17" width="131" height="119">
<g id="Group_3">
<g id="Mask group_4">
<mask id="mask4_104_3236" style="mask-type:luminance" maskUnits="userSpaceOnUse" x="68" y="-675" width="1441" height="811">
<g id="Group_4">
<g id="Mask group_5">
<mask id="mask5_104_3236" style="mask-type:luminance" maskUnits="userSpaceOnUse" x="68" y="-675" width="1441" height="811">
<g id="Group_5">
<g id="Mask group_6">
<mask id="mask6_104_3236" style="mask-type:luminance" maskUnits="userSpaceOnUse" x="68" y="-675" width="1441" height="818">
<g id="Group_6">
<path id="path300" d="M68.1431 -674.559H1508.14V142.941H68.1431V-674.559Z" fill="white"/>
</g>
</mask>
<g mask="url(#mask6_104_3236)">
<g id="g301">
<path id="path301" d="M68.1431 -674.559H1508.14V135.441H68.1431V-674.559Z" fill="white"/>
</g>
</g>
</g>
</g>
</mask>
<g mask="url(#mask5_104_3236)">
<g id="g302">
<path id="path302" d="M68.1431 -674.559H1508.14V135.441H68.1431V-674.559Z" fill="white"/>
</g>
</g>
</g>
</g>
</mask>
<g mask="url(#mask4_104_3236)">
<g id="g303">
<path id="path303" d="M161.815 99.1821L257.049 17.8301L291.148 57.7481L195.914 139.1L161.815 99.1821Z" fill="white"/>
</g>
</g>
</g>
</g>
</mask>
<g mask="url(#mask3_104_3236)">
<g id="g304">
<path id="path304" d="M161.815 99.1821L257.049 17.8301L291.148 57.7481L195.914 139.1L161.815 99.1821Z" fill="white"/>
</g>
</g>
</g>
</g>
</mask>
<g mask="url(#mask2_104_3236)">
<g id="g305">
<path id="path305" d="M161.815 99.1821L257.049 17.8301L291.148 57.7481L195.914 139.1L161.815 99.1821Z" fill="white"/>
</g>
</g>
</g>
</g>
</mask>
<g mask="url(#mask1_104_3236)">
<g id="g306">
<path id="path306" d="M283.133 53.3568L282.238 51.6148L282.527 49.4568L277.042 47.3358L265.046 45.6408L257.619 48.0448L257.582 53.6888L245.803 43.0918L241.658 44.4828L256.83 55.1678L251.774 56.7398L237.64 45.0498L236.29 46.7998L249.178 58.0018L244.924 60.0988L230.445 46.0608L227.708 45.7718L242.526 62.1468L238.341 66.5428L222.516 52.5948L219.353 54.5808L236.56 68.0638L233.419 71.4638L214.097 54.5328L212.818 57.0578L230.905 74.2078L229.029 77.0058L208.707 60.5698L207.887 62.1068L226.562 79.1128L221.971 83.0338L205.549 65.0588L204.149 65.7768L203.701 67.4728L219.895 84.2108L216.675 86.9608L202.05 74.9738L201.104 77.3348L214.285 88.0478L210.113 90.6558L199.69 85.9458L199.098 88.7208L208.195 92.2948L201.502 94.3098L174.173 93.5328L161.821 99.1888L168.185 104.142L185.32 106.581L184.262 116.441C186.407 120.4 188.553 124.359 190.699 128.318C194.276 122.348 197.853 116.378 201.43 110.408C203.038 105.878 204.645 101.349 206.253 96.8198L210.914 93.6738L207.786 105.69L210.02 107.334L212.813 92.2908L215.721 90.2838L217.168 106.961L219.228 107.708L218.463 88.7768L220.658 87.7388C222.433 93.7388 224.209 99.7388 225.985 105.738C227.263 106.318 228.541 106.897 229.819 107.476C227.31 100.75 224.802 94.0228 222.294 87.2958L226.553 84.3748L234.067 99.6898L235.977 99.0128L229.02 82.2668L233.424 78.2668L241.934 96.5518L243.804 95.5518L236.338 74.4638L239.419 70.9958L245.893 90.7818L247.815 90.8118L242.944 68.4628L247.358 64.3338L251.191 87.6888L253.062 86.6878L250.383 62.4658L253.175 61.1558L258.188 85.8918L259.764 84.5458C261.845 76.4378 254.751 59.8098 254.751 59.8098L258.161 58.8068L264.413 71.2588L270.849 72.6878L283.25 62.0948L287.074 52.9758L283.133 53.3568ZM276.283 51.7928C276.388 51.9438 276.47 52.1188 276.467 52.3028C276.462 52.5908 276.253 52.8278 276.055 53.0368C275.761 53.3468 275.462 53.6608 275.097 53.8838C274.732 54.1058 274.287 54.2308 273.87 54.1278C271.278 53.4888 274.36 49.0048 276.283 51.7928Z" fill="#E6D4B9"/>
</g>
</g>
</g>
<g id="g532">
<g id="Mask group_7">
<mask id="mask7_104_3236" style="mask-type:luminance" maskUnits="userSpaceOnUse" x="572" y="88" width="69" height="31">
<g id="Group_7">
<g id="Mask group_8">
<mask id="mask8_104_3236" style="mask-type:luminance" maskUnits="userSpaceOnUse" x="535" y="66" width="106" height="61">
<g id="Group_8">
<g id="Mask group_9">
<mask id="mask9_104_3236" style="mask-type:luminance" maskUnits="userSpaceOnUse" x="68" y="-675" width="1441" height="811">
<g id="Group_9">
<path id="path425" fill-rule="evenodd" clip-rule="evenodd" d="M68.1431 -674.559H1508.14V135.441H68.1431V-674.559Z" fill="white"/>
</g>
</mask>
<g mask="url(#mask9_104_3236)">
<g id="g426">
<path id="path426" fill-rule="evenodd" clip-rule="evenodd" d="M535.168 66.6279H640.754V126.628H535.168V66.6279Z" fill="white"/>
</g>
</g>
</g>
</g>
</mask>
<g mask="url(#mask8_104_3236)">
<g id="g427">
<path id="path427" fill-rule="evenodd" clip-rule="evenodd" d="M572.523 88.29H640.564V118.984H572.523V88.29Z" fill="white"/>
</g>
</g>
</g>
</g>
</mask>
<g mask="url(#mask7_104_3236)">
<g id="g428">
<path id="path428" fill-rule="evenodd" clip-rule="evenodd" d="M620.919 88.4217C603.37 87.6147 589.827 90.5307 580.293 97.1657C576.73 99.5877 574.367 102.144 573.21 104.834C572.141 107.256 572.32 108.959 573.745 109.946C576.952 112.099 580.694 113.805 584.97 115.058C590.762 116.762 598.289 118.018 607.555 118.825C616.108 119.544 624.172 117.838 631.744 113.713C635.486 111.649 638.426 109.497 640.564 107.256L620.919 88.4217Z" fill="black"/>
</g>
</g>
</g>
<g id="Mask group_10">
<mask id="mask10_104_3236" style="mask-type:luminance" maskUnits="userSpaceOnUse" x="535" y="66" width="106" height="61">
<g id="Group_10">
<g id="Mask group_11">
<mask id="mask11_104_3236" style="mask-type:luminance" maskUnits="userSpaceOnUse" x="68" y="-675" width="1441" height="811">
<g id="Group_11">
<path id="path429" fill-rule="evenodd" clip-rule="evenodd" d="M68.1431 -674.559H1508.14V135.441H68.1431V-674.559Z" fill="white"/>
</g>
</mask>
<g mask="url(#mask11_104_3236)">
<g id="g430">
<path id="path430" fill-rule="evenodd" clip-rule="evenodd" d="M535.168 66.6279H640.754V126.628H535.168V66.6279Z" fill="white"/>
</g>
</g>
</g>
</g>
</mask>
<g mask="url(#mask10_104_3236)">
<g id="g433">
<path id="path431" fill-rule="evenodd" clip-rule="evenodd" d="M590.048 80.8878L583.499 108.063L611.162 118.018L640.563 107.256C640.207 101.248 639.05 95.8668 637.088 91.1128L634.282 85.7307C631.788 82.4137 628.936 79.1387 625.729 75.9107C619.314 69.5417 614.458 66.5388 611.162 66.8968C607.776 67.2548 603.232 69.6768 597.531 74.1618C594.679 76.4918 592.186 78.7358 590.048 80.8878Z" fill="#94897B"/>
<path id="path432" fill-rule="evenodd" clip-rule="evenodd" d="M639.093 97.5698H638.959C635.664 98.9148 632.724 99.6338 630.139 99.7228C627.199 99.8108 624.259 99.1848 621.319 97.8388C619.004 96.9428 615.752 96.4938 611.563 96.4938C607.199 96.5828 603.991 96.2708 601.941 95.5518C599.269 94.6558 596.909 92.7268 594.858 89.7668C592.899 86.8988 591.518 83.7138 590.716 80.2158L590.048 80.8888L583.499 108.063L611.162 118.019L640.563 107.256C640.296 103.759 639.807 100.53 639.093 97.5698Z" fill="#787066"/>
<path id="path433" fill-rule="evenodd" clip-rule="evenodd" d="M618.913 98.1078L619.047 97.4359C617.711 98.1539 616.463 99.4529 615.305 101.337C613.434 104.116 612.322 105.733 611.964 106.18C608.757 109.947 604.392 110.711 598.868 108.47C595.749 107.302 593.522 105.241 592.186 102.281C589.78 100.309 587.955 97.7499 586.707 94.6099L583.502 108.063L611.162 118.019L640.563 107.256L640.296 104.027C635.306 108.063 629.428 110.17 622.655 110.353C621.765 110.353 620.963 110.081 620.25 109.543C619.536 108.919 619.093 108.198 618.913 107.391C618.021 104.251 618.021 101.157 618.913 98.1078Z" fill="#635C55"/>
</g>
</g>
</g>
<g id="Mask group_12">
<mask id="mask12_104_3236" style="mask-type:luminance" maskUnits="userSpaceOnUse" x="535" y="106" width="67" height="21">
<g id="Group_12">
<g id="Mask group_13">
<mask id="mask13_104_3236" style="mask-type:luminance" maskUnits="userSpaceOnUse" x="535" y="66" width="106" height="61">
<g id="Group_13">
<g id="Mask group_14">
<mask id="mask14_104_3236" style="mask-type:luminance" maskUnits="userSpaceOnUse" x="68" y="-675" width="1441" height="811">
<g id="Group_14">
<path id="path439" fill-rule="evenodd" clip-rule="evenodd" d="M68.1431 -674.559H1508.14V135.441H68.1431V-674.559Z" fill="white"/>
</g>
</mask>
<g mask="url(#mask14_104_3236)">
<g id="g440">
<path id="path440" fill-rule="evenodd" clip-rule="evenodd" d="M535.168 66.6279H640.754V126.628H535.168V66.6279Z" fill="white"/>
</g>
</g>
</g>
</g>
</mask>
<g mask="url(#mask13_104_3236)">
<g id="g441">
<path id="path441" fill-rule="evenodd" clip-rule="evenodd" d="M535.406 106.481H601.942V126.464H535.406V106.481Z" fill="white"/>
</g>
</g>
</g>
</g>
</mask>
<g mask="url(#mask12_104_3236)">
<g id="g442">
<path id="path442" fill-rule="evenodd" clip-rule="evenodd" d="M536.325 111.695C534.81 112.683 535.165 114.34 537.394 116.673C539.8 119.094 543.274 120.709 547.818 121.516C554.679 123.13 560.067 124.341 563.988 125.148C571.117 126.493 577.62 126.808 583.5 126.09C589.468 125.283 594.324 124.072 598.066 122.457C599.937 121.65 601.228 120.889 601.942 120.17L576.417 109.004C569.112 106.314 560.647 105.776 551.026 107.39C543.897 108.555 538.998 109.992 536.325 111.695Z" fill="black"/>
</g>
</g>
</g>
<g id="Mask group_15">
<mask id="mask15_104_3236" style="mask-type:luminance" maskUnits="userSpaceOnUse" x="535" y="66" width="106" height="61">
<g id="Group_15">
<g id="Mask group_16">
<mask id="mask16_104_3236" style="mask-type:luminance" maskUnits="userSpaceOnUse" x="68" y="-675" width="1441" height="811">
<g id="Group_16">
<path id="path434" fill-rule="evenodd" clip-rule="evenodd" d="M68.1431 -674.559H1508.14V135.441H68.1431V-674.559Z" fill="white"/>
</g>
</mask>
<g mask="url(#mask16_104_3236)">
<g id="g435">
<path id="path435" fill-rule="evenodd" clip-rule="evenodd" d="M535.168 66.6279H640.754V126.628H535.168V66.6279Z" fill="white"/>
</g>
</g>
</g>
</g>
</mask>
<g mask="url(#mask15_104_3236)">
<g id="g438">
<path id="path436" fill-rule="evenodd" clip-rule="evenodd" d="M566.127 91.1118L557.574 97.8388C551.694 102.682 548.265 106.088 547.281 108.063C544.52 113.805 546.525 118.018 553.295 120.709C557.128 122.323 560.915 123.445 564.654 124.072C568.842 124.79 573.963 125.103 580.022 125.014C585.013 124.925 589.332 124.252 592.988 122.996C597.976 121.293 600.961 120.354 601.942 120.171C604.973 119.633 604.569 117.48 600.739 113.716C594.947 108.781 590.893 104.883 588.578 102.009C585.371 98.2418 582.519 95.8208 580.025 94.7448C579.67 94.6528 575.035 93.4448 566.127 91.1118Z" fill="#94897B"/>
<path id="path437" fill-rule="evenodd" clip-rule="evenodd" d="M547.283 108.063C544.523 113.805 546.527 118.018 553.297 120.709C557.13 122.323 560.917 123.445 564.657 124.072C568.845 124.79 573.966 125.102 580.025 125.014C585.015 124.925 589.334 124.252 592.991 122.996C597.978 121.292 600.963 120.353 601.944 120.171C603.994 119.813 604.617 118.871 603.815 117.345C603.193 116.178 601.543 114.386 598.871 111.964C594.506 114.205 589.425 115.777 583.636 116.673C577.932 117.569 572.857 117.523 568.401 116.538C566.175 116 563.9 113.802 561.586 109.946C560.426 107.883 559.803 106.806 559.715 106.718C558.913 105.644 557.932 105.014 556.775 104.834C554.722 104.476 553.164 103.849 552.097 102.953L551.961 102.682C549.467 105.103 547.906 106.898 547.283 108.063Z" fill="#787066"/>
<path id="path438" fill-rule="evenodd" clip-rule="evenodd" d="M553.698 108.736C551.202 111.249 548.887 113.399 546.749 115.193C547.818 117.615 549.999 119.453 553.297 120.709C557.13 122.323 560.918 123.445 564.657 124.072C568.845 124.791 573.966 125.103 580.025 125.014C585.015 124.925 589.334 124.253 592.991 122.996C597.978 121.293 600.964 120.354 601.945 120.171C603.548 119.902 604.262 119.229 604.083 118.153C603.904 117.346 603.059 116.135 601.544 114.521C598.515 118.468 594.105 121.247 588.313 122.861C583.056 124.296 577.844 124.567 572.675 123.669C568.31 122.95 564.523 121.027 561.316 117.887C558.018 113.848 555.481 110.797 553.698 108.736Z" fill="#635C55"/>
</g>
</g>
</g>
</g>
<g id="g533">
<g id="Mask group_17">
<mask id="mask17_104_3236" style="mask-type:luminance" maskUnits="userSpaceOnUse" x="410" y="40" width="69" height="31">
<g id="Group_17">
<g id="Mask group_18">
<mask id="mask18_104_3236" style="mask-type:luminance" maskUnits="userSpaceOnUse" x="373" y="18" width="106" height="61">
<g id="Group_18">
<g id="Mask group_19">
<mask id="mask19_104_3236" style="mask-type:luminance" maskUnits="userSpaceOnUse" x="68" y="-675" width="1441" height="811">
<g id="Group_19">
<path id="path461" fill-rule="evenodd" clip-rule="evenodd" d="M68.1431 -674.559H1508.14V135.441H68.1431V-674.559Z" fill="white"/>
</g>
</mask>
<g mask="url(#mask19_104_3236)">
<g id="g462">
<path id="path462" fill-rule="evenodd" clip-rule="evenodd" d="M373.266 18.5918H478.852V78.5918H373.266V18.5918Z" fill="white"/>
</g>
</g>
</g>
</g>
</mask>
<g mask="url(#mask18_104_3236)">
<g id="g463">
<path id="path463" fill-rule="evenodd" clip-rule="evenodd" d="M410.621 40.2539H478.661V70.9489H410.621V40.2539Z" fill="white"/>
</g>
</g>
</g>
</g>
</mask>
<g mask="url(#mask17_104_3236)">
<g id="g464">
<path id="path464" fill-rule="evenodd" clip-rule="evenodd" d="M459.017 40.3861C441.467 39.5791 427.924 42.4951 418.391 49.1301C414.828 51.5521 412.465 54.108 411.308 56.799C410.239 59.22 410.418 60.923 411.842 61.911C415.05 64.063 418.791 65.769 423.068 67.023C428.86 68.726 436.386 69.9821 445.653 70.7901C454.206 71.5081 462.269 69.8021 469.841 65.6781C473.583 63.6141 476.523 61.4611 478.662 59.2201L459.017 40.3861Z" fill="black"/>
</g>
</g>
</g>
<g id="Mask group_20">
<mask id="mask20_104_3236" style="mask-type:luminance" maskUnits="userSpaceOnUse" x="373" y="18" width="106" height="61">
<g id="Group_20">
<g id="Mask group_21">
<mask id="mask21_104_3236" style="mask-type:luminance" maskUnits="userSpaceOnUse" x="68" y="-675" width="1441" height="811">
<g id="Group_21">
<path id="path465" fill-rule="evenodd" clip-rule="evenodd" d="M68.1431 -674.559H1508.14V135.441H68.1431V-674.559Z" fill="white"/>
</g>
</mask>
<g mask="url(#mask21_104_3236)">
<g id="g466">
<path id="path466" fill-rule="evenodd" clip-rule="evenodd" d="M373.266 18.5918H478.852V78.5918H373.266V18.5918Z" fill="white"/>
</g>
</g>
</g>
</g>
</mask>
<g mask="url(#mask20_104_3236)">
<g id="g469">
<path id="path467" fill-rule="evenodd" clip-rule="evenodd" d="M428.145 32.8517L421.597 60.0266L449.26 69.9817L478.661 59.2196C478.305 53.2116 477.148 47.8307 475.186 43.0757L472.38 37.6947C469.886 34.3777 467.034 31.1027 463.827 27.8747C457.412 21.5057 452.556 18.5026 449.26 18.8606C445.874 19.2186 441.33 21.6406 435.629 26.1256C432.777 28.4556 430.283 30.6997 428.145 32.8517Z" fill="#94897B"/>
<path id="path468" fill-rule="evenodd" clip-rule="evenodd" d="M477.191 49.5337H477.057C473.761 50.8787 470.821 51.5977 468.237 51.6857C465.297 51.7747 462.357 51.1477 459.417 49.8027C457.102 48.9067 453.849 48.4577 449.661 48.4577C445.296 48.5467 442.089 48.2337 440.039 47.5157C437.366 46.6197 435.006 44.6907 432.956 41.7307C430.997 38.8627 429.615 35.6777 428.813 32.1797L428.145 32.8517L421.597 60.0267L449.26 69.9817L478.661 59.2197C478.393 55.7217 477.904 52.4937 477.191 49.5337Z" fill="#787066"/>
<path id="path469" fill-rule="evenodd" clip-rule="evenodd" d="M457.011 50.0717L457.145 49.3987C455.808 50.1177 454.56 51.4167 453.403 53.3007C451.532 56.0797 450.42 57.6967 450.062 58.1437C446.855 61.9107 442.49 62.6747 436.965 60.4327C433.846 59.2657 431.62 57.2048 430.283 54.2448C427.878 52.2728 426.052 49.7137 424.804 46.5737L421.6 60.0267L449.26 69.9818L478.661 59.2197L478.393 55.9907C473.403 60.0267 467.526 62.1337 460.753 62.3167C459.863 62.3167 459.061 62.0447 458.348 61.5067C457.634 60.8827 457.19 60.1617 457.011 59.3547C456.118 56.2147 456.118 53.1197 457.011 50.0717Z" fill="#635C55"/>
</g>
</g>
</g>
<g id="Mask group_22">
<mask id="mask22_104_3236" style="mask-type:luminance" maskUnits="userSpaceOnUse" x="373" y="58" width="68" height="21">
<g id="Group_22">
<g id="Mask group_23">
<mask id="mask23_104_3236" style="mask-type:luminance" maskUnits="userSpaceOnUse" x="373" y="18" width="106" height="61">
<g id="Group_23">
<g id="Mask group_24">
<mask id="mask24_104_3236" style="mask-type:luminance" maskUnits="userSpaceOnUse" x="68" y="-675" width="1441" height="811">
<g id="Group_24">
<path id="path470" fill-rule="evenodd" clip-rule="evenodd" d="M68.1431 -674.559H1508.14V135.441H68.1431V-674.559Z" fill="white"/>
</g>
</mask>
<g mask="url(#mask24_104_3236)">
<g id="g471">
<path id="path471" fill-rule="evenodd" clip-rule="evenodd" d="M373.266 18.5918H478.852V78.5918H373.266V18.5918Z" fill="white"/>
</g>
</g>
</g>
</g>
</mask>
<g mask="url(#mask23_104_3236)">
<g id="g472">
<path id="path472" fill-rule="evenodd" clip-rule="evenodd" d="M373.503 58.4448H440.039V78.4278H373.503V58.4448Z" fill="white"/>
</g>
</g>
</g>
</g>
</mask>
<g mask="url(#mask22_104_3236)">
<g id="g473">
<path id="path473" fill-rule="evenodd" clip-rule="evenodd" d="M374.423 63.6601C372.907 64.6471 373.263 66.3052 375.492 68.6382C377.898 71.0592 381.372 72.6731 385.916 73.4811C392.777 75.0951 398.165 76.3061 402.086 77.1131C409.214 78.4581 415.717 78.7731 421.597 78.0551C427.566 77.2471 432.422 76.0372 436.164 74.4222C438.035 73.6152 439.326 72.8541 440.039 72.1351L414.515 60.9692C407.21 58.2792 398.745 57.7411 389.123 59.3551C381.995 60.5201 377.096 61.9571 374.423 63.6601Z" fill="black"/>
</g>
</g>
</g>
<g id="Mask group_25">
<mask id="mask25_104_3236" style="mask-type:luminance" maskUnits="userSpaceOnUse" x="373" y="18" width="106" height="61">
<g id="Group_25">
<g id="Mask group_26">
<mask id="mask26_104_3236" style="mask-type:luminance" maskUnits="userSpaceOnUse" x="68" y="-675" width="1441" height="811">
<g id="Group_26">
<path id="path474" fill-rule="evenodd" clip-rule="evenodd" d="M68.1431 -674.559H1508.14V135.441H68.1431V-674.559Z" fill="white"/>
</g>
</mask>
<g mask="url(#mask26_104_3236)">
<g id="g475">
<path id="path475" fill-rule="evenodd" clip-rule="evenodd" d="M373.266 18.5918H478.852V78.5918H373.266V18.5918Z" fill="white"/>
</g>
</g>
</g>
</g>
</mask>
<g mask="url(#mask25_104_3236)">
<g id="g478">
<path id="path476" fill-rule="evenodd" clip-rule="evenodd" d="M404.224 43.0771L395.672 49.8032C389.791 54.6462 386.362 58.0532 385.379 60.0272C382.618 65.7692 384.622 69.9832 391.392 72.6732C395.225 74.2882 399.012 75.4091 402.752 76.0361C406.94 76.7551 412.061 77.0672 418.12 76.9781C423.11 76.8891 427.429 76.2171 431.086 74.9601C436.073 73.2571 439.059 72.3181 440.04 72.1351C443.07 71.5971 442.667 69.4442 438.837 65.6802C433.045 60.7462 428.99 56.8472 426.676 53.9742C423.468 50.2072 420.617 47.7852 418.123 46.7092C417.767 46.6182 413.133 45.4091 404.224 43.0771Z" fill="#94897B"/>
<path id="path477" fill-rule="evenodd" clip-rule="evenodd" d="M385.381 60.027C382.62 65.769 384.625 69.982 391.395 72.673C395.228 74.287 399.015 75.4089 402.754 76.0359C406.942 76.7549 412.063 77.067 418.123 76.978C423.113 76.889 427.432 76.216 431.088 74.96C436.076 73.257 439.061 72.3179 440.042 72.1349C442.092 71.7769 442.715 70.835 441.913 69.31C441.29 68.142 439.641 66.35 436.968 63.929C432.604 66.17 427.523 67.741 421.734 68.637C416.03 69.533 410.954 69.487 406.499 68.503C404.272 67.964 401.998 65.7659 399.683 61.9109C398.523 59.8469 397.9 58.771 397.812 58.682C397.01 57.608 396.029 56.979 394.872 56.799C392.819 56.441 391.261 55.814 390.195 54.918L390.059 54.646C387.565 57.068 386.004 58.862 385.381 60.027Z" fill="#787066"/>
<path id="path478" fill-rule="evenodd" clip-rule="evenodd" d="M391.796 60.7002C389.3 63.2132 386.985 65.3632 384.847 67.1582C385.916 69.5792 388.097 71.4172 391.395 72.6732C395.228 74.2882 399.015 75.4102 402.754 76.0372C406.943 76.7552 412.064 77.0672 418.123 76.9782C423.113 76.8902 427.432 76.2172 431.088 74.9602C436.076 73.2572 439.061 72.3182 440.042 72.1352C441.646 71.8662 442.36 71.1942 442.181 70.1172C442.001 69.3102 441.157 68.0992 439.641 66.4852C436.613 70.4322 432.203 73.2112 426.411 74.8262C421.154 76.2602 415.942 76.5322 410.773 75.6332C406.408 74.9152 402.621 72.9912 399.413 69.8512C396.115 65.8122 393.579 62.7612 391.796 60.7002Z" fill="#635C55"/>
</g>
</g>
</g>
</g>
<g id="Mask group_27">
<mask id="mask27_104_3236" style="mask-type:luminance" maskUnits="userSpaceOnUse" x="735" y="97" width="54" height="31">
<g id="Group_27">
<path id="path479" fill-rule="evenodd" clip-rule="evenodd" d="M735.184 97.478H788.434V127.478H735.184V97.478Z" fill="white"/>
</g>
</mask>
<g mask="url(#mask27_104_3236)">
<g id="g484">
<path id="path480" d="M706.041 100.935C707.246 99.5039 709.657 100.257 711.238 100.407C715.607 100.859 719.825 98.9759 724.043 97.9219C731.651 95.9629 739.786 96.6409 747.468 98.2229C748.146 98.3739 748.9 98.5239 749.502 99.0519C750.18 99.6539 750.481 100.558 750.707 101.387C751.461 103.948 752.214 106.509 752.967 109.069C753.268 110.124 753.57 111.329 753.193 112.384C752.892 113.288 752.138 113.89 751.611 114.643C750.707 115.924 750.255 117.732 748.824 118.485C748.146 118.861 747.393 118.937 746.715 119.087C743.401 119.539 740.012 119.991 736.697 120.443C735.417 120.594 734.136 120.82 732.856 120.669C730.747 120.443 728.713 119.539 726.604 119.389C724.345 119.238 722.085 120.142 719.825 120.368C716.737 120.669 713.573 119.841 710.561 118.937C708.903 118.485 707.096 117.882 706.117 116.526C705.514 115.698 705.213 114.643 704.987 113.589C704.459 111.254 703.857 108.844 704.309 106.433C704.384 104.927 704.987 102.14 706.041 100.935Z" fill="#787878"/>
<path id="path481" d="M715.381 97.3191C716.887 96.5661 718.394 95.8131 718.921 94.5321C719.072 94.1561 719.147 93.7791 719.448 93.4781C719.674 93.2521 719.976 93.1012 720.352 92.9502C722.311 92.1222 724.57 91.8212 726.83 91.9712C729.542 92.1972 732.027 93.2522 734.513 94.1562C738.128 95.4362 741.97 96.4911 745.887 97.3191C746.64 97.4701 747.393 97.6201 748.071 97.9221C749.954 98.7501 750.481 100.558 750.556 102.215C750.632 104.249 750.255 106.433 748.222 107.789C747.092 108.542 745.585 108.919 744.154 109.22C735.869 110.952 727.056 110.35 718.545 109.747C717.565 109.672 716.586 109.597 715.758 109.145C714.929 108.693 714.477 107.94 713.724 107.488C712.217 106.584 709.882 106.885 708.225 106.132C706.418 105.379 704.61 101.989 706.116 100.633C706.945 99.8801 709.129 99.8801 710.259 99.5031C712.067 98.9011 713.724 98.1481 715.381 97.3191Z" fill="#828282"/>
<path id="path482" d="M741.895 110.425C742.271 110.726 742.723 111.028 743.1 111.404C743.251 111.555 743.401 111.63 743.627 111.555C743.778 111.479 743.853 111.253 743.853 111.103C743.928 109.747 743.627 108.316 742.949 107.111C743.778 107.789 744.456 108.693 744.832 109.747C745.36 109.144 745.36 108.316 745.209 107.563C745.058 106.809 744.832 106.056 744.908 105.303C745.36 106.584 745.812 107.939 746.263 109.22C746.866 108.09 747.695 107.186 748.824 106.508C748.071 108.015 747.619 109.672 747.393 111.404C747.77 110.802 748.372 110.35 748.975 110.048C748.448 111.479 748.222 113.061 748.372 114.643C748.372 114.869 748.448 115.17 748.222 115.321C748.146 115.396 747.996 115.472 747.845 115.547C746.565 115.999 744.38 116.978 743.401 115.472C743.025 114.869 742.949 114.116 742.874 113.438C742.723 112.308 742.422 111.329 741.895 110.425ZM714.854 120.367C715.457 120.819 716.436 121.045 717.189 121.045C718.47 121.045 718.921 120.443 719.223 119.313C719.524 118.108 720.051 116.978 720.805 115.999C719.976 116.074 719.147 116.451 718.62 117.129C719.147 115.773 719.75 114.417 720.579 113.212C719.373 113.363 718.545 114.492 717.942 115.547C717.867 114.342 717.566 113.137 717.038 112.007C716.888 113.061 716.737 114.116 716.511 115.17C715.909 114.266 715.231 113.438 714.628 112.534C714.779 113.287 714.929 114.04 715.08 114.794C715.231 115.472 715.381 116.225 715.08 116.827C714.327 116.225 713.423 115.773 712.519 115.396C713.423 116.827 713.574 119.238 714.854 120.367Z" fill="#656565"/>
<path id="path483" d="M728.487 99.8803C730.747 98.8263 733.609 98.6003 736.02 98.1483C736.246 98.0723 736.472 98.0723 736.698 98.1483C736.924 98.2233 737.15 98.3743 737.3 98.5243C737.978 99.1273 738.656 99.7293 738.957 100.633C739.259 101.462 738.882 102.592 738.053 102.893C737.451 103.119 736.698 102.818 736.17 103.194C735.869 103.42 735.794 103.721 735.568 103.947C735.116 104.399 734.363 104.475 733.685 104.475C733.082 104.475 732.48 104.475 731.877 104.55C730.822 104.55 729.693 104.625 728.789 104.098C726.981 103.194 726.68 100.709 728.487 99.8803ZM740.464 115.095C740.238 115.321 740.087 115.547 740.012 115.773C739.936 115.999 739.936 116.15 739.936 116.376C739.936 117.129 739.936 117.882 739.936 118.56C739.936 118.786 739.936 119.012 740.012 119.163C740.087 119.464 740.313 119.614 740.539 119.84C741.066 120.368 741.518 120.594 742.121 120.895C742.648 121.196 743.175 121.422 743.627 121.723C743.778 121.799 743.929 121.874 744.155 121.949C744.305 121.949 744.456 121.949 744.606 121.874C746.113 121.498 747.619 121.272 749.126 121.121C749.352 121.121 749.653 121.046 749.879 121.121C750.18 121.196 750.406 121.347 750.708 121.422C751.461 121.573 752.139 121.196 752.817 120.82C753.494 120.443 754.248 120.066 755.001 119.69C755.604 119.464 756.206 119.163 756.131 118.409C756.131 118.334 756.131 118.259 756.131 118.108C756.206 117.882 756.432 117.807 756.583 117.581C756.809 117.279 756.733 116.903 756.658 116.602C756.583 116.074 756.432 115.547 756.206 115.095C755.679 113.89 754.172 113.137 753.118 112.459C752.365 111.932 752.063 112.158 751.235 112.459C750.482 112.76 749.804 113.061 749.05 113.363C747.695 113.965 746.264 114.493 744.682 114.643C744.23 114.719 743.778 114.719 743.326 114.493C742.949 114.342 742.648 113.965 742.271 113.815C741.518 113.664 740.916 114.568 740.464 115.095Z" fill="#656565"/>
<path id="path484" d="M729.391 98.8263C729.993 98.2233 730.671 97.6213 731.575 97.5453C732.178 97.4703 732.78 97.6213 733.383 97.7713C734.136 97.9223 734.965 97.9973 735.793 97.9973C736.094 97.9973 736.32 97.9973 736.546 98.0723C736.923 98.1483 737.074 98.4493 737.224 98.6753C737.526 99.2023 737.676 99.7302 737.676 100.332C737.676 100.483 737.676 100.558 737.601 100.709C737.526 100.859 737.375 100.935 737.149 101.01C735.417 101.763 733.383 102.14 731.349 101.989C731.123 101.989 730.897 101.914 730.671 101.839C729.993 101.537 728.186 101.537 727.809 101.085C727.206 100.407 728.939 99.2783 729.391 98.8263ZM741.066 114.869C740.99 115.246 740.84 115.547 740.689 115.924C740.538 116.3 740.689 116.677 740.99 116.978C741.292 117.28 741.744 117.43 742.12 117.656C742.271 117.732 742.421 117.807 742.572 117.807C742.723 117.807 742.949 117.732 743.099 117.732C744.154 117.506 744.756 118.635 745.736 118.861C746.489 119.012 747.317 118.711 747.92 118.334C748.523 117.958 749.125 117.506 749.878 117.355C750.481 117.28 751.159 117.355 751.761 117.355C753.343 117.28 754.624 116.451 755.754 115.623C755.904 115.547 756.055 115.397 756.13 115.246C756.13 115.095 756.13 114.945 756.055 114.794C755.302 113.363 754.247 112.61 752.439 112.007C751.912 111.631 751.46 111.48 750.933 111.48C750.556 111.48 750.18 111.631 749.803 111.781C748.598 112.308 747.317 112.836 746.112 113.363C745.886 113.438 745.66 113.514 745.434 113.589C744.982 113.664 744.606 113.514 744.154 113.438C743.25 113.288 742.346 113.438 741.668 113.89C741.292 114.267 741.141 114.493 741.066 114.869Z" fill="#6F6F6F"/>
</g>
</g>
</g>
<g id="Mask group_28">
<mask id="mask28_104_3236" style="mask-type:luminance" maskUnits="userSpaceOnUse" x="370" y="105" width="55" height="31">
<g id="Group_28">
<path id="path491" fill-rule="evenodd" clip-rule="evenodd" d="M370.771 105.303H424.021V135.303H370.771V105.303Z" fill="white"/>
</g>
</mask>
<g mask="url(#mask28_104_3236)">
<g id="g496">
<path id="path492" d="M372.957 114.417C374.162 112.986 376.573 113.739 378.154 113.89C382.523 114.342 386.741 112.458 390.959 111.404C398.567 109.446 406.702 110.124 414.384 111.705C415.062 111.856 415.816 112.007 416.418 112.534C417.096 113.136 417.397 114.04 417.623 114.869C418.376 117.43 419.13 119.991 419.883 122.552C420.184 123.606 420.486 124.811 420.109 125.866C419.808 126.77 419.054 127.372 418.527 128.126C417.623 129.406 417.171 131.214 415.74 131.967C415.062 132.344 414.309 132.419 413.631 132.57C410.317 133.021 406.928 133.473 403.613 133.925C402.333 134.076 401.052 134.302 399.772 134.151C397.663 133.925 395.629 133.021 393.52 132.871C391.26 132.72 389.001 133.624 386.741 133.85C383.653 134.151 380.489 133.323 377.477 132.419C375.819 131.967 374.012 131.364 373.032 130.009C372.43 129.18 372.129 128.126 371.903 127.071C371.375 124.736 370.773 122.326 371.225 119.915C371.3 118.409 371.903 115.622 372.957 114.417Z" fill="#787878"/>
<path id="path493" d="M382.298 110.801C383.804 110.048 385.311 109.295 385.838 108.014C385.989 107.638 386.064 107.261 386.365 106.96C386.591 106.734 386.893 106.583 387.269 106.433C389.228 105.604 391.487 105.303 393.747 105.453C396.459 105.679 398.944 106.734 401.43 107.638C405.045 108.918 408.887 109.973 412.803 110.801C413.557 110.952 414.31 111.103 414.988 111.404C416.871 112.232 417.398 114.04 417.473 115.697C417.549 117.731 417.172 119.915 415.138 121.271C414.009 122.024 412.502 122.401 411.071 122.702C402.786 124.435 393.973 123.832 385.461 123.229C384.482 123.154 383.503 123.079 382.675 122.627C381.846 122.175 381.394 121.422 380.641 120.97C379.134 120.066 376.799 120.367 375.142 119.614C373.335 118.861 371.527 115.471 373.033 114.115C373.862 113.362 376.046 113.362 377.176 112.986C378.984 112.383 380.641 111.63 382.298 110.801Z" fill="#828282"/>
<path id="path494" d="M408.812 123.907C409.188 124.208 409.64 124.51 410.017 124.886C410.167 125.037 410.318 125.112 410.544 125.037C410.695 124.962 410.77 124.736 410.77 124.585C410.845 123.229 410.544 121.798 409.866 120.593C410.695 121.271 411.373 122.175 411.749 123.229C412.277 122.627 412.277 121.798 412.126 121.045C411.975 120.292 411.749 119.538 411.825 118.785C412.277 120.066 412.728 121.422 413.18 122.702C413.783 121.572 414.611 120.668 415.741 119.99C414.988 121.497 414.536 123.154 414.31 124.886C414.687 124.284 415.289 123.832 415.892 123.531C415.365 124.962 415.139 126.543 415.289 128.125C415.289 128.351 415.365 128.652 415.139 128.803C415.063 128.878 414.913 128.954 414.762 129.029C413.482 129.481 411.297 130.46 410.318 128.954C409.942 128.351 409.866 127.598 409.791 126.92C409.64 125.79 409.339 124.811 408.812 123.907ZM381.771 133.85C382.374 134.302 383.353 134.528 384.106 134.528C385.386 134.528 385.838 133.925 386.14 132.795C386.441 131.59 386.968 130.46 387.721 129.481C386.893 129.556 386.064 129.933 385.537 130.611C386.064 129.255 386.667 127.899 387.495 126.694C386.29 126.845 385.462 127.975 384.859 129.029C384.784 127.824 384.483 126.619 383.955 125.489C383.805 126.543 383.654 127.598 383.428 128.652C382.825 127.749 382.148 126.92 381.545 126.016C381.696 126.769 381.846 127.523 381.997 128.276C382.148 128.954 382.298 129.707 381.997 130.31C381.244 129.707 380.34 129.255 379.436 128.878C380.34 130.31 380.491 132.72 381.771 133.85Z" fill="#656565"/>
<path id="path495" d="M395.403 113.362C397.663 112.308 400.525 112.082 402.936 111.63C403.162 111.554 403.388 111.554 403.614 111.63C403.84 111.705 404.065 111.856 404.216 112.006C404.894 112.609 405.572 113.212 405.873 114.115C406.175 114.944 405.798 116.074 404.969 116.375C404.367 116.601 403.614 116.3 403.086 116.676C402.785 116.902 402.71 117.204 402.484 117.43C402.032 117.882 401.279 117.957 400.601 117.957C399.998 117.957 399.396 117.957 398.793 118.032C397.738 118.032 396.609 118.108 395.705 117.58C393.897 116.676 393.596 114.191 395.403 113.362ZM407.38 128.577C407.154 128.803 407.003 129.029 406.928 129.255C406.852 129.481 406.852 129.632 406.852 129.858C406.852 130.611 406.852 131.364 406.852 132.042C406.852 132.268 406.852 132.494 406.928 132.645C407.003 132.946 407.229 133.097 407.455 133.323C407.982 133.85 408.434 134.076 409.037 134.377C409.564 134.678 410.091 134.904 410.543 135.206C410.694 135.281 410.844 135.356 411.07 135.432C411.221 135.432 411.372 135.432 411.522 135.356C413.029 134.98 414.535 134.754 416.042 134.603C416.268 134.603 416.569 134.528 416.795 134.603C417.096 134.678 417.322 134.829 417.623 134.904C418.377 135.055 419.055 134.678 419.733 134.302C420.41 133.925 421.164 133.549 421.917 133.172C422.519 132.946 423.122 132.645 423.047 131.892C423.047 131.816 423.047 131.741 423.047 131.59C423.122 131.364 423.348 131.289 423.499 131.063C423.725 130.762 423.649 130.385 423.574 130.084C423.499 129.557 423.348 129.029 423.122 128.577C422.595 127.372 421.088 126.619 420.034 125.941C419.281 125.414 418.979 125.64 418.151 125.941C417.398 126.242 416.72 126.544 415.966 126.845C414.611 127.447 413.179 127.975 411.598 128.125C411.146 128.201 410.694 128.201 410.242 127.975C409.865 127.824 409.564 127.447 409.187 127.297C408.434 127.146 407.832 128.05 407.38 128.577Z" fill="#656565"/>
<path id="path496" d="M396.308 112.308C396.91 111.705 397.588 111.103 398.492 111.027C399.095 110.952 399.697 111.103 400.3 111.253C401.053 111.404 401.882 111.479 402.71 111.479C403.011 111.479 403.237 111.479 403.463 111.555C403.84 111.63 403.991 111.931 404.141 112.157C404.442 112.685 404.593 113.212 404.593 113.814C404.593 113.965 404.593 114.04 404.518 114.191C404.442 114.342 404.292 114.417 404.066 114.492C402.333 115.245 400.3 115.622 398.266 115.471C398.04 115.471 397.814 115.396 397.588 115.321C396.91 115.02 395.103 115.02 394.726 114.568C394.123 113.89 395.856 112.76 396.308 112.308ZM407.983 128.352C407.907 128.728 407.757 129.029 407.606 129.406C407.455 129.783 407.606 130.159 407.907 130.461C408.209 130.762 408.661 130.913 409.037 131.138C409.188 131.214 409.338 131.289 409.489 131.289C409.64 131.289 409.866 131.214 410.016 131.214C411.071 130.988 411.673 132.118 412.653 132.344C413.406 132.494 414.234 132.193 414.837 131.816C415.44 131.44 416.042 130.988 416.795 130.837C417.398 130.762 418.076 130.837 418.678 130.837C420.26 130.762 421.541 129.933 422.67 129.105C422.821 129.029 422.972 128.879 423.047 128.728C423.047 128.578 423.047 128.427 422.972 128.276C422.219 126.845 421.164 126.092 419.356 125.489C418.829 125.113 418.377 124.962 417.85 124.962C417.473 124.962 417.097 125.113 416.72 125.263C415.515 125.791 414.234 126.318 413.029 126.845C412.803 126.92 412.577 126.996 412.351 127.071C411.899 127.146 411.523 126.996 411.071 126.92C410.167 126.77 409.263 126.92 408.585 127.372C408.209 127.749 408.058 127.975 407.983 128.352Z" fill="#6F6F6F"/>
</g>
</g>
</g>
</g>
</g>
</g>
</g>
</g>
<defs>
<clipPath id="clip0_104_3236">
<rect width="809.606" height="146.532" fill="white" transform="translate(0.959473 0.553223)"/>
</clipPath>
</defs>
</svg>
