<svg width="708" height="136" viewBox="0 0 708 136" fill="none" xmlns="http://www.w3.org/2000/svg">
<g id="CHAO2_ENFEITADO" clip-path="url(#clip0_104_3235)">
<g id="Clip path group">
<mask id="mask0_104_3235" style="mask-type:luminance" maskUnits="userSpaceOnUse" x="0" y="-655" width="1441" height="818">
<g id="clip0_103_8241">
<path id="rect532" d="M1440.21 -654.719H0.211914V162.781H1440.21V-654.719Z" fill="white"/>
</g>
</mask>
<g mask="url(#mask0_104_3235)">
<g id="g528">
<g id="g535">
<g id="Mask group">
<mask id="mask1_104_3235" style="mask-type:luminance" maskUnits="userSpaceOnUse" x="-1" y="-1" width="709" height="137">
<g id="Group">
<g id="Mask group_2">
<mask id="mask2_104_3235" style="mask-type:luminance" maskUnits="userSpaceOnUse" x="-733" y="-675" width="1441" height="811">
<g id="Group_2">
<path id="path345" fill-rule="evenodd" clip-rule="evenodd" d="M-732.674 -674.758H707.326V135.242H-732.674V-674.758Z" fill="white"/>
</g>
</mask>
<g mask="url(#mask2_104_3235)">
<g id="g346">
<path id="path346" fill-rule="evenodd" clip-rule="evenodd" d="M-0.614746 -0.117676H707.566V135.482H-0.614746V-0.117676Z" fill="white"/>
</g>
</g>
</g>
</g>
</mask>
<g mask="url(#mask1_104_3235)">
<g id="g349">
<path id="path347" d="M0.211952 145.349C0.211952 146.018 0.787985 146.595 1.45798 146.595C1.75598 146.595 2.07198 146.577 2.38798 146.595C9.38498 147.172 16.7159 146.539 23.7489 146.502C39.1919 146.428 54.636 146.372 70.079 146.298C120.15 146.093 170.202 145.888 220.273 145.702C285.916 145.442 351.546 145.2 417.166 144.977C486.256 144.754 555.326 144.549 624.406 144.381C685.516 144.251 746.636 144.139 807.736 144.139C808.426 144.139 809.006 143.563 809.006 142.874C809.006 123.077 809.006 103.261 809.006 83.4633C809.896 83.1473 809.736 81.9192 809.006 81.5472C809.006 61.7492 809.006 41.9332 809.006 22.1362C809.006 20.5542 806.626 20.5172 806.496 21.9872C806.456 22.0062 806.416 22.0243 806.386 22.0433C786.176 33.6343 762.196 27.9972 741.126 22.1542C730.636 19.2332 720.106 16.2932 709.236 15.1392C698.646 14.0052 688.396 15.0842 678.326 18.5442C668.896 21.7822 659.596 26.3782 649.476 26.8802C638.646 27.4202 628.226 23.3643 617.416 23.4943C603.586 23.6613 589.666 25.8012 575.996 27.6992C567.456 28.8712 558.946 30.2673 550.466 31.6813C537.086 30.3043 523.656 30.2112 510.236 31.4202C493.236 32.9462 476.396 36.0542 459.326 37.2632C397.966 41.5982 339.136 19.1402 278.936 11.5862C250.192 7.95824 220.644 7.99524 192.734 16.5732C177.737 21.1872 163.112 28.5373 147.223 29.4113C132.132 30.2483 118.773 23.8662 105.971 16.6282C95.626 10.8042 84.7969 3.51023 72.9259 1.33422C63.1939 -0.452775 53.054 0.478244 43.341 1.96624C29.052 4.14324 14.743 7.80926 1.12296 12.6843C0.620963 12.8703 0.229958 13.2983 0.229958 13.8743C0.229958 57.6943 0.210952 101.531 0.211952 145.349Z" fill="#D8B880"/>
<path id="path348" d="M0.224915 13.8694C0.224915 13.2934 0.613944 12.8653 1.12994 12.6803C14.7499 7.80434 29.0469 4.14236 43.3389 1.96336C53.0509 0.482361 63.1929 -0.454673 72.9299 1.32933C84.8059 3.50533 95.6209 10.7973 105.963 16.6333C118.777 23.8633 132.126 30.2513 147.219 29.4143C163.118 28.5313 177.741 21.1833 192.739 16.5733C220.653 7.99535 250.192 7.96633 278.936 11.5793C339.126 19.1443 397.966 41.6013 459.336 37.2633C476.386 36.0583 493.226 32.9383 510.246 31.4143C523.636 30.2143 537.046 30.3213 550.406 31.6833C558.926 30.2703 567.436 28.8784 575.986 27.6924C589.666 25.7944 603.586 23.6703 617.416 23.4953C628.226 23.3583 638.646 27.4173 649.466 26.8783C659.586 26.3753 668.896 21.7844 678.326 18.5434C688.396 15.0804 698.646 13.9983 709.236 15.1363C720.096 16.3023 730.646 19.2354 741.126 22.1484C762.186 27.9984 786.166 33.6394 806.386 22.0494C806.426 22.0254 806.466 22.0263 806.506 22.0083C806.656 20.5263 809.016 20.5583 809.016 22.1393C809.016 41.9513 809.016 61.7654 809.016 81.5784C809.716 81.9494 809.866 83.1094 809.016 83.4584C809.016 103.264 809.016 123.069 809.016 142.875C809.016 143.559 808.436 144.14 807.746 144.14C746.636 144.14 685.516 144.249 624.406 144.388C555.326 144.545 486.246 144.75 417.166 144.979C351.536 145.198 285.906 145.439 220.28 145.697C170.211 145.893 120.141 146.092 70.0709 146.304C54.6299 146.369 39.1889 146.435 23.7479 146.503C16.7199 146.534 9.39094 147.172 2.37994 146.597C2.07694 146.573 1.76195 146.6 1.45795 146.601C0.784947 146.604 0.211914 146.028 0.211914 145.356C0.216914 101.526 0.220915 57.6984 0.224915 13.8694ZM687.556 18.7173C677.556 20.9123 668.416 25.7993 658.486 28.2273C653.546 29.4353 648.536 29.8883 643.466 29.4743C638.326 29.0543 633.266 27.9743 628.186 27.1573C620.226 25.8783 612.456 26.2933 604.476 27.0133C597.116 27.6773 589.766 28.5613 582.436 29.5263C575.096 30.4923 567.766 31.5664 560.436 32.6324C560.106 32.6804 559.776 32.7314 559.446 32.7804C584.196 36.2924 608.246 43.4903 631.896 51.4723C682.056 68.4073 733.666 90.6084 787.806 85.0004C794.096 84.3493 800.316 83.2733 806.486 81.8833C806.486 62.7253 806.486 43.5684 806.486 24.4104C768.226 46.0284 727.216 10.0043 687.556 18.7173ZM57.0659 143.857C104.358 143.646 151.65 143.44 198.942 143.251C263.325 142.995 327.706 142.754 392.086 142.534C461.536 142.297 530.986 142.084 600.436 141.915C662.876 141.762 725.306 141.64 787.746 141.614C793.996 141.612 800.236 141.61 806.486 141.61C806.486 122.425 806.486 103.24 806.486 84.0544C754.636 95.5314 703.586 78.8583 654.876 61.8783C629.176 52.9183 603.406 43.7884 576.716 38.1924C568.146 36.3954 559.486 34.9793 550.786 34.0633C550.606 34.0783 550.436 34.0644 550.286 34.0154C545.416 33.5144 540.526 33.1624 535.636 32.9994C519.486 32.4634 503.516 34.3384 487.536 36.4574C471.156 38.6314 454.826 40.4904 438.266 40.1244C423.586 39.8014 408.956 38.1673 394.466 35.8913C364.226 31.1413 334.536 23.5114 304.446 17.9964C274.856 12.5744 244.291 9.10338 214.377 14.0094C199.318 16.4784 185.424 21.8444 171.028 26.6504C157.201 31.2654 143.032 33.8193 128.745 29.7063C115.955 26.0253 104.755 18.5143 93.1629 12.2323C82.6289 6.52434 72.7479 2.71838 60.6849 2.85338C41.9049 3.06338 22.9529 8.03933 5.20294 13.8943C4.36294 14.1713 3.52692 14.4594 2.69092 14.7494C2.69492 57.8674 2.69892 100.986 2.70392 144.104C20.8239 144.019 38.9449 143.938 57.0659 143.857Z" fill="#D8B880"/>
<path id="path349" d="M461.356 98.4322C474.116 97.8972 486.916 98.0012 499.626 99.3452C512.346 100.69 525.486 102.881 537.586 107.137C538.236 107.365 539.126 106.987 539.436 106.385C543.086 99.3082 551.446 97.9782 558.706 98.1192C586.226 98.6582 610.396 120.391 638.526 114.209C639.916 113.903 639.306 111.886 637.946 112.106C629.716 113.444 621.246 112.299 613.266 110.101C599.186 106.22 585.996 99.5011 571.696 96.3391C564.996 94.8601 557.936 94.0792 551.126 95.1682C545.596 96.0512 539.876 98.6312 537.156 103.671C524.996 100.744 512.976 97.8881 500.506 96.4801C487.506 95.0131 474.376 94.6622 461.356 95.9312C459.776 96.0842 459.726 98.4992 461.356 98.4322ZM697.746 54.8031C704.446 58.5851 712.276 57.6561 719.536 56.3831C723.336 55.7181 727.136 54.9821 730.986 54.8021C734.726 54.6281 738.306 55.1941 741.936 56.0531C745.536 56.9071 749.186 57.9871 752.936 57.7711C756.936 57.5411 760.496 55.5672 764.246 54.3672C768.956 52.8632 775.126 52.8252 777.976 57.5542C778.666 58.6912 777.006 59.5662 776.246 58.5672C771.706 52.5752 763.336 57.6161 758.046 59.3491C751.166 61.6021 744.776 59.0381 737.996 57.8101C724.446 55.3521 709.246 64.9762 696.656 56.6612C695.506 55.9032 696.526 54.1181 697.746 54.8031ZM140.451 36.6151C150.653 38.8851 158.076 46.0932 165.971 52.4232C170.351 55.9352 174.995 59.1311 180.287 61.1021C186.146 63.2841 192.38 64.1982 198.591 64.6212C211.065 65.4702 223.532 65.1752 235.985 66.5482C248.578 67.9352 261.056 70.2642 273.286 73.5822C287.156 77.3452 300.626 82.3432 313.596 88.5412C315.016 89.2232 313.776 91.2872 312.356 90.6502C288.716 80.0012 263.454 72.8131 237.683 69.8081C225.198 68.3521 212.728 68.5091 200.206 67.8111C189.004 67.1871 178.084 65.0042 168.777 58.4162C159.369 51.7572 151.406 41.7902 139.84 38.8302C138.403 38.4622 139.012 36.2951 140.451 36.6151Z" fill="#C48551"/>
</g>
</g>
</g>
<g id="g538">
<g id="Mask group_3">
<mask id="mask3_104_3235" style="mask-type:luminance" maskUnits="userSpaceOnUse" x="414" y="36" width="212" height="100">
<g id="Group_3">
<g id="Mask group_4">
<mask id="mask4_104_3235" style="mask-type:luminance" maskUnits="userSpaceOnUse" x="-733" y="-675" width="1441" height="811">
<g id="Group_4">
<path id="path381" fill-rule="evenodd" clip-rule="evenodd" d="M-732.674 -674.758H707.326V135.242H-732.674V-674.758Z" fill="white"/>
</g>
</mask>
<g mask="url(#mask4_104_3235)">
<g id="g382">
<path id="path382" fill-rule="evenodd" clip-rule="evenodd" d="M414.816 36.5791H625.996V135.482H414.816V36.5791Z" fill="white"/>
</g>
</g>
</g>
</g>
</mask>
<g mask="url(#mask3_104_3235)">
<g id="g385">
<path id="path383" fill-rule="evenodd" clip-rule="evenodd" d="M422.778 30.4141L405.668 43.7831C393.908 53.4081 387.058 60.1781 385.088 64.1031C379.568 75.5151 383.578 83.8891 397.118 89.2371C404.778 92.4451 412.358 94.6751 419.828 95.9211C428.208 97.3491 438.448 97.9691 450.568 97.7931C460.548 97.6161 469.188 96.28 476.498 93.782C486.478 90.397 492.448 88.5311 494.408 88.1671C500.468 87.0981 499.658 82.82 491.998 75.3391C480.418 65.5311 472.308 57.7831 467.678 52.0721C461.268 44.5851 455.558 39.7721 450.578 37.6331C449.868 37.4511 440.598 35.0501 422.778 30.4141Z" fill="#94897B"/>
<path id="path384" fill-rule="evenodd" clip-rule="evenodd" d="M385.088 64.1042C379.568 75.5152 383.578 83.8902 397.118 89.2372C404.788 92.4462 412.358 94.6762 419.838 95.9222C428.218 97.3492 438.458 97.9702 450.578 97.7932C460.558 97.6172 469.198 96.2802 476.508 93.7822C486.478 90.3982 492.448 88.5312 494.418 88.1682C498.518 87.4562 499.758 85.5852 498.158 82.5532C496.908 80.2322 493.608 76.6702 488.268 71.8582C479.538 76.3122 469.378 79.4352 457.798 81.2162C446.388 82.9972 436.238 82.9062 427.328 80.9482C422.878 79.8792 418.328 75.5102 413.698 67.8472C411.378 63.7452 410.128 61.6062 409.958 61.4302C408.348 59.2962 406.388 58.0452 404.078 57.6872C399.968 56.9752 396.848 55.7292 394.718 53.9492L394.448 53.4092C389.458 58.2212 386.338 61.7882 385.088 64.1042Z" fill="#787066"/>
<path id="path385" fill-rule="evenodd" clip-rule="evenodd" d="M397.919 65.4399C392.929 70.4349 388.299 74.7079 384.019 78.2739C386.159 83.0869 390.519 86.7399 397.119 89.2369C404.789 92.4449 412.359 94.675 419.839 95.921C428.219 97.349 438.458 97.969 450.578 97.793C460.558 97.616 469.199 96.2799 476.509 93.7819C486.479 90.3969 492.449 88.5309 494.419 88.1669C497.619 87.6329 499.048 86.2959 498.688 84.1569C498.328 82.5519 496.639 80.1459 493.609 76.9379C487.559 84.7819 478.739 90.306 467.149 93.515C456.639 96.365 446.209 96.905 435.879 95.119C427.149 93.691 419.569 89.868 413.159 83.627C406.559 75.601 401.489 69.5369 397.919 65.4399Z" fill="#635C55"/>
</g>
</g>
</g>
</g>
<g id="g536">
<g id="Mask group_5">
<mask id="mask5_104_3235" style="mask-type:luminance" maskUnits="userSpaceOnUse" x="160" y="35" width="69" height="32">
<g id="Group_5">
<g id="Mask group_6">
<mask id="mask6_104_3235" style="mask-type:luminance" maskUnits="userSpaceOnUse" x="123" y="13" width="107" height="61">
<g id="Group_6">
<g id="Mask group_7">
<mask id="mask7_104_3235" style="mask-type:luminance" maskUnits="userSpaceOnUse" x="-733" y="-675" width="1441" height="811">
<g id="Group_7">
<path id="path407" fill-rule="evenodd" clip-rule="evenodd" d="M-732.674 -674.758H707.326V135.242H-732.674V-674.758Z" fill="white"/>
</g>
</mask>
<g mask="url(#mask7_104_3235)">
<g id="g408">
<path id="path408" fill-rule="evenodd" clip-rule="evenodd" d="M123.561 13.6904H229.147V73.6904H123.561V13.6904Z" fill="white"/>
</g>
</g>
</g>
</g>
</mask>
<g mask="url(#mask6_104_3235)">
<g id="g409">
<path id="path409" fill-rule="evenodd" clip-rule="evenodd" d="M160.916 35.3521H228.957V66.0461H160.916V35.3521Z" fill="white"/>
</g>
</g>
</g>
</g>
</mask>
<g mask="url(#mask5_104_3235)">
<g id="g410">
<path id="path410" fill-rule="evenodd" clip-rule="evenodd" d="M209.312 35.4832C191.763 34.6762 178.22 37.5932 168.686 44.2282C165.123 46.6492 162.76 49.2052 161.603 51.8962C160.534 54.3182 160.713 56.0212 162.138 57.0082C165.345 59.1612 169.087 60.8662 173.363 62.1202C179.155 63.8232 186.682 65.0802 195.948 65.8872C204.501 66.6052 212.565 64.9002 220.137 60.7752C223.879 58.7112 226.819 56.5592 228.957 54.3182L209.312 35.4832Z" fill="black"/>
</g>
</g>
</g>
<g id="Mask group_8">
<mask id="mask8_104_3235" style="mask-type:luminance" maskUnits="userSpaceOnUse" x="123" y="13" width="107" height="61">
<g id="Group_8">
<g id="Mask group_9">
<mask id="mask9_104_3235" style="mask-type:luminance" maskUnits="userSpaceOnUse" x="-733" y="-675" width="1441" height="811">
<g id="Group_9">
<path id="path411" fill-rule="evenodd" clip-rule="evenodd" d="M-732.674 -674.758H707.326V135.242H-732.674V-674.758Z" fill="white"/>
</g>
</mask>
<g mask="url(#mask9_104_3235)">
<g id="g412">
<path id="path412" fill-rule="evenodd" clip-rule="evenodd" d="M123.561 13.6904H229.147V73.6904H123.561V13.6904Z" fill="white"/>
</g>
</g>
</g>
</g>
</mask>
<g mask="url(#mask8_104_3235)">
<g id="g415">
<path id="path413" fill-rule="evenodd" clip-rule="evenodd" d="M178.44 27.9503L171.892 55.1253L199.555 65.0803L228.956 54.3183C228.6 48.3103 227.443 42.9293 225.481 38.1743L222.675 32.7933C220.181 29.4763 217.329 26.2013 214.122 22.9733C207.707 16.6043 202.851 13.6013 199.555 13.9593C196.169 14.3173 191.625 16.7383 185.924 21.2243C183.072 23.5543 180.579 25.7983 178.44 27.9503Z" fill="#94897B"/>
<path id="path414" fill-rule="evenodd" clip-rule="evenodd" d="M227.486 44.6323H227.352C224.057 45.9773 221.117 46.6963 218.532 46.7843C215.592 46.8733 212.652 46.2463 209.712 44.9013C207.397 44.0053 204.145 43.5563 199.956 43.5563C195.592 43.6443 192.384 43.3323 190.334 42.6143C187.662 41.7183 185.301 39.7893 183.251 36.8293C181.292 33.9613 179.91 30.7753 179.109 27.2783L178.44 27.9503L171.892 55.1253L199.555 65.0803L228.956 54.3183C228.689 50.8203 228.199 47.5923 227.486 44.6323Z" fill="#787066"/>
<path id="path415" fill-rule="evenodd" clip-rule="evenodd" d="M207.306 45.1703L207.44 44.4974C206.104 45.2164 204.855 46.5154 203.698 48.3994C201.827 51.1784 200.715 52.7954 200.357 53.2424C197.15 57.0084 192.785 57.7734 187.261 55.5314C184.141 54.3644 181.915 52.3034 180.579 49.3434C178.173 47.3714 176.348 44.8124 175.099 41.6724L171.895 55.1254L199.555 65.0804L228.956 54.3184L228.689 51.0894C223.699 55.1254 217.821 57.2323 211.048 57.4153C210.158 57.4153 209.356 57.1433 208.643 56.6053C207.929 55.9813 207.485 55.2604 207.306 54.4524C206.414 51.3134 206.414 48.2183 207.306 45.1703Z" fill="#635C55"/>
</g>
</g>
</g>
</g>
<g id="g537">
<g id="Mask group_10">
<mask id="mask10_104_3235" style="mask-type:luminance" maskUnits="userSpaceOnUse" x="123" y="53" width="68" height="21">
<g id="Group_10">
<g id="Mask group_11">
<mask id="mask11_104_3235" style="mask-type:luminance" maskUnits="userSpaceOnUse" x="123" y="13" width="107" height="61">
<g id="Group_11">
<g id="Mask group_12">
<mask id="mask12_104_3235" style="mask-type:luminance" maskUnits="userSpaceOnUse" x="-733" y="-675" width="1441" height="811">
<g id="Group_12">
<path id="path416" fill-rule="evenodd" clip-rule="evenodd" d="M-732.674 -674.758H707.326V135.242H-732.674V-674.758Z" fill="white"/>
</g>
</mask>
<g mask="url(#mask12_104_3235)">
<g id="g417">
<path id="path417" fill-rule="evenodd" clip-rule="evenodd" d="M123.561 13.6904H229.147V73.6904H123.561V13.6904Z" fill="white"/>
</g>
</g>
</g>
</g>
</mask>
<g mask="url(#mask11_104_3235)">
<g id="g418">
<path id="path418" fill-rule="evenodd" clip-rule="evenodd" d="M123.799 53.543H190.335V73.5259H123.799V53.543Z" fill="white"/>
</g>
</g>
</g>
</g>
</mask>
<g mask="url(#mask10_104_3235)">
<g id="g419">
<path id="path419" fill-rule="evenodd" clip-rule="evenodd" d="M124.718 58.7573C123.203 59.7443 123.558 61.4023 125.787 63.7343C128.193 66.1563 131.667 67.7703 136.211 68.5773C143.072 70.1923 148.46 71.4033 152.381 72.2103C159.51 73.5553 166.013 73.8703 171.893 73.1513C177.861 72.3443 182.717 71.1343 186.459 69.5193C188.33 68.7123 189.621 67.9513 190.335 67.2323L164.81 56.0663C157.505 53.3763 149.04 52.8383 139.418 54.4523C132.29 55.6173 127.391 57.0543 124.718 58.7573Z" fill="black"/>
</g>
</g>
</g>
<g id="Mask group_13">
<mask id="mask13_104_3235" style="mask-type:luminance" maskUnits="userSpaceOnUse" x="123" y="13" width="107" height="61">
<g id="Group_13">
<g id="Mask group_14">
<mask id="mask14_104_3235" style="mask-type:luminance" maskUnits="userSpaceOnUse" x="-733" y="-675" width="1441" height="811">
<g id="Group_14">
<path id="path420" fill-rule="evenodd" clip-rule="evenodd" d="M-732.674 -674.758H707.326V135.242H-732.674V-674.758Z" fill="white"/>
</g>
</mask>
<g mask="url(#mask14_104_3235)">
<g id="g421">
<path id="path421" fill-rule="evenodd" clip-rule="evenodd" d="M123.561 13.6904H229.147V73.6904H123.561V13.6904Z" fill="white"/>
</g>
</g>
</g>
</g>
</mask>
<g mask="url(#mask13_104_3235)">
<g id="g424">
<path id="path422" fill-rule="evenodd" clip-rule="evenodd" d="M154.52 38.1743L145.967 44.9013C140.087 49.7443 136.658 53.1503 135.674 55.1253C132.913 60.8673 134.918 65.0803 141.688 67.7713C145.52 69.3853 149.308 70.5073 153.047 71.1343C157.235 71.8523 162.356 72.1643 168.415 72.0753C173.406 71.9873 177.725 71.3143 181.381 70.0583C186.368 68.3543 189.354 67.4153 190.335 67.2323C193.366 66.6943 192.962 64.5423 189.132 60.7783C183.34 55.8433 179.286 51.9453 176.971 49.0713C173.764 45.3043 170.912 42.8833 168.418 41.8063C168.063 41.7153 163.428 40.5073 154.52 38.1743Z" fill="#94897B"/>
<path id="path423" fill-rule="evenodd" clip-rule="evenodd" d="M135.676 55.1252C132.915 60.8662 134.92 65.0802 141.69 67.7702C145.523 69.3852 149.31 70.5072 153.049 71.1342C157.238 71.8522 162.359 72.1642 168.418 72.0752C173.408 71.9872 177.727 71.3142 181.384 70.0572C186.371 68.3542 189.356 67.4152 190.337 67.2322C192.387 66.8742 193.01 65.9332 192.208 64.4072C191.586 63.2392 189.936 61.4482 187.264 59.0262C182.899 61.2672 177.818 62.8392 172.029 63.7342C166.325 64.6302 161.25 64.5852 156.794 63.6002C154.568 63.0622 152.293 60.8642 149.978 57.0082C148.818 54.9442 148.196 53.8682 148.108 53.7792C147.306 52.7062 146.325 52.0762 145.167 51.8962C143.115 51.5382 141.557 50.9112 140.49 50.0152L140.354 49.7432C137.86 52.1652 136.299 53.9602 135.676 55.1252Z" fill="#787066"/>
<path id="path424" fill-rule="evenodd" clip-rule="evenodd" d="M142.091 55.7983C139.595 58.3113 137.28 60.4603 135.142 62.2553C136.211 64.6773 138.392 66.5143 141.69 67.7713C145.523 69.3853 149.311 70.5073 153.05 71.1343C157.238 71.8523 162.359 72.1643 168.418 72.0763C173.408 71.9873 177.727 71.3143 181.384 70.0583C186.371 68.3553 189.357 67.4163 190.338 67.2333C191.941 66.9643 192.655 66.2913 192.476 65.2153C192.297 64.4083 191.452 63.1973 189.937 61.5823C186.908 65.5303 182.498 68.3093 176.706 69.9233C171.449 71.3573 166.237 71.6293 161.068 70.7303C156.703 70.0123 152.916 68.0883 149.709 64.9483C146.411 60.9103 143.874 57.8593 142.091 55.7983Z" fill="#635C55"/>
</g>
</g>
</g>
</g>
<g id="Mask group_15">
<mask id="mask15_104_3235" style="mask-type:luminance" maskUnits="userSpaceOnUse" x="-28" y="21" width="55" height="31">
<g id="Group_15">
<path id="path485" fill-rule="evenodd" clip-rule="evenodd" d="M-27.1528 21.5112H26.0972V51.5112H-27.1528V21.5112Z" fill="white"/>
</g>
</mask>
<g mask="url(#mask15_104_3235)">
<g id="g490">
<path id="path486" d="M7.23468 31.0604C8.43968 29.6284 10.8497 30.3824 12.4317 30.5324C16.8007 30.9844 21.0187 29.1014 25.2367 28.0474C32.8437 26.0884 40.9787 26.7664 48.6617 28.3484C49.3397 28.4994 50.0927 28.6494 50.6957 29.1774C51.3737 29.7794 51.6747 30.6834 51.9007 31.5124C52.6537 34.0734 53.4067 36.6334 54.1597 39.1944C54.4617 40.2494 54.7627 41.4544 54.3857 42.5094C54.0847 43.4124 53.3317 44.0154 52.8047 44.7684C51.9007 46.0494 51.4487 47.8564 50.0177 48.6104C49.3397 48.9864 48.5867 49.0624 47.9087 49.2124C44.5947 49.6644 41.2047 50.1164 37.8907 50.5684C36.6097 50.7194 35.3296 50.9454 34.0486 50.7944C31.9396 50.5684 29.9067 49.6644 27.7977 49.5144C25.5377 49.3634 23.2777 50.2674 21.0187 50.4934C17.9297 50.7944 14.7667 49.9664 11.7537 49.0624C10.0967 48.6104 8.28869 48.0074 7.30969 46.6514C6.70669 45.8234 6.40569 44.7684 6.17969 43.7144C5.65269 41.3794 5.04965 38.9684 5.50165 36.5584C5.57765 35.0524 6.17968 32.2654 7.23468 31.0604Z" fill="#787878"/>
<path id="path487" d="M16.5735 27.4447C18.0805 26.6917 19.5865 25.9386 20.1145 24.6576C20.2645 24.2816 20.3405 23.9047 20.6415 23.6037C20.8675 23.3777 21.1685 23.2266 21.5455 23.0756C23.5035 22.2476 25.7635 21.9466 28.0225 22.0966C30.7345 22.3226 33.2205 23.3776 35.7055 24.2816C39.3215 25.5616 43.1625 26.6157 47.0795 27.4447C47.8325 27.5957 48.5855 27.7456 49.2635 28.0476C51.1465 28.8756 51.6745 30.6837 51.7495 32.3407C51.8245 34.3747 51.4485 36.5586 49.4145 37.9146C48.2845 38.6676 46.7785 39.0447 45.3475 39.3457C37.0615 41.0777 28.2485 40.4756 19.7375 39.8726C18.7585 39.7976 17.7795 39.7227 16.9505 39.2707C16.1225 38.8187 15.6705 38.0646 14.9165 37.6136C13.4105 36.7096 11.0755 37.0107 9.41851 36.2577C7.61051 35.5047 5.8025 32.1146 7.3095 30.7586C8.1375 30.0056 10.3225 30.0056 11.4525 29.6286C13.2595 29.0266 14.9165 28.2737 16.5735 27.4447Z" fill="#828282"/>
<path id="path488" d="M43.0879 40.5507C43.4649 40.8517 43.9169 41.1527 44.2929 41.5297C44.4439 41.6807 44.5949 41.7557 44.8209 41.6807C44.9709 41.6047 45.0469 41.3788 45.0469 41.2288C45.1219 39.8728 44.8209 38.4418 44.1429 37.2368C44.9709 37.9148 45.6489 38.8177 46.0259 39.8727C46.5529 39.2697 46.5529 38.4417 46.4019 37.6887C46.2519 36.9347 46.0259 36.1817 46.1009 35.4287C46.5529 36.7087 47.0049 38.0648 47.4569 39.3458C48.0599 38.2158 48.8879 37.3117 50.0179 36.6337C49.2649 38.1407 48.8129 39.7977 48.5869 41.5297C48.9629 40.9277 49.5659 40.4757 50.1689 40.1737C49.6409 41.6047 49.4149 43.1867 49.5659 44.7687C49.5659 44.9947 49.6409 45.2957 49.4149 45.4467C49.3399 45.5217 49.1889 45.5967 49.0389 45.6727C47.7579 46.1247 45.5739 47.1037 44.5949 45.5967C44.2179 44.9947 44.1429 44.2417 44.0669 43.5637C43.9169 42.4337 43.6149 41.4547 43.0879 40.5507ZM16.0479 50.4927C16.6499 50.9447 17.6289 51.1707 18.3829 51.1707C19.6629 51.1707 20.1149 50.5687 20.4159 49.4387C20.7179 48.2337 21.2449 47.1038 21.9979 46.1248C21.1689 46.1998 20.3409 46.5768 19.8139 47.2548C20.3409 45.8988 20.9429 44.5427 21.7719 43.3377C20.5669 43.4877 19.7379 44.6177 19.1359 45.6727C19.0599 44.4677 18.7589 43.2618 18.2319 42.1328C18.0809 43.1868 17.9309 44.2417 17.7049 45.2957C17.1019 44.3917 16.4239 43.5637 15.8219 42.6597C15.9719 43.4127 16.1229 44.1657 16.2739 44.9197C16.4239 45.5967 16.5749 46.3508 16.2739 46.9528C15.5199 46.3508 14.6159 45.8987 13.7129 45.5217C14.6159 46.9527 14.7669 49.3637 16.0479 50.4927Z" fill="#656565"/>
</g>
</g>
</g>
<g id="Mask group_16">
<mask id="mask16_104_3235" style="mask-type:luminance" maskUnits="userSpaceOnUse" x="97" y="105" width="54" height="31">
<g id="Group_16">
<path id="path497" fill-rule="evenodd" clip-rule="evenodd" d="M97.4902 105.104H150.74V135.104H97.4902V105.104Z" fill="white"/>
</g>
</mask>
<g mask="url(#mask16_104_3235)">
<g id="g502">
<path id="path498" d="M99.677 114.218C100.882 112.787 103.293 113.54 104.875 113.691C109.243 114.143 113.461 112.259 117.679 111.205C125.287 109.247 133.422 109.925 141.105 111.506C141.782 111.657 142.536 111.808 143.138 112.335C143.816 112.937 144.117 113.841 144.343 114.67C145.097 117.231 145.85 119.792 146.603 122.353C146.904 123.407 147.206 124.612 146.829 125.667C146.528 126.571 145.774 127.173 145.247 127.927C144.343 129.207 143.891 131.015 142.46 131.768C141.782 132.145 141.029 132.22 140.351 132.371C137.037 132.822 133.648 133.274 130.333 133.726C129.053 133.877 127.772 134.103 126.492 133.952C124.383 133.726 122.349 132.822 120.24 132.672C117.981 132.521 115.721 133.425 113.461 133.651C110.373 133.952 107.21 133.124 104.197 132.22C102.54 131.768 100.732 131.165 99.753 129.81C99.15 128.981 98.849 127.927 98.623 126.872C98.096 124.537 97.493 122.127 97.945 119.716C98.02 118.21 98.623 115.423 99.677 114.218Z" fill="#787878"/>
<path id="path499" d="M109.017 110.602C110.523 109.849 112.03 109.096 112.557 107.815C112.708 107.439 112.783 107.062 113.084 106.761C113.31 106.535 113.612 106.384 113.988 106.234C115.947 105.405 118.206 105.104 120.466 105.254C123.178 105.48 125.663 106.535 128.149 107.439C131.764 108.719 135.606 109.774 139.523 110.602C140.276 110.753 141.029 110.904 141.707 111.205C143.59 112.033 144.117 113.841 144.193 115.498C144.268 117.532 143.891 119.716 141.858 121.072C140.728 121.825 139.221 122.202 137.79 122.503C129.505 124.236 120.692 123.633 112.181 123.03C111.201 122.955 110.222 122.88 109.394 122.428C108.565 121.976 108.113 121.223 107.36 120.771C105.854 119.867 103.519 120.168 101.861 119.415C100.054 118.662 98.2458 115.272 99.7518 113.916C100.581 113.163 102.765 113.163 103.895 112.787C105.703 112.184 107.36 111.431 109.017 110.602Z" fill="#828282"/>
<path id="path500" d="M135.531 123.708C135.907 124.009 136.359 124.311 136.736 124.687C136.887 124.838 137.037 124.913 137.263 124.838C137.414 124.763 137.489 124.537 137.489 124.386C137.564 123.03 137.263 121.599 136.585 120.394C137.414 121.072 138.092 121.976 138.468 123.03C138.996 122.428 138.996 121.599 138.845 120.846C138.694 120.093 138.468 119.339 138.544 118.586C138.996 119.867 139.448 121.223 139.899 122.503C140.502 121.373 141.331 120.469 142.46 119.791C141.707 121.298 141.255 122.955 141.029 124.687C141.406 124.085 142.009 123.633 142.611 123.332C142.084 124.763 141.858 126.344 142.009 127.926C142.009 128.152 142.084 128.453 141.858 128.604C141.783 128.679 141.632 128.755 141.481 128.83C140.201 129.282 138.016 130.261 137.037 128.755C136.661 128.152 136.585 127.399 136.51 126.721C136.359 125.591 136.058 124.612 135.531 123.708ZM108.49 133.651C109.093 134.103 110.072 134.329 110.825 134.329C112.106 134.329 112.557 133.726 112.859 132.596C113.16 131.391 113.687 130.261 114.441 129.282C113.612 129.357 112.783 129.734 112.256 130.412C112.783 129.056 113.386 127.7 114.215 126.495C113.009 126.646 112.181 127.776 111.578 128.83C111.503 127.625 111.202 126.42 110.674 125.29C110.524 126.344 110.373 127.399 110.147 128.453C109.545 127.55 108.867 126.721 108.264 125.817C108.415 126.57 108.565 127.324 108.716 128.077C108.867 128.755 109.017 129.508 108.716 130.111C107.963 129.508 107.059 129.056 106.155 128.679C107.059 130.111 107.21 132.521 108.49 133.651Z" fill="#656565"/>
<path id="path501" d="M122.124 113.163C124.383 112.109 127.245 111.883 129.656 111.431C129.882 111.355 130.108 111.355 130.334 111.431C130.56 111.506 130.786 111.657 130.936 111.807C131.614 112.41 132.292 113.013 132.593 113.916C132.895 114.745 132.518 115.875 131.689 116.176C131.087 116.402 130.334 116.101 129.806 116.477C129.505 116.703 129.43 117.005 129.204 117.231C128.752 117.683 127.999 117.758 127.321 117.758C126.718 117.758 126.116 117.758 125.513 117.833C124.459 117.833 123.329 117.909 122.425 117.381C120.617 116.477 120.316 113.992 122.124 113.163ZM134.1 128.378C133.874 128.604 133.723 128.83 133.648 129.056C133.573 129.282 133.573 129.433 133.573 129.659C133.573 130.412 133.573 131.165 133.573 131.843C133.573 132.069 133.573 132.295 133.648 132.446C133.723 132.747 133.949 132.898 134.175 133.124C134.702 133.651 135.154 133.877 135.757 134.178C136.284 134.479 136.811 134.705 137.263 135.007C137.414 135.082 137.565 135.157 137.791 135.233C137.941 135.233 138.092 135.233 138.243 135.157C139.749 134.781 141.255 134.555 142.762 134.404C142.988 134.404 143.289 134.329 143.515 134.404C143.816 134.479 144.042 134.63 144.344 134.705C145.097 134.856 145.775 134.479 146.453 134.103C147.131 133.726 147.884 133.35 148.637 132.973C149.24 132.747 149.842 132.446 149.767 131.693C149.767 131.617 149.767 131.542 149.767 131.391C149.842 131.165 150.068 131.09 150.219 130.864C150.445 130.563 150.369 130.186 150.294 129.885C150.219 129.358 150.068 128.83 149.842 128.378C149.315 127.173 147.808 126.42 146.754 125.742C146.001 125.215 145.699 125.441 144.871 125.742C144.118 126.043 143.44 126.345 142.687 126.646C141.331 127.248 139.9 127.776 138.318 127.926C137.866 128.002 137.414 128.002 136.962 127.776C136.585 127.625 136.284 127.248 135.908 127.098C135.154 126.947 134.552 127.851 134.1 128.378Z" fill="#656565"/>
<path id="path502" d="M123.027 112.109C123.629 111.506 124.307 110.904 125.211 110.828C125.814 110.753 126.416 110.904 127.019 111.054C127.772 111.205 128.601 111.28 129.429 111.28C129.73 111.28 129.956 111.28 130.182 111.356C130.559 111.431 130.71 111.732 130.86 111.958C131.162 112.486 131.312 113.013 131.312 113.615C131.312 113.766 131.312 113.841 131.237 113.992C131.162 114.143 131.011 114.218 130.785 114.293C129.053 115.046 127.019 115.423 124.985 115.272C124.759 115.272 124.533 115.197 124.307 115.122C123.629 114.821 121.822 114.821 121.445 114.369C120.842 113.691 122.575 112.561 123.027 112.109ZM134.702 128.153C134.626 128.529 134.476 128.83 134.325 129.207C134.174 129.584 134.325 129.96 134.626 130.262C134.928 130.563 135.38 130.714 135.756 130.939C135.907 131.015 136.058 131.09 136.208 131.09C136.359 131.09 136.585 131.015 136.735 131.015C137.79 130.789 138.393 131.919 139.372 132.145C140.125 132.295 140.953 131.994 141.556 131.617C142.159 131.241 142.761 130.789 143.514 130.638C144.117 130.563 144.795 130.638 145.398 130.638C146.979 130.563 148.26 129.734 149.39 128.906C149.54 128.83 149.691 128.68 149.766 128.529C149.766 128.379 149.766 128.228 149.691 128.077C148.938 126.646 147.883 125.893 146.075 125.29C145.548 124.914 145.096 124.763 144.569 124.763C144.192 124.763 143.816 124.914 143.439 125.064C142.234 125.592 140.953 126.119 139.748 126.646C139.522 126.721 139.296 126.797 139.07 126.872C138.619 126.947 138.242 126.797 137.79 126.721C136.886 126.571 135.982 126.721 135.304 127.173C134.928 127.55 134.777 127.776 134.702 128.153Z" fill="#6F6F6F"/>
</g>
</g>
</g>
<g id="Mask group_17">
<mask id="mask17_104_3235" style="mask-type:luminance" maskUnits="userSpaceOnUse" x="467" y="36" width="54" height="31">
<g id="Group_17">
<path id="path509" fill-rule="evenodd" clip-rule="evenodd" d="M467.446 36.291H520.696V66.291H467.446V36.291Z" fill="white"/>
</g>
</mask>
<g mask="url(#mask17_104_3235)">
<g id="g514">
<path id="path510" d="M469.636 45.4049C470.846 43.9739 473.256 44.7269 474.836 44.8779C479.206 45.3299 483.426 43.4469 487.636 42.3919C495.246 40.4339 503.386 41.1119 511.066 42.6929C511.746 42.8439 512.496 42.9949 513.096 43.5219C513.776 44.1239 514.076 45.0279 514.306 45.8569C515.056 48.4179 515.806 50.9789 516.566 53.5399C516.866 54.5939 517.166 55.7989 516.786 56.8539C516.486 57.7579 515.736 58.3599 515.206 59.1139C514.306 60.3939 513.856 62.2019 512.416 62.9549C511.746 63.3319 510.986 63.4069 510.316 63.5579C506.996 64.0089 503.606 64.4609 500.296 64.9129C499.016 65.0639 497.736 65.2899 496.456 65.1389C494.346 64.9129 492.306 64.0089 490.196 63.8589C487.936 63.7079 485.676 64.6119 483.426 64.8379C480.336 65.1389 477.166 64.3109 474.156 63.4069C472.496 62.9549 470.696 62.3519 469.716 60.9969C469.106 60.1679 468.806 59.1139 468.586 58.0589C468.056 55.7239 467.456 53.3139 467.906 50.9029C467.976 49.3969 468.586 46.6099 469.636 45.4049Z" fill="#787878"/>
<path id="path511" d="M478.976 41.7889C480.486 41.0359 481.986 40.2829 482.516 39.0019C482.666 38.6259 482.746 38.2489 483.046 37.9479C483.266 37.7219 483.576 37.5709 483.946 37.4209C485.906 36.5919 488.166 36.2909 490.426 36.4409C493.136 36.6669 495.626 37.7219 498.106 38.6259C501.726 39.9059 505.566 40.9609 509.486 41.7889C510.236 41.9399 510.986 42.0909 511.666 42.3919C513.546 43.2199 514.076 45.0279 514.156 46.6849C514.226 48.7189 513.856 50.9029 511.816 52.2589C510.686 53.0119 509.186 53.3889 507.746 53.6899C499.466 55.4229 490.656 54.8199 482.136 54.2169C481.166 54.1419 480.186 54.0669 479.356 53.6149C478.526 53.1629 478.076 52.4099 477.316 51.9579C475.816 51.0539 473.476 51.3549 471.826 50.6019C470.016 49.8489 468.206 46.4589 469.716 45.1029C470.536 44.3499 472.726 44.3499 473.856 43.9739C475.666 43.3709 477.316 42.6179 478.976 41.7889Z" fill="#828282"/>
<path id="path512" d="M505.486 54.895C505.866 55.196 506.316 55.498 506.696 55.874C506.846 56.025 506.996 56.1 507.226 56.025C507.376 55.95 507.446 55.7239 507.446 55.5729C507.526 54.2169 507.226 52.7859 506.546 51.5809C507.376 52.2589 508.056 53.1629 508.426 54.2169C508.956 53.6149 508.956 52.786 508.806 52.033C508.656 51.28 508.426 50.5259 508.506 49.7729C508.956 51.0539 509.406 52.4099 509.856 53.6899C510.466 52.5599 511.286 51.656 512.416 50.978C511.666 52.485 511.216 54.142 510.986 55.874C511.366 55.272 511.966 54.8199 512.576 54.5189C512.046 55.9499 511.816 57.5309 511.966 59.1129C511.966 59.3389 512.046 59.64 511.816 59.791C511.746 59.866 511.596 59.942 511.446 60.017C510.156 60.469 507.976 61.448 506.996 59.942C506.616 59.339 506.546 58.586 506.466 57.908C506.316 56.778 506.016 55.799 505.486 54.895ZM478.446 64.838C479.056 65.29 480.036 65.5159 480.786 65.5159C482.066 65.5159 482.516 64.913 482.816 63.783C483.116 62.578 483.646 61.4479 484.396 60.4689C483.576 60.5439 482.746 60.9209 482.216 61.5989C482.746 60.2429 483.346 58.8869 484.176 57.6819C482.966 57.8329 482.136 58.963 481.536 60.017C481.466 58.812 481.166 57.6069 480.636 56.4769C480.486 57.5309 480.336 58.586 480.106 59.64C479.506 58.737 478.826 57.908 478.226 57.004C478.376 57.757 478.526 58.5109 478.676 59.2639C478.826 59.9419 478.976 60.695 478.676 61.298C477.926 60.695 477.016 60.243 476.116 59.866C477.016 61.298 477.166 63.708 478.446 64.838Z" fill="#656565"/>
<path id="path513" d="M492.086 44.3498C494.346 43.2958 497.206 43.0698 499.616 42.6178C499.846 42.5428 500.066 42.5428 500.296 42.6178C500.516 42.6928 500.746 42.8438 500.896 42.9938C501.576 43.5968 502.256 44.1998 502.556 45.1028C502.856 45.9318 502.476 47.0618 501.646 47.3628C501.046 47.5888 500.296 47.2878 499.766 47.6638C499.466 47.8898 499.386 48.1918 499.166 48.4178C498.716 48.8698 497.956 48.9448 497.276 48.9448C496.676 48.9448 496.076 48.9448 495.476 49.0198C494.416 49.0198 493.286 49.0958 492.386 48.5678C490.576 47.6638 490.276 45.1788 492.086 44.3498ZM504.056 59.5648C503.836 59.7908 503.686 60.0168 503.606 60.2428C503.536 60.4688 503.536 60.6198 503.536 60.8458C503.536 61.5988 503.536 62.3518 503.536 63.0298C503.536 63.2558 503.536 63.4818 503.606 63.6328C503.686 63.9338 503.906 64.0848 504.136 64.3108C504.666 64.8378 505.116 65.0638 505.716 65.3648C506.246 65.6658 506.776 65.8918 507.226 66.1938C507.376 66.2688 507.526 66.3438 507.746 66.4198C507.906 66.4198 508.056 66.4198 508.206 66.3438C509.706 65.9678 511.216 65.7418 512.726 65.5908C512.946 65.5908 513.246 65.5158 513.476 65.5908C513.776 65.6658 514.006 65.8168 514.306 65.8918C515.056 66.0428 515.736 65.6658 516.416 65.2898C517.086 64.9128 517.846 64.5368 518.596 64.1598C519.196 63.9338 519.806 63.6328 519.726 62.8798C519.726 62.8038 519.726 62.7288 519.726 62.5778C519.806 62.3518 520.026 62.2768 520.176 62.0508C520.406 61.7498 520.326 61.3728 520.256 61.0718C520.176 60.5448 520.026 60.0168 519.806 59.5648C519.276 58.3598 517.766 57.6068 516.716 56.9288C515.956 56.4018 515.656 56.6278 514.826 56.9288C514.076 57.2298 513.396 57.5318 512.646 57.8328C511.286 58.4358 509.856 58.9628 508.276 59.1128C507.826 59.1888 507.376 59.1888 506.926 58.9628C506.546 58.8118 506.246 58.4358 505.866 58.2848C505.116 58.1338 504.516 59.0378 504.056 59.5648Z" fill="#656565"/>
<path id="path514" d="M492.986 43.296C493.586 42.693 494.266 42.091 495.176 42.015C495.776 41.94 496.376 42.091 496.976 42.241C497.736 42.392 498.556 42.4669 499.386 42.4669C499.686 42.4669 499.916 42.467 500.146 42.543C500.516 42.618 500.666 42.919 500.816 43.145C501.126 43.673 501.276 44.2 501.276 44.802C501.276 44.953 501.276 45.028 501.196 45.179C501.126 45.33 500.966 45.4049 500.746 45.4799C499.016 46.2329 496.976 46.6099 494.946 46.4589C494.716 46.4589 494.496 46.384 494.266 46.309C493.586 46.008 491.786 46.008 491.406 45.556C490.806 44.878 492.536 43.748 492.986 43.296ZM504.666 59.34C504.586 59.716 504.436 60.0169 504.286 60.3939C504.136 60.7709 504.286 61.1469 504.586 61.4489C504.886 61.7499 505.336 61.9009 505.716 62.1259C505.866 62.2019 506.016 62.2769 506.166 62.2769C506.316 62.2769 506.546 62.202 506.696 62.202C507.746 61.976 508.356 63.106 509.336 63.332C510.086 63.482 510.916 63.181 511.516 62.804C512.116 62.428 512.726 61.976 513.476 61.825C514.076 61.75 514.756 61.825 515.356 61.825C516.936 61.75 518.216 60.921 519.346 60.093C519.496 60.017 519.646 59.867 519.726 59.716C519.726 59.566 519.726 59.4149 519.646 59.2639C518.896 57.8329 517.846 57.08 516.036 56.477C515.506 56.101 515.056 55.95 514.526 55.95C514.156 55.95 513.776 56.1009 513.396 56.2509C512.196 56.7789 510.916 57.306 509.706 57.833C509.486 57.908 509.256 57.984 509.026 58.059C508.576 58.134 508.206 57.984 507.746 57.908C506.846 57.758 505.946 57.9079 505.266 58.3599C504.886 58.7369 504.736 58.963 504.666 59.34Z" fill="#6F6F6F"/>
</g>
</g>
</g>
</g>
</g>
</g>
</g>
</g>
<defs>
<clipPath id="clip0_104_3235">
<rect width="707.354" height="135.128" fill="white" transform="translate(0.211914 0.354492)"/>
</clipPath>
</defs>
</svg>
