<svg width="147" height="264" viewBox="0 0 147 264" fill="none" xmlns="http://www.w3.org/2000/svg">
<g id="PEDRAS COMBO">
<rect x="1.06592" y="1.03906" width="145" height="262" rx="4.5" stroke="#9747FF" stroke-dasharray="10 5"/>
<g id="Property 1=Default">
<g id="PEDRA B COMBO SOMBRA">
<path id="SOMBRA B" fill-rule="evenodd" clip-rule="evenodd" d="M106.44 42.4841C88.8902 41.6769 75.3472 44.5935 65.8134 51.2285C62.2506 53.65 59.8879 56.2061 58.7306 58.8967C57.6615 61.3182 57.8406 63.0213 59.2652 64.0088C62.4725 66.1612 66.2144 67.8671 70.4908 69.1209C76.2827 70.824 83.8092 72.0805 93.0757 72.8877C101.629 73.6061 109.692 71.9002 117.264 67.7756C121.006 65.7119 123.946 63.5594 126.084 61.3182L106.44 42.4841Z" fill="black"/>
<g id="PEDRA COMBO B">
<path id="Vector" fill-rule="evenodd" clip-rule="evenodd" d="M75.5681 34.9503L69.0198 62.1252L96.683 72.0803L126.083 61.318C125.728 55.3099 124.571 49.9288 122.609 45.1745L119.802 39.7933C117.309 36.4758 114.457 33.2014 111.25 29.9727C104.835 23.6041 99.9785 20.6014 96.683 20.9592C93.2966 21.3171 88.7529 23.7386 83.0518 28.2238C80.2 30.5539 77.7063 32.7978 75.5681 34.9503Z" fill="#94897B"/>
<path id="Vector_2" fill-rule="evenodd" clip-rule="evenodd" d="M124.613 51.6321H124.48C121.184 52.9774 118.244 53.6958 115.66 53.7846C112.72 53.8733 109.78 53.2464 106.84 51.9012C104.525 51.0052 101.272 50.5559 97.0839 50.5559C92.7193 50.6446 89.5119 50.3325 87.4619 49.6142C84.7892 48.7182 82.4291 46.789 80.3791 43.8294C78.4199 40.9612 77.0381 37.7756 76.2363 34.2778L75.5681 34.9505L69.0198 62.1254L96.683 72.0805L126.083 61.3182C125.816 57.8204 125.327 54.5917 124.613 51.6321Z" fill="#787066"/>
<path id="Vector_3" fill-rule="evenodd" clip-rule="evenodd" d="M104.434 52.1701L104.568 51.4975C103.231 52.2159 101.983 53.5154 100.826 55.3988C98.9548 58.1782 97.843 59.7952 97.4848 60.2419C94.2775 64.0087 89.9129 64.7728 84.3882 62.5316C81.2691 61.3638 79.0427 59.3029 77.7063 56.3432C75.3008 54.371 73.4753 51.8123 72.2271 48.6724L69.0225 62.1253L96.683 72.0804L126.083 61.3181L125.816 58.0894C120.826 62.1253 114.949 64.232 108.176 64.415C107.286 64.415 106.484 64.1432 105.77 63.6051C105.057 62.9809 104.613 62.2598 104.434 61.4526C103.541 58.3127 103.541 55.2186 104.434 52.1701Z" fill="#635C55"/>
</g>
</g>
<g id="PEDRA A COMBO SOMBRA">
<g id="SOMBRA a">
<path id="SOMBRA a_2" fill-rule="evenodd" clip-rule="evenodd" d="M21.8458 65.758C20.3304 66.7454 20.6858 68.4028 22.9149 70.7356C25.3204 73.1571 28.795 74.7714 33.3387 75.5786C40.1998 77.193 45.5881 78.4037 49.509 79.2109C56.6373 80.5562 63.1402 80.871 69.0203 80.1526C74.9886 79.3454 79.845 78.1347 83.5869 76.5203C85.4578 75.7131 86.7488 74.9517 87.4624 74.2333L61.9374 63.0674C54.6327 60.3768 46.1681 59.8387 36.5461 61.4531C29.4178 62.6181 24.5186 64.0548 21.8458 65.758Z" fill="black"/>
</g>
<g id="PEDRA a">
<path id="Vector_4" fill-rule="evenodd" clip-rule="evenodd" d="M51.6473 45.1748L43.0944 51.9013C37.2143 56.7443 33.7852 60.1506 32.8016 62.1255C30.0406 67.8672 32.0452 72.0806 38.8153 74.7712C42.6481 76.3856 46.4354 77.5075 50.1746 78.1344C54.3629 78.8528 59.4839 79.1649 65.5431 79.0762C70.5331 78.9874 74.8523 78.3147 78.5087 77.0582C83.4961 75.3551 86.4816 74.4161 87.4625 74.2331C90.4934 73.695 90.0898 71.5425 86.2597 67.7784C80.4678 62.8439 76.4132 58.9452 74.0986 56.0717C70.8913 52.3049 68.0394 49.8833 65.5457 48.8071C65.1903 48.7156 60.5557 47.5075 51.6473 45.1748Z" fill="#94897B"/>
<path id="Vector_5" fill-rule="evenodd" clip-rule="evenodd" d="M32.8046 62.1253C30.0436 67.867 32.0482 72.0805 38.8183 74.771C42.6511 76.3854 46.4384 77.5074 50.1776 78.1343C54.3658 78.8527 59.4868 79.1648 65.546 79.076C70.5361 78.9872 74.8553 78.3145 78.5116 77.058C83.499 75.3549 86.4845 74.4159 87.4654 74.2329C89.5155 73.8751 90.1382 72.9334 89.3364 71.4078C88.7136 70.2401 87.0645 68.4482 84.3917 66.0267C80.0271 68.2679 74.9462 69.8392 69.1569 70.7352C63.4532 71.6311 58.3777 71.5854 53.9221 70.6006C51.6957 70.0625 49.4212 67.8643 47.1066 64.0087C45.9466 61.945 45.3238 60.8688 45.2356 60.78C44.4338 59.7065 43.4529 59.0769 42.2956 58.8966C40.2429 58.5388 38.6847 57.9119 37.6182 57.0159L37.4819 56.7441C34.9882 59.1657 33.4273 60.9603 32.8046 62.1253Z" fill="#787066"/>
<path id="Vector_6" fill-rule="evenodd" clip-rule="evenodd" d="M39.219 62.7979C36.7226 65.3109 34.408 67.4606 32.2698 69.2553C33.3389 71.6768 35.5199 73.5144 38.8181 74.7709C42.6508 76.3853 46.4381 77.5073 50.1773 78.1342C54.3656 78.8526 59.4866 79.1647 65.5458 79.0759C70.5359 78.9871 74.8551 78.3144 78.5114 77.0579C83.4988 75.3548 86.4843 74.4158 87.4652 74.2328C89.0689 73.9638 89.7825 73.2911 89.6034 72.2149C89.4244 71.4077 88.5798 70.197 87.0643 68.5826C84.036 72.5297 79.626 75.3091 73.8341 76.9234C68.5767 78.3575 63.3648 78.6292 58.1957 77.7306C53.831 77.0122 50.0437 75.0884 46.8364 71.9485C43.5382 67.91 41.0017 64.8588 39.219 62.7979Z" fill="#635C55"/>
</g>
</g>
</g>
<g id="Property 1=Variant2">
<g id="PEDRA B COMBO SOMBRA_2">
<path id="SOMBRA B_2" fill-rule="evenodd" clip-rule="evenodd" d="M106.44 122.484C88.8902 121.677 75.3472 124.594 65.8134 131.228C62.2506 133.65 59.8879 136.206 58.7306 138.897C57.6615 141.318 57.8406 143.021 59.2652 144.009C62.4725 146.161 66.2144 147.867 70.4908 149.121C76.2827 150.824 83.8092 152.081 93.0757 152.888C101.629 153.606 109.692 151.9 117.264 147.776C121.006 145.712 123.946 143.559 126.084 141.318L106.44 122.484Z" fill="black"/>
<g id="PEDRA COMBO B_2">
<path id="Vector_7" fill-rule="evenodd" clip-rule="evenodd" d="M75.5681 114.95L69.0198 142.125L96.683 152.08L126.083 141.318C125.728 135.31 124.571 129.929 122.609 125.174L119.802 119.793C117.309 116.476 114.457 113.201 111.25 109.973C104.835 103.604 99.9785 100.601 96.683 100.959C93.2966 101.317 88.7529 103.739 83.0518 108.224C80.2 110.554 77.7063 112.798 75.5681 114.95Z" fill="#94897B"/>
<path id="Vector_8" fill-rule="evenodd" clip-rule="evenodd" d="M124.613 131.632H124.48C121.184 132.977 118.244 133.696 115.66 133.785C112.72 133.873 109.78 133.246 106.84 131.901C104.525 131.005 101.272 130.556 97.0839 130.556C92.7193 130.645 89.5119 130.333 87.4619 129.614C84.7892 128.718 82.4291 126.789 80.3791 123.829C78.4199 120.961 77.0381 117.776 76.2363 114.278L75.5681 114.95L69.0198 142.125L96.683 152.081L126.083 141.318C125.816 137.82 125.327 134.592 124.613 131.632Z" fill="#787066"/>
<path id="Vector_9" fill-rule="evenodd" clip-rule="evenodd" d="M104.434 132.17L104.568 131.497C103.231 132.216 101.983 133.515 100.826 135.399C98.9548 138.178 97.843 139.795 97.4848 140.242C94.2775 144.009 89.9129 144.773 84.3882 142.532C81.2691 141.364 79.0427 139.303 77.7063 136.343C75.3008 134.371 73.4753 131.812 72.2271 128.672L69.0225 142.125L96.683 152.08L126.083 141.318L125.816 138.089C120.826 142.125 114.949 144.232 108.176 144.415C107.286 144.415 106.484 144.143 105.77 143.605C105.057 142.981 104.613 142.26 104.434 141.453C103.541 138.313 103.541 135.219 104.434 132.17Z" fill="#635C55"/>
</g>
</g>
</g>
<g id="Property 1=Variant3">
<g id="PEDRA A COMBO SOMBRA_2">
<g id="SOMBRA a_3">
<path id="SOMBRA a_4" fill-rule="evenodd" clip-rule="evenodd" d="M21.8458 225.758C20.3304 226.745 20.6858 228.403 22.9149 230.736C25.3204 233.157 28.795 234.771 33.3387 235.579C40.1998 237.193 45.5881 238.404 49.509 239.211C56.6373 240.556 63.1402 240.871 69.0203 240.153C74.9886 239.345 79.845 238.135 83.5869 236.52C85.4578 235.713 86.7488 234.952 87.4624 234.233L61.9374 223.067C54.6327 220.377 46.1681 219.839 36.5461 221.453C29.4178 222.618 24.5186 224.055 21.8458 225.758Z" fill="black"/>
</g>
<g id="PEDRA a_2">
<path id="Vector_10" fill-rule="evenodd" clip-rule="evenodd" d="M51.6473 205.175L43.0944 211.901C37.2143 216.744 33.7852 220.151 32.8016 222.125C30.0406 227.867 32.0452 232.081 38.8153 234.771C42.6481 236.386 46.4354 237.508 50.1746 238.134C54.3629 238.853 59.4839 239.165 65.5431 239.076C70.5331 238.987 74.8523 238.315 78.5087 237.058C83.4961 235.355 86.4816 234.416 87.4625 234.233C90.4934 233.695 90.0898 231.543 86.2597 227.778C80.4678 222.844 76.4132 218.945 74.0986 216.072C70.8913 212.305 68.0394 209.883 65.5457 208.807C65.1903 208.716 60.5557 207.508 51.6473 205.175Z" fill="#94897B"/>
<path id="Vector_11" fill-rule="evenodd" clip-rule="evenodd" d="M32.8046 222.125C30.0436 227.867 32.0482 232.08 38.8183 234.771C42.6511 236.385 46.4384 237.507 50.1776 238.134C54.3658 238.853 59.4868 239.165 65.546 239.076C70.5361 238.987 74.8553 238.315 78.5116 237.058C83.499 235.355 86.4845 234.416 87.4654 234.233C89.5155 233.875 90.1382 232.933 89.3364 231.408C88.7136 230.24 87.0645 228.448 84.3917 226.027C80.0271 228.268 74.9462 229.839 69.1569 230.735C63.4532 231.631 58.3777 231.585 53.9221 230.601C51.6957 230.063 49.4212 227.864 47.1066 224.009C45.9466 221.945 45.3238 220.869 45.2356 220.78C44.4338 219.706 43.4529 219.077 42.2956 218.897C40.2429 218.539 38.6847 217.912 37.6182 217.016L37.4819 216.744C34.9882 219.166 33.4273 220.96 32.8046 222.125Z" fill="#787066"/>
<path id="Vector_12" fill-rule="evenodd" clip-rule="evenodd" d="M39.219 222.798C36.7226 225.311 34.408 227.461 32.2698 229.255C33.3389 231.677 35.5199 233.514 38.8181 234.771C42.6508 236.385 46.4381 237.507 50.1773 238.134C54.3656 238.853 59.4866 239.165 65.5458 239.076C70.5359 238.987 74.8551 238.314 78.5114 237.058C83.4988 235.355 86.4843 234.416 87.4652 234.233C89.0689 233.964 89.7825 233.291 89.6034 232.215C89.4244 231.408 88.5798 230.197 87.0643 228.583C84.036 232.53 79.626 235.309 73.8341 236.923C68.5767 238.357 63.3648 238.629 58.1957 237.731C53.831 237.012 50.0437 235.088 46.8364 231.949C43.5382 227.91 41.0017 224.859 39.219 222.798Z" fill="#635C55"/>
</g>
</g>
</g>
</g>
</svg>
