<svg width="53" height="31" viewBox="0 0 53 31" fill="none" xmlns="http://www.w3.org/2000/svg">
<g id="pedraC 1" clip-path="url(#clip0_104_2464)">
<path id="path486" d="M2.16583 9.5399C3.37083 8.1079 5.78086 8.86189 7.36286 9.01189C11.7319 9.46389 15.9498 7.5809 20.1678 6.5269C27.7748 4.5679 35.9098 5.24593 43.5928 6.82793C44.2708 6.97893 45.0238 7.12891 45.6268 7.65691C46.3048 8.25891 46.6058 9.16293 46.8318 9.99193C47.5848 12.5529 48.3378 15.1129 49.0908 17.6739C49.3928 18.7289 49.6938 19.9339 49.3168 20.9889C49.0158 21.8919 48.2628 22.4949 47.7358 23.2479C46.8318 24.5289 46.3799 26.3359 44.9489 27.0899C44.2709 27.4659 43.5178 27.5419 42.8398 27.6919C39.5258 28.1439 36.1358 28.5959 32.8218 29.0479C31.5408 29.1989 30.2608 29.4249 28.9798 29.2739C26.8708 29.0479 24.8378 28.1439 22.7288 27.9939C20.4688 27.8429 18.2088 28.7469 15.9498 28.9729C12.8608 29.2739 9.69782 28.4459 6.68482 27.5419C5.02782 27.0899 3.21985 26.4869 2.24085 25.1309C1.63785 24.3029 1.33684 23.2479 1.11084 22.1939C0.583841 19.8589 -0.0191984 17.4479 0.432802 15.0379C0.508802 13.5319 1.11083 10.7449 2.16583 9.5399Z" fill="#787878"/>
<path id="path487" d="M11.5046 5.92416C13.0116 5.17116 14.5176 4.41811 15.0456 3.13711C15.1956 2.76111 15.2716 2.38416 15.5726 2.08316C15.7986 1.85716 16.0996 1.70614 16.4766 1.55514C18.4346 0.727141 20.6946 0.426137 22.9536 0.576137C25.6656 0.802137 28.1517 1.85713 30.6367 2.76113C34.2527 4.04113 38.0936 5.09516 42.0106 5.92416C42.7636 6.07516 43.5166 6.22513 44.1946 6.52713C46.0776 7.35513 46.6057 9.16316 46.6807 10.8202C46.7557 12.8542 46.3796 15.0381 44.3456 16.3941C43.2156 17.1471 41.7096 17.5242 40.2786 17.8252C31.9926 19.5572 23.1796 18.9551 14.6686 18.3521C13.6896 18.2771 12.7106 18.2021 11.8816 17.7501C11.0536 17.2981 10.6017 16.5441 9.84765 16.0931C8.34165 15.1891 6.00667 15.4901 4.34967 14.7371C2.54167 13.9841 0.733656 10.5941 2.24066 9.23812C3.06866 8.48512 5.25366 8.48512 6.38366 8.10812C8.19066 7.50612 9.84763 6.75316 11.5046 5.92416Z" fill="#828282"/>
<path id="path488" d="M38.0186 19.0302C38.3956 19.3312 38.8476 19.6322 39.2236 20.0092C39.3746 20.1602 39.5256 20.2352 39.7516 20.1602C39.9016 20.0842 39.9776 19.8583 39.9776 19.7083C40.0526 18.3523 39.7516 16.9212 39.0736 15.7162C39.9016 16.3942 40.5796 17.2972 40.9566 18.3522C41.4836 17.7492 41.4836 16.9212 41.3326 16.1682C41.1826 15.4142 40.9566 14.6612 41.0316 13.9082C41.4836 15.1882 41.9356 16.5443 42.3876 17.8253C42.9906 16.6953 43.8186 15.7912 44.9486 15.1132C44.1956 16.6202 43.7436 18.2772 43.5176 20.0092C43.8936 19.4072 44.4966 18.9552 45.0996 18.6532C44.5716 20.0842 44.3456 21.6662 44.4966 23.2482C44.4966 23.4742 44.5716 23.7752 44.3456 23.9262C44.2706 24.0012 44.1196 24.0762 43.9696 24.1522C42.6886 24.6042 40.5046 25.5832 39.5256 24.0762C39.1486 23.4742 39.0736 22.7212 38.9976 22.0432C38.8476 20.9132 38.5456 19.9342 38.0186 19.0302ZM10.9786 28.9722C11.5806 29.4242 12.5596 29.6502 13.3136 29.6502C14.5936 29.6502 15.0456 29.0482 15.3466 27.9182C15.6486 26.7132 16.1756 25.5832 16.9286 24.6042C16.0996 24.6792 15.2716 25.0563 14.7446 25.7343C15.2716 24.3783 15.8736 23.0222 16.7026 21.8172C15.4976 21.9672 14.6686 23.0972 14.0666 24.1522C13.9906 22.9472 13.6896 21.7412 13.1626 20.6122C13.0116 21.6662 12.8616 22.7212 12.6356 23.7752C12.0326 22.8712 11.3546 22.0432 10.7526 21.1392C10.9026 21.8922 11.0536 22.6452 11.2046 23.3992C11.3546 24.0762 11.5056 24.8303 11.2046 25.4323C10.4506 24.8303 9.54655 24.3782 8.64355 24.0012C9.54655 25.4322 9.69758 27.8432 10.9786 28.9722Z" fill="#656565"/>
<path id="path489" d="M24.612 8.48528C26.872 7.43028 29.7339 7.20429 32.1439 6.75329C32.3699 6.67729 32.596 6.67729 32.822 6.75329C33.048 6.82829 33.2739 6.97927 33.4249 7.12927C34.1029 7.73227 34.78 8.33427 35.082 9.23827C35.383 10.0673 35.0059 11.1973 34.1779 11.4983C33.5749 11.7243 32.8219 11.4233 32.2949 11.7993C31.9939 12.0253 31.918 12.3263 31.692 12.5523C31.24 13.0043 30.487 13.0803 29.809 13.0803C29.207 13.0803 28.604 13.0803 28.001 13.1553C26.947 13.1553 25.817 13.2303 24.913 12.7033C23.106 11.7993 22.804 9.31428 24.612 8.48528ZM36.588 23.7003C36.362 23.9263 36.2119 24.1523 36.1359 24.3783C36.0609 24.6043 36.061 24.7553 36.061 24.9813C36.061 25.7343 36.061 26.4873 36.061 27.1653C36.061 27.3913 36.0609 27.6173 36.1359 27.7673C36.2119 28.0693 36.438 28.2193 36.664 28.4453C37.191 28.9733 37.643 29.1993 38.245 29.5003C38.773 29.8013 39.3 30.0273 39.752 30.3283C39.902 30.4043 40.053 30.4793 40.279 30.5543C40.43 30.5543 40.58 30.5543 40.731 30.4793C42.237 30.1023 43.744 29.8762 45.25 29.7262C45.476 29.7262 45.778 29.6512 46.004 29.7262C46.305 29.8013 46.531 29.9523 46.832 30.0273C47.585 30.1783 48.2629 29.8013 48.9409 29.4253C49.6189 29.0483 50.372 28.6713 51.125 28.2953C51.728 28.0693 52.331 27.7673 52.255 27.0143C52.255 26.9393 52.255 26.8643 52.255 26.7133C52.331 26.4873 52.557 26.4123 52.707 26.1863C52.933 25.8843 52.858 25.5083 52.783 25.2073C52.707 24.6793 52.557 24.1523 52.331 23.7003C51.803 22.4953 50.297 21.7423 49.242 21.0643C48.489 20.5373 48.188 20.7623 47.359 21.0643C46.606 21.3653 45.9279 21.6663 45.1749 21.9683C43.819 22.5703 42.388 23.0973 40.806 23.2483C40.354 23.3233 39.902 23.3233 39.45 23.0973C39.074 22.9473 38.773 22.5703 38.396 22.4203C37.643 22.2693 37.04 23.1733 36.588 23.7003Z" fill="#656565"/>
<path id="path490" d="M25.5148 7.43083C26.1178 6.82783 26.7958 6.22582 27.6998 6.14982C28.3018 6.07482 28.9048 6.22484 29.5068 6.37584C30.2608 6.52684 31.0888 6.60185 31.9178 6.60185C32.2188 6.60185 32.4448 6.60186 32.6708 6.67686C33.0468 6.75286 33.1978 7.05383 33.3488 7.27983C33.6498 7.80683 33.8008 8.33487 33.8008 8.93687C33.8008 9.08787 33.8009 9.16283 33.7249 9.31383C33.6499 9.46383 33.4988 9.53985 33.2728 9.61485C31.5408 10.3679 29.5068 10.7449 27.4738 10.5939C27.2478 10.5939 27.0218 10.5188 26.7958 10.4438C26.1178 10.1418 24.3098 10.1419 23.9328 9.68986C23.3308 9.01186 25.0628 7.88283 25.5148 7.43083ZM37.1898 23.4739C37.1148 23.8509 36.9638 24.1519 36.8138 24.5289C36.6628 24.9049 36.8138 25.2819 37.1148 25.5829C37.4158 25.8849 37.8678 26.0348 38.2448 26.2608C38.3948 26.3368 38.5458 26.4118 38.6968 26.4118C38.8468 26.4118 39.0728 26.3368 39.2238 26.3368C40.2778 26.1108 40.8808 27.2399 41.8598 27.4659C42.6128 27.6169 43.4418 27.3158 44.0448 26.9388C44.6468 26.5628 45.2498 26.1108 46.0028 25.9598C46.6048 25.8848 47.2828 25.9598 47.8858 25.9598C49.4678 25.8848 50.7478 25.0558 51.8778 24.2278C52.0288 24.1518 52.1788 24.0018 52.2548 23.8508C52.2548 23.6998 52.2548 23.5498 52.1788 23.3988C51.4258 21.9678 50.3718 21.2149 48.5638 20.6119C48.0368 20.2349 47.5848 20.0848 47.0568 20.0848C46.6808 20.0848 46.3038 20.2348 45.9278 20.3858C44.7218 20.9128 43.4418 21.4408 42.2368 21.9678C42.0108 22.0428 41.7848 22.1178 41.5588 22.1938C41.1068 22.2688 40.7298 22.1178 40.2778 22.0428C39.3748 21.8928 38.4708 22.0429 37.7928 22.4949C37.4158 22.8719 37.2658 23.0979 37.1898 23.4739Z" fill="#6F6F6F"/>
</g>
<defs>
<clipPath id="clip0_104_2464">
<rect width="52.5838" height="29.8871" fill="white" transform="translate(0.273926 0.539062)"/>
</clipPath>
</defs>
</svg>
