<svg width="154" height="79" viewBox="0 0 154 79" fill="none" xmlns="http://www.w3.org/2000/svg">
<g id="3bolhasA" clip-path="url(#clip0_105_6517)">
<g id="Clip path group">
<mask id="mask0_105_6517" style="mask-type:luminance" maskUnits="userSpaceOnUse" x="-99" y="-378" width="1441" height="819">
<g id="clip0_103_8241">
<path id="rect532" d="M1341.63 -377.341H-98.3662V440.159H1341.63V-377.341Z" fill="white"/>
</g>
</mask>
<g mask="url(#mask0_105_6517)">
<g id="g528">
<g id="Mask group">
<mask id="mask1_105_6517" style="mask-type:luminance" maskUnits="userSpaceOnUse" x="-99" y="-61" width="456" height="494">
<g id="Group">
<g id="Mask group_2">
<mask id="mask2_105_6517" style="mask-type:luminance" maskUnits="userSpaceOnUse" x="-99" y="-378" width="1441" height="811">
<g id="Group_2">
<path id="path263" fill-rule="evenodd" clip-rule="evenodd" d="M-98.3662 -377.341H1341.63V432.659H-98.3662V-377.341Z" fill="white"/>
</g>
</mask>
<g mask="url(#mask2_105_6517)">
<g id="g264">
<path id="path264" fill-rule="evenodd" clip-rule="evenodd" d="M-98.6064 -60.9819H356.487V432.899H-98.6064V-60.9819Z" fill="white"/>
</g>
</g>
</g>
</g>
</mask>
<g mask="url(#mask1_105_6517)">
<g id="g266">
<path id="path265" d="M55.0098 27.4794C54.1258 27.4744 53.2498 27.3854 52.3838 27.2114C51.5168 27.0374 50.6748 26.7814 49.8568 26.4454C49.0398 26.1084 48.2618 25.6974 47.5238 25.2104C46.7858 24.7234 46.1008 24.1704 45.4698 23.5524C44.8388 22.9334 44.2718 22.2594 43.7708 21.5314C43.2698 20.8034 42.8418 20.0344 42.4888 19.2234C42.1368 18.4124 41.8638 17.5764 41.6728 16.7124C41.4818 15.8494 41.3738 14.9764 41.3508 14.0924C41.3288 13.2084 41.3908 12.3304 41.5368 11.4594C41.6838 10.5874 41.9118 9.73742 42.2228 8.90942C42.5328 8.08142 42.9198 7.29142 43.3828 6.53842C43.8458 5.78542 44.3768 5.08343 44.9758 4.43243C45.5738 3.78243 46.2288 3.19441 46.9408 2.67041C47.6528 2.14641 48.4088 1.69544 49.2078 1.31644C50.0068 0.938435 50.8338 0.639416 51.6908 0.421416C52.5478 0.202416 53.4168 0.067424 54.2998 0.017424C55.1998 -0.027576 56.0958 0.0144147 56.9878 0.145415C57.8798 0.276415 58.7508 0.492432 59.5998 0.794432C60.4498 1.09543 61.2618 1.47644 62.0368 1.93744C62.8108 2.39844 63.5338 2.93042 64.2038 3.53342C64.8748 4.13642 65.4798 4.79841 66.0198 5.52041C66.5608 6.24141 67.0258 7.00841 67.4158 7.82141C67.8058 8.63441 68.1128 9.47743 68.3368 10.3504C68.5618 11.2234 68.6988 12.1104 68.7498 13.0104C68.7968 13.9114 68.7568 14.8084 68.6278 15.7014C68.4988 16.5934 68.2838 17.4654 67.9828 18.3164C67.6828 19.1664 67.3018 19.9794 66.8408 20.7554C66.3798 21.5314 65.8478 22.2544 65.2448 22.9254C64.6418 23.5954 63.9788 24.2014 63.2568 24.7414C62.5338 25.2814 61.7658 25.7464 60.9518 26.1354C60.1378 26.5244 59.2938 26.8304 58.4198 27.0534C57.5458 27.2754 56.6578 27.4114 55.7568 27.4594C55.5068 27.4734 55.2578 27.4794 55.0098 27.4794ZM55.0348 2.07641C54.8268 2.07641 54.6178 2.07643 54.4098 2.09543C53.2588 2.15743 52.1418 2.38443 51.0588 2.77743C49.9758 3.17043 48.9728 3.71241 48.0498 4.40341C47.1268 5.09341 46.3248 5.90342 45.6418 6.83142C44.9588 7.76042 44.4258 8.76843 44.0418 9.85443C43.6578 10.9414 43.4398 12.0604 43.3878 13.2114C43.3358 14.3634 43.4518 15.4974 43.7358 16.6144C44.0198 17.7314 44.4598 18.7824 45.0558 19.7694C45.6518 20.7554 46.3788 21.6344 47.2348 22.4054C48.3798 23.4464 49.6818 24.2244 51.1408 24.7404C52.5998 25.2554 54.1018 25.4674 55.6468 25.3764C56.3948 25.3324 57.1318 25.2164 57.8578 25.0304C58.5838 24.8434 59.2848 24.5894 59.9618 24.2674C60.6378 23.9464 61.2778 23.5624 61.8808 23.1174C62.4838 22.6724 63.0388 22.1734 63.5448 21.6214C64.0518 21.0694 64.5008 20.4744 64.8928 19.8354C65.2848 19.1964 65.6128 18.5264 65.8748 17.8244C66.1378 17.1224 66.3308 16.4024 66.4548 15.6624C66.5788 14.9234 66.6308 14.1794 66.6108 13.4304C66.5908 12.6814 66.4998 11.9414 66.3378 11.2094C66.1758 10.4774 65.9448 9.76842 65.6448 9.08142C65.3458 8.39442 64.9838 7.74242 64.5588 7.12442C64.1338 6.50742 63.6548 5.93644 63.1188 5.41144C62.5838 4.88744 62.0038 4.41843 61.3788 4.00543C60.7538 3.59243 60.0938 3.24343 59.4018 2.95743C58.7088 2.67143 57.9948 2.45443 57.2608 2.30643C56.5258 2.15843 55.7838 2.08141 55.0348 2.07641Z" fill="white"/>
<path id="path266" d="M67.4507 13.7394C67.4507 14.5554 67.3707 15.3624 67.2117 16.1624C67.0527 16.9624 66.8167 17.7394 66.5047 18.4934C66.1927 19.2464 65.8097 19.9624 65.3567 20.6414C64.9037 21.3194 64.3887 21.9464 63.8117 22.5234C63.2357 23.1004 62.6077 23.6154 61.9297 24.0684C61.2517 24.5214 60.5357 24.9044 59.7817 25.2164C59.0287 25.5284 58.2517 25.7644 57.4517 25.9234C56.6517 26.0824 55.8437 26.1624 55.0287 26.1624C54.2127 26.1624 53.4047 26.0824 52.6047 25.9234C51.8047 25.7644 51.0277 25.5284 50.2747 25.2164C49.5207 24.9044 48.8047 24.5214 48.1267 24.0684C47.4487 23.6154 46.8217 23.1004 46.2447 22.5234C45.6677 21.9464 45.1527 21.3194 44.6997 20.6414C44.2467 19.9624 43.8637 19.2464 43.5517 18.4934C43.2397 17.7394 43.0037 16.9624 42.8447 16.1624C42.6857 15.3624 42.6067 14.5554 42.6067 13.7394C42.6067 12.9234 42.6857 12.1154 42.8447 11.3154C43.0037 10.5154 43.2397 9.73938 43.5517 8.98538C43.8637 8.23138 44.2467 7.5154 44.6997 6.8374C45.1527 6.1594 45.6677 5.53238 46.2447 4.95538C46.8217 4.37838 47.4487 3.8634 48.1267 3.4104C48.8047 2.9574 49.5207 2.57439 50.2747 2.26239C51.0277 1.95039 51.8047 1.71439 52.6047 1.55539C53.4047 1.39639 54.2127 1.31641 55.0287 1.31641C55.8437 1.31641 56.6517 1.39639 57.4517 1.55539C58.2517 1.71439 59.0287 1.95039 59.7817 2.26239C60.5357 2.57439 61.2517 2.9574 61.9297 3.4104C62.6077 3.8634 63.2357 4.37838 63.8117 4.95538C64.3887 5.53238 64.9037 6.1594 65.3567 6.8374C65.8097 7.5154 66.1927 8.23138 66.5047 8.98538C66.8167 9.73938 67.0527 10.5154 67.2117 11.3154C67.3707 12.1154 67.4507 12.9234 67.4507 13.7394Z" fill="white" fill-opacity="0.2"/>
</g>
</g>
</g>
<g id="Mask group_3">
<mask id="mask3_105_6517" style="mask-type:luminance" maskUnits="userSpaceOnUse" x="-99" y="-61" width="456" height="494">
<g id="Group_3">
<g id="Mask group_4">
<mask id="mask4_105_6517" style="mask-type:luminance" maskUnits="userSpaceOnUse" x="-99" y="-378" width="1441" height="811">
<g id="Group_4">
<path id="path267" fill-rule="evenodd" clip-rule="evenodd" d="M-98.3662 -377.341H1341.63V432.659H-98.3662V-377.341Z" fill="white"/>
</g>
</mask>
<g mask="url(#mask4_105_6517)">
<g id="g268">
<path id="path268" fill-rule="evenodd" clip-rule="evenodd" d="M-98.6064 -60.9819H356.487V432.899H-98.6064V-60.9819Z" fill="white"/>
</g>
</g>
</g>
</g>
</mask>
<g mask="url(#mask3_105_6517)">
<g id="g269">
<path id="path269" d="M60.7827 6.90807C61.2227 7.30307 61.5957 7.73909 61.9027 8.21609C62.2087 8.69309 62.4257 9.17408 62.5517 9.65908C62.6777 10.1451 62.7047 10.5981 62.6317 11.0181C62.5587 11.4381 62.3907 11.7931 62.1297 12.0841C61.8677 12.3741 61.5327 12.5781 61.1227 12.6961C60.7127 12.8131 60.2597 12.8341 59.7637 12.7601C59.2677 12.6861 58.7667 12.5221 58.2597 12.2671C57.7537 12.0131 57.2807 11.6881 56.8407 11.2921C56.4007 10.8971 56.0267 10.4611 55.7207 9.98409C55.4137 9.50709 55.1977 9.02607 55.0717 8.54107C54.9457 8.05507 54.9187 7.60307 54.9917 7.18307C55.0647 6.76307 55.2327 6.40708 55.4937 6.11608C55.7547 5.82608 56.0907 5.62209 56.5007 5.50509C56.9107 5.38709 57.3637 5.36609 57.8597 5.44009C58.3557 5.51409 58.8567 5.67807 59.3627 5.93307C59.8697 6.18707 60.3427 6.51207 60.7827 6.90807Z" fill="white"/>
</g>
</g>
</g>
<g id="Mask group_5">
<mask id="mask5_105_6517" style="mask-type:luminance" maskUnits="userSpaceOnUse" x="-99" y="-61" width="456" height="494">
<g id="Group_5">
<g id="Mask group_6">
<mask id="mask6_105_6517" style="mask-type:luminance" maskUnits="userSpaceOnUse" x="-99" y="-378" width="1441" height="811">
<g id="Group_6">
<path id="path270" fill-rule="evenodd" clip-rule="evenodd" d="M-98.3662 -377.341H1341.63V432.659H-98.3662V-377.341Z" fill="white"/>
</g>
</mask>
<g mask="url(#mask6_105_6517)">
<g id="g271">
<path id="path271" fill-rule="evenodd" clip-rule="evenodd" d="M-98.6064 -60.9819H356.487V432.899H-98.6064V-60.9819Z" fill="white"/>
</g>
</g>
</g>
</g>
</mask>
<g mask="url(#mask5_105_6517)">
<g id="g272">
<path id="path272" d="M52.5487 4.59593C52.7827 4.67493 52.9978 4.77994 53.1938 4.91094C53.3908 5.04294 53.5528 5.19091 53.6818 5.35591C53.8108 5.52091 53.8958 5.68993 53.9378 5.86293C53.9798 6.03593 53.9748 6.19893 53.9228 6.35393C53.8708 6.50893 53.7768 6.64291 53.6388 6.75591C53.5018 6.86891 53.3318 6.95191 53.1298 7.00591C52.9278 7.05991 52.7088 7.08092 52.4728 7.06792C52.2358 7.05392 52.0008 7.00892 51.7668 6.92992C51.5328 6.85192 51.3178 6.74692 51.1218 6.61492C50.9248 6.48392 50.7618 6.33491 50.6338 6.16991C50.5048 6.00591 50.4188 5.83693 50.3778 5.66393C50.3358 5.49093 50.3408 5.32692 50.3928 5.17192C50.4448 5.01792 50.5388 4.88392 50.6768 4.77092C50.8138 4.65792 50.9838 4.57392 51.1858 4.51992C51.3878 4.46592 51.6068 4.44591 51.8428 4.45891C52.0788 4.47191 52.3147 4.51793 52.5487 4.59593Z" fill="white"/>
</g>
</g>
</g>
<g id="Mask group_7">
<mask id="mask7_105_6517" style="mask-type:luminance" maskUnits="userSpaceOnUse" x="-99" y="-61" width="456" height="494">
<g id="Group_7">
<g id="Mask group_8">
<mask id="mask8_105_6517" style="mask-type:luminance" maskUnits="userSpaceOnUse" x="-99" y="-378" width="1441" height="811">
<g id="Group_8">
<path id="path273" fill-rule="evenodd" clip-rule="evenodd" d="M-98.3662 -377.341H1341.63V432.659H-98.3662V-377.341Z" fill="white"/>
</g>
</mask>
<g mask="url(#mask8_105_6517)">
<g id="g274">
<path id="path274" fill-rule="evenodd" clip-rule="evenodd" d="M-98.6064 -60.9819H356.487V432.899H-98.6064V-60.9819Z" fill="white"/>
</g>
</g>
</g>
</g>
</mask>
<g mask="url(#mask7_105_6517)">
<g id="g276">
<path id="path275" d="M126.883 78.5922C126.311 78.5922 125.739 78.5732 125.168 78.5362C124.596 78.4992 124.027 78.4431 123.459 78.3691C122.892 78.2941 122.327 78.2022 121.766 78.0912C121.204 77.9802 120.647 77.8512 120.093 77.7042C119.54 77.5572 118.992 77.3921 118.45 77.2091C117.907 77.0261 117.371 76.8262 116.842 76.6092C116.312 76.3912 115.79 76.1572 115.276 75.9062C114.761 75.6542 114.256 75.3861 113.759 75.1021C113.262 74.8181 112.775 74.5182 112.297 74.2022C111.82 73.8862 111.353 73.5551 110.897 73.2091C110.441 72.8631 109.997 72.5032 109.564 72.1282C109.132 71.7532 108.712 71.3642 108.304 70.9622C107.897 70.5602 107.503 70.1452 107.122 69.7172C106.742 69.2892 106.376 68.8492 106.024 68.3982C105.672 67.9462 105.335 67.4842 105.013 67.0102C104.692 66.5372 104.385 66.0542 104.095 65.5602C103.804 65.0672 103.53 64.5651 103.272 64.0541C103.014 63.5431 102.773 63.0242 102.549 62.4972C102.325 61.9702 102.118 61.4372 101.929 60.8972C101.739 60.3562 101.567 59.8112 101.413 59.2592C101.259 58.7082 101.123 58.1522 101.005 57.5922C100.887 57.0322 100.787 56.4682 100.705 55.9022C100.624 55.3352 100.561 54.7661 100.516 54.1961C100.472 53.6251 100.446 53.0531 100.438 52.4811C100.431 51.9081 100.442 51.3361 100.471 50.7651C100.501 50.1931 100.549 49.6231 100.616 49.0541C100.683 48.4861 100.767 47.9202 100.871 47.3572C100.974 46.7942 101.096 46.2351 101.236 45.6791C101.375 45.1241 101.533 44.5742 101.708 44.0292C101.884 43.4842 102.076 42.9452 102.287 42.4132C102.497 41.8812 102.724 41.3561 102.969 40.8381C103.213 40.3201 103.474 39.8112 103.752 39.3102C104.029 38.8102 104.323 38.3182 104.632 37.8372C104.941 37.3552 105.266 36.8842 105.606 36.4232C105.946 35.9632 106.301 35.5141 106.67 35.0761C107.039 34.6381 107.422 34.2131 107.818 33.8001C108.215 33.3881 108.625 32.9881 109.047 32.6021C109.47 32.2161 109.905 31.8442 110.352 31.4862C110.798 31.1282 111.256 30.7852 111.725 30.4572C112.194 30.1292 112.674 29.8161 113.163 29.5191C113.652 29.2221 114.151 28.9412 114.658 28.6762C115.166 28.4122 115.682 28.1642 116.205 27.9322C116.729 27.7012 117.26 27.4872 117.797 27.2902C118.335 27.0942 118.878 26.9142 119.427 26.7532C119.976 26.5912 120.53 26.4482 121.089 26.3222C121.647 26.1972 122.209 26.0892 122.775 26.0002C123.34 25.9112 123.908 25.8412 124.478 25.7882C125.048 25.7362 125.619 25.7022 126.192 25.6872C126.764 25.6722 127.336 25.6762 127.908 25.6982C128.48 25.7202 129.051 25.7602 129.62 25.8192C130.19 25.8782 130.757 25.9562 131.321 26.0522C131.885 26.1472 132.446 26.2611 133.003 26.3941C133.56 26.5261 134.112 26.6762 134.659 26.8442C135.207 27.0122 135.748 27.1982 136.283 27.4012C136.818 27.6042 137.346 27.8252 137.867 28.0622C138.388 28.3002 138.9 28.5541 139.405 28.8251C139.909 29.0951 140.404 29.3822 140.89 29.6852C141.376 29.9882 141.851 30.3061 142.316 30.6401C142.781 30.9741 143.235 31.3232 143.678 31.6862C144.12 32.0492 144.55 32.4261 144.968 32.8171C145.386 33.2091 145.791 33.6132 146.183 34.0302C146.575 34.4482 146.952 34.8772 147.316 35.3192C147.68 35.7612 148.029 36.2151 148.364 36.6791C148.698 37.1441 149.017 37.6192 149.321 38.1042C149.624 38.5902 149.912 39.0841 150.183 39.5881C150.455 40.0921 150.709 40.6052 150.948 41.1252C151.186 41.6462 151.407 42.1741 151.611 42.7091C151.815 43.2431 152.001 43.7842 152.17 44.3312C152.339 44.8782 152.49 45.4302 152.623 45.9872C152.756 46.5442 152.871 47.1052 152.967 47.6692C153.064 48.2332 153.142 48.8001 153.202 49.3691C153.262 49.9391 153.303 50.5092 153.326 51.0812C153.349 51.6532 153.353 52.2252 153.339 52.7982C153.324 53.3702 153.292 53.9411 153.24 54.5111C153.189 55.0821 153.119 55.6502 153.031 56.2152C152.942 56.7812 152.836 57.3432 152.711 57.9022C152.586 58.4602 152.444 59.0152 152.283 59.5642C152.122 60.1132 151.944 60.6572 151.748 61.1952C151.552 61.7332 151.338 62.2642 151.108 62.7882C150.877 63.3122 150.63 63.8282 150.366 64.3362C150.102 64.8442 149.822 65.3432 149.526 65.8322C149.229 66.3222 148.917 66.8022 148.59 67.2712C148.262 67.7412 147.92 68.1992 147.563 68.6472C147.205 69.0942 146.834 69.5292 146.448 69.9532C146.063 70.3762 145.664 70.7861 145.252 71.1831C144.84 71.5811 144.415 71.9641 143.978 72.3341C143.541 72.7041 143.093 73.0591 142.632 73.3991C142.172 73.7401 141.702 74.0652 141.22 74.3752C140.739 74.6862 140.248 74.9802 139.748 75.2582C139.248 75.5362 138.739 75.7982 138.222 76.0432C137.705 76.2882 137.18 76.5161 136.648 76.7271C136.116 76.9391 135.577 77.1321 135.033 77.3081C134.488 77.4851 133.938 77.6431 133.383 77.7831C132.828 77.9241 132.269 78.0462 131.706 78.1502C131.143 78.2542 130.578 78.3401 130.009 78.4081C129.441 78.4751 128.871 78.5242 128.299 78.5552C127.826 78.5802 127.352 78.5922 126.883 78.5922ZM126.912 27.7852C126.479 27.7852 126.044 27.7971 125.607 27.8211C124.799 27.8471 123.994 27.9131 123.193 28.0191C122.391 28.1251 121.597 28.2712 120.81 28.4562C120.023 28.6422 119.247 28.8652 118.483 29.1282C117.718 29.3902 116.968 29.6902 116.234 30.0272C115.499 30.3652 114.783 30.7372 114.085 31.1462C113.387 31.5542 112.712 31.9961 112.058 32.4721C111.404 32.9481 110.776 33.4552 110.173 33.9932C109.569 34.5322 108.994 35.0982 108.448 35.6942C107.901 36.2902 107.385 36.9111 106.9 37.5581C106.415 38.2051 105.964 38.8742 105.545 39.5662C105.127 40.2582 104.744 40.9692 104.397 41.6992C104.049 42.4292 103.739 43.1742 103.466 43.9352C103.192 44.6962 102.957 45.4682 102.761 46.2532C102.565 47.0372 102.408 47.8292 102.29 48.6292C102.173 49.4292 102.095 50.2332 102.058 51.0402C102.02 51.8482 102.023 52.6551 102.066 53.4631C102.109 54.2701 102.192 55.0732 102.314 55.8722C102.437 56.6712 102.599 57.4622 102.801 58.2452C103.003 59.0282 103.243 59.7991 103.521 60.5581C103.799 61.3171 104.115 62.0612 104.467 62.7882C104.819 63.5162 105.207 64.2242 105.63 64.9132C106.053 65.6022 106.509 66.2692 106.998 66.9132C107.487 67.5562 108.007 68.1742 108.558 68.7662C109.109 69.3582 109.687 69.9211 110.294 70.4551C110.901 70.9891 111.533 71.4921 112.189 71.9641C112.846 72.4351 113.525 72.8722 114.225 73.2762C114.926 73.6802 115.644 74.0482 116.381 74.3802C117.118 74.7132 117.87 75.0071 118.636 75.2651C119.403 75.5221 120.18 75.7412 120.968 75.9212C121.756 76.1012 122.552 76.2412 123.354 76.3422C124.156 76.4432 124.961 76.5042 125.769 76.5252C126.577 76.5452 127.384 76.5262 128.191 76.4662C128.97 76.4202 129.746 76.3362 130.517 76.2152C131.289 76.0942 132.053 75.9362 132.809 75.7422C133.565 75.5472 134.311 75.3172 135.045 75.0512C135.779 74.7842 136.499 74.4842 137.204 74.1482C137.909 73.8132 138.597 73.4442 139.267 73.0432C139.936 72.6412 140.585 72.2092 141.214 71.7452C141.842 71.2812 142.446 70.7882 143.027 70.2662C143.608 69.7432 144.162 69.1951 144.69 68.6191C145.218 68.0441 145.717 67.4451 146.188 66.8211C146.658 66.1981 147.098 65.5532 147.506 64.8872C147.914 64.2222 148.29 63.5382 148.633 62.8362C148.975 62.1352 149.283 61.4182 149.557 60.6862C149.831 59.9552 150.069 59.2122 150.271 58.4582C150.473 57.7042 150.639 56.9412 150.768 56.1712C150.897 55.4012 150.989 54.6261 151.043 53.8471C151.098 53.0681 151.115 52.2881 151.094 51.5071C151.074 50.7271 151.016 49.9492 150.921 49.1742C150.825 48.3982 150.693 47.6302 150.524 46.8672C150.355 46.1052 150.149 45.3521 149.908 44.6101C149.666 43.8671 149.389 43.1382 149.078 42.4222C148.766 41.7062 148.42 41.0062 148.041 40.3232C147.662 39.6402 147.252 38.9771 146.809 38.3341C146.366 37.6911 145.893 37.0701 145.391 36.4721C144.888 35.8741 144.358 35.3022 143.801 34.7552C143.243 34.2082 142.661 33.6892 142.054 33.1992C141.446 32.7082 140.817 32.2471 140.165 31.8171C139.513 31.3861 138.843 30.9881 138.153 30.6231C137.463 30.2571 136.757 29.9251 136.035 29.6271C135.313 29.3291 134.578 29.0661 133.831 28.8391C133.084 28.6121 132.328 28.4212 131.562 28.2662C130.797 28.1122 130.026 27.9942 129.249 27.9142C128.472 27.8342 127.693 27.7912 126.912 27.7852Z" fill="white"/>
<path id="path276" d="M151.744 52.1522C151.744 52.9662 151.704 53.7782 151.625 54.5872C151.545 55.3972 151.426 56.2012 151.267 56.9992C151.108 57.7982 150.911 58.5862 150.674 59.3652C150.438 60.1442 150.164 60.9092 149.853 61.6612C149.542 62.4132 149.194 63.1472 148.81 63.8652C148.427 64.5832 148.009 65.2802 147.557 65.9562C147.105 66.6332 146.621 67.2862 146.104 67.9152C145.588 68.5442 145.042 69.1462 144.467 69.7222C143.892 70.2972 143.289 70.8432 142.66 71.3592C142.031 71.8762 141.379 72.3602 140.702 72.8122C140.025 73.2642 139.328 73.6822 138.611 74.0652C137.893 74.4492 137.158 74.7972 136.406 75.1082C135.654 75.4192 134.889 75.6932 134.111 75.9292C133.332 76.1662 132.543 76.3632 131.745 76.5222C130.947 76.6812 130.143 76.8002 129.334 76.8802C128.524 76.9602 127.712 76.9992 126.898 76.9992C126.084 76.9992 125.273 76.9602 124.463 76.8802C123.653 76.8002 122.849 76.6812 122.051 76.5222C121.253 76.3632 120.464 76.1662 119.686 75.9302C118.907 75.6932 118.142 75.4192 117.39 75.1082C116.638 74.7972 115.903 74.4492 115.186 74.0652C114.468 73.6822 113.771 73.2642 113.094 72.8122C112.418 72.3602 111.765 71.8762 111.136 71.3592C110.507 70.8432 109.905 70.2972 109.329 69.7222C108.754 69.1462 108.208 68.5442 107.692 67.9152C107.175 67.2862 106.691 66.6332 106.239 65.9562C105.787 65.2802 105.369 64.5832 104.986 63.8652C104.602 63.1472 104.255 62.4132 103.943 61.6612C103.632 60.9092 103.358 60.1442 103.122 59.3652C102.886 58.5862 102.688 57.7982 102.529 56.9992C102.371 56.2012 102.251 55.3972 102.172 54.5872C102.092 53.7782 102.052 52.9662 102.052 52.1522C102.052 51.3382 102.092 50.5262 102.172 49.7162C102.251 48.9072 102.371 48.1032 102.529 47.3042C102.688 46.5062 102.885 45.7182 103.122 44.9392C103.358 44.1602 103.632 43.3952 103.943 42.6432C104.255 41.8912 104.602 41.1572 104.986 40.4392C105.369 39.7212 105.787 39.0242 106.239 38.3472C106.691 37.6712 107.175 37.0182 107.692 36.3892C108.208 35.7602 108.754 35.1582 109.329 34.5822C109.905 34.0072 110.507 33.4612 111.136 32.9452C111.765 32.4282 112.418 31.9442 113.094 31.4922C113.771 31.0402 114.468 30.6222 115.186 30.2382C115.903 29.8552 116.638 29.5072 117.39 29.1962C118.142 28.8842 118.907 28.6112 119.686 28.3742C120.464 28.1382 121.253 27.9412 122.051 27.7822C122.849 27.6232 123.653 27.5042 124.463 27.4242C125.273 27.3442 126.084 27.3052 126.898 27.3052C127.712 27.3052 128.524 27.3442 129.334 27.4242C130.143 27.5042 130.947 27.6232 131.745 27.7822C132.543 27.9412 133.332 28.1382 134.111 28.3742C134.889 28.6112 135.654 28.8842 136.406 29.1962C137.158 29.5072 137.893 29.8552 138.611 30.2382C139.328 30.6222 140.025 31.0402 140.702 31.4922C141.379 31.9442 142.031 32.4282 142.66 32.9452C143.289 33.4612 143.892 34.0072 144.467 34.5822C145.042 35.1582 145.588 35.7602 146.104 36.3892C146.621 37.0182 147.105 37.6712 147.557 38.3472C148.009 39.0242 148.427 39.7212 148.81 40.4392C149.194 41.1572 149.542 41.8912 149.853 42.6432C150.164 43.3952 150.438 44.1602 150.674 44.9392C150.911 45.7182 151.108 46.5062 151.267 47.3042C151.426 48.1032 151.545 48.9072 151.625 49.7172C151.704 50.5262 151.744 51.3382 151.744 52.1522Z" fill="white" fill-opacity="0.2"/>
</g>
</g>
</g>
<g id="Mask group_9">
<mask id="mask9_105_6517" style="mask-type:luminance" maskUnits="userSpaceOnUse" x="-99" y="-61" width="456" height="494">
<g id="Group_9">
<g id="Mask group_10">
<mask id="mask10_105_6517" style="mask-type:luminance" maskUnits="userSpaceOnUse" x="-99" y="-378" width="1441" height="811">
<g id="Group_10">
<path id="path277" fill-rule="evenodd" clip-rule="evenodd" d="M-98.3662 -377.341H1341.63V432.659H-98.3662V-377.341Z" fill="white"/>
</g>
</mask>
<g mask="url(#mask10_105_6517)">
<g id="g278">
<path id="path278" fill-rule="evenodd" clip-rule="evenodd" d="M-98.6064 -60.9819H356.487V432.899H-98.6064V-60.9819Z" fill="white"/>
</g>
</g>
</g>
</g>
</mask>
<g mask="url(#mask9_105_6517)">
<g id="g279">
<path id="path279" d="M138.404 38.4932C138.84 38.8852 139.246 39.3012 139.623 39.7422C140 40.1822 140.34 40.6392 140.643 41.1112C140.947 41.5832 141.208 42.0622 141.426 42.5482C141.645 43.0332 141.817 43.5172 141.942 43.9972C142.067 44.4782 142.143 44.9472 142.169 45.4042C142.196 45.8612 142.173 46.2972 142.101 46.7132C142.029 47.1292 141.908 47.5172 141.739 47.8752C141.57 48.2342 141.356 48.5582 141.097 48.8462C140.839 49.1342 140.54 49.3802 140.201 49.5862C139.862 49.7922 139.489 49.9532 139.083 50.0692C138.678 50.1862 138.246 50.2542 137.789 50.2762C137.331 50.2982 136.857 50.2722 136.366 50.1992C135.875 50.1252 135.376 50.0052 134.87 49.8402C134.364 49.6742 133.86 49.4652 133.358 49.2132C132.857 48.9612 132.367 48.6712 131.889 48.3432C131.411 48.0152 130.955 47.6552 130.519 47.2632C130.083 46.8722 129.677 46.4552 129.3 46.0152C128.923 45.5752 128.583 45.1182 128.28 44.6462C127.976 44.1742 127.715 43.6952 127.497 43.2092C127.278 42.7242 127.106 42.2402 126.981 41.7602C126.856 41.2792 126.78 40.8102 126.753 40.3532C126.727 39.8962 126.749 39.4602 126.822 39.0442C126.894 38.6282 127.015 38.2402 127.184 37.8812C127.353 37.5232 127.567 37.1992 127.826 36.9112C128.085 36.6232 128.383 36.3762 128.722 36.1702C129.061 35.9652 129.434 35.8042 129.839 35.6872C130.245 35.5712 130.677 35.5032 131.134 35.4812C131.592 35.4592 132.066 35.4852 132.557 35.5582C133.048 35.6322 133.547 35.7522 134.053 35.9172C134.559 36.0832 135.063 36.2922 135.565 36.5442C136.066 36.7962 136.556 37.0852 137.034 37.4142C137.512 37.7422 137.968 38.1022 138.404 38.4932Z" fill="white"/>
</g>
</g>
</g>
<g id="Mask group_11">
<mask id="mask11_105_6517" style="mask-type:luminance" maskUnits="userSpaceOnUse" x="-99" y="-61" width="456" height="494">
<g id="Group_11">
<g id="Mask group_12">
<mask id="mask12_105_6517" style="mask-type:luminance" maskUnits="userSpaceOnUse" x="-99" y="-378" width="1441" height="811">
<g id="Group_12">
<path id="path280" fill-rule="evenodd" clip-rule="evenodd" d="M-98.3662 -377.341H1341.63V432.659H-98.3662V-377.341Z" fill="white"/>
</g>
</mask>
<g mask="url(#mask12_105_6517)">
<g id="g281">
<path id="path281" fill-rule="evenodd" clip-rule="evenodd" d="M-98.6064 -60.9819H356.487V432.899H-98.6064V-60.9819Z" fill="white"/>
</g>
</g>
</g>
</g>
</mask>
<g mask="url(#mask11_105_6517)">
<g id="g282">
<path id="path282" d="M121.94 33.872C122.408 34.029 122.839 34.239 123.232 34.502C123.625 34.766 123.951 35.062 124.209 35.392C124.467 35.722 124.637 36.059 124.721 36.405C124.804 36.751 124.794 37.079 124.691 37.388C124.587 37.698 124.398 37.966 124.123 38.192C123.848 38.418 123.508 38.585 123.104 38.692C122.699 38.8 122.261 38.841 121.788 38.815C121.316 38.788 120.846 38.697 120.377 38.54C119.909 38.383 119.478 38.173 119.085 37.91C118.692 37.646 118.366 37.35 118.108 37.02C117.85 36.69 117.68 36.353 117.596 36.007C117.513 35.661 117.523 35.333 117.626 35.023C117.73 34.714 117.919 34.446 118.194 34.22C118.469 33.994 118.809 33.827 119.213 33.719C119.618 33.611 120.056 33.571 120.529 33.597C121.001 33.624 121.471 33.715 121.94 33.872Z" fill="white"/>
</g>
</g>
</g>
<g id="Mask group_13">
<mask id="mask13_105_6517" style="mask-type:luminance" maskUnits="userSpaceOnUse" x="-99" y="-61" width="456" height="494">
<g id="Group_13">
<g id="Mask group_14">
<mask id="mask14_105_6517" style="mask-type:luminance" maskUnits="userSpaceOnUse" x="-99" y="-378" width="1441" height="811">
<g id="Group_14">
<path id="path283" fill-rule="evenodd" clip-rule="evenodd" d="M-98.3662 -377.341H1341.63V432.659H-98.3662V-377.341Z" fill="white"/>
</g>
</mask>
<g mask="url(#mask14_105_6517)">
<g id="g284">
<path id="path284" fill-rule="evenodd" clip-rule="evenodd" d="M-98.6064 -60.9819H356.487V432.899H-98.6064V-60.9819Z" fill="white"/>
</g>
</g>
</g>
</g>
</mask>
<g mask="url(#mask13_105_6517)">
<g id="g286">
<path id="path285" d="M17.9558 75.4623C17.5768 75.4623 17.1978 75.4503 16.8188 75.4253C16.4408 75.4003 16.0638 75.3633 15.6868 75.3143C15.3108 75.2653 14.9368 75.2043 14.5648 75.1303C14.1928 75.0573 13.8238 74.9713 13.4568 74.8743C13.0898 74.7773 12.7268 74.6673 12.3678 74.5463C12.0088 74.4253 11.6528 74.2933 11.3018 74.1493C10.9508 74.0053 10.6058 73.8493 10.2648 73.6833C9.92381 73.5163 9.58881 73.3393 9.25981 73.1513C8.92981 72.9633 8.60781 72.7643 8.29081 72.5553C7.97481 72.3453 7.66481 72.1263 7.36281 71.8973C7.06081 71.6683 6.76681 71.4293 6.47981 71.1803C6.19281 70.9323 5.91481 70.6743 5.64481 70.4083C5.37481 70.1423 5.11381 69.8673 4.86181 69.5833C4.60981 69.3003 4.36681 69.0083 4.13381 68.7093C3.90081 68.4103 3.67781 68.1043 3.46381 67.7903C3.25081 67.4763 3.04781 67.1563 2.85581 66.8293C2.66281 66.5023 2.48081 66.1703 2.30981 65.8313C2.13981 65.4923 1.97981 65.1493 1.83081 64.8003C1.68281 64.4513 1.54521 64.0973 1.41961 63.7393C1.29401 63.3813 1.18001 63.0203 1.07781 62.6543C0.975612 62.2893 0.885413 61.9213 0.807113 61.5503C0.728813 61.1793 0.662712 60.8053 0.608612 60.4303C0.554512 60.0543 0.512708 59.6783 0.483108 59.2993C0.453508 58.9213 0.436313 58.5433 0.431213 58.1633C0.426213 57.7843 0.43351 57.4053 0.45301 57.0263C0.47271 56.6473 0.504514 56.2693 0.548614 55.8933C0.592714 55.5163 0.649014 55.1413 0.717414 54.7683C0.785914 54.3953 0.866415 54.0243 0.958915 53.6563C1.05142 53.2893 1.15571 52.9243 1.27191 52.5633C1.38801 52.2023 1.51582 51.8453 1.65482 51.4923C1.79482 51.1393 1.94481 50.7913 2.10681 50.4483C2.26881 50.1053 2.44181 49.7683 2.62581 49.4363C2.80981 49.1043 3.00381 48.7793 3.20881 48.4603C3.41381 48.1403 3.62881 47.8283 3.85381 47.5233C4.07881 47.2183 4.31381 46.9203 4.55881 46.6303C4.80281 46.3403 5.05681 46.0583 5.31981 45.7853C5.58281 45.5113 5.85381 45.2473 6.13381 44.9913C6.41381 44.7353 6.70181 44.4883 6.99781 44.2513C7.29381 44.0143 7.59781 43.7873 7.90781 43.5693C8.21881 43.3523 8.53681 43.1453 8.86081 42.9483C9.18481 42.7513 9.51481 42.5653 9.85081 42.3893C10.1878 42.2143 10.5288 42.0493 10.8758 41.8963C11.2228 41.7433 11.5748 41.6013 11.9308 41.4703C12.2868 41.3403 12.6468 41.2212 13.0108 41.1142C13.3748 41.0072 13.7418 40.9123 14.1118 40.8293C14.4818 40.7453 14.8538 40.6743 15.2288 40.6153C15.6038 40.5563 15.9798 40.5093 16.3578 40.4753C16.7348 40.4403 17.1138 40.4172 17.4928 40.4072C17.8718 40.3972 18.2508 40.4003 18.6298 40.4143C19.0088 40.4293 19.3868 40.4553 19.7648 40.4943C20.1418 40.5333 20.5178 40.5853 20.8918 40.6483C21.2648 40.7123 21.6368 40.7873 22.0058 40.8753C22.3748 40.9623 22.7408 41.0623 23.1038 41.1733C23.4658 41.2843 23.8248 41.4073 24.1788 41.5423C24.5338 41.6773 24.8838 41.8223 25.2288 41.9803C25.5738 42.1373 25.9138 42.3053 26.2478 42.4853C26.5818 42.6643 26.9098 42.8543 27.2318 43.0553C27.5538 43.2563 27.8688 43.4663 28.1778 43.6883C28.4858 43.9093 28.7858 44.1393 29.0798 44.3803C29.3728 44.6213 29.6578 44.8713 29.9348 45.1303C30.2118 45.3893 30.4798 45.6572 30.7398 45.9332C30.9988 46.2102 31.2498 46.4953 31.4908 46.7873C31.7318 47.0803 31.9628 47.3813 32.1848 47.6883C32.4068 47.9963 32.6178 48.3113 32.8188 48.6323C33.0208 48.9543 33.2108 49.2823 33.3908 49.6163C33.5708 49.9503 33.7398 50.2893 33.8978 50.6343C34.0558 50.9793 34.2018 51.3282 34.3378 51.6832C34.4728 52.0372 34.5958 52.3963 34.7078 52.7583C34.8198 53.1213 34.9198 53.4863 35.0078 53.8553C35.0968 54.2243 35.1728 54.5963 35.2368 54.9693C35.3008 55.3433 35.3528 55.7193 35.3928 56.0963C35.4318 56.4733 35.4598 56.8513 35.4748 57.2303C35.4898 57.6093 35.4928 57.9893 35.4838 58.3683C35.4738 58.7473 35.4518 59.1263 35.4178 59.5033C35.3838 59.8813 35.3378 60.2573 35.2798 60.6323C35.2208 61.0073 35.1508 61.3793 35.0678 61.7503C34.9858 62.1203 34.8908 62.4872 34.7848 62.8512C34.6778 63.2152 34.5598 63.5753 34.4298 63.9323C34.2998 64.2883 34.1588 64.6403 34.0058 64.9873C33.8538 65.3353 33.6898 65.6773 33.5148 66.0133C33.3398 66.3503 33.1548 66.6803 32.9578 67.0053C32.7618 67.3303 32.5548 67.6473 32.3378 67.9593C32.1208 68.2703 31.8948 68.5733 31.6578 68.8703C31.4208 69.1663 31.1748 69.4553 30.9198 69.7353C30.6648 70.0163 30.3998 70.2883 30.1268 70.5513C29.8538 70.8143 29.5728 71.0683 29.2828 71.3133C28.9938 71.5583 28.6968 71.7943 28.3918 72.0203C28.0868 72.2453 27.7748 72.4613 27.4558 72.6663C27.1378 72.8723 26.8118 73.0673 26.4808 73.2513C26.1498 73.4363 25.8118 73.6093 25.4698 73.7723C25.1268 73.9343 24.7788 74.0853 24.4268 74.2253C24.0738 74.3653 23.7178 74.4943 23.3568 74.6103C22.9958 74.7273 22.6308 74.8323 22.2638 74.9253C21.8958 75.0193 21.5258 75.1003 21.1528 75.1693C20.7798 75.2383 20.4048 75.2953 20.0278 75.3403C19.6518 75.3843 19.2738 75.4173 18.8948 75.4373C18.5808 75.4543 18.2658 75.4623 17.9558 75.4623ZM17.9828 42.4943C17.7038 42.4943 17.4248 42.4943 17.1498 42.5153C16.4808 42.5493 15.8158 42.6273 15.1558 42.7493C14.4958 42.8703 13.8468 43.0332 13.2078 43.2392C12.5698 43.4442 11.9468 43.6903 11.3408 43.9773C10.7338 44.2633 10.1488 44.5882 9.58381 44.9502C9.01981 45.3132 8.48081 45.7113 7.96881 46.1433C7.45581 46.5763 6.97281 47.0403 6.52081 47.5353C6.06781 48.0303 5.64981 48.5533 5.26481 49.1023C4.88081 49.6523 4.53281 50.2243 4.22281 50.8193C3.91281 51.4143 3.64281 52.0263 3.41181 52.6563C3.18181 53.2863 2.99281 53.9293 2.84581 54.5833C2.69881 55.2383 2.59381 55.8993 2.53281 56.5673C2.47181 57.2353 2.45381 57.9042 2.47981 58.5752C2.50581 59.2452 2.57481 59.9113 2.68681 60.5723C2.79881 61.2343 2.95381 61.8853 3.15081 62.5263C3.34781 63.1673 3.58582 63.7933 3.86382 64.4043C4.14182 65.0143 4.45881 65.6043 4.81381 66.1733C5.16881 66.7423 5.55881 67.2863 5.98481 67.8053C6.40981 68.3233 6.86781 68.8123 7.35681 69.2713C7.84581 69.7303 8.36281 70.1563 8.90681 70.5483C9.45181 70.9403 10.0188 71.2953 10.6098 71.6133C11.1998 71.9313 11.8088 72.2103 12.4358 72.4493C13.0618 72.6883 13.7018 72.8853 14.3538 73.0413C15.0068 73.1973 15.6668 73.3103 16.3338 73.3803C17.0008 73.4503 17.6698 73.4773 18.3398 73.4603C19.0108 73.4443 19.6778 73.3833 20.3398 73.2803C21.0028 73.1773 21.6568 73.0313 22.2998 72.8423C22.9438 72.6543 23.5728 72.4253 24.1868 72.1553C24.8008 71.8853 25.3948 71.5763 25.9688 71.2293C26.5428 70.8823 27.0918 70.4993 27.6158 70.0803C28.1408 69.6613 28.6348 69.2113 29.1008 68.7283C29.5668 68.2453 29.9988 67.7343 30.3978 67.1953C30.7968 66.6563 31.1598 66.0933 31.4858 65.5073C31.8118 64.9203 32.0988 64.3153 32.3458 63.6923C32.5938 63.0683 32.7998 62.4313 32.9638 61.7813C33.1288 61.1313 33.2508 60.4723 33.3298 59.8063C33.4088 59.1403 33.4448 58.4723 33.4368 57.8013C33.4298 57.1303 33.3788 56.4633 33.2838 55.7983C33.1898 55.1343 33.0518 54.4793 32.8728 53.8333C32.6928 53.1863 32.4728 52.5543 32.2108 51.9373C31.9488 51.3193 31.6478 50.7213 31.3088 50.1423C30.9688 49.5643 30.5938 49.0103 30.1818 48.4803C29.7708 47.9503 29.3268 47.4493 28.8498 46.9773C28.3738 46.5053 27.8678 46.0663 27.3348 45.6593C26.8008 45.2533 26.2428 44.8833 25.6618 44.5493C25.0798 44.2153 24.4788 43.9203 23.8588 43.6643C23.2388 43.4083 22.6048 43.1943 21.9568 43.0203C21.3078 42.8473 20.6518 42.7163 19.9868 42.6283C19.3218 42.5403 18.6538 42.4953 17.9828 42.4943Z" fill="white"/>
<path id="path286" d="M34.0899 57.9361C34.0899 58.4641 34.0649 58.9911 34.0129 59.5171C33.9609 60.0421 33.8839 60.5641 33.7809 61.0821C33.6769 61.6001 33.5489 62.1121 33.3959 62.6171C33.2429 63.1231 33.0649 63.6191 32.8629 64.1071C32.6609 64.5951 32.4349 65.0721 32.1859 65.5381C31.9369 66.0041 31.6659 66.4561 31.3729 66.8961C31.0789 67.3351 30.7649 67.7581 30.4299 68.1671C30.0949 68.5751 29.7409 68.9661 29.3669 69.3391C28.9939 69.7131 28.6029 70.0671 28.1949 70.4021C27.7859 70.7371 27.3629 71.0521 26.9229 71.3451C26.4839 71.6381 26.0319 71.9101 25.5659 72.1591C25.0999 72.4081 24.6229 72.6331 24.1349 72.8351C23.6469 73.0371 23.1509 73.2151 22.6449 73.3681C22.1399 73.5221 21.6279 73.6501 21.1099 73.7531C20.5919 73.8561 20.0699 73.9331 19.5449 73.9851C19.0189 74.0371 18.4919 74.0631 17.9639 74.0631C17.4359 74.0631 16.9089 74.0371 16.3839 73.9851C15.8579 73.9331 15.3359 73.8561 14.8179 73.7531C14.2999 73.6501 13.7879 73.5221 13.2829 73.3681C12.7779 73.2151 12.2809 73.0371 11.7929 72.8351C11.3049 72.6331 10.8279 72.4081 10.3619 72.1591C9.89689 71.9101 9.44389 71.6381 9.00489 71.3451C8.56589 71.0521 8.14189 70.7371 7.73389 70.4021C7.32589 70.0671 6.93489 69.7131 6.56089 69.3391C6.18789 68.9661 5.83389 68.5751 5.49889 68.1671C5.16289 67.7581 4.84889 67.3351 4.55589 66.8961C4.26189 66.4561 3.99089 66.0041 3.74189 65.5381C3.49289 65.0721 3.26789 64.5951 3.06589 64.1071C2.86289 63.6191 2.68589 63.1231 2.53189 62.6171C2.37889 62.1121 2.25089 61.6001 2.14789 61.0821C2.04489 60.5641 1.96789 60.0421 1.91589 59.5171C1.86389 58.9911 1.83789 58.4641 1.83789 57.9361C1.83789 57.4081 1.86389 56.8811 1.91589 56.3551C1.96789 55.8301 2.04489 55.3081 2.14789 54.7901C2.25089 54.2721 2.37889 53.7601 2.53189 53.2541C2.68589 52.7491 2.86289 52.2521 3.06589 51.7641C3.26789 51.2761 3.49289 50.7991 3.74189 50.3341C3.99089 49.8681 4.26189 49.4151 4.55589 48.9761C4.84889 48.5371 5.16289 48.1131 5.49889 47.7051C5.83389 47.2971 6.18789 46.9061 6.56089 46.5321C6.93489 46.1591 7.32589 45.8051 7.73389 45.4701C8.14189 45.1341 8.56589 44.8201 9.00489 44.5271C9.44389 44.2331 9.89689 43.9621 10.3619 43.7131C10.8279 43.4641 11.3049 43.2391 11.7929 43.0361C12.2809 42.8341 12.7779 42.6571 13.2829 42.5031C13.7879 42.3501 14.2999 42.2221 14.8179 42.1191C15.3359 42.0161 15.8579 41.9381 16.3839 41.8871C16.9089 41.8351 17.4359 41.8091 17.9639 41.8091C18.4919 41.8091 19.0189 41.8351 19.5449 41.8871C20.0699 41.9381 20.5919 42.0161 21.1099 42.1191C21.6279 42.2221 22.1399 42.3501 22.6449 42.5031C23.1509 42.6571 23.6479 42.8341 24.1349 43.0361C24.6229 43.2391 25.0999 43.4641 25.5659 43.7131C26.0319 43.9621 26.4839 44.2331 26.9229 44.5271C27.3629 44.8201 27.7859 45.1341 28.1949 45.4701C28.6029 45.8051 28.9939 46.1591 29.3669 46.5321C29.7409 46.9061 30.0949 47.2971 30.4299 47.7051C30.7649 48.1131 31.0789 48.5371 31.3729 48.9761C31.6659 49.4151 31.9369 49.8681 32.1859 50.3341C32.4349 50.7991 32.6609 51.2761 32.8629 51.7641C33.0649 52.2521 33.2429 52.7491 33.3959 53.2541C33.5489 53.7601 33.6769 54.2721 33.7809 54.7901C33.8839 55.3081 33.9609 55.8301 34.0129 56.3551C34.0649 56.8811 34.0899 57.4081 34.0899 57.9361Z" fill="white" fill-opacity="0.2"/>
</g>
</g>
</g>
<g id="Mask group_15">
<mask id="mask15_105_6517" style="mask-type:luminance" maskUnits="userSpaceOnUse" x="-99" y="-61" width="456" height="494">
<g id="Group_15">
<g id="Mask group_16">
<mask id="mask16_105_6517" style="mask-type:luminance" maskUnits="userSpaceOnUse" x="-99" y="-378" width="1441" height="811">
<g id="Group_16">
<path id="path287" fill-rule="evenodd" clip-rule="evenodd" d="M-98.3662 -377.341H1341.63V432.659H-98.3662V-377.341Z" fill="white"/>
</g>
</mask>
<g mask="url(#mask16_105_6517)">
<g id="g288">
<path id="path288" fill-rule="evenodd" clip-rule="evenodd" d="M-98.6064 -60.9819H356.487V432.899H-98.6064V-60.9819Z" fill="white"/>
</g>
</g>
</g>
</g>
</mask>
<g mask="url(#mask15_105_6517)">
<g id="g289">
<path id="path289" d="M25.4317 49.0731C25.7147 49.3281 25.9777 49.5981 26.2227 49.8841C26.4677 50.1701 26.6877 50.4661 26.8847 50.7721C27.0817 51.0791 27.2517 51.3901 27.3937 51.7051C27.5357 52.0201 27.6467 52.3341 27.7277 52.6461C27.8087 52.9581 27.8587 53.2621 27.8757 53.5591C27.8937 53.8551 27.8787 54.1391 27.8317 54.4091C27.7847 54.6791 27.7057 54.9301 27.5967 55.1631C27.4867 55.3961 27.3477 55.6061 27.1797 55.7921C27.0117 55.9791 26.8177 56.1402 26.5977 56.2732C26.3787 56.4072 26.1367 56.5112 25.8727 56.5872C25.6097 56.6622 25.3297 56.7072 25.0327 56.7212C24.7357 56.7352 24.4277 56.7181 24.1087 56.6701C23.7907 56.6231 23.4667 56.5452 23.1387 56.4372C22.8097 56.3302 22.4827 56.1942 22.1567 56.0312C21.8317 55.8672 21.5137 55.6791 21.2037 55.4661C20.8937 55.2531 20.5967 55.0191 20.3137 54.7651C20.0317 54.5111 19.7677 54.2411 19.5227 53.9551C19.2787 53.6691 19.0577 53.3732 18.8607 53.0662C18.6637 52.7602 18.4937 52.4491 18.3517 52.1341C18.2107 51.8181 18.0987 51.5051 18.0177 51.1931C17.9367 50.8811 17.8867 50.5771 17.8697 50.2801C17.8527 49.9831 17.8667 49.7001 17.9137 49.4301C17.9607 49.1601 18.0397 48.9091 18.1487 48.6761C18.2587 48.4431 18.3977 48.2331 18.5657 48.0461C18.7337 47.8591 18.9277 47.6991 19.1477 47.5651C19.3677 47.4321 19.6087 47.3271 19.8727 47.2521C20.1357 47.1771 20.4157 47.1322 20.7127 47.1182C21.0097 47.1042 21.3177 47.1201 21.6367 47.1681C21.9557 47.2161 22.2787 47.2941 22.6077 47.4011C22.9357 47.5091 23.2627 47.6441 23.5887 47.8081C23.9137 47.9711 24.2317 48.1592 24.5417 48.3722C24.8527 48.5852 25.1487 48.8191 25.4317 49.0731Z" fill="white"/>
</g>
</g>
</g>
<g id="Mask group_17">
<mask id="mask17_105_6517" style="mask-type:luminance" maskUnits="userSpaceOnUse" x="-99" y="-61" width="456" height="494">
<g id="Group_17">
<g id="Mask group_18">
<mask id="mask18_105_6517" style="mask-type:luminance" maskUnits="userSpaceOnUse" x="-99" y="-378" width="1441" height="811">
<g id="Group_18">
<path id="path290" fill-rule="evenodd" clip-rule="evenodd" d="M-98.3662 -377.341H1341.63V432.659H-98.3662V-377.341Z" fill="white"/>
</g>
</mask>
<g mask="url(#mask18_105_6517)">
<g id="g291">
<path id="path291" fill-rule="evenodd" clip-rule="evenodd" d="M-98.6064 -60.9819H356.487V432.899H-98.6064V-60.9819Z" fill="white"/>
</g>
</g>
</g>
</g>
</mask>
<g mask="url(#mask17_105_6517)">
<g id="g292">
<path id="path292" d="M14.7447 46.0742C15.0487 46.1762 15.3277 46.3122 15.5837 46.4832C15.8387 46.6542 16.0497 46.8472 16.2167 47.0612C16.3847 47.2752 16.4957 47.4941 16.5497 47.7181C16.6037 47.9431 16.5967 48.1551 16.5297 48.3561C16.4627 48.5571 16.3397 48.7311 16.1617 48.8771C15.9827 49.0241 15.7627 49.1321 15.4997 49.2021C15.2377 49.2721 14.9527 49.2991 14.6467 49.2821C14.3397 49.2641 14.0347 49.2051 13.7307 49.1031C13.4267 49.0011 13.1467 48.8651 12.8917 48.6941C12.6367 48.5231 12.4257 48.3312 12.2587 48.1172C12.0907 47.9032 11.9797 47.6841 11.9257 47.4591C11.8717 47.2351 11.8777 47.0221 11.9457 46.8211C12.0127 46.6211 12.1357 46.4471 12.3137 46.3001C12.4927 46.1541 12.7127 46.0452 12.9757 45.9752C13.2377 45.9052 13.5227 45.8791 13.8287 45.8961C14.1357 45.9131 14.4407 45.9732 14.7447 46.0742Z" fill="white"/>
</g>
</g>
</g>
</g>
</g>
</g>
</g>
<defs>
<clipPath id="clip0_105_6517">
<rect width="152.917" height="78.5924" fill="white" transform="translate(0.429688)"/>
</clipPath>
</defs>
</svg>
