<svg width="148" height="246" viewBox="0 0 148 246" fill="none" xmlns="http://www.w3.org/2000/svg">
<g id="3bolhasC" clip-path="url(#clip0_105_6515)">
<g id="Clip path group">
<mask id="mask0_105_6515" style="mask-type:luminance" maskUnits="userSpaceOnUse" x="-1149" y="-371" width="1441" height="819">
<g id="clip0_103_8241">
<path id="rect532" d="M291.674 -370.4H-1148.33V447.1H291.674V-370.4Z" fill="white"/>
</g>
</mask>
<g mask="url(#mask0_105_6515)">
<g id="g528">
<g id="g532">
<g id="Mask group">
<mask id="mask1_105_6515" style="mask-type:luminance" maskUnits="userSpaceOnUse" x="-149" y="-27" width="441" height="467">
<g id="Group">
<g id="Mask group_2">
<mask id="mask2_105_6515" style="mask-type:luminance" maskUnits="userSpaceOnUse" x="-149" y="-27" width="441" height="467">
<g id="Group_2">
<g id="Mask group_3">
<mask id="mask3_105_6515" style="mask-type:luminance" maskUnits="userSpaceOnUse" x="-163" y="-27" width="455" height="467">
<g id="Group_3">
<g id="Mask group_4">
<mask id="mask4_105_6515" style="mask-type:luminance" maskUnits="userSpaceOnUse" x="-1149" y="-371" width="1441" height="811">
<g id="Group_4">
<path id="path89" fill-rule="evenodd" clip-rule="evenodd" d="M-1148.33 -370.4H291.674V439.6H-1148.33V-370.4Z" fill="white"/>
</g>
</mask>
<g mask="url(#mask4_105_6515)">
<g id="g90">
<path id="path90" d="M-70.7756 -26.6963L985.394 110.181L893.824 816.77L-162.347 679.89L-70.7756 -26.6963Z" fill="white"/>
</g>
</g>
</g>
</g>
</mask>
<g mask="url(#mask3_105_6515)">
<g id="g91">
<path id="path91" d="M-70.7759 -26.6963L345.744 27.2837L268.434 623.795L-148.086 569.816L-70.7759 -26.6963Z" fill="white"/>
</g>
</g>
</g>
</g>
</mask>
<g mask="url(#mask2_105_6515)">
<g id="g92">
<path id="path92" d="M-70.7756 -26.6963L985.394 110.181L893.824 816.77L-162.347 679.9L-70.7756 -26.6963Z" fill="white"/>
</g>
</g>
</g>
</g>
</mask>
<g mask="url(#mask1_105_6515)">
<g id="g94">
<path id="path93" d="M19.5444 167.486C18.8344 167.394 18.1345 167.269 17.4445 167.108C16.7545 166.948 16.0644 166.755 15.3944 166.527C14.7244 166.3 14.0544 166.04 13.4144 165.748C12.7644 165.456 12.1344 165.133 11.5144 164.778C10.8944 164.424 10.2945 164.04 9.71448 163.627C9.14448 163.214 8.58444 162.773 8.04444 162.305C7.51444 161.838 7.00441 161.345 6.51441 160.827C6.02441 160.308 5.5644 159.768 5.1344 159.204C4.6944 158.641 4.29443 158.058 3.91443 157.454C3.53443 156.851 3.19439 156.231 2.87439 155.594C2.55439 154.956 2.27442 154.305 2.02442 153.64C1.77442 152.975 1.55438 152.299 1.36438 151.613C1.18438 150.926 1.03443 150.232 0.914433 149.53C0.794433 148.829 0.714433 148.123 0.664433 147.414C0.614433 146.704 0.604394 145.994 0.624394 145.283C0.644394 144.572 0.704438 143.864 0.794438 143.159C0.884438 142.453 1.01444 141.754 1.17444 141.061C1.33444 140.368 1.5244 139.685 1.7544 139.011C1.9844 138.337 2.24443 137.676 2.53443 137.027C2.82443 136.379 3.1444 135.746 3.5044 135.13C3.8544 134.513 4.24442 133.915 4.65442 133.336C5.06442 132.757 5.50449 132.2 5.97449 131.664C6.44449 131.129 6.93447 130.617 7.45447 130.13C7.97447 129.643 8.51447 129.182 9.07447 128.748C9.64447 128.314 10.2245 127.909 10.8245 127.532C11.4345 127.155 12.0545 126.809 12.6845 126.493C13.3245 126.177 13.9744 125.893 14.6444 125.641C15.3044 125.389 15.9844 125.171 16.6744 124.985C17.3544 124.8 18.0544 124.649 18.7544 124.531C19.4544 124.414 20.1644 124.331 20.8644 124.283C21.5744 124.236 22.2844 124.223 23.0044 124.244C23.7144 124.266 24.4144 124.323 25.1244 124.414C25.8344 124.506 26.5245 124.631 27.2245 124.792C27.9145 124.952 28.5944 125.145 29.2744 125.373C29.9444 125.6 30.6044 125.86 31.2544 126.152C31.9044 126.444 32.5344 126.767 33.1544 127.122C33.7744 127.476 34.3645 127.86 34.9445 128.273C35.5245 128.686 36.0844 129.127 36.6244 129.594C37.1544 130.062 37.6644 130.555 38.1544 131.073C38.6444 131.592 39.1044 132.132 39.5344 132.696C39.9744 133.259 40.3744 133.842 40.7544 134.446C41.1344 135.049 41.4744 135.669 41.7944 136.306C42.1044 136.943 42.3944 137.595 42.6444 138.26C42.8944 138.925 43.1144 139.601 43.3044 140.287C43.4844 140.974 43.6344 141.668 43.7544 142.37C43.8744 143.071 43.9544 143.777 44.0044 144.486C44.0544 145.196 44.0644 145.906 44.0444 146.617C44.0244 147.328 43.9644 148.036 43.8744 148.741C43.7844 149.446 43.6544 150.145 43.4944 150.838C43.3344 151.53 43.1344 152.213 42.9144 152.887C42.6844 153.56 42.4244 154.221 42.1244 154.869C41.8344 155.517 41.5144 156.149 41.1544 156.766C40.8044 157.382 40.4244 157.979 40.0044 158.558C39.5944 159.137 39.1545 159.693 38.6845 160.229C38.2145 160.764 37.7245 161.275 37.2045 161.762C36.6845 162.249 36.1445 162.71 35.5845 163.144C35.0245 163.578 34.4345 163.983 33.8345 164.36C33.2345 164.737 32.6145 165.083 31.9745 165.399C31.3345 165.715 30.6844 165.999 30.0244 166.251C29.3544 166.503 28.6844 166.722 27.9944 166.908C27.3044 167.094 26.6144 167.245 25.9144 167.363C25.2144 167.481 24.5044 167.564 23.7944 167.612C23.0844 167.661 22.3744 167.674 21.6644 167.653C20.9544 167.632 20.2444 167.576 19.5444 167.486ZM24.8445 126.577C24.2145 126.495 23.5745 126.444 22.9345 126.424C22.2945 126.404 21.6544 126.416 21.0144 126.459C20.3744 126.502 19.7444 126.577 19.1144 126.682C18.4844 126.788 17.8545 126.924 17.2345 127.091C16.6245 127.258 16.0144 127.454 15.4144 127.681C14.8144 127.908 14.2244 128.163 13.6544 128.447C13.0844 128.731 12.5245 129.043 11.9845 129.382C11.4345 129.721 10.9144 130.086 10.4044 130.476C9.90442 130.867 9.41446 131.281 8.94446 131.72C8.48446 132.158 8.03438 132.618 7.61438 133.1C7.19438 133.582 6.79444 134.084 6.42444 134.604C6.05444 135.125 5.71441 135.663 5.39441 136.218C5.07441 136.773 4.78441 137.342 4.51441 137.925C4.25441 138.509 4.02446 139.103 3.81446 139.71C3.61446 140.316 3.43444 140.931 3.29444 141.555C3.15444 142.178 3.03447 142.807 2.95447 143.442C2.87447 144.076 2.82445 144.713 2.80445 145.353C2.78445 145.992 2.79448 146.631 2.83448 147.27C2.88448 147.908 2.95446 148.543 3.06446 149.174C3.16446 149.805 3.30449 150.43 3.47449 151.048C3.63449 151.665 3.83446 152.273 4.06446 152.872C4.28446 153.47 4.54447 154.056 4.82447 154.629C5.11447 155.203 5.42441 155.761 5.76441 156.303C6.10441 156.846 6.4645 157.371 6.8545 157.878C7.2445 158.384 7.6645 158.871 8.1045 159.337C8.5345 159.803 8.9945 160.247 9.4845 160.668C9.9645 161.089 10.4645 161.485 10.9845 161.857C11.5045 162.228 12.0445 162.573 12.5945 162.892C13.1545 163.211 13.7244 163.502 14.3044 163.765C14.8944 164.028 15.4845 164.261 16.0945 164.466C16.6945 164.67 17.3145 164.844 17.9345 164.988C18.5645 165.132 19.1845 165.245 19.8245 165.328C20.4545 165.41 21.0945 165.461 21.7345 165.48C22.3745 165.5 23.0144 165.488 23.6544 165.445C24.2944 165.402 24.9244 165.327 25.5544 165.222C26.1844 165.116 26.8145 164.98 27.4345 164.813C28.0445 164.646 28.6544 164.449 29.2544 164.223C29.8544 163.996 30.4444 163.741 31.0144 163.456C31.5844 163.172 32.1445 162.861 32.6845 162.522C33.2345 162.183 33.7544 161.818 34.2644 161.427C34.7644 161.037 35.2545 160.622 35.7245 160.184C36.1845 159.745 36.6344 159.285 37.0544 158.803C37.4744 158.321 37.8644 157.82 38.2444 157.299C38.6144 156.778 38.9544 156.24 39.2744 155.685C39.5944 155.13 39.8844 154.561 40.1444 153.978C40.4144 153.394 40.6445 152.799 40.8545 152.193C41.0545 151.587 41.2244 150.972 41.3744 150.348C41.5144 149.725 41.6245 149.096 41.7145 148.461C41.7945 147.827 41.8444 147.19 41.8644 146.551C41.8844 145.911 41.8645 145.272 41.8245 144.634C41.7845 143.996 41.7045 143.362 41.6045 142.731C41.4945 142.1 41.3545 141.476 41.1945 140.858C41.0245 140.241 40.8245 139.633 40.6045 139.035C40.3745 138.437 40.1145 137.851 39.8345 137.279C39.5445 136.705 39.2344 136.148 38.8944 135.605C38.5544 135.063 38.1944 134.538 37.8044 134.032C37.4144 133.525 36.9945 133.039 36.5645 132.573C36.1245 132.107 35.6645 131.663 35.1845 131.242C34.6945 130.821 34.1944 130.425 33.6744 130.053C33.1544 129.682 32.6145 129.336 32.0645 129.017C31.5145 128.698 30.9445 128.407 30.3545 128.144C29.7745 127.881 29.1845 127.647 28.5745 127.442C27.9645 127.237 27.3545 127.063 26.7345 126.918C26.1045 126.773 25.4745 126.66 24.8445 126.577Z" fill="white"/>
<path id="path94" d="M42.3445 148.544C42.2645 149.199 42.1444 149.849 41.9944 150.493C41.8444 151.136 41.6645 151.772 41.4545 152.398C41.2445 153.024 41.0045 153.638 40.7345 154.241C40.4645 154.843 40.1645 155.431 39.8345 156.004C39.5045 156.577 39.1444 157.132 38.7644 157.67C38.3744 158.208 37.9644 158.726 37.5344 159.224C37.0944 159.722 36.6444 160.197 36.1544 160.649C35.6744 161.102 35.1744 161.53 34.6544 161.934C34.1244 162.337 33.5844 162.714 33.0244 163.064C32.4644 163.414 31.8844 163.736 31.2944 164.029C30.7044 164.323 30.0945 164.586 29.4845 164.82C28.8645 165.054 28.2345 165.258 27.5945 165.43C26.9545 165.602 26.3144 165.743 25.6644 165.852C25.0144 165.961 24.3545 166.037 23.6945 166.082C23.0345 166.127 22.3745 166.139 21.7145 166.118C21.0545 166.098 20.3944 166.045 19.7444 165.961C19.0844 165.876 18.4344 165.759 17.7944 165.61C17.1444 165.461 16.5144 165.281 15.8844 165.07C15.2644 164.859 14.6444 164.618 14.0444 164.346C13.4444 164.075 12.8544 163.774 12.2844 163.445C11.7044 163.116 11.1544 162.759 10.6144 162.375C10.0744 161.991 9.55445 161.582 9.05445 161.147C8.56445 160.713 8.0844 160.254 7.6344 159.773C7.1844 159.292 6.75449 158.789 6.34449 158.266C5.94449 157.742 5.56448 157.2 5.21448 156.64C4.86448 156.079 4.5444 155.503 4.2544 154.911C3.9644 154.319 3.69448 153.714 3.46448 153.096C3.22448 152.478 3.0245 151.85 2.8545 151.212C2.6845 150.574 2.53445 149.929 2.43445 149.277C2.32445 148.625 2.24447 147.97 2.20447 147.31C2.15447 146.651 2.14443 145.991 2.16443 145.33C2.18443 144.67 2.23447 144.012 2.32447 143.357C2.40447 142.701 2.52444 142.052 2.67444 141.408C2.82444 140.764 3.00448 140.129 3.21448 139.502C3.42448 138.876 3.66445 138.262 3.93445 137.659C4.20445 137.057 4.50448 136.469 4.83448 135.896C5.16448 135.323 5.52442 134.768 5.90442 134.23C6.29442 133.692 6.7044 133.174 7.1344 132.676C7.5744 132.179 8.0244 131.703 8.5044 131.251C8.9944 130.798 9.49441 130.37 10.0144 129.967C10.5444 129.563 11.0844 129.187 11.6444 128.836C12.2044 128.486 12.7844 128.165 13.3744 127.871C13.9644 127.578 14.5645 127.314 15.1845 127.08C15.8045 126.846 16.4345 126.643 17.0745 126.47C17.7145 126.298 18.3544 126.157 19.0044 126.048C19.6544 125.939 20.3145 125.863 20.9745 125.818C21.6345 125.774 22.2945 125.762 22.9545 125.782C23.6145 125.802 24.2744 125.855 24.9244 125.94C25.5844 126.025 26.2344 126.142 26.8744 126.29C27.5244 126.439 28.1544 126.619 28.7844 126.83C29.4044 127.041 30.0244 127.283 30.6244 127.554C31.2244 127.826 31.8144 128.126 32.3844 128.455C32.9644 128.785 33.5144 129.141 34.0544 129.525C34.5944 129.909 35.1145 130.318 35.6045 130.753C36.1045 131.188 36.5844 131.646 37.0344 132.127C37.4844 132.609 37.9145 133.111 38.3145 133.635C38.7245 134.158 39.0945 134.7 39.4445 135.261C39.8045 135.821 40.1244 136.397 40.4144 136.989C40.7044 137.582 40.9745 138.187 41.2045 138.805C41.4445 139.423 41.6445 140.051 41.8145 140.689C41.9845 141.327 42.1245 141.971 42.2345 142.623C42.3445 143.275 42.4245 143.931 42.4645 144.59C42.5145 145.249 42.5244 145.909 42.5044 146.57C42.4844 147.23 42.4345 147.888 42.3445 148.544Z" fill="white" fill-opacity="0.2"/>
</g>
</g>
</g>
<g id="Mask group_5">
<mask id="mask5_105_6515" style="mask-type:luminance" maskUnits="userSpaceOnUse" x="-149" y="-27" width="441" height="467">
<g id="Group_5">
<g id="Mask group_6">
<mask id="mask6_105_6515" style="mask-type:luminance" maskUnits="userSpaceOnUse" x="-149" y="-27" width="441" height="467">
<g id="Group_6">
<g id="Mask group_7">
<mask id="mask7_105_6515" style="mask-type:luminance" maskUnits="userSpaceOnUse" x="-163" y="-27" width="455" height="467">
<g id="Group_7">
<g id="Mask group_8">
<mask id="mask8_105_6515" style="mask-type:luminance" maskUnits="userSpaceOnUse" x="-1149" y="-371" width="1441" height="811">
<g id="Group_8">
<path id="path95" fill-rule="evenodd" clip-rule="evenodd" d="M-1148.33 -370.4H291.674V439.6H-1148.33V-370.4Z" fill="white"/>
</g>
</mask>
<g mask="url(#mask8_105_6515)">
<g id="g96">
<path id="path96" d="M-70.7756 -26.6963L985.394 110.181L893.824 816.77L-162.347 679.89L-70.7756 -26.6963Z" fill="white"/>
</g>
</g>
</g>
</g>
</mask>
<g mask="url(#mask7_105_6515)">
<g id="g97">
<path id="path97" d="M-70.7759 -26.6963L345.744 27.2837L268.434 623.795L-148.086 569.816L-70.7759 -26.6963Z" fill="white"/>
</g>
</g>
</g>
</g>
</mask>
<g mask="url(#mask6_105_6515)">
<g id="g98">
<path id="path98" d="M-70.7756 -26.6963L985.394 110.181L893.824 816.77L-162.347 679.9L-70.7756 -26.6963Z" fill="white"/>
</g>
</g>
</g>
</g>
</mask>
<g mask="url(#mask5_105_6515)">
<g id="g99">
<path id="path99" d="M21.7743 134.123C21.9743 134.372 22.1244 134.647 22.2344 134.948C22.3544 135.249 22.4244 135.571 22.4544 135.912C22.4944 136.254 22.4843 136.608 22.4343 136.977C22.3843 137.345 22.2943 137.72 22.1643 138.102C22.0343 138.483 21.8643 138.864 21.6543 139.244C21.4443 139.624 21.2043 139.995 20.9343 140.358C20.6543 140.722 20.3543 141.071 20.0243 141.404C19.6943 141.737 19.3344 142.05 18.9544 142.341C18.5844 142.631 18.1943 142.894 17.7843 143.13C17.3743 143.366 16.9643 143.572 16.5343 143.745C16.1143 143.918 15.6943 144.056 15.2743 144.159C14.8543 144.263 14.4443 144.328 14.0443 144.357C13.6443 144.386 13.2543 144.378 12.8843 144.332C12.5143 144.287 12.1744 144.204 11.8544 144.086C11.5244 143.967 11.2344 143.813 10.9744 143.626C10.7144 143.438 10.4843 143.221 10.2943 142.972C10.1043 142.723 9.94437 142.447 9.83437 142.146C9.71437 141.845 9.64427 141.525 9.61427 141.183C9.57427 140.842 9.58429 140.487 9.63429 140.119C9.68429 139.75 9.77431 139.375 9.90431 138.994C10.0443 138.612 10.2043 138.232 10.4143 137.852C10.6243 137.472 10.8643 137.099 11.1343 136.735C11.4143 136.372 11.7143 136.023 12.0443 135.69C12.3843 135.356 12.7343 135.044 13.1143 134.754C13.4943 134.463 13.8843 134.2 14.2843 133.964C14.6943 133.727 15.1143 133.524 15.5343 133.351C15.9543 133.177 16.3743 133.038 16.7943 132.935C17.2143 132.832 17.6243 132.766 18.0243 132.737C18.4343 132.707 18.8143 132.715 19.1843 132.761C19.5543 132.807 19.9044 132.889 20.2244 133.008C20.5444 133.127 20.8344 133.28 21.0944 133.468C21.3544 133.656 21.5843 133.874 21.7743 134.123Z" fill="white"/>
</g>
</g>
</g>
<g id="Mask group_9">
<mask id="mask9_105_6515" style="mask-type:luminance" maskUnits="userSpaceOnUse" x="-149" y="-27" width="441" height="467">
<g id="Group_9">
<g id="Mask group_10">
<mask id="mask10_105_6515" style="mask-type:luminance" maskUnits="userSpaceOnUse" x="-149" y="-27" width="441" height="467">
<g id="Group_10">
<g id="Mask group_11">
<mask id="mask11_105_6515" style="mask-type:luminance" maskUnits="userSpaceOnUse" x="-163" y="-27" width="455" height="467">
<g id="Group_11">
<g id="Mask group_12">
<mask id="mask12_105_6515" style="mask-type:luminance" maskUnits="userSpaceOnUse" x="-1149" y="-371" width="1441" height="811">
<g id="Group_12">
<path id="path100" fill-rule="evenodd" clip-rule="evenodd" d="M-1148.33 -370.4H291.674V439.6H-1148.33V-370.4Z" fill="white"/>
</g>
</mask>
<g mask="url(#mask12_105_6515)">
<g id="g101">
<path id="path101" d="M-70.7756 -26.6963L985.394 110.181L893.824 816.77L-162.347 679.89L-70.7756 -26.6963Z" fill="white"/>
</g>
</g>
</g>
</g>
</mask>
<g mask="url(#mask11_105_6515)">
<g id="g102">
<path id="path102" d="M-70.7759 -26.6963L345.744 27.2837L268.434 623.795L-148.086 569.816L-70.7759 -26.6963Z" fill="white"/>
</g>
</g>
</g>
</g>
</mask>
<g mask="url(#mask10_105_6515)">
<g id="g103">
<path id="path103" d="M-70.7756 -26.6963L985.394 110.181L893.824 816.77L-162.347 679.9L-70.7756 -26.6963Z" fill="white"/>
</g>
</g>
</g>
</g>
</mask>
<g mask="url(#mask9_105_6515)">
<g id="g104">
<path id="path104" d="M10.2144 145.543C10.4544 145.671 10.6344 145.862 10.7744 146.114C10.9144 146.367 11.0044 146.663 11.0244 147.002C11.0544 147.34 11.0244 147.697 10.9344 148.07C10.8444 148.443 10.6944 148.805 10.5044 149.156C10.3144 149.507 10.0844 149.82 9.81442 150.095C9.54442 150.37 9.25443 150.587 8.95443 150.744C8.65443 150.902 8.36443 150.989 8.07443 151.004C7.78443 151.02 7.5244 150.964 7.2944 150.836C7.0644 150.708 6.87446 150.517 6.73446 150.265C6.59446 150.012 6.51446 149.716 6.48446 149.377C6.45446 149.039 6.49444 148.683 6.58444 148.309C6.67444 147.936 6.81436 147.574 7.00436 147.223C7.20436 146.872 7.43443 146.559 7.70443 146.284C7.96443 146.009 8.25441 145.792 8.55441 145.635C8.85441 145.477 9.15441 145.391 9.43441 145.375C9.72441 145.359 9.98444 145.415 10.2144 145.543Z" fill="white"/>
</g>
</g>
</g>
</g>
<g id="g534">
<g id="Mask group_13">
<mask id="mask13_105_6515" style="mask-type:luminance" maskUnits="userSpaceOnUse" x="-149" y="-27" width="441" height="467">
<g id="Group_13">
<g id="Mask group_14">
<mask id="mask14_105_6515" style="mask-type:luminance" maskUnits="userSpaceOnUse" x="-149" y="-27" width="441" height="467">
<g id="Group_14">
<g id="Mask group_15">
<mask id="mask15_105_6515" style="mask-type:luminance" maskUnits="userSpaceOnUse" x="-163" y="-27" width="455" height="467">
<g id="Group_15">
<g id="Mask group_16">
<mask id="mask16_105_6515" style="mask-type:luminance" maskUnits="userSpaceOnUse" x="-1149" y="-371" width="1441" height="811">
<g id="Group_16">
<path id="path105" fill-rule="evenodd" clip-rule="evenodd" d="M-1148.33 -370.4H291.674V439.6H-1148.33V-370.4Z" fill="white"/>
</g>
</mask>
<g mask="url(#mask16_105_6515)">
<g id="g106">
<path id="path106" d="M-70.7756 -26.6963L985.394 110.181L893.824 816.77L-162.347 679.89L-70.7756 -26.6963Z" fill="white"/>
</g>
</g>
</g>
</g>
</mask>
<g mask="url(#mask15_105_6515)">
<g id="g107">
<path id="path107" d="M-70.7759 -26.6963L345.744 27.2837L268.434 623.795L-148.086 569.816L-70.7759 -26.6963Z" fill="white"/>
</g>
</g>
</g>
</g>
</mask>
<g mask="url(#mask14_105_6515)">
<g id="g108">
<path id="path108" d="M-70.7756 -26.6963L985.394 110.181L893.824 816.77L-162.347 679.9L-70.7756 -26.6963Z" fill="white"/>
</g>
</g>
</g>
</g>
</mask>
<g mask="url(#mask13_105_6515)">
<g id="g110">
<path id="path109" d="M99.3743 84.4249C98.0043 84.2469 96.6343 84.0019 95.2843 83.6899C93.9343 83.3769 92.6043 82.9999 91.2843 82.5569C89.9743 82.1139 88.6843 81.6069 87.4143 81.0369C86.1543 80.4679 84.9244 79.8369 83.7144 79.1459C82.5144 78.4549 81.3544 77.7069 80.2244 76.9019C79.0944 76.0959 78.0044 75.2369 76.9644 74.3249C75.9144 73.4129 74.9244 72.4519 73.9644 71.4419C73.0144 70.4309 72.1243 69.3769 71.2743 68.2789C70.4243 67.1799 69.6343 66.0429 68.9043 64.8669C68.1643 63.6909 67.4943 62.4809 66.8743 61.2389C66.2643 59.9959 65.7044 58.7269 65.2144 57.4299C64.7244 56.1329 64.2943 54.8149 63.9343 53.4769C63.5743 52.1379 63.2843 50.7849 63.0543 49.4169C62.8243 48.0489 62.6644 46.6739 62.5644 45.2899C62.4744 43.9069 62.4443 42.5219 62.4943 41.1359C62.5343 39.7499 62.6444 38.3689 62.8244 36.9939C63.0044 35.6189 63.2443 34.2559 63.5543 32.9039C63.8743 31.5529 64.2444 30.2209 64.6944 28.9069C65.1344 27.5929 65.6444 26.3039 66.2144 25.0389C66.7844 23.7749 67.4144 22.5419 68.1044 21.3399C68.7944 20.1369 69.5444 18.9719 70.3444 17.8429C71.1544 16.7139 72.0143 15.6279 72.9243 14.5829C73.8343 13.5389 74.7943 12.5419 75.8043 11.5919C76.8143 10.6419 77.8744 9.74286 78.9744 8.89686C80.0644 8.05086 81.2043 7.25986 82.3843 6.52586C83.5543 5.79086 84.7643 5.11586 86.0143 4.49986C87.2543 3.88386 88.5244 3.33086 89.8244 2.83986C91.1144 2.34886 92.4343 1.92186 93.7743 1.56086C95.1143 1.19886 96.4644 0.903878 97.8344 0.674878C99.2044 0.446878 100.574 0.285877 101.964 0.191877C103.344 0.0988767 104.734 0.0728574 106.114 0.115857C107.504 0.157857 108.884 0.268851 110.254 0.446851C111.634 0.624851 112.994 0.870874 114.344 1.18287C115.694 1.49487 117.034 1.87287 118.344 2.31587C119.664 2.75887 120.954 3.26485 122.214 3.83485C123.474 4.40485 124.714 5.03487 125.914 5.72587C127.114 6.41687 128.284 7.16487 129.414 7.97087C130.544 8.77587 131.624 9.63486 132.674 10.5469C133.714 11.4589 134.714 12.4209 135.664 13.4309C136.614 14.4409 137.514 15.4949 138.354 16.5939C139.204 17.6919 139.994 18.8289 140.734 20.0059C141.464 21.1819 142.144 22.3909 142.754 23.6329C143.374 24.8759 143.924 26.1449 144.414 27.4419C144.904 28.7389 145.334 30.0569 145.694 31.3959C146.054 32.7339 146.354 34.0879 146.584 35.4549C146.814 36.8229 146.974 38.1989 147.064 39.5819C147.154 40.9659 147.184 42.3509 147.144 43.7369C147.094 45.1229 146.984 46.5029 146.814 47.8779C146.634 49.2529 146.384 50.6149 146.074 51.9659C145.754 53.3159 145.374 54.6479 144.934 55.9609C144.494 57.2739 143.984 58.5629 143.414 59.8259C142.844 61.0899 142.214 62.3219 141.524 63.5239C140.824 64.7249 140.084 65.8899 139.274 67.0179C138.464 68.1459 137.604 69.2319 136.694 70.2759C135.784 71.3199 134.824 72.3159 133.814 73.2659C132.804 74.2159 131.744 75.1129 130.654 75.9589C129.554 76.8059 128.414 77.5959 127.244 78.3299C126.064 79.0649 124.854 79.7399 123.614 80.3559C122.374 80.9719 121.104 81.5259 119.804 82.0169C118.504 82.5089 117.194 82.9359 115.854 83.2979C114.514 83.6599 113.164 83.9559 111.794 84.1859C110.424 84.4149 109.054 84.5769 107.674 84.6719C106.284 84.7659 104.904 84.7929 103.514 84.7519C102.134 84.7109 100.754 84.6019 99.3743 84.4249ZM109.974 2.60786C108.674 2.43886 107.364 2.33386 106.044 2.29286C104.734 2.25286 103.424 2.27686 102.104 2.36586C100.794 2.45386 99.4944 2.60687 98.1944 2.82387C96.8944 3.04087 95.6144 3.32086 94.3444 3.66386C93.0744 4.00686 91.8244 4.41087 90.5944 4.87687C89.3644 5.34287 88.1544 5.86786 86.9744 6.45186C85.8044 7.03586 84.6543 7.67588 83.5343 8.37288C82.4243 9.06988 81.3443 9.81988 80.3043 10.6229C79.2543 11.4259 78.2543 12.2779 77.3043 13.1789C76.3443 14.0799 75.4344 15.0259 74.5644 16.0159C73.6944 17.0069 72.8843 18.0379 72.1243 19.1079C71.3543 20.1789 70.6443 21.2849 69.9943 22.4249C69.3343 23.5659 68.7344 24.7349 68.1944 25.9349C67.6544 27.1339 67.1743 28.3569 66.7543 29.6029C66.3343 30.8489 65.9743 32.1129 65.6843 33.3949C65.3843 34.6759 65.1544 35.9689 64.9844 37.2739C64.8144 38.5779 64.7143 39.8879 64.6643 41.2029C64.6243 42.5169 64.6543 43.8309 64.7443 45.1429C64.8343 46.4559 64.9844 47.7599 65.2044 49.0579C65.4144 50.3549 65.6943 51.6389 66.0443 52.9089C66.3843 54.1779 66.7843 55.4279 67.2543 56.6579C67.7243 57.8889 68.2444 59.0929 68.8244 60.2709C69.4144 61.4499 70.0543 62.5969 70.7543 63.7129C71.4443 64.8279 72.1943 65.9069 73.0043 66.9489C73.8043 67.9909 74.6543 68.9909 75.5543 69.9489C76.4543 70.9069 77.4043 71.8189 78.3943 72.6839C79.3843 73.5499 80.4144 74.3639 81.4844 75.1279C82.5544 75.8919 83.6643 76.6019 84.8043 77.2569C85.9443 77.9129 87.1144 78.5109 88.3144 79.0509C89.5144 79.5919 90.7344 80.0719 91.9844 80.4919C93.2344 80.9129 94.4943 81.2709 95.7743 81.5669C97.0543 81.8629 98.3543 82.0959 99.6543 82.2649C100.954 82.4339 102.264 82.5389 103.584 82.5789C104.894 82.6189 106.214 82.5949 107.524 82.5069C108.834 82.4179 110.144 82.2649 111.444 82.0479C112.734 81.8309 114.024 81.5509 115.294 81.2079C116.564 80.8649 117.814 80.4609 119.044 79.9949C120.274 79.5289 121.474 79.0049 122.654 78.4199C123.834 77.8359 124.984 77.1959 126.094 76.4989C127.214 75.8019 128.294 75.0519 129.334 74.2489C130.374 73.4469 131.374 72.5949 132.334 71.6939C133.294 70.7929 134.204 69.8469 135.064 68.8559C135.934 67.8649 136.744 66.8349 137.514 65.7639C138.274 64.6929 138.984 63.5878 139.644 62.4468C140.294 61.3068 140.894 60.1369 141.434 58.9379C141.974 57.7389 142.454 56.5159 142.874 55.2689C143.294 54.0229 143.654 52.7589 143.954 51.4769C144.244 50.1959 144.484 48.9029 144.654 47.5979C144.814 46.2939 144.924 44.9849 144.964 43.6709C144.994 42.3559 144.974 41.0429 144.884 39.7309C144.794 38.4189 144.644 37.1149 144.424 35.8179C144.204 34.5209 143.924 33.2379 143.584 31.9689C143.234 30.6999 142.834 29.4499 142.364 28.2209C141.894 26.9909 141.374 25.7869 140.794 24.6089C140.204 23.4309 139.564 22.2849 138.864 21.1699C138.174 20.0539 137.424 18.9759 136.614 17.9339C135.814 16.8929 134.964 15.8929 134.064 14.9349C133.164 13.9769 132.214 13.0649 131.224 12.1999C130.234 11.3349 129.204 10.5199 128.134 9.75587C127.064 8.99087 125.964 8.28087 124.824 7.62587C123.684 6.96987 122.514 6.37088 121.314 5.82988C120.114 5.28888 118.894 4.80785 117.644 4.38685C116.404 3.96585 115.134 3.60588 113.854 3.30888C112.574 3.01188 111.284 2.77786 109.974 2.60786Z" fill="white"/>
<path id="path110" d="M144.844 47.6227C144.674 48.9337 144.444 50.2327 144.144 51.5207C143.844 52.8087 143.484 54.0787 143.064 55.3307C142.644 56.5827 142.154 57.8117 141.614 59.0167C141.074 60.2217 140.474 61.3967 139.814 62.5427C139.154 63.6887 138.444 64.7997 137.674 65.8757C136.904 66.9507 136.084 67.9867 135.214 68.9817C134.344 69.9777 133.434 70.9277 132.464 71.8337C131.504 72.7387 130.504 73.5947 129.454 74.4017C128.404 75.2077 127.324 75.9617 126.204 76.6617C125.084 77.3617 123.924 78.0057 122.744 78.5917C121.564 79.1787 120.354 79.7067 119.114 80.1747C117.874 80.6427 116.624 81.0487 115.344 81.3937C114.074 81.7377 112.784 82.0197 111.474 82.2377C110.174 82.4557 108.864 82.6087 107.544 82.6977C106.224 82.7867 104.904 82.8107 103.584 82.7707C102.264 82.7297 100.944 82.6247 99.6344 82.4547C98.3244 82.2847 97.0245 82.0517 95.7345 81.7537C94.4445 81.4567 93.1744 81.0967 91.9244 80.6737C90.6744 80.2517 89.4444 79.7687 88.2444 79.2257C87.0344 78.6827 85.8545 78.0817 84.7145 77.4237C83.5645 76.7647 82.4544 76.0517 81.3844 75.2847C80.3044 74.5167 79.2644 73.6987 78.2744 72.8287C77.2744 71.9597 76.3244 71.0437 75.4244 70.0807C74.5144 69.1177 73.6645 68.1127 72.8545 67.0657C72.0445 66.0187 71.2945 64.9347 70.5945 63.8147C69.8945 62.6937 69.2444 61.5407 68.6644 60.3567C68.0744 59.1727 67.5445 57.9627 67.0745 56.7267C66.6145 55.4907 66.2044 54.2347 65.8644 52.9587C65.5144 51.6827 65.2344 50.3927 65.0144 49.0897C64.7944 47.7857 64.6444 46.4747 64.5544 45.1557C64.4644 43.8377 64.4445 42.5177 64.4845 41.1967C64.5245 39.8757 64.6244 38.5597 64.7944 37.2497C64.9644 35.9387 65.2044 34.6397 65.4944 33.3517C65.7944 32.0637 66.1545 30.7937 66.5745 29.5417C67.0045 28.2897 67.4844 27.0607 68.0244 25.8557C68.5744 24.6507 69.1745 23.4757 69.8245 22.3297C70.4845 21.1837 71.2045 20.0727 71.9645 18.9967C72.7345 17.9217 73.5544 16.8857 74.4244 15.8907C75.2944 14.8947 76.2144 13.9447 77.1744 13.0387C78.1344 12.1337 79.1445 11.2777 80.1845 10.4707C81.2345 9.66467 82.3145 8.91066 83.4445 8.21066C84.5645 7.51066 85.7144 6.86666 86.8944 6.27966C88.0844 5.69366 89.2944 5.16566 90.5244 4.69766C91.7644 4.22966 93.0244 3.82367 94.2944 3.47867C95.5744 3.13367 96.8644 2.85267 98.1644 2.63467C99.4744 2.41667 100.784 2.26368 102.104 2.17468C103.414 2.08568 104.734 2.06068 106.054 2.10168C107.384 2.14268 108.694 2.24766 110.004 2.41766C111.314 2.58766 112.614 2.82068 113.904 3.11868C115.194 3.41568 116.464 3.77567 117.714 4.19867C118.964 4.62067 120.194 5.10367 121.404 5.64667C122.604 6.18967 123.784 6.78967 124.924 7.44867C126.074 8.10667 127.184 8.82068 128.264 9.58768C129.334 10.3557 130.374 11.1737 131.364 12.0437C132.364 12.9127 133.314 13.8287 134.224 14.7917C135.124 15.7547 135.984 16.7597 136.784 17.8067C137.594 18.8537 138.344 19.9367 139.054 21.0577C139.754 22.1787 140.395 23.3317 140.985 24.5157C141.565 25.6997 142.094 26.9097 142.564 28.1457C143.034 29.3817 143.434 30.6377 143.784 31.9137C144.124 33.1897 144.404 34.4797 144.624 35.7827C144.844 37.0867 144.994 38.3977 145.084 39.7157C145.174 41.0347 145.204 42.3547 145.164 43.6757C145.114 44.9967 145.014 46.3127 144.844 47.6227Z" fill="white" fill-opacity="0.2"/>
</g>
</g>
</g>
<g id="Mask group_17">
<mask id="mask17_105_6515" style="mask-type:luminance" maskUnits="userSpaceOnUse" x="-149" y="-27" width="441" height="467">
<g id="Group_17">
<g id="Mask group_18">
<mask id="mask18_105_6515" style="mask-type:luminance" maskUnits="userSpaceOnUse" x="-149" y="-27" width="441" height="467">
<g id="Group_18">
<g id="Mask group_19">
<mask id="mask19_105_6515" style="mask-type:luminance" maskUnits="userSpaceOnUse" x="-163" y="-27" width="455" height="467">
<g id="Group_19">
<g id="Mask group_20">
<mask id="mask20_105_6515" style="mask-type:luminance" maskUnits="userSpaceOnUse" x="-1149" y="-371" width="1441" height="811">
<g id="Group_20">
<path id="path111" fill-rule="evenodd" clip-rule="evenodd" d="M-1148.33 -370.4H291.674V439.6H-1148.33V-370.4Z" fill="white"/>
</g>
</mask>
<g mask="url(#mask20_105_6515)">
<g id="g112">
<path id="path112" d="M-70.7756 -26.6963L985.394 110.181L893.824 816.77L-162.347 679.89L-70.7756 -26.6963Z" fill="white"/>
</g>
</g>
</g>
</g>
</mask>
<g mask="url(#mask19_105_6515)">
<g id="g113">
<path id="path113" d="M-70.7759 -26.6963L345.744 27.2837L268.434 623.795L-148.086 569.816L-70.7759 -26.6963Z" fill="white"/>
</g>
</g>
</g>
</g>
</mask>
<g mask="url(#mask18_105_6515)">
<g id="g114">
<path id="path114" d="M-70.7756 -26.6963L985.394 110.181L893.824 816.77L-162.347 679.9L-70.7756 -26.6963Z" fill="white"/>
</g>
</g>
</g>
</g>
</mask>
<g mask="url(#mask17_105_6515)">
<g id="g115">
<path id="path115" d="M103.705 18.7845C104.095 19.2825 104.394 19.8325 104.624 20.4345C104.854 21.0355 105.004 21.6775 105.064 22.3605C105.134 23.0425 105.114 23.7526 105.014 24.4896C104.914 25.2266 104.735 25.9756 104.475 26.7386C104.215 27.5016 103.875 28.2636 103.465 29.0226C103.045 29.7826 102.564 30.5265 102.014 31.2535C101.464 31.9805 100.864 32.6775 100.194 33.3445C99.5345 34.0115 98.8245 34.6356 98.0645 35.2166C97.3145 35.7976 96.5245 36.3245 95.7145 36.7965C94.9045 37.2695 94.0745 37.6785 93.2245 38.0255C92.3845 38.3715 91.5445 38.6475 90.7045 38.8535C89.8645 39.0605 89.0345 39.1926 88.2345 39.2516C87.4345 39.3106 86.6545 39.2935 85.9245 39.2025C85.1845 39.1115 84.4945 38.9466 83.8445 38.7086C83.2045 38.4716 82.6245 38.1646 82.0945 37.7896C81.5745 37.4146 81.1245 36.9776 80.7345 36.4796C80.3545 35.9816 80.0445 35.4315 79.8145 34.8305C79.5845 34.2285 79.4444 33.5865 79.3744 32.9035C79.3044 32.2215 79.3245 31.5115 79.4245 30.7755C79.5245 30.0385 79.7045 29.2885 79.9645 28.5255C80.2345 27.7625 80.5645 27.0016 80.9845 26.2416C81.3945 25.4816 81.8745 24.7386 82.4245 24.0106C82.9745 23.2836 83.5844 22.5866 84.2444 21.9196C84.9144 21.2526 85.6244 20.6286 86.3744 20.0476C87.1344 19.4666 87.9145 18.9396 88.7345 18.4676C89.5445 17.9946 90.3745 17.5856 91.2145 17.2396C92.0645 16.8926 92.9044 16.6166 93.7444 16.4106C94.5844 16.2036 95.4045 16.0715 96.2045 16.0125C97.0145 15.9545 97.7845 15.9706 98.5245 16.0616C99.2645 16.1536 99.9545 16.3175 100.595 16.5555C101.235 16.7935 101.825 17.0996 102.345 17.4746C102.865 17.8496 103.325 18.2865 103.705 18.7845Z" fill="white"/>
</g>
</g>
</g>
<g id="Mask group_21">
<mask id="mask21_105_6515" style="mask-type:luminance" maskUnits="userSpaceOnUse" x="-149" y="-27" width="441" height="467">
<g id="Group_21">
<g id="Mask group_22">
<mask id="mask22_105_6515" style="mask-type:luminance" maskUnits="userSpaceOnUse" x="-149" y="-27" width="441" height="467">
<g id="Group_22">
<g id="Mask group_23">
<mask id="mask23_105_6515" style="mask-type:luminance" maskUnits="userSpaceOnUse" x="-163" y="-27" width="455" height="467">
<g id="Group_23">
<g id="Mask group_24">
<mask id="mask24_105_6515" style="mask-type:luminance" maskUnits="userSpaceOnUse" x="-1149" y="-371" width="1441" height="811">
<g id="Group_24">
<path id="path116" fill-rule="evenodd" clip-rule="evenodd" d="M-1148.33 -370.4H291.674V439.6H-1148.33V-370.4Z" fill="white"/>
</g>
</mask>
<g mask="url(#mask24_105_6515)">
<g id="g117">
<path id="path117" d="M-70.7756 -26.6963L985.394 110.181L893.824 816.77L-162.347 679.89L-70.7756 -26.6963Z" fill="white"/>
</g>
</g>
</g>
</g>
</mask>
<g mask="url(#mask23_105_6515)">
<g id="g118">
<path id="path118" d="M-70.7759 -26.6963L345.744 27.2837L268.434 623.795L-148.086 569.816L-70.7759 -26.6963Z" fill="white"/>
</g>
</g>
</g>
</g>
</mask>
<g mask="url(#mask22_105_6515)">
<g id="g119">
<path id="path119" d="M-70.7756 -26.6963L985.394 110.181L893.824 816.77L-162.347 679.9L-70.7756 -26.6963Z" fill="white"/>
</g>
</g>
</g>
</g>
</mask>
<g mask="url(#mask21_105_6515)">
<g id="g120">
<path id="path120" d="M80.5844 41.6245C80.8144 41.7515 81.0244 41.9115 81.2144 42.1035C81.4044 42.2955 81.5644 42.5175 81.7044 42.7675C81.8444 43.0175 81.9543 43.2925 82.0343 43.5905C82.1243 43.8895 82.1744 44.2065 82.2044 44.5425C82.2244 44.8775 82.2244 45.2255 82.1944 45.5845C82.1644 45.9445 82.1043 46.3095 82.0143 46.6785C81.9243 47.0485 81.8043 47.4165 81.6643 47.7825C81.5143 48.1475 81.3543 48.5045 81.1543 48.8525C80.9643 49.1995 80.7543 49.5315 80.5143 49.8485C80.2843 50.1645 80.0343 50.4585 79.7743 50.7315C79.5043 51.0045 79.2244 51.2495 78.9444 51.4685C78.6544 51.6865 78.3643 51.8745 78.0643 52.0305C77.7643 52.1865 77.4643 52.3085 77.1643 52.3955C76.8743 52.4835 76.5843 52.5355 76.2943 52.5505C76.0043 52.5665 75.7344 52.5465 75.4744 52.4895C75.2044 52.4325 74.9644 52.3415 74.7344 52.2145C74.5044 52.0875 74.2944 51.9275 74.1044 51.7355C73.9144 51.5425 73.7543 51.3215 73.6143 51.0715C73.4743 50.8215 73.3643 50.5465 73.2843 50.2475C73.1943 49.9495 73.1443 49.6325 73.1143 49.2965C73.0943 48.9605 73.0943 48.6135 73.1243 48.2535C73.1543 47.8945 73.2143 47.5295 73.3043 47.1595C73.3943 46.7895 73.5143 46.4225 73.6543 46.0565C73.8043 45.6905 73.9743 45.3345 74.1643 44.9865C74.3543 44.6385 74.5643 44.3065 74.8043 43.9905C75.0343 43.6745 75.2843 43.3795 75.5443 43.1075C75.8143 42.8345 76.0943 42.5895 76.3743 42.3705C76.6643 42.1525 76.9543 41.9645 77.2543 41.8085C77.5543 41.6525 77.8543 41.5305 78.1543 41.4435C78.4443 41.3555 78.7443 41.3035 79.0243 41.2875C79.3143 41.2725 79.5844 41.2925 79.8444 41.3495C80.1144 41.4055 80.3544 41.4975 80.5844 41.6245Z" fill="white"/>
</g>
</g>
</g>
</g>
<g id="g533">
<g id="Mask group_25">
<mask id="mask25_105_6515" style="mask-type:luminance" maskUnits="userSpaceOnUse" x="-149" y="-27" width="441" height="467">
<g id="Group_25">
<g id="Mask group_26">
<mask id="mask26_105_6515" style="mask-type:luminance" maskUnits="userSpaceOnUse" x="-149" y="-27" width="441" height="467">
<g id="Group_26">
<g id="Mask group_27">
<mask id="mask27_105_6515" style="mask-type:luminance" maskUnits="userSpaceOnUse" x="-163" y="-27" width="455" height="467">
<g id="Group_27">
<g id="Mask group_28">
<mask id="mask28_105_6515" style="mask-type:luminance" maskUnits="userSpaceOnUse" x="-1149" y="-371" width="1441" height="811">
<g id="Group_28">
<path id="path121" fill-rule="evenodd" clip-rule="evenodd" d="M-1148.33 -370.4H291.674V439.6H-1148.33V-370.4Z" fill="white"/>
</g>
</mask>
<g mask="url(#mask28_105_6515)">
<g id="g122">
<path id="path122" d="M-70.7756 -26.6963L985.394 110.181L893.824 816.77L-162.347 679.89L-70.7756 -26.6963Z" fill="white"/>
</g>
</g>
</g>
</g>
</mask>
<g mask="url(#mask27_105_6515)">
<g id="g123">
<path id="path123" d="M-70.7759 -26.6963L345.744 27.2837L268.434 623.795L-148.086 569.816L-70.7759 -26.6963Z" fill="white"/>
</g>
</g>
</g>
</g>
</mask>
<g mask="url(#mask26_105_6515)">
<g id="g124">
<path id="path124" d="M-70.7756 -26.6963L985.394 110.181L893.824 816.77L-162.347 679.9L-70.7756 -26.6963Z" fill="white"/>
</g>
</g>
</g>
</g>
</mask>
<g mask="url(#mask25_105_6515)">
<g id="g126">
<path id="path125" d="M78.4645 245.772C77.5645 245.655 76.6644 245.494 75.7744 245.288C74.8844 245.083 74.0044 244.834 73.1444 244.542C72.2744 244.251 71.4245 243.917 70.5945 243.542C69.7645 243.168 68.9544 242.753 68.1644 242.298C67.3744 241.843 66.6044 241.351 65.8644 240.821C65.1144 240.291 64.4045 239.725 63.7145 239.125C63.0245 238.525 62.3744 237.892 61.7444 237.227C61.1244 236.563 60.5345 235.869 59.9745 235.146C59.4145 234.423 58.8944 233.675 58.4144 232.901C57.9344 232.127 57.4845 231.331 57.0845 230.513C56.6745 229.696 56.3145 228.86 55.9845 228.007C55.6645 227.153 55.3844 226.286 55.1444 225.405C54.9044 224.524 54.7145 223.634 54.5645 222.734C54.4145 221.834 54.3044 220.929 54.2444 220.018C54.1844 219.108 54.1645 218.196 54.1945 217.284C54.2245 216.372 54.2944 215.464 54.4144 214.559C54.5344 213.654 54.6944 212.757 54.8944 211.868C55.1044 210.979 55.3544 210.102 55.6444 209.237C55.9344 208.373 56.2644 207.524 56.6444 206.693C57.0144 205.861 57.4344 205.049 57.8844 204.258C58.3444 203.467 58.8344 202.7 59.3644 201.957C59.8944 201.214 60.4645 200.499 61.0645 199.812C61.6645 199.125 62.2945 198.469 62.9645 197.844C63.6245 197.219 64.3144 196.628 65.0444 196.071C65.7644 195.514 66.5144 194.994 67.2844 194.511C68.0644 194.027 68.8544 193.583 69.6744 193.178C70.4944 192.773 71.3245 192.408 72.1845 192.085C73.0345 191.762 73.9044 191.482 74.7844 191.244C75.6644 191.006 76.5545 190.812 77.4545 190.662C78.3545 190.511 79.2644 190.405 80.1744 190.344C81.0844 190.282 81.9944 190.266 82.9044 190.294C83.8144 190.322 84.7244 190.395 85.6344 190.512C86.5344 190.629 87.4345 190.791 88.3245 190.996C89.2145 191.202 90.0845 191.45 90.9545 191.742C91.8145 192.034 92.6644 192.367 93.4944 192.742C94.3344 193.117 95.1445 193.532 95.9345 193.987C96.7245 194.441 97.4945 194.934 98.2345 195.464C98.9745 195.994 99.6944 196.559 100.374 197.159C101.064 197.76 101.724 198.392 102.344 199.057C102.974 199.722 103.564 200.416 104.124 201.139C104.674 201.861 105.194 202.61 105.684 203.384C106.164 204.158 106.604 204.954 107.014 205.771C107.424 206.589 107.784 207.424 108.104 208.278C108.434 209.131 108.714 209.998 108.944 210.879C109.184 211.76 109.384 212.651 109.534 213.551C109.684 214.451 109.784 215.356 109.844 216.266C109.914 217.177 109.924 218.088 109.894 219C109.874 219.912 109.794 220.821 109.684 221.726C109.564 222.63 109.404 223.527 109.194 224.416C108.984 225.304 108.734 226.181 108.444 227.045C108.154 227.909 107.824 228.757 107.444 229.589C107.074 230.42 106.654 231.231 106.204 232.022C105.744 232.813 105.254 233.579 104.724 234.322C104.194 235.064 103.624 235.779 103.024 236.466C102.424 237.153 101.794 237.809 101.124 238.433C100.464 239.058 99.7744 239.649 99.0444 240.206C98.3244 240.763 97.5744 241.283 96.8044 241.766C96.0244 242.249 95.2344 242.694 94.4144 243.099C93.5944 243.504 92.7644 243.868 91.9144 244.192C91.0544 244.515 90.1944 244.796 89.3044 245.034C88.4244 245.272 87.5344 245.466 86.6344 245.617C85.7344 245.768 84.8344 245.875 83.9244 245.936C83.0144 245.999 82.1045 246.016 81.1945 245.988C80.2745 245.961 79.3745 245.889 78.4645 245.772ZM85.3445 192.674C84.5145 192.566 83.6745 192.499 82.8345 192.473C81.9945 192.448 81.1545 192.463 80.3145 192.52C79.4745 192.577 78.6345 192.674 77.8145 192.813C76.9845 192.952 76.1545 193.131 75.3445 193.35C74.5345 193.57 73.7345 193.828 72.9445 194.126C72.1645 194.424 71.3944 194.76 70.6344 195.134C69.8844 195.507 69.1545 195.917 68.4345 196.363C67.7245 196.808 67.0344 197.288 66.3644 197.801C65.7044 198.315 65.0645 198.86 64.4445 199.436C63.8345 200.012 63.2545 200.617 62.7045 201.25C62.1445 201.884 61.6244 202.543 61.1344 203.228C60.6444 203.913 60.1944 204.62 59.7744 205.349C59.3544 206.078 58.9744 206.826 58.6244 207.593C58.2844 208.36 57.9745 209.142 57.7045 209.939C57.4345 210.736 57.2144 211.544 57.0244 212.364C56.8344 213.184 56.6845 214.01 56.5745 214.845C56.4645 215.679 56.3944 216.516 56.3744 217.357C56.3444 218.198 56.3644 219.038 56.4244 219.877C56.4744 220.716 56.5745 221.551 56.7145 222.38C56.8545 223.21 57.0344 224.031 57.2544 224.843C57.4744 225.655 57.7244 226.454 58.0244 227.241C58.3244 228.027 58.6644 228.797 59.0344 229.551C59.4044 230.305 59.8144 231.038 60.2644 231.751C60.7044 232.465 61.1845 233.155 61.7045 233.821C62.2145 234.487 62.7645 235.127 63.3345 235.739C63.9145 236.352 64.5144 236.935 65.1544 237.489C65.7844 238.042 66.4444 238.563 67.1244 239.051C67.8144 239.54 68.5244 239.994 69.2544 240.413C69.9844 240.832 70.7244 241.214 71.4944 241.56C72.2644 241.905 73.0445 242.212 73.8445 242.481C74.6345 242.75 75.4444 242.979 76.2644 243.168C77.0844 243.358 77.9144 243.506 78.7444 243.614C79.5844 243.723 80.4144 243.79 81.2644 243.815C82.1044 243.841 82.9444 243.826 83.7844 243.769C84.6144 243.712 85.4544 243.615 86.2844 243.476C87.1144 243.337 87.9344 243.158 88.7444 242.939C89.5544 242.719 90.3544 242.461 91.1444 242.163C91.9344 241.865 92.7045 241.529 93.4545 241.156C94.2045 240.782 94.9444 240.373 95.6544 239.927C96.3644 239.481 97.0545 239.002 97.7245 238.489C98.3945 237.975 99.0344 237.43 99.6444 236.854C100.254 236.278 100.844 235.673 101.394 235.039C101.944 234.406 102.464 233.747 102.954 233.062C103.444 232.377 103.894 231.67 104.314 230.941C104.734 230.212 105.124 229.464 105.464 228.697C105.814 227.93 106.114 227.148 106.384 226.351C106.654 225.554 106.884 224.746 107.074 223.926C107.264 223.107 107.414 222.28 107.524 221.446C107.624 220.612 107.694 219.774 107.714 218.934C107.744 218.093 107.724 217.253 107.674 216.414C107.614 215.575 107.514 214.741 107.374 213.912C107.234 213.082 107.054 212.262 106.834 211.45C106.614 210.638 106.354 209.839 106.064 209.053C105.764 208.266 105.424 207.496 105.054 206.743C104.674 205.99 104.264 205.256 103.824 204.543C103.374 203.83 102.894 203.14 102.384 202.474C101.874 201.808 101.324 201.168 100.754 200.556C100.174 199.943 99.5745 199.36 98.9345 198.807C98.3045 198.253 97.6445 197.732 96.9545 197.244C96.2745 196.755 95.5645 196.301 94.8345 195.882C94.1145 195.462 93.3645 195.08 92.5945 194.734C91.8245 194.388 91.0444 194.08 90.2544 193.811C89.4544 193.542 88.6445 193.312 87.8245 193.122C87.0045 192.932 86.1845 192.783 85.3445 192.674Z" fill="white"/>
<path id="path126" d="M108.024 221.511C107.914 222.362 107.764 223.205 107.574 224.041C107.374 224.877 107.144 225.701 106.874 226.514C106.594 227.327 106.284 228.124 105.934 228.906C105.574 229.688 105.184 230.451 104.764 231.195C104.334 231.938 103.874 232.659 103.374 233.358C102.874 234.056 102.344 234.728 101.774 235.374C101.214 236.02 100.614 236.637 99.9943 237.225C99.3643 237.812 98.7144 238.368 98.0344 238.891C97.3544 239.415 96.6544 239.904 95.9244 240.358C95.1944 240.813 94.4544 241.23 93.6844 241.611C92.9144 241.992 92.1244 242.335 91.3244 242.638C90.5244 242.942 89.7043 243.206 88.8843 243.429C88.0543 243.653 87.2143 243.836 86.3643 243.977C85.5243 244.119 84.6744 244.218 83.8144 244.276C82.9644 244.334 82.1043 244.35 81.2443 244.323C80.3843 244.297 79.5344 244.229 78.6844 244.118C77.8344 244.008 76.9844 243.856 76.1544 243.663C75.3144 243.47 74.4944 243.237 73.6844 242.962C72.8644 242.688 72.0744 242.375 71.2844 242.023C70.5044 241.67 69.7443 241.28 68.9943 240.853C68.2543 240.425 67.5344 239.963 66.8344 239.464C66.1344 238.966 65.4644 238.435 64.8144 237.871C64.1744 237.306 63.5544 236.712 62.9644 236.087C62.3844 235.462 61.8244 234.81 61.3044 234.13C60.7744 233.451 60.2844 232.747 59.8344 232.02C59.3744 231.292 58.9644 230.544 58.5844 229.776C58.2044 229.007 57.8544 228.222 57.5544 227.42C57.2544 226.618 56.9844 225.802 56.7644 224.974C56.5344 224.146 56.3544 223.309 56.2144 222.463C56.0744 221.617 55.9744 220.766 55.9144 219.91C55.8544 219.054 55.8443 218.198 55.8643 217.341C55.8943 216.483 55.9644 215.629 56.0744 214.778C56.1844 213.928 56.3344 213.085 56.5244 212.249C56.7244 211.413 56.9544 210.589 57.2244 209.776C57.5044 208.963 57.8144 208.166 58.1644 207.384C58.5244 206.602 58.9144 205.839 59.3344 205.095C59.7644 204.351 60.2244 203.63 60.7244 202.932C61.2244 202.234 61.7544 201.562 62.3244 200.916C62.8844 200.27 63.4844 199.653 64.1044 199.065C64.7344 198.478 65.3844 197.922 66.0644 197.399C66.7444 196.875 67.4444 196.386 68.1744 195.932C68.9044 195.477 69.6444 195.059 70.4144 194.679C71.1844 194.298 71.9744 193.955 72.7744 193.651C73.5744 193.348 74.3944 193.084 75.2144 192.86C76.0444 192.637 76.8844 192.454 77.7344 192.313C78.5744 192.171 79.4244 192.072 80.2844 192.014C81.1344 191.956 81.9944 191.94 82.8544 191.967C83.7144 191.993 84.5644 192.061 85.4144 192.172C86.2644 192.282 87.1144 192.433 87.9444 192.627C88.7844 192.82 89.6044 193.053 90.4144 193.327C91.2344 193.601 92.0244 193.915 92.8144 194.267C93.5944 194.62 94.3544 195.01 95.1044 195.437C95.8444 195.864 96.5644 196.327 97.2644 196.825C97.9644 197.324 98.6344 197.855 99.2844 198.419C99.9244 198.983 100.544 199.578 101.134 200.203C101.714 200.828 102.274 201.48 102.794 202.159C103.324 202.839 103.814 203.542 104.264 204.27C104.714 204.997 105.134 205.745 105.514 206.514C105.894 207.283 106.244 208.068 106.544 208.87C106.844 209.672 107.114 210.487 107.334 211.316C107.564 212.144 107.744 212.981 107.884 213.827C108.024 214.673 108.124 215.524 108.184 216.38C108.244 217.235 108.254 218.092 108.234 218.949C108.204 219.807 108.134 220.661 108.024 221.511Z" fill="white" fill-opacity="0.2"/>
</g>
</g>
</g>
<g id="Mask group_29">
<mask id="mask29_105_6515" style="mask-type:luminance" maskUnits="userSpaceOnUse" x="-149" y="-27" width="441" height="467">
<g id="Group_29">
<g id="Mask group_30">
<mask id="mask30_105_6515" style="mask-type:luminance" maskUnits="userSpaceOnUse" x="-149" y="-27" width="441" height="467">
<g id="Group_30">
<g id="Mask group_31">
<mask id="mask31_105_6515" style="mask-type:luminance" maskUnits="userSpaceOnUse" x="-163" y="-27" width="455" height="467">
<g id="Group_31">
<g id="Mask group_32">
<mask id="mask32_105_6515" style="mask-type:luminance" maskUnits="userSpaceOnUse" x="-1149" y="-371" width="1441" height="811">
<g id="Group_32">
<path id="path127" fill-rule="evenodd" clip-rule="evenodd" d="M-1148.33 -370.4H291.674V439.6H-1148.33V-370.4Z" fill="white"/>
</g>
</mask>
<g mask="url(#mask32_105_6515)">
<g id="g128">
<path id="path128" d="M-70.7756 -26.6963L985.394 110.181L893.824 816.77L-162.347 679.89L-70.7756 -26.6963Z" fill="white"/>
</g>
</g>
</g>
</g>
</mask>
<g mask="url(#mask31_105_6515)">
<g id="g129">
<path id="path129" d="M-70.7759 -26.6963L345.744 27.2837L268.434 623.795L-148.086 569.816L-70.7759 -26.6963Z" fill="white"/>
</g>
</g>
</g>
</g>
</mask>
<g mask="url(#mask30_105_6515)">
<g id="g130">
<path id="path130" d="M-70.7756 -26.6963L985.394 110.181L893.824 816.77L-162.347 679.9L-70.7756 -26.6963Z" fill="white"/>
</g>
</g>
</g>
</g>
</mask>
<g mask="url(#mask29_105_6515)">
<g id="g131">
<path id="path131" d="M81.3242 202.792C81.5742 203.115 81.7741 203.472 81.9241 203.863C82.0741 204.254 82.1642 204.67 82.2142 205.113C82.2542 205.556 82.2441 206.017 82.1741 206.495C82.1141 206.973 81.9942 207.46 81.8242 207.955C81.6542 208.45 81.4341 208.945 81.1641 209.438C80.9041 209.931 80.5842 210.413 80.2342 210.885C79.8742 211.357 79.4841 211.81 79.0441 212.243C78.6141 212.675 78.1541 213.08 77.6641 213.457C77.1741 213.834 76.6741 214.176 76.1441 214.483C75.6141 214.789 75.0741 215.055 74.5241 215.28C73.9841 215.504 73.4341 215.683 72.8841 215.817C72.3441 215.951 71.8141 216.037 71.2841 216.075C70.7641 216.113 70.2641 216.102 69.7841 216.043C69.3041 215.984 68.8542 215.877 68.4442 215.722C68.0242 215.568 67.6441 215.369 67.3041 215.126C66.9641 214.882 66.6741 214.599 66.4241 214.275C66.1741 213.952 65.9742 213.595 65.8242 213.205C65.6742 212.814 65.5841 212.397 65.5341 211.954C65.4941 211.511 65.5042 211.051 65.5742 210.572C65.6342 210.094 65.7541 209.607 65.9241 209.112C66.0941 208.617 66.3142 208.123 66.5742 207.63C66.8442 207.137 67.1641 206.654 67.5141 206.182C67.8741 205.71 68.2642 205.258 68.6942 204.825C69.1342 204.392 69.5942 203.987 70.0842 203.61C70.5642 203.233 71.0742 202.892 71.6042 202.585C72.1342 202.278 72.6742 202.013 73.2242 201.788C73.7642 201.563 74.3141 201.384 74.8641 201.25C75.4041 201.116 75.9342 201.03 76.4642 200.992C76.9842 200.954 77.4842 200.965 77.9642 201.025C78.4442 201.084 78.8941 201.191 79.3041 201.345C79.7241 201.5 80.1042 201.698 80.4442 201.942C80.7842 202.186 81.0742 202.469 81.3242 202.792Z" fill="white"/>
</g>
</g>
</g>
<g id="Mask group_33">
<mask id="mask33_105_6515" style="mask-type:luminance" maskUnits="userSpaceOnUse" x="-149" y="-27" width="441" height="467">
<g id="Group_33">
<g id="Mask group_34">
<mask id="mask34_105_6515" style="mask-type:luminance" maskUnits="userSpaceOnUse" x="-149" y="-27" width="441" height="467">
<g id="Group_34">
<g id="Mask group_35">
<mask id="mask35_105_6515" style="mask-type:luminance" maskUnits="userSpaceOnUse" x="-163" y="-27" width="455" height="467">
<g id="Group_35">
<g id="Mask group_36">
<mask id="mask36_105_6515" style="mask-type:luminance" maskUnits="userSpaceOnUse" x="-1149" y="-371" width="1441" height="811">
<g id="Group_36">
<path id="path132" fill-rule="evenodd" clip-rule="evenodd" d="M-1148.33 -370.4H291.674V439.6H-1148.33V-370.4Z" fill="white"/>
</g>
</mask>
<g mask="url(#mask36_105_6515)">
<g id="g133">
<path id="path133" d="M-70.7756 -26.6963L985.394 110.181L893.824 816.77L-162.347 679.89L-70.7756 -26.6963Z" fill="white"/>
</g>
</g>
</g>
</g>
</mask>
<g mask="url(#mask35_105_6515)">
<g id="g134">
<path id="path134" d="M-70.7759 -26.6963L345.744 27.2837L268.434 623.795L-148.086 569.816L-70.7759 -26.6963Z" fill="white"/>
</g>
</g>
</g>
</g>
</mask>
<g mask="url(#mask34_105_6515)">
<g id="g135">
<path id="path135" d="M-70.7756 -26.6963L985.394 110.181L893.824 816.77L-162.347 679.9L-70.7756 -26.6963Z" fill="white"/>
</g>
</g>
</g>
</g>
</mask>
<g mask="url(#mask33_105_6515)">
<g id="g136">
<path id="path136" d="M66.3244 217.617C66.6244 217.784 66.8643 218.03 67.0443 218.358C67.2243 218.686 67.3343 219.071 67.3643 219.511C67.4043 219.95 67.3643 220.413 67.2443 220.897C67.1243 221.382 66.9443 221.851 66.6943 222.306C66.4343 222.762 66.1343 223.169 65.7943 223.527C65.4443 223.884 65.0743 224.165 64.6843 224.37C64.2943 224.574 63.9043 224.687 63.5343 224.707C63.1643 224.728 62.8243 224.655 62.5243 224.489C62.2243 224.323 61.9843 224.075 61.7943 223.747C61.6143 223.419 61.5044 223.035 61.4744 222.595C61.4344 222.155 61.4844 221.694 61.5944 221.209C61.7144 220.725 61.9043 220.255 62.1543 219.799C62.4043 219.343 62.7043 218.937 63.0543 218.58C63.3943 218.222 63.7643 217.941 64.1643 217.737C64.5543 217.532 64.9343 217.42 65.3043 217.399C65.6843 217.378 66.0244 217.451 66.3244 217.617Z" fill="white"/>
</g>
</g>
</g>
</g>
<g id="Mask group_37">
<mask id="mask37_105_6515" style="mask-type:luminance" maskUnits="userSpaceOnUse" x="127" y="136" width="165" height="304">
<g id="Group_37">
<g id="Mask group_38">
<mask id="mask38_105_6515" style="mask-type:luminance" maskUnits="userSpaceOnUse" x="-1149" y="-371" width="1441" height="811">
<g id="Group_38">
<path id="path350" fill-rule="evenodd" clip-rule="evenodd" d="M-1148.33 -370.4H291.674V439.6H-1148.33V-370.4Z" fill="white"/>
</g>
</mask>
<g mask="url(#mask38_105_6515)">
<g id="g351">
<path id="path351" fill-rule="evenodd" clip-rule="evenodd" d="M127.074 136.334H291.914V439.839H127.074V136.334Z" fill="white"/>
</g>
</g>
</g>
</g>
</mask>
<g mask="url(#mask37_105_6515)">
<g id="g352">
<path id="path352" d="M127.424 359.618C127.614 358.907 127.744 358.131 128.394 356.709C128.134 357.872 130.784 354.058 130.784 354.123C131.044 353.477 129.424 355.029 129.684 354.964C129.034 355.805 128.514 355.998 129.294 355.287C129.364 354.834 131.814 352.831 131.554 352.831C132.594 352.12 132.394 352.314 131.814 352.831C131.624 352.96 131.494 353.09 131.294 353.284C131.494 353.154 131.624 352.96 131.814 352.831C133.494 351.409 134.854 350.762 136.214 348.823C135.504 350.375 137.824 346.624 137.694 345.396C137.634 344.685 137.574 344.815 137.504 344.815C137.504 344.815 137.504 344.686 137.374 343.393C136.984 341.842 137.114 343.134 137.114 343.716C136.924 341.389 135.754 339.513 135.244 338.285C135.374 338.673 135.504 339.061 135.694 339.449C135.434 338.738 135.174 338.156 134.914 337.574L135.374 338.156C135.044 337.509 134.724 336.927 134.664 336.992C134.404 336.216 135.174 337.38 134.664 335.893C134.144 334.988 133.364 333.049 132.984 332.79C134.334 335.441 132.914 333.049 133.564 334.536C133.234 333.889 132.784 332.92 132.984 333.631C131.494 330.851 132.594 332.208 131.364 329.235C131.364 329.687 130.844 328.653 130.714 328.136C131.234 329.364 131.174 328.654 130.844 327.49C130.074 325.551 130.204 325.292 129.944 324.258C130.074 324.646 130.134 325.034 130.324 325.422C130.324 324.581 129.944 323.611 129.814 322.576C129.814 322.576 129.814 322.707 129.814 322.836C129.034 318.699 129.104 315.078 130.584 311.134C130.524 311.91 130.454 312.039 131.174 310.294C130.654 311.651 130.204 313.009 129.744 314.431C130.074 313.526 130.394 312.686 130.784 311.845C130.454 312.88 129.944 314.237 129.744 315.271C130.204 313.979 130.134 314.109 130.134 314.755C130.264 312.945 131.294 311.393 131.754 309.453H131.294C132.134 306.415 133.304 304.283 134.274 300.469C134.204 300.857 134.074 301.308 134.014 301.696C134.334 301.244 134.724 299.369 135.114 298.141C134.914 298.205 135.114 297.43 135.114 296.849C135.244 296.913 135.694 294.068 136.014 293.745C136.014 290.512 136.014 288.767 134.274 285.923C134.594 286.828 133.824 285.664 134.724 287.474C134.204 286.569 133.754 285.793 133.824 285.729C132.984 284.371 132.264 282.238 131.554 280.557C131.554 280.299 130.974 278.941 131.554 279.717C128.394 274.157 128.324 266.723 131.364 261.422C131.294 261.487 131.294 261.422 131.234 261.552C132.394 259.095 132.394 260.129 133.884 257.544C134.594 256.057 132.784 258.901 133.304 257.996C133.494 256.703 136.084 254.311 136.794 253.018L136.404 253.406C137.374 251.984 139.184 250.434 140.994 248.43C142.154 247.137 145.194 244.551 146.104 242.547C145.584 243.129 145.454 243.452 145.524 243C145.844 242.547 145.844 242.612 145.904 242.612C146.424 242.482 147.204 239.508 146.874 238.797C146.814 239.443 146.554 240.283 146.364 240.865C146.424 239.702 147.004 238.28 147.074 237.052L146.944 237.18C147.334 233.884 147.594 233.884 147.654 230.263V230.651C148.044 228.712 147.594 228.971 147.784 227.031C147.074 225.415 147.844 222.248 147.784 219.532C147.594 220.89 147.524 223.605 147.394 225.286C147.394 223.993 147.394 220.891 147.464 220.245C147.464 220.762 147.394 221.407 147.464 221.924C147.654 220.308 147.714 218.24 147.784 215.654C147.134 214.813 147.714 208.801 148.104 207.121C152.374 204.147 156.644 201.69 162.074 200.979C160.194 201.626 163.684 200.85 163.364 201.367C164.594 201.367 165.044 201.367 165.174 201.367H164.914C165.044 201.367 165.104 201.367 165.174 201.367C166.464 201.367 167.754 201.561 168.984 201.949C169.894 202.143 167.884 201.367 168.014 201.367C170.474 202.208 169.054 201.497 171.054 202.272C171.054 202.595 172.734 203.436 173.184 203.953C172.544 203.501 171.894 203.113 171.184 202.789C173.444 204.535 175.454 205.569 176.424 208.22C176.294 207.702 176.094 207.25 175.904 206.862C178.294 209.642 175.584 214.62 173.514 216.107C173.314 216.43 173.124 216.883 173.704 216.172C171.184 219.34 167.114 223.023 165.624 226.773C165.624 226.643 165.564 226.514 165.434 226.385C165.434 226.385 165.234 226.32 165.174 226.32C165.174 226.32 165.104 226.32 165.044 226.449C164.914 226.708 164.914 226.902 165.104 227.096C165.104 227.096 165.304 227.161 165.364 227.225C165.364 227.225 165.494 227.161 165.494 227.096H165.564C165.174 227.742 164.784 228.259 164.594 229.294C164.974 228.971 163.814 231.556 164.004 232.591C164.074 232.267 164.134 231.944 164.204 231.686C164.074 235.435 164.074 238.41 164.784 242.159C165.364 242.741 166.404 246.037 166.914 247.006C170.214 255.992 173.904 265.496 172.864 275.516C172.864 275.063 171.254 279.781 171.444 279.652L171.574 279.264C171.574 280.234 170.284 282.432 169.114 283.919H168.594C164.394 288.767 164.074 296.008 163.624 301.438H163.814C163.814 304.411 163.944 306.932 164.464 309.906V309.13C164.914 311.263 164.464 311.975 165.104 313.849L165.624 314.302C166.854 318.116 170.344 320.443 172.214 323.805C172.214 323.74 172.214 323.546 171.894 322.964C172.604 323.546 174.874 328.977 174.094 329.43C174.744 331.11 174.154 334.083 173.904 335.764L174.154 335.441C174.154 335.635 172.544 340.806 173.064 339.772C172.734 341.388 172.544 341.066 172.094 343.328L172.474 342.487C171.764 345.073 170.534 347.529 170.664 349.404C170.474 349.663 170.084 350.697 170.024 351.86C170.024 352.054 170.154 351.603 170.214 351.409C169.954 354.318 169.764 355.998 170.214 358.583C170.284 358.583 170.344 358.777 170.404 358.971C170.084 356.579 170.084 354.577 170.084 354.383C170.284 354.383 170.344 356.515 170.604 354.834C170.474 356.709 170.284 359.876 171.184 361.686V361.493C171.444 362.527 171.764 363.303 172.284 364.143C172.734 364.595 173.774 366.406 174.284 366.923C174.094 366.923 174.994 368.022 174.024 367.117C174.284 367.375 173.384 366.276 173.254 366.018C172.864 365.5 172.344 364.789 171.894 363.884C174.674 370.22 181.204 374.035 186.634 377.331C186.184 376.944 185.664 376.491 185.404 376.297C187.024 377.396 188.704 379.465 189.094 381.339C190.124 383.537 188.764 379.981 190.064 383.084L189.934 382.631C192.514 388.062 192.064 393.815 194.454 399.31C194.324 399.051 194.264 398.922 194.194 398.857C195.684 403.835 198.724 407.972 202.664 411.398C205.514 414.437 207.384 419.803 207.384 423.617L207.704 424.069C207.584 428.529 208.934 431.309 208.874 436.545L208.674 436.029C208.804 437.58 208.874 440.876 209.004 440.618C209.004 440.747 208.874 441.135 209.004 441.717H209.134V445.531C209.264 448.44 209.514 445.078 209.644 449.345C209.644 450.961 209.394 453.871 209.264 453.289C209.264 452.643 209.194 451.672 209.064 451.607V452.901V453.031C209.064 453.031 209.064 453.031 209.004 453.031C209.004 453.16 209.004 453.289 209.004 453.289C208.874 453.289 208.674 453.418 208.614 453.354L194.454 455.68L192.254 455.034L192.384 455.164C192.134 454.97 190.124 454.452 189.804 454.323C189.804 454.323 190.064 454.452 190.444 454.646C189.094 454.452 188.444 453.805 187.794 453.935L186.314 453.417C186.574 453.547 185.984 453.547 186.954 453.805C184.244 453.159 182.694 452.255 181.594 452.19H181.784C179.004 451.35 180.234 451.607 179.844 451.349C179.004 451.09 177.524 450.702 176.874 450.056C176.874 449.927 176.874 449.734 176.874 449.604C176.614 449.281 176.164 448.634 176.164 448.763C175.514 447.406 176.354 448.957 176.034 448.117C175.064 447.082 174.154 443.785 173.444 442.945C173.384 442.234 174.154 444.626 173.644 442.686C173.314 442.428 173.124 441.652 172.864 440.747C172.864 440.747 172.864 440.618 172.934 440.618C172.934 440.424 172.804 440.295 172.674 440.23C172.544 439.777 172.414 439.26 172.154 438.808C172.154 439.39 172.734 440.942 172.024 439.326C172.024 438.227 170.864 436.093 170.404 434.67C170.664 434.477 169.314 431.633 168.144 429.435C167.114 427.884 165.234 425.168 163.944 423.875C163.624 422.97 161.814 421.418 160.844 420.578C160.844 420.772 160.974 420.966 161.614 421.677C160.514 420.772 160.324 420.449 158.964 419.285L159.164 419.673C157.414 418.38 155.734 416.958 153.404 415.277C153.404 415.083 154.374 415.6 154.244 415.342C153.864 415.018 153.474 414.76 153.024 414.372C153.024 414.437 153.084 414.631 153.404 414.889C153.214 414.695 152.764 414.243 152.304 413.984C152.564 414.307 152.824 414.566 153.144 414.889C152.114 414.113 152.694 414.373 151.924 413.727C151.854 413.856 151.274 413.273 151.334 413.467C151.534 413.661 152.054 414.049 152.304 414.307C151.534 413.726 150.624 412.951 149.914 412.24C150.044 412.24 150.044 412.109 149.594 411.398C149.074 410.429 148.944 410.235 148.814 410.235C148.434 410.17 147.784 407.714 147.974 407.649C147.394 406.679 146.944 400.797 147.394 402.865C147.264 399.051 146.554 395.043 145.324 391.552H145.264C144.484 389.548 143.194 385.864 141.774 384.829C140.864 383.472 140.804 383.214 139.184 381.404C140.154 382.762 138.734 381.016 140.224 382.826C138.794 381.146 138.344 380.821 136.984 379.011C137.374 379.722 135.694 377.978 135.044 377.138L136.214 378.172C135.434 377.267 134.724 376.49 134.074 375.714L134.274 376.297C130.204 372.031 126.964 363.69 127.484 359.747L127.424 359.618ZM132.204 308.031H132.134C132.134 308.031 132.134 308.096 132.134 308.161H132.204C132.204 308.161 132.204 308.096 132.204 308.031ZM131.174 262.005C131.174 262.005 130.974 261.939 130.914 261.875C130.914 261.939 130.844 262.069 130.914 262.133C130.914 262.133 131.104 262.263 131.174 262.198C131.294 262.198 131.364 262.07 131.234 261.94L131.174 262.005ZM131.554 279.07C131.554 279.135 131.554 279.2 131.494 279.329C131.494 279.329 131.494 279.329 131.624 279.394C131.624 279.329 131.624 279.264 131.684 279.135C131.684 279.135 131.684 279.135 131.624 279.07H131.554ZM134.534 275.967C134.664 276.485 134.854 277.002 135.044 277.454C135.044 277.454 135.174 277.519 135.174 277.454C135.244 277.454 135.374 277.391 135.374 277.326C135.374 277.261 135.374 277.131 135.374 277.066C135.374 276.485 135.304 275.903 135.044 275.386C135.044 275.321 134.914 275.257 134.854 275.193C134.854 275.257 134.724 275.321 134.664 275.386C134.594 275.58 134.464 275.773 134.534 275.967ZM135.244 272.024C135.244 272.024 135.174 272.024 135.114 272.024C135.114 272.024 135.114 272.09 135.114 272.154C135.114 272.284 135.244 272.284 135.304 272.154C135.304 272.154 135.304 272.089 135.304 272.024H135.244ZM134.914 265.107C134.914 265.107 134.854 265.237 134.794 265.367C134.854 265.625 134.984 265.818 135.304 265.818C135.504 265.818 135.634 265.689 135.564 265.56C135.564 265.301 135.174 265.042 134.914 265.172V265.107ZM136.274 305.445L136.144 305.51C136.144 305.575 136.144 305.575 136.274 305.51C136.344 305.51 136.404 305.381 136.534 305.381C136.344 305.187 136.344 305.381 136.274 305.51V305.445ZM136.404 306.092C136.344 306.092 136.274 306.157 136.144 306.221C136.214 306.221 136.344 306.286 136.404 306.35C136.474 306.35 136.534 306.286 136.664 306.221C136.604 306.221 136.474 306.092 136.404 306.092ZM136.604 322.513C136.604 322.513 136.534 322.513 136.474 322.513C136.474 322.513 136.474 322.512 136.474 322.576C136.474 322.576 136.534 322.576 136.604 322.576C136.724 322.576 136.724 322.513 136.604 322.448V322.513ZM136.794 326.779C136.794 326.585 136.474 326.456 136.404 326.521C136.274 326.65 136.344 326.779 136.404 326.909C136.474 327.102 136.534 327.231 136.664 327.425C136.724 327.295 136.854 327.232 136.854 327.167C136.854 327.038 136.854 326.909 136.854 326.779H136.794ZM173.384 214.167C173.514 214.232 173.644 214.362 173.774 214.297C173.834 214.297 173.964 214.039 173.964 213.974C173.834 213.457 173.644 212.94 173.254 212.552C173.254 212.552 173.064 212.486 172.994 212.422C172.934 212.422 172.804 212.552 172.804 212.552C172.934 213.134 172.864 213.714 173.384 214.102V214.167ZM173.124 207.768V207.573C173.124 207.573 172.994 207.444 172.864 207.444C172.864 207.444 172.804 207.573 172.734 207.638C172.734 207.767 172.934 207.833 173.064 207.768H173.124ZM170.534 210.482C170.864 210.676 170.924 211.064 171.124 211.323C171.184 211.452 171.254 211.581 171.444 211.516C171.574 211.516 171.834 210.806 171.704 210.742C171.374 210.483 171.054 210.288 170.734 210.094C170.734 210.094 170.604 210.224 170.474 210.224C170.474 210.288 170.474 210.482 170.474 210.482H170.534ZM170.404 208.543C170.404 208.543 170.534 208.414 170.534 208.349C170.534 208.22 170.534 208.026 170.404 208.026C170.284 208.026 170.154 208.155 170.084 208.284C170.084 208.414 170.214 208.543 170.344 208.543H170.404ZM168.474 204.923C168.404 204.664 168.274 204.47 168.144 204.276C168.084 204.147 167.954 204.018 167.754 204.147C167.624 204.212 167.564 204.341 167.504 204.47C167.504 204.47 167.504 204.535 167.504 204.599C167.504 205.052 167.624 205.181 168.084 205.311C168.274 205.311 168.474 205.117 168.404 204.987L168.474 204.923ZM167.504 216.753C167.694 216.753 167.754 216.689 167.754 216.495C167.754 216.495 167.694 216.366 167.694 216.43C167.564 216.43 167.434 216.559 167.374 216.688C167.374 216.688 167.434 216.753 167.504 216.753ZM167.504 203.307C167.504 203.307 167.694 203.307 167.754 203.242C167.954 202.919 167.754 202.402 167.434 202.272C167.304 202.272 167.114 202.402 167.044 202.466C167.044 202.789 167.174 203.113 167.504 203.307ZM165.564 222.829C165.564 222.829 165.754 222.766 165.754 222.701C165.754 222.572 165.754 222.378 165.754 222.378C165.754 221.925 165.694 221.601 165.364 221.342C165.304 221.342 165.174 221.342 165.104 221.342C165.044 221.342 164.974 221.472 164.914 221.536C164.854 222.054 165.174 222.442 165.564 222.766V222.829ZM171.894 271.248H172.024C172.154 271.248 172.344 271.248 172.284 270.99C172.284 270.925 172.154 270.861 172.094 270.797C171.894 270.732 171.834 270.796 171.764 270.99V271.12C171.764 271.12 171.704 271.248 171.634 271.313C171.634 271.313 171.764 271.249 171.834 271.185L171.894 271.248ZM169.184 263.427L169.244 263.362C169.244 263.232 169.114 263.104 168.984 263.104C168.984 263.104 168.984 263.168 168.924 263.232C168.924 263.426 168.984 263.492 169.184 263.492V263.427ZM166.664 257.156C166.664 257.156 166.724 257.156 166.784 257.156V257.091C166.784 257.091 166.724 257.091 166.664 257.091V257.156ZM165.234 253.277C165.434 253.988 165.624 254.699 165.754 255.41C165.884 255.928 166.274 256.251 166.724 256.445C166.724 256.445 166.784 256.445 166.854 256.445C166.854 256.445 166.914 256.38 166.914 256.315C166.914 256.186 166.914 255.992 166.854 255.927C166.334 254.893 165.884 253.859 165.694 252.76C165.694 252.76 165.564 252.631 165.494 252.631C165.304 252.631 165.234 252.76 165.174 252.954C165.174 253.018 165.174 253.212 165.174 253.342L165.234 253.277ZM172.154 332.532C172.154 332.532 172.154 332.596 172.214 332.661C172.214 332.661 172.214 332.596 172.154 332.532C172.154 332.532 172.154 332.467 172.094 332.402C172.094 332.402 172.094 332.467 172.154 332.532ZM170.024 346.753C170.154 346.753 170.214 346.69 170.084 346.625C170.084 346.625 170.024 346.625 169.954 346.625C169.954 346.625 169.954 346.625 169.954 346.69C169.954 346.69 170.024 346.69 170.084 346.69L170.024 346.753ZM172.994 365.501C172.994 365.113 172.344 364.402 172.344 364.466C172.544 364.725 172.674 365.113 172.994 365.501ZM195.814 429.24C195.874 429.24 195.944 429.241 196.074 429.177C196.074 429.177 195.944 429.047 195.874 429.047C195.814 429.047 195.754 429.112 195.684 429.177C195.684 429.177 195.754 429.305 195.814 429.24ZM192.774 443.139C192.774 443.139 192.774 443.139 192.644 443.139C192.644 443.204 192.644 443.268 192.584 443.398C192.584 443.527 192.714 443.527 192.774 443.398C192.774 443.398 192.774 443.268 192.774 443.139ZM192.384 449.086C192.584 449.086 192.774 448.957 192.774 448.698C192.774 448.505 192.584 448.181 192.324 448.181C192.134 448.181 191.744 448.376 191.744 448.505C191.744 448.699 192.134 449.086 192.384 449.022V449.086ZM189.544 445.983C189.544 446.113 189.674 446.113 189.674 445.983C189.674 445.983 189.674 445.919 189.674 445.854H189.604C189.604 445.854 189.604 445.919 189.604 445.983H189.544ZM187.084 453.482C187.154 453.482 187.214 453.482 187.284 453.482L186.374 453.224C186.574 453.288 186.824 453.353 187.024 453.482H187.084ZM187.214 415.148C187.214 415.018 187.084 415.018 187.084 415.148C187.084 415.148 187.084 415.148 187.154 415.212L187.214 415.148ZM186.634 420.707C186.634 420.772 186.764 420.837 186.824 420.901C186.824 420.837 186.954 420.772 186.954 420.707C186.954 420.513 186.824 420.449 186.704 420.513C186.574 420.513 186.574 420.643 186.704 420.772L186.634 420.707ZM186.244 449.733C186.314 449.733 186.444 449.862 186.504 449.862C186.634 449.862 186.824 449.734 186.824 449.604C186.824 449.152 186.704 448.763 186.314 448.505C186.314 448.505 186.114 448.569 186.114 448.634C186.114 448.828 186.114 449.022 186.184 449.151C186.114 449.345 186.054 449.539 186.184 449.733H186.244ZM186.054 379.399C186.444 379.658 186.824 379.916 186.444 380.433V380.563C186.504 380.692 186.634 380.822 186.894 380.758C187.024 380.758 187.214 380.627 187.214 380.433C187.154 379.852 186.954 379.27 186.314 379.076C186.244 379.076 186.114 379.076 186.054 379.076C186.054 379.141 186.054 379.271 186.114 379.336L186.054 379.399ZM181.784 438.743C181.784 438.743 181.854 438.743 181.914 438.743V438.678C181.914 438.678 181.854 438.678 181.784 438.678V438.743ZM180.884 414.826C180.884 414.826 180.884 414.825 180.814 414.889C180.884 414.889 180.944 414.889 181.074 414.954C181.074 414.954 181.074 414.954 181.144 414.889C181.074 414.889 181.014 414.89 180.884 414.826ZM181.014 449.086C181.014 449.086 181.144 449.151 181.204 449.216C181.394 449.216 181.464 449.023 181.394 448.893C181.394 448.893 181.264 448.763 181.204 448.763C181.014 448.763 181.014 448.957 181.014 449.086ZM180.754 437.516C181.014 437.516 181.524 436.998 181.394 436.868C181.264 436.674 181.014 436.611 180.814 436.482C180.684 436.482 180.424 436.805 180.424 437.062C180.424 437.257 180.554 437.451 180.754 437.516ZM178.164 440.553H178.294C178.294 440.489 178.294 440.424 178.164 440.424C178.164 440.424 178.104 440.425 178.034 440.49C178.034 440.49 178.104 440.489 178.164 440.553ZM175.064 426.073C174.934 426.073 174.804 426.073 174.614 426.073C174.744 426.137 174.804 426.203 174.874 426.268C174.994 426.268 175.124 426.268 175.194 426.138C175.194 426.138 175.124 426.073 175.064 426.073ZM176.094 375.198C176.094 374.94 175.834 374.68 175.714 374.745C175.644 374.745 175.584 374.875 175.584 374.94C175.584 375.134 175.774 375.263 175.964 375.263C175.964 375.263 176.164 375.197 176.164 375.133L176.094 375.198ZM175.904 403.706C175.904 403.706 175.904 403.641 175.904 403.576C175.964 403.124 175.904 402.866 175.384 402.672C175.254 402.672 175.194 402.672 175.124 402.737C175.124 403.189 175.514 403.382 175.774 403.641C175.774 403.641 175.834 403.641 175.904 403.641V403.706ZM175.324 439.648C175.384 439.648 175.514 439.648 175.584 439.519C175.584 439.39 175.644 439.26 175.644 439.131C175.644 439.066 175.584 439.002 175.514 438.938H175.384C175.254 439.066 175.194 439.26 175.064 439.454C175.194 439.519 175.254 439.648 175.324 439.648ZM174.744 432.149H174.874C174.994 432.149 174.994 432.021 174.874 431.956C174.874 431.956 174.804 431.956 174.744 431.956C174.744 431.956 174.744 432.021 174.744 432.086V432.149ZM174.544 430.469C174.544 430.598 174.674 430.598 174.804 430.469C174.804 430.469 174.874 430.469 174.934 430.404C175.124 430.081 174.934 429.564 174.674 429.37H174.544C174.484 429.37 174.414 429.499 174.284 429.628C174.354 429.887 174.484 430.145 174.544 430.404V430.469ZM171.834 411.786H171.704C171.704 411.786 171.704 411.852 171.634 411.917C171.634 411.917 171.704 411.98 171.764 411.98C171.894 411.98 171.964 411.917 171.894 411.852L171.834 411.786ZM172.934 387.674C173.064 387.674 173.064 387.674 173.064 387.544C173.064 387.544 172.994 387.544 172.934 387.544C172.934 387.544 172.934 387.609 172.934 387.674C172.934 387.674 172.864 387.674 172.804 387.738C172.804 387.738 172.804 387.738 172.864 387.738L172.934 387.674ZM172.934 373C173.064 373 173.184 372.935 173.254 372.805C173.314 372.676 173.124 372.418 172.934 372.418C172.734 372.418 172.544 372.419 172.474 372.677C172.474 372.936 172.674 372.935 172.864 372.935L172.934 373ZM172.024 423.81C172.154 423.81 172.284 423.811 172.344 423.617C172.344 423.359 172.154 423.293 171.964 423.293C171.834 423.293 171.634 423.422 171.634 423.487C171.634 423.681 171.834 423.81 172.024 423.875V423.81ZM171.704 417.863C171.894 417.928 172.214 417.669 172.214 417.475C172.214 417.281 172.094 417.087 171.894 417.022C171.764 417.022 171.574 417.022 171.444 417.022C171.444 417.022 171.374 416.958 171.314 416.893V416.958C171.314 416.958 171.374 416.958 171.444 416.958C171.444 417.087 171.314 417.216 171.314 417.346C171.314 417.54 171.504 417.669 171.704 417.734V417.863ZM170.664 398.469C170.794 398.469 170.794 398.341 170.664 398.276C170.604 398.147 170.474 398.082 170.344 398.082C170.344 398.082 170.344 398.212 170.284 398.341C170.344 398.47 170.474 398.534 170.604 398.469H170.664ZM170.284 392.522C170.344 392.522 170.474 392.522 170.474 392.393C170.474 392.263 170.474 392.07 170.344 392.07C170.214 392.07 170.084 392.07 170.024 392.263C170.024 392.457 170.024 392.522 170.214 392.522H170.284ZM169.894 375.456C169.894 375.391 170.024 375.263 169.954 375.198C169.954 375.134 169.894 375.069 169.824 374.94C169.824 375.004 169.694 375.134 169.694 375.198C169.694 375.263 169.764 375.327 169.824 375.456H169.894ZM169.314 364.789C169.504 364.66 169.564 364.143 169.314 364.014C169.314 364.014 169.114 364.014 169.054 364.014C168.984 364.143 168.924 364.272 168.854 364.402C168.984 364.531 169.054 364.66 169.114 364.725H169.244L169.314 364.789ZM168.594 415.73C168.724 415.794 168.924 415.859 168.984 415.73C169.114 415.73 169.184 415.471 169.184 415.342C169.184 414.889 168.794 414.695 168.404 414.501C168.274 414.501 168.084 414.631 168.084 414.695C168.084 415.148 168.274 415.406 168.594 415.665V415.73ZM165.814 417.281C166.144 417.604 166.334 417.54 166.464 417.281C166.594 417.022 166.534 416.829 166.204 416.764C166.144 416.764 166.014 416.764 165.814 416.764C165.814 416.764 165.564 416.829 165.564 416.958C165.564 417.087 165.624 417.216 165.754 417.281H165.814ZM164.854 356.773C164.974 356.903 165.104 356.903 165.234 356.773C165.304 356.644 165.364 356.515 165.364 356.386C165.304 356.127 164.854 355.868 164.524 355.933C164.524 355.933 164.464 356.063 164.394 356.193C164.524 356.387 164.724 356.58 164.854 356.709V356.773ZM164.594 351.537C164.854 351.667 165.044 351.408 165.234 351.279V351.409C165.304 351.409 165.304 351.408 165.234 351.279C165.174 351.149 165.104 351.02 165.044 350.891C164.724 350.632 164.334 350.568 164.264 350.761C164.264 350.955 164.394 351.344 164.594 351.474V351.537ZM163.234 252.889C163.234 252.889 163.164 252.889 163.104 252.954C163.104 253.019 163.164 253.083 163.234 253.148L163.294 253.083C163.294 253.018 163.234 252.954 163.164 252.889H163.234ZM164.004 286.311C164.004 286.311 164.074 286.246 164.004 286.181C164.004 286.181 163.944 286.181 163.884 286.117H163.754C163.754 286.246 163.754 286.246 163.944 286.246L164.004 286.311ZM163.424 420.772C163.494 420.772 163.624 420.772 163.624 420.643C163.624 420.513 163.624 420.384 163.424 420.319C163.364 420.319 163.234 420.384 163.234 420.449C163.234 420.578 163.234 420.707 163.424 420.772ZM163.044 274.933C163.044 274.998 163.164 275.063 163.234 275.128C163.294 275.128 163.364 274.998 163.424 274.933C163.754 274.351 163.814 273.705 163.624 273.058C163.554 272.8 163.424 272.542 163.294 272.219C163.294 272.219 163.104 272.09 163.044 272.154C162.974 272.154 162.844 272.219 162.844 272.284C162.844 272.413 162.844 272.541 162.784 272.735C162.784 272.929 162.784 273.124 162.784 273.318C162.784 273.835 162.714 274.416 163.044 274.868V274.933ZM161.294 405.774C161.294 405.774 161.234 405.774 161.164 405.774V405.839C161.164 405.839 161.234 405.839 161.294 405.839C161.424 405.839 161.424 405.711 161.294 405.711V405.774ZM162.324 353.219C162.324 353.09 162.004 352.896 161.744 352.896C161.744 352.896 161.614 353.024 161.614 353.089C161.614 353.283 161.744 353.477 162.004 353.477C162.134 353.477 162.264 353.413 162.324 353.154V353.219ZM161.614 408.295C161.684 408.295 161.744 408.167 161.814 408.102C161.814 407.909 161.484 407.584 161.234 407.584C161.234 407.584 161.104 407.715 161.104 407.779C161.104 408.102 161.354 408.295 161.684 408.295H161.614ZM160.454 389.936C160.454 390.066 160.584 390.066 160.644 389.936C160.714 389.807 160.904 389.613 160.714 389.484C160.714 389.484 160.644 389.484 160.584 389.484C160.384 389.613 160.384 389.742 160.454 389.936ZM160.584 255.346C160.584 255.346 160.454 255.216 160.384 255.216C160.264 255.216 160.194 255.41 160.194 255.54C160.264 255.54 160.324 255.669 160.384 255.604C160.584 255.604 160.644 255.475 160.584 255.281V255.346ZM160.264 275.516C160.384 275.516 160.384 275.386 160.324 275.256C160.324 275.256 160.264 275.257 160.194 275.193C160.194 275.257 160.134 275.387 160.064 275.451C160.064 275.451 160.134 275.516 160.194 275.516H160.264ZM156.704 232.849C156.704 232.849 156.644 232.849 156.574 232.849C156.574 232.849 156.704 232.914 156.704 232.979C156.704 232.979 156.704 232.979 156.704 232.914C156.704 232.914 156.644 232.914 156.574 232.914L156.704 232.849ZM158.194 293.099C158.194 293.099 158.254 293.099 158.324 293.099C158.324 293.099 158.324 293.098 158.324 293.034C158.324 293.034 158.254 293.034 158.194 293.034C158.064 293.034 158.064 293.099 158.194 293.164V293.099ZM157.024 249.657C157.024 249.657 157.024 249.593 157.024 249.529C157.024 249.529 156.964 249.529 156.894 249.529C156.894 249.529 156.894 249.592 156.894 249.657C156.894 249.657 156.964 249.657 157.024 249.657ZM156.514 249.076C156.644 249.076 156.764 249.075 156.834 248.881C156.834 248.817 156.764 248.687 156.704 248.623C156.574 248.623 156.384 248.624 156.384 248.818C156.384 248.882 156.384 249.011 156.514 249.076ZM155.994 353.542C155.994 353.736 155.994 353.929 155.994 354.058C155.994 354.058 155.994 354.123 156.054 354.188C156.054 354.123 156.184 354.059 156.184 353.995C156.184 353.801 156.124 353.671 155.924 353.542C155.924 353.478 155.924 353.412 155.864 353.412C155.864 353.412 155.864 353.478 155.924 353.542H155.994ZM155.864 247.201C156.054 247.331 156.124 247.719 156.254 247.977C156.254 247.977 156.384 248.042 156.384 247.977C156.384 247.977 156.574 247.847 156.514 247.847C156.444 247.394 156.314 247.007 156.184 246.555C156.124 246.296 155.924 246.101 155.674 246.037C155.674 245.972 155.674 245.844 155.674 245.779C155.674 245.779 155.604 245.714 155.544 245.649C155.544 245.714 155.414 245.844 155.474 245.909C155.474 245.973 155.604 246.038 155.674 246.102C155.674 246.49 155.414 246.813 155.864 247.136V247.201ZM155.284 413.532C155.284 413.467 155.344 413.403 155.344 413.339C155.344 413.339 155.344 413.338 155.214 413.273C155.214 413.338 155.154 413.402 155.084 413.467C155.084 413.467 155.154 413.467 155.214 413.532H155.284ZM155.284 402.284C155.284 402.284 155.344 402.284 155.414 402.284L155.544 402.219C155.414 401.96 155.214 401.767 154.954 401.638H154.894C154.894 401.638 154.894 401.702 154.894 401.766C154.954 402.025 155.084 402.22 155.344 402.284H155.284ZM154.704 391.229H154.834C154.834 391.164 154.834 391.1 154.704 391.1C154.704 391.1 154.634 391.1 154.634 391.164C154.634 391.164 154.704 391.164 154.764 391.229H154.704ZM154.244 241.706C154.244 241.706 154.374 241.577 154.374 241.513C154.374 241.513 154.374 241.448 154.374 241.383C154.244 241.06 154.114 240.737 153.984 240.414C153.984 240.414 153.864 240.349 153.734 240.284C153.734 240.284 153.664 240.349 153.664 240.414C153.794 240.866 153.794 241.318 154.114 241.641L154.244 241.706ZM153.404 238.732C153.404 238.732 153.534 238.604 153.474 238.539C153.474 238.474 153.404 238.409 153.344 238.344C153.344 238.344 153.214 238.474 153.214 238.539C153.214 238.668 153.214 238.797 153.404 238.797V238.732ZM153.144 220.373C153.274 220.373 153.344 220.245 153.344 220.115C153.344 220.115 153.344 220.05 153.214 220.05C153.084 220.05 152.954 220.051 152.954 220.245C152.954 220.245 153.084 220.437 153.084 220.373H153.144ZM152.694 351.667C152.764 351.667 152.894 351.602 152.894 351.537C152.894 351.408 152.894 351.279 152.694 351.214C152.634 351.214 152.504 351.28 152.504 351.344C152.504 351.474 152.504 351.667 152.694 351.667ZM152.694 346.042C152.824 346.042 152.824 345.914 152.694 345.849C152.694 345.849 152.564 345.784 152.504 345.719C152.504 345.784 152.434 345.914 152.504 345.914C152.504 345.914 152.634 345.978 152.694 346.042ZM147.914 211.776C147.914 211.776 147.784 211.776 147.844 211.841C147.844 211.905 147.844 211.969 147.914 212.034C147.914 212.034 148.044 212.034 147.974 211.969C147.974 211.904 147.974 211.841 147.914 211.711V211.776ZM147.914 222.055C147.784 222.055 147.654 222.054 147.594 222.248C147.594 222.377 147.714 222.506 148.044 222.571C148.044 222.571 148.104 222.441 148.174 222.312C148.174 222.118 148.044 222.118 147.914 222.118V222.055ZM147.784 305.381L147.914 305.51C148.044 305.51 148.104 305.381 148.104 305.251C148.104 305.251 148.104 305.252 147.974 305.188C147.784 305.188 147.714 305.251 147.714 305.381H147.784ZM148.944 249.204C148.814 249.204 148.814 249.334 148.944 249.398H149.074C149.074 249.398 149.074 249.334 149.074 249.269C149.074 249.269 149.014 249.269 148.944 249.269V249.204ZM149.404 245.584L149.334 245.649L149.404 245.714C149.524 245.714 149.524 245.585 149.404 245.521V245.584ZM151.854 284.371L151.924 284.307C151.924 284.242 151.924 284.177 151.854 284.048L151.724 284.177C151.724 284.177 151.794 284.307 151.854 284.371ZM151.274 263.75C151.274 263.686 151.334 263.557 151.334 263.492C151.334 263.363 151.334 263.232 150.954 263.168C150.954 263.168 150.954 263.168 150.954 263.297C150.954 263.362 150.954 263.491 151.084 263.556C151.084 263.62 151.214 263.686 151.274 263.75ZM149.784 273.253C149.784 273.253 149.914 273.383 150.044 273.383C150.044 273.318 150.114 273.188 150.044 273.123C150.044 273.123 149.914 273.059 149.784 272.995C149.654 272.995 149.654 273.124 149.784 273.253ZM148.814 249.98C148.814 249.98 148.884 249.98 148.944 249.98C148.944 250.109 148.944 250.303 148.944 250.433C149.014 250.627 149.144 250.756 149.404 250.756C149.404 250.756 149.594 250.627 149.594 250.562C149.654 250.368 149.594 250.174 149.404 250.045C149.274 249.98 149.144 249.98 148.944 249.915C148.944 249.915 148.884 249.786 148.814 249.786V249.852V249.98ZM148.624 248.493C148.624 248.493 148.754 248.558 148.814 248.623C148.814 248.558 148.944 248.43 148.944 248.365C148.944 248.171 148.814 248.041 148.684 247.912C148.684 247.912 148.624 247.847 148.554 247.782V247.847C148.554 247.847 148.554 247.847 148.624 247.847C148.624 248.041 148.624 248.236 148.624 248.365V248.493ZM148.174 403.125C148.304 403.125 148.434 402.994 148.494 402.865C148.494 402.736 148.434 402.607 148.304 402.542C148.104 402.477 148.104 402.672 148.044 402.737C148.044 402.931 148.044 403.06 148.234 403.06L148.174 403.125ZM147.654 396.466C147.654 396.531 147.594 396.659 147.524 396.724C147.524 397.047 147.784 397.113 147.974 397.177C148.044 397.177 148.174 397.176 148.174 397.047C148.234 396.853 148.174 396.66 148.044 396.531C147.914 396.466 147.784 396.465 147.594 396.401C147.594 396.336 147.464 396.271 147.464 396.207C147.264 396.401 147.464 396.402 147.594 396.466H147.654ZM147.654 283.272C147.654 283.272 147.714 283.272 147.784 283.272C147.784 283.272 147.914 283.208 147.844 283.208C147.654 282.884 147.524 282.561 147.334 282.173C147.264 282.044 147.204 282.044 147.134 282.173C147.134 282.173 147.134 282.238 147.134 282.303C147.204 282.69 147.334 283.014 147.654 283.272ZM147.134 244.615C147.134 244.615 147.204 244.745 147.264 244.745C147.264 244.68 147.264 244.55 147.264 244.55C147.264 244.55 147.134 244.422 147.074 244.422C147.074 244.357 147.074 244.227 147.074 244.162C147.074 244.162 147.074 244.034 147.004 244.034C146.874 244.034 146.874 244.097 146.944 244.227C146.944 244.291 147.074 244.357 147.134 244.422C147.134 244.486 147.134 244.551 147.134 244.68V244.615ZM146.424 347.078C146.554 347.142 146.744 347.206 146.814 347.206C147.074 347.141 147.004 346.884 146.944 346.69C146.744 346.302 146.624 345.979 146.424 345.591C146.364 345.397 145.974 345.267 145.974 345.331C145.974 345.461 145.844 345.591 145.904 345.591C145.904 346.302 145.974 346.754 146.494 347.013L146.424 347.078ZM146.104 340.418C146.104 340.418 146.034 340.289 145.974 340.354C145.844 340.354 145.774 340.483 145.844 340.612C145.844 340.612 145.904 340.612 145.974 340.677C146.104 340.677 146.164 340.548 146.104 340.483V340.418ZM146.104 260.97V261.034C146.164 261.034 146.104 261.034 146.104 260.97C145.974 260.582 145.844 260.388 145.654 260.453C145.654 260.453 145.524 260.647 145.584 260.711C145.584 261.034 145.904 260.97 146.104 260.97ZM145.454 258.707C145.584 258.707 145.714 258.578 145.654 258.449C145.654 258.449 145.454 258.384 145.394 258.449C145.394 258.449 145.324 258.578 145.264 258.643C145.264 258.643 145.394 258.772 145.454 258.772V258.707ZM144.614 296.073C144.484 296.008 144.424 295.943 144.294 295.878C144.294 295.749 144.294 295.619 144.164 295.49C144.164 295.49 144.034 295.49 143.904 295.49C143.904 295.555 143.904 295.685 143.904 295.75C143.964 295.814 144.094 295.878 144.224 295.943C144.224 296.072 144.224 296.201 144.354 296.331C144.354 296.331 144.484 296.332 144.614 296.396C144.614 296.332 144.614 296.202 144.614 296.138V296.073ZM143.964 353.8C144.094 353.8 144.094 353.735 143.964 353.67C143.964 353.67 143.904 353.67 143.844 353.67C143.844 353.67 143.844 353.735 143.844 353.8C143.844 353.8 143.904 353.8 143.964 353.8ZM144.094 344.427C144.094 344.427 144.294 344.427 144.354 344.427C144.554 344.233 144.684 344.039 144.554 343.781C144.354 343.393 144.094 343.134 143.714 343.005H143.584C143.584 343.07 143.384 343.198 143.454 343.198C143.644 343.586 143.904 344.039 144.094 344.427ZM143.254 341.388C143.324 341.388 143.454 341.454 143.514 341.518C143.514 341.518 143.584 341.453 143.584 341.388C143.584 341.194 143.454 341.13 143.324 341.13C143.194 341.13 143.194 341.259 143.324 341.388H143.254ZM142.354 328.459L142.414 328.394C142.414 328.33 142.354 328.266 142.284 328.201C142.284 328.201 142.284 328.266 142.224 328.331C142.224 328.395 142.284 328.459 142.354 328.524V328.459ZM141.834 368.668C141.964 368.668 142.034 368.603 141.904 368.539C141.904 368.539 141.834 368.539 141.774 368.539C141.774 368.539 141.774 368.603 141.704 368.668C141.704 368.668 141.774 368.733 141.834 368.733V368.668ZM140.804 275.967C140.804 275.967 140.804 275.967 140.734 276.032L140.804 276.097C140.934 276.097 140.934 275.968 140.804 275.904V275.967ZM140.864 281.915C140.674 281.915 140.544 282.109 140.474 282.303C140.604 282.303 140.734 282.432 140.804 282.432C140.994 282.432 141.194 282.367 141.124 282.109C141.124 281.979 140.934 281.85 140.804 281.915H140.864ZM140.674 349.404C140.674 349.404 140.734 349.34 140.804 349.276H140.734C140.734 349.276 140.734 349.275 140.734 349.339C140.674 349.339 140.604 349.404 140.544 349.469C140.734 349.663 140.734 349.469 140.734 349.339L140.674 349.404ZM140.544 337.897C140.674 338.091 140.934 338.156 141.194 338.026C141.314 338.026 141.444 337.897 141.444 337.768C141.444 337.38 141.064 337.057 140.734 336.992C140.674 336.992 140.544 336.992 140.474 337.121C140.284 337.38 140.344 337.703 140.474 337.897H140.544ZM140.024 335.764C140.154 336.022 140.474 336.281 140.544 336.087C140.604 335.893 140.674 335.699 140.674 335.505C140.674 335.053 140.094 334.988 139.894 334.665C139.894 334.73 139.834 334.794 139.764 334.924C139.834 335.182 139.964 335.441 140.024 335.699V335.764ZM137.764 295.62C137.764 295.62 137.634 295.749 137.574 295.813C137.574 295.943 137.574 296.073 137.764 296.073C137.824 296.073 137.954 296.007 137.954 295.943C137.954 295.813 137.894 295.685 137.694 295.685L137.764 295.62ZM138.474 331.109C138.474 331.109 138.414 331.045 138.344 331.109C138.344 331.109 138.284 331.175 138.284 331.24C138.284 331.563 138.474 331.756 138.604 332.014C138.604 332.014 138.664 332.014 138.734 332.014C138.734 332.014 138.734 331.95 138.734 331.885C138.734 331.627 138.664 331.434 138.474 331.24V331.109ZM138.474 355.675C138.794 355.222 138.794 354.706 138.474 354.383C138.414 354.318 138.214 354.252 138.154 354.188C137.954 354.188 137.894 354.317 137.824 354.511C137.764 354.963 137.954 355.351 138.214 355.675C138.214 355.675 138.414 355.675 138.474 355.675ZM137.954 360.264H138.214C138.344 360.006 138.214 359.424 137.954 359.359C137.894 359.359 137.574 359.618 137.574 359.812C137.574 360.07 137.694 360.264 137.954 360.329V360.264ZM137.504 373.323C137.504 373.323 137.574 373.323 137.634 373.323V373.258C137.634 373.258 137.574 373.258 137.504 373.258V373.323Z" fill="#0EAB63"/>
</g>
</g>
</g>
</g>
</g>
</g>
</g>
<defs>
<clipPath id="clip0_105_6515">
<rect width="146.547" height="245.905" fill="white" transform="translate(0.614746 0.0952148)"/>
</clipPath>
</defs>
</svg>
