<svg width="132" height="130" viewBox="0 0 132 130" fill="none" xmlns="http://www.w3.org/2000/svg">
<g id="3bolhasB" clip-path="url(#clip0_105_6516)">
<g id="Clip path group">
<mask id="mask0_105_6516" style="mask-type:luminance" maskUnits="userSpaceOnUse" x="-674" y="-520" width="1441" height="818">
<g id="clip0_103_8241">
<path id="rect532" d="M766.39 -519.587H-673.61V297.913H766.39V-519.587Z" fill="white"/>
</g>
</mask>
<g mask="url(#mask0_105_6516)">
<g id="g528">
<g id="g540">
<g id="Mask group">
<mask id="mask1_105_6516" style="mask-type:luminance" maskUnits="userSpaceOnUse" x="-464" y="-63" width="1073" height="354">
<g id="Group">
<g id="Mask group_2">
<mask id="mask2_105_6516" style="mask-type:luminance" maskUnits="userSpaceOnUse" x="-464" y="-63" width="1073" height="354">
<g id="Group_2">
<g id="Mask group_3">
<mask id="mask3_105_6516" style="mask-type:luminance" maskUnits="userSpaceOnUse" x="-674" y="-63" width="1340" height="354">
<g id="Group_3">
<g id="Mask group_4">
<mask id="mask4_105_6516" style="mask-type:luminance" maskUnits="userSpaceOnUse" x="-674" y="-520" width="1441" height="811">
<g id="Group_4">
<path id="path137" fill-rule="evenodd" clip-rule="evenodd" d="M-673.61 -519.587H766.39V290.413H-673.61V-519.587Z" fill="white"/>
</g>
</mask>
<g mask="url(#mask4_105_6516)">
<g id="g138">
<path id="path138" d="M665.239 509.863L-190.258 1397.79L-784.372 825.383L71.1224 -62.5488L665.239 509.863Z" fill="white"/>
</g>
</g>
</g>
</g>
</mask>
<g mask="url(#mask3_105_6516)">
<g id="g139">
<path id="path139" d="M608.53 455.223L73.5817 1010.45L-463.821 492.673L71.1227 -62.5488L608.53 455.223Z" fill="white"/>
</g>
</g>
</g>
</g>
</mask>
<g mask="url(#mask2_105_6516)">
<g id="g140">
<path id="path140" d="M665.23 509.853L-190.265 1397.78L-784.379 825.373L71.1146 -62.5557L665.23 509.853Z" fill="white"/>
</g>
</g>
</g>
</g>
</mask>
<g mask="url(#mask1_105_6516)">
<g id="g142">
<path id="path141" d="M70.0286 5.91686C70.7066 5.21386 71.4456 4.58381 72.2476 4.02581C73.0486 3.46781 73.8966 2.99381 74.7916 2.60381C75.6866 2.21281 76.6116 1.91383 77.5656 1.70483C78.5196 1.49683 79.4846 1.38386 80.4606 1.36486C81.4376 1.34686 82.4056 1.42386 83.3666 1.59686C84.3276 1.76886 85.2626 2.03386 86.1716 2.39086C87.0806 2.74786 87.9466 3.18985 88.7686 3.71685C89.5906 4.24385 90.3526 4.84686 91.0566 5.52386C91.7596 6.20086 92.3896 6.94085 92.9476 7.74285C93.5046 8.54385 93.9786 9.39284 94.3696 10.2878C94.7596 11.1828 95.0586 12.1068 95.2676 13.0608C95.4756 14.0148 95.5886 14.9798 95.6076 15.9568C95.6256 16.9328 95.5476 17.9018 95.3756 18.8628C95.2026 19.8238 94.9376 20.7588 94.5816 21.6678C94.2246 22.5768 93.7826 23.4418 93.2546 24.2638C92.7276 25.0858 92.1256 25.8478 91.4476 26.5508C90.7696 27.2538 90.0306 27.8848 89.2286 28.4418C88.4266 28.9998 87.5786 29.4738 86.6836 29.8638C85.7886 30.2538 84.8636 30.5528 83.9096 30.7618C82.9556 30.9698 81.9906 31.0828 81.0146 31.1008C80.0386 31.1188 79.0696 31.0418 78.1086 30.8688C77.1476 30.6958 76.2126 30.4308 75.3036 30.0738C74.3946 29.7168 73.5296 29.2749 72.7076 28.7479C71.8856 28.2199 71.1236 27.6178 70.4206 26.9398C69.7176 26.2618 69.0886 25.5218 68.5316 24.7208C67.9756 23.9188 67.5026 23.0708 67.1126 22.1758C66.7226 21.2808 66.4236 20.3568 66.2156 19.4028C66.0076 18.4498 65.8946 17.4848 65.8766 16.5088C65.8586 15.5338 65.9356 14.5649 66.1076 13.6049C66.2806 12.6439 66.5446 11.7098 66.9006 10.8008C67.2566 9.89184 67.6986 9.02683 68.2246 8.20483C68.7506 7.38283 69.3526 6.62086 70.0286 5.91686ZM89.6276 24.8008C90.1906 24.2168 90.6906 23.5838 91.1286 22.9008C91.5666 22.2188 91.9346 21.5008 92.2306 20.7458C92.5266 19.9908 92.7466 19.2149 92.8906 18.4169C93.0336 17.6189 93.0986 16.8148 93.0836 16.0038C93.0686 15.1928 92.9746 14.3918 92.8016 13.5998C92.6286 12.8078 92.3806 12.0398 92.0566 11.2968C91.7326 10.5528 91.3386 9.84886 90.8756 9.18286C90.4126 8.51686 89.8896 7.90281 89.3056 7.34081C88.7226 6.77781 88.0886 6.27784 87.4066 5.83984C86.7246 5.40184 86.0056 5.03485 85.2506 4.73785C84.4966 4.44185 83.7196 4.22181 82.9216 4.07781C82.1236 3.93481 81.3196 3.87086 80.5086 3.88586C79.6986 3.90086 78.8966 3.99486 78.1046 4.16686C77.3126 4.33986 76.5446 4.58884 75.8016 4.91284C75.0586 5.23684 74.3536 5.62983 73.6886 6.09283C73.0226 6.55583 72.4086 7.07984 71.8456 7.66284C71.2836 8.24684 70.7826 8.87986 70.3456 9.56286C69.9076 10.2449 69.5406 10.9638 69.2436 11.7178C68.9476 12.4728 68.7276 13.2488 68.5846 14.0468C68.4406 14.8458 68.3766 15.6498 68.3916 16.4598C68.4066 17.2708 68.5006 18.0729 68.6736 18.8649C68.8466 19.6569 69.0956 20.4248 69.4196 21.1678C69.7436 21.9108 70.1376 22.6148 70.6006 23.2808C71.0636 23.9468 71.5866 24.5609 72.1706 25.1229C72.7546 25.6849 73.3876 26.1848 74.0706 26.6218C74.7526 27.0588 75.4716 27.4248 76.2256 27.7208C76.9806 28.0168 77.7566 28.2358 78.5546 28.3798C79.3516 28.5228 80.1556 28.5868 80.9656 28.5718C81.7766 28.5568 82.5776 28.4628 83.3696 28.2908C84.1606 28.1178 84.9286 27.8698 85.6716 27.5458C86.4146 27.2228 87.1186 26.8299 87.7846 26.3679C88.4506 25.9059 89.0646 25.3828 89.6276 24.8008Z" fill="white"/>
<path id="path142" d="M71.4996 25.8187C70.8706 25.2127 70.3066 24.5506 69.8076 23.8326C69.3086 23.1156 68.8836 22.3557 68.5346 21.5547C68.1846 20.7537 67.9176 19.9257 67.7306 19.0717C67.5446 18.2177 67.4426 17.3547 67.4266 16.4807C67.4106 15.6067 67.4796 14.7397 67.6336 13.8787C67.7886 13.0187 68.0256 12.1817 68.3446 11.3687C68.6646 10.5547 69.0596 9.77968 69.5316 9.04468C70.0036 8.30868 70.5426 7.62664 71.1496 6.99664C71.7556 6.36764 72.4176 5.80369 73.1356 5.30469C73.8536 4.80569 74.6126 4.38068 75.4136 4.03168C76.2146 3.68268 77.0426 3.41466 77.8966 3.22766C78.7496 3.04166 79.6136 2.93964 80.4876 2.92364C81.3616 2.90764 82.2286 2.97665 83.0896 3.13165C83.9496 3.28565 84.7866 3.52267 85.5996 3.84167C86.4136 4.16167 87.1886 4.55766 87.9236 5.02966C88.6596 5.50166 89.3416 6.04067 89.9716 6.64667C90.6006 7.25367 91.1656 7.91563 91.6646 8.63263C92.1636 9.35063 92.5876 10.1097 92.9366 10.9117C93.2866 11.7127 93.5546 12.5397 93.7406 13.3937C93.9276 14.2477 94.0286 15.1117 94.0446 15.9857C94.0606 16.8597 93.9916 17.7267 93.8376 18.5867C93.6826 19.4467 93.4456 20.2837 93.1266 21.0977C92.8076 21.9107 92.4116 22.6856 91.9396 23.4216C91.4676 24.1566 90.9286 24.8397 90.3216 25.4687C89.7156 26.0987 89.0536 26.6627 88.3356 27.1617C87.6186 27.6607 86.8586 28.0846 86.0576 28.4346C85.2566 28.7836 84.4296 29.0517 83.5756 29.2377C82.7216 29.4247 81.8576 29.5257 80.9836 29.5417C80.1096 29.5587 79.2426 29.4887 78.3826 29.3347C77.5216 29.1797 76.6846 28.9427 75.8716 28.6237C75.0576 28.3047 74.2836 27.9086 73.5476 27.4366C72.8116 26.9646 72.1296 26.4257 71.4996 25.8187Z" fill="white" fill-opacity="0.2"/>
</g>
</g>
</g>
<g id="Mask group_5">
<mask id="mask5_105_6516" style="mask-type:luminance" maskUnits="userSpaceOnUse" x="-464" y="-63" width="1073" height="354">
<g id="Group_5">
<g id="Mask group_6">
<mask id="mask6_105_6516" style="mask-type:luminance" maskUnits="userSpaceOnUse" x="-464" y="-63" width="1073" height="354">
<g id="Group_6">
<g id="Mask group_7">
<mask id="mask7_105_6516" style="mask-type:luminance" maskUnits="userSpaceOnUse" x="-674" y="-63" width="1340" height="354">
<g id="Group_7">
<g id="Mask group_8">
<mask id="mask8_105_6516" style="mask-type:luminance" maskUnits="userSpaceOnUse" x="-674" y="-520" width="1441" height="811">
<g id="Group_8">
<path id="path143" fill-rule="evenodd" clip-rule="evenodd" d="M-673.61 -519.587H766.39V290.413H-673.61V-519.587Z" fill="white"/>
</g>
</mask>
<g mask="url(#mask8_105_6516)">
<g id="g144">
<path id="path144" d="M665.239 509.863L-190.258 1397.79L-784.372 825.383L71.1224 -62.5488L665.239 509.863Z" fill="white"/>
</g>
</g>
</g>
</g>
</mask>
<g mask="url(#mask7_105_6516)">
<g id="g145">
<path id="path145" d="M608.53 455.223L73.5817 1010.45L-463.821 492.673L71.1227 -62.5488L608.53 455.223Z" fill="white"/>
</g>
</g>
</g>
</g>
</mask>
<g mask="url(#mask6_105_6516)">
<g id="g146">
<path id="path146" d="M665.23 509.853L-190.265 1397.78L-784.379 825.373L71.1146 -62.5557L665.23 509.853Z" fill="white"/>
</g>
</g>
</g>
</g>
</mask>
<g mask="url(#mask5_105_6516)">
<g id="g147">
<path id="path147" d="M87.2236 20.5872C87.0166 20.5912 86.8107 20.5642 86.6057 20.5072C86.4017 20.4492 86.2027 20.3622 86.0087 20.2462C85.8147 20.1292 85.6297 19.9852 85.4547 19.8142C85.2787 19.6432 85.1157 19.4472 84.9647 19.2282C84.8137 19.0092 84.6787 18.7702 84.5587 18.5112C84.4387 18.2522 84.3357 17.9782 84.2517 17.6902C84.1667 17.4012 84.1006 17.1032 84.0546 16.7962C84.0086 16.4892 83.9826 16.1782 83.9766 15.8642C83.9706 15.5502 83.9856 15.2392 84.0206 14.9302C84.0546 14.6212 84.1097 14.3212 84.1837 14.0302C84.2567 13.7382 84.3497 13.4612 84.4597 13.1972C84.5697 12.9342 84.6966 12.6902 84.8386 12.4662C84.9816 12.2412 85.1376 12.0402 85.3066 11.8622C85.4756 11.6842 85.6546 11.5342 85.8436 11.4102C86.0336 11.2862 86.2286 11.1922 86.4316 11.1272C86.6336 11.0622 86.8387 11.0272 87.0457 11.0232C87.2527 11.0202 87.4586 11.0462 87.6636 11.1042C87.8676 11.1612 88.0666 11.2482 88.2606 11.3652C88.4546 11.4822 88.6386 11.6262 88.8146 11.7972C88.9906 11.9682 89.1536 12.1632 89.3046 12.3832C89.4546 12.6022 89.5906 12.8412 89.7106 13.1002C89.8306 13.3592 89.9326 13.6332 90.0176 13.9212C90.1026 14.2102 90.1676 14.5082 90.2136 14.8152C90.2606 15.1222 90.2866 15.4332 90.2916 15.7472C90.2976 16.0612 90.2837 16.3722 90.2487 16.6812C90.2137 16.9892 90.1596 17.2902 90.0856 17.5812C90.0116 17.8732 89.9196 18.1502 89.8096 18.4132C89.6986 18.6762 89.5727 18.9202 89.4307 19.1452C89.2877 19.3702 89.1317 19.5712 88.9627 19.7492C88.7937 19.9262 88.6147 20.0772 88.4257 20.2012C88.2357 20.3242 88.0397 20.4192 87.8377 20.4842C87.6357 20.5492 87.4306 20.5832 87.2236 20.5872Z" fill="white"/>
</g>
</g>
</g>
<g id="Mask group_9">
<mask id="mask9_105_6516" style="mask-type:luminance" maskUnits="userSpaceOnUse" x="-464" y="-63" width="1073" height="354">
<g id="Group_9">
<g id="Mask group_10">
<mask id="mask10_105_6516" style="mask-type:luminance" maskUnits="userSpaceOnUse" x="-464" y="-63" width="1073" height="354">
<g id="Group_10">
<g id="Mask group_11">
<mask id="mask11_105_6516" style="mask-type:luminance" maskUnits="userSpaceOnUse" x="-674" y="-63" width="1340" height="354">
<g id="Group_11">
<g id="Mask group_12">
<mask id="mask12_105_6516" style="mask-type:luminance" maskUnits="userSpaceOnUse" x="-674" y="-520" width="1441" height="811">
<g id="Group_12">
<path id="path148" fill-rule="evenodd" clip-rule="evenodd" d="M-673.61 -519.587H766.39V290.413H-673.61V-519.587Z" fill="white"/>
</g>
</mask>
<g mask="url(#mask12_105_6516)">
<g id="g149">
<path id="path149" d="M665.239 509.863L-190.258 1397.79L-784.372 825.383L71.1224 -62.5488L665.239 509.863Z" fill="white"/>
</g>
</g>
</g>
</g>
</mask>
<g mask="url(#mask11_105_6516)">
<g id="g150">
<path id="path150" d="M608.53 455.223L73.5817 1010.45L-463.821 492.673L71.1227 -62.5488L608.53 455.223Z" fill="white"/>
</g>
</g>
</g>
</g>
</mask>
<g mask="url(#mask10_105_6516)">
<g id="g151">
<path id="path151" d="M665.23 509.853L-190.265 1397.78L-784.379 825.373L71.1146 -62.5557L665.23 509.853Z" fill="white"/>
</g>
</g>
</g>
</g>
</mask>
<g mask="url(#mask9_105_6516)">
<g id="g152">
<path id="path152" d="M85.7096 9.97624C85.5506 10.0482 85.3766 10.0722 85.1876 10.0472C84.9986 10.0222 84.8086 9.95028 84.6186 9.83128C84.4286 9.71228 84.2516 9.55525 84.0896 9.36125C83.9276 9.16625 83.7916 8.94823 83.6816 8.70823C83.5716 8.46723 83.4966 8.22123 83.4556 7.97123C83.4156 7.72123 83.4126 7.48526 83.4476 7.26426C83.4826 7.04226 83.5526 6.85224 83.6576 6.69224C83.7626 6.53324 83.8946 6.41726 84.0536 6.34526C84.2126 6.27226 84.3866 6.24823 84.5756 6.27323C84.7646 6.29823 84.9546 6.37024 85.1446 6.48924C85.3346 6.60824 85.5116 6.76525 85.6736 6.96025C85.8356 7.15425 85.9717 7.37226 86.0817 7.61326C86.1917 7.85326 86.2667 8.09922 86.3077 8.34922C86.3477 8.59922 86.3507 8.83523 86.3157 9.05723C86.2807 9.27823 86.2106 9.46928 86.1056 9.62828C86.0006 9.78728 85.8686 9.90324 85.7096 9.97624Z" fill="white"/>
</g>
</g>
</g>
</g>
<g id="g539">
<g id="Mask group_13">
<mask id="mask13_105_6516" style="mask-type:luminance" maskUnits="userSpaceOnUse" x="-464" y="-63" width="1073" height="354">
<g id="Group_13">
<g id="Mask group_14">
<mask id="mask14_105_6516" style="mask-type:luminance" maskUnits="userSpaceOnUse" x="-464" y="-63" width="1073" height="354">
<g id="Group_14">
<g id="Mask group_15">
<mask id="mask15_105_6516" style="mask-type:luminance" maskUnits="userSpaceOnUse" x="-674" y="-63" width="1340" height="354">
<g id="Group_15">
<g id="Mask group_16">
<mask id="mask16_105_6516" style="mask-type:luminance" maskUnits="userSpaceOnUse" x="-674" y="-520" width="1441" height="811">
<g id="Group_16">
<path id="path153" fill-rule="evenodd" clip-rule="evenodd" d="M-673.61 -519.587H766.39V290.413H-673.61V-519.587Z" fill="white"/>
</g>
</mask>
<g mask="url(#mask16_105_6516)">
<g id="g154">
<path id="path154" d="M665.239 509.863L-190.258 1397.79L-784.372 825.383L71.1224 -62.5488L665.239 509.863Z" fill="white"/>
</g>
</g>
</g>
</g>
</mask>
<g mask="url(#mask15_105_6516)">
<g id="g155">
<path id="path155" d="M608.53 455.223L73.5817 1010.45L-463.821 492.673L71.1227 -62.5488L608.53 455.223Z" fill="white"/>
</g>
</g>
</g>
</g>
</mask>
<g mask="url(#mask14_105_6516)">
<g id="g156">
<path id="path156" d="M665.23 509.853L-190.265 1397.78L-784.379 825.373L71.1146 -62.5557L665.23 509.853Z" fill="white"/>
</g>
</g>
</g>
</g>
</mask>
<g mask="url(#mask13_105_6516)">
<g id="g158">
<path id="path157" d="M82.6875 80.86C83.3345 80.188 84.0136 79.5499 84.7236 78.9449C85.4326 78.3399 86.1706 77.7709 86.9366 77.2389C87.7026 76.7059 88.4926 76.2129 89.3066 75.7579C90.1206 75.3029 90.9546 74.889 91.8096 74.516C92.6646 74.143 93.5356 73.8129 94.4226 73.5259C95.3106 73.2389 96.2096 72.9959 97.1206 72.7969C98.0316 72.5979 98.9506 72.4439 99.8766 72.3349C100.804 72.2269 101.733 72.1639 102.665 72.1459C103.598 72.1289 104.529 72.1569 105.459 72.2309C106.388 72.3059 107.312 72.425 108.23 72.59C109.148 72.755 110.056 72.9639 110.953 73.2179C111.85 73.4729 112.733 73.7699 113.601 74.1109C114.47 74.4519 115.319 74.8339 116.149 75.2579C116.98 75.6829 117.788 76.1459 118.573 76.6499C119.358 77.1539 120.116 77.6949 120.848 78.2729C121.58 78.8509 122.282 79.4629 122.953 80.1109C123.625 80.7579 124.263 81.4359 124.868 82.1459C125.473 82.8559 126.042 83.5929 126.574 84.3589C127.107 85.1249 127.601 85.9149 128.056 86.7289C128.51 87.5429 128.924 88.3779 129.297 89.2319C129.67 90.0869 130 90.9579 130.288 91.8459C130.575 92.7329 130.818 93.632 131.017 94.543C131.216 95.454 131.37 96.3729 131.479 97.2989C131.587 98.2259 131.65 99.155 131.668 100.087C131.685 101.02 131.657 101.951 131.583 102.881C131.509 103.81 131.389 104.734 131.224 105.652C131.06 106.57 130.85 107.478 130.596 108.375C130.342 109.273 130.045 110.155 129.704 111.023C129.363 111.892 128.981 112.741 128.556 113.571C128.132 114.402 127.668 115.21 127.165 115.995C126.661 116.78 126.12 117.538 125.542 118.27C124.964 119.002 124.352 119.704 123.705 120.375C123.058 121.047 122.379 121.685 121.669 122.29C120.96 122.895 120.222 123.464 119.456 123.997C118.691 124.529 117.901 125.023 117.087 125.478C116.272 125.933 115.438 126.347 114.583 126.719C113.728 127.092 112.857 127.423 111.97 127.71C111.083 127.997 110.183 128.24 109.272 128.439C108.361 128.638 107.442 128.792 106.516 128.901C105.59 129.01 104.661 129.073 103.728 129.09C102.796 129.107 101.864 129.079 100.935 129.005C100.005 128.931 99.0806 128.812 98.1626 128.647C97.2446 128.482 96.3376 128.272 95.4396 128.018C94.5426 127.764 93.6596 127.467 92.7916 127.126C91.9236 126.786 91.0736 126.403 90.2436 125.979C89.4126 125.555 88.6056 125.091 87.8206 124.587C87.0356 124.084 86.2766 123.543 85.5446 122.965C84.8126 122.387 84.1106 121.774 83.4396 121.127C82.7686 120.479 82.1306 119.801 81.5266 119.091C80.9226 118.38 80.3546 117.642 79.8226 116.876C79.2906 116.111 78.7976 115.32 78.3426 114.506C77.8886 113.692 77.4756 112.857 77.1026 112.003C76.7306 111.148 76.4006 110.277 76.1136 109.389C75.8266 108.502 75.5836 107.603 75.3846 106.692C75.1866 105.781 75.0326 104.862 74.9236 103.936C74.8156 103.01 74.7525 102.081 74.7345 101.149C74.7175 100.216 74.7456 99.2849 74.8196 98.3559C74.8936 97.4259 75.0136 96.5029 75.1776 95.5849C75.3426 94.6669 75.5516 93.7599 75.8056 92.8619C76.0586 91.9649 76.3556 91.082 76.6966 90.214C77.0366 89.346 77.4186 88.4969 77.8416 87.6659C78.2656 86.8349 78.7286 86.0269 79.2316 85.2419C79.7346 84.4569 80.2746 83.6979 80.8526 82.9659C81.4296 82.2339 82.0415 81.532 82.6875 80.86ZM121.887 118.626C122.477 118.014 123.035 117.375 123.562 116.708C124.089 116.041 124.582 115.349 125.041 114.634C125.5 113.918 125.923 113.182 126.309 112.425C126.696 111.668 127.045 110.894 127.355 110.103C127.666 109.312 127.937 108.507 128.169 107.689C128.4 106.871 128.591 106.044 128.741 105.207C128.892 104.371 129.001 103.529 129.068 102.681C129.136 101.834 129.162 100.985 129.146 100.135C129.13 99.2849 129.072 98.438 128.973 97.594C128.874 96.75 128.734 95.912 128.553 95.082C128.371 94.251 128.15 93.432 127.888 92.623C127.626 91.814 127.325 91.02 126.985 90.241C126.645 89.462 126.268 88.702 125.854 87.959C125.439 87.217 124.989 86.4969 124.504 85.7989C124.018 85.1019 123.5 84.429 122.948 83.782C122.397 83.135 121.815 82.5169 121.203 81.9269C120.591 81.3369 119.951 80.7789 119.284 80.2519C118.617 79.7249 117.926 79.2319 117.21 78.7729C116.495 78.3139 115.759 77.8909 115.002 77.5049C114.245 77.1179 113.47 76.769 112.679 76.459C111.888 76.148 111.083 75.8769 110.265 75.6449C109.447 75.4139 108.62 75.2229 107.783 75.0729C106.947 74.9219 106.105 74.813 105.257 74.746C104.41 74.678 103.561 74.653 102.712 74.668C101.862 74.684 101.014 74.7419 100.17 74.8409C99.3256 74.9399 98.4886 75.08 97.6576 75.261C96.8276 75.443 96.0076 75.664 95.1986 75.926C94.3906 76.188 93.5966 76.489 92.8176 76.829C92.0376 77.169 91.2776 77.5459 90.5356 77.9609C89.7936 78.3749 89.0736 78.825 88.3756 79.311C87.6776 79.796 87.0056 80.314 86.3586 80.866C85.7116 81.417 85.0936 81.9989 84.5036 82.6109C83.9136 83.2239 83.3556 83.863 82.8286 84.53C82.3016 85.197 81.8086 85.8879 81.3496 86.6039C80.8906 87.3189 80.4676 88.056 80.0806 88.813C79.6946 89.57 79.3456 90.3439 79.0356 91.1349C78.7246 91.9259 78.4536 92.7309 78.2226 93.5489C77.9906 94.3669 77.7996 95.1939 77.6496 96.0309C77.4996 96.8679 77.3906 97.7089 77.3226 98.5569C77.2556 99.4039 77.2296 100.253 77.2456 101.103C77.2616 101.953 77.3186 102.8 77.4186 103.644C77.5176 104.488 77.6575 105.326 77.8385 106.156C78.0205 106.987 78.2416 107.806 78.5036 108.615C78.7656 109.424 79.0666 110.218 79.4066 110.997C79.7466 111.776 80.1236 112.536 80.5386 113.278C80.9536 114.021 81.4036 114.74 81.8886 115.438C82.3736 116.136 82.8926 116.809 83.4436 117.455C83.9956 118.102 84.5776 118.721 85.1896 119.31C85.8026 119.899 86.4425 120.457 87.1095 120.983C87.7765 121.509 88.4686 122.001 89.1836 122.459C89.8996 122.918 90.6356 123.34 91.3926 123.726C92.1496 124.112 92.9236 124.46 93.7146 124.77C94.5066 125.08 95.3106 125.35 96.1286 125.582C96.9466 125.813 97.7735 126.003 98.6095 126.153C99.4455 126.303 100.288 126.412 101.135 126.479C101.982 126.547 102.831 126.573 103.68 126.557C104.53 126.541 105.376 126.483 106.22 126.384C107.064 126.286 107.901 126.146 108.732 125.964C109.562 125.783 110.381 125.562 111.19 125.301C111.998 125.039 112.792 124.739 113.571 124.4C114.35 124.06 115.111 123.684 115.853 123.27C116.595 122.856 117.315 122.407 118.013 121.922C118.711 121.437 119.384 120.92 120.031 120.369C120.678 119.819 121.297 119.238 121.887 118.626Z" fill="white"/>
<path id="path158" d="M84.7246 119.79C84.0966 119.185 83.4996 118.551 82.9336 117.887C82.3686 117.224 81.8365 116.534 81.3385 115.818C80.8415 115.102 80.3796 114.364 79.9546 113.602C79.5286 112.841 79.1426 112.061 78.7936 111.262C78.4446 110.463 78.1366 109.648 77.8676 108.819C77.5996 107.989 77.3716 107.148 77.1856 106.297C76.9996 105.445 76.8556 104.586 76.7546 103.72C76.6526 102.854 76.5936 101.985 76.5776 101.113C76.5616 100.241 76.5876 99.3707 76.6576 98.5017C76.7266 97.6327 76.8386 96.7687 76.9926 95.9107C77.1466 95.0527 77.3425 94.2037 77.5805 93.3647C77.8175 92.5257 78.0956 91.7007 78.4146 90.8887C78.7326 90.0777 79.0906 89.2837 79.4876 88.5067C79.8836 87.7307 80.3176 86.9747 80.7886 86.2417C81.2596 85.5077 81.7646 84.7987 82.3056 84.1137C82.8456 83.4297 83.4185 82.7737 84.0235 82.1457C84.6285 81.5177 85.2626 80.9217 85.9266 80.3557C86.5906 79.7907 87.2796 79.2587 87.9956 78.7607C88.7116 78.2627 89.4496 77.8017 90.2116 77.3757C90.9726 76.9507 91.7526 76.5637 92.5516 76.2157C93.3506 75.8667 94.1655 75.5587 94.9945 75.2897C95.8245 75.0207 96.6656 74.7937 97.5166 74.6077C98.3686 74.4217 99.2275 74.2777 100.094 74.1767C100.96 74.0747 101.829 74.0157 102.701 73.9997C103.573 73.9837 104.443 74.0097 105.312 74.0797C106.181 74.1487 107.045 74.2607 107.903 74.4147C108.761 74.5687 109.61 74.7647 110.449 75.0027C111.288 75.2397 112.113 75.5177 112.925 75.8367C113.737 76.1557 114.531 76.5127 115.307 76.9097C116.084 77.3057 116.839 77.7397 117.573 78.2107C118.307 78.6817 119.016 79.1877 119.7 79.7277C120.384 80.2687 121.04 80.8407 121.668 81.4457C122.296 82.0507 122.892 82.6857 123.458 83.3487C124.024 84.0127 124.555 84.7027 125.053 85.4177C125.551 86.1337 126.013 86.8727 126.438 87.6337C126.863 88.3947 127.25 89.1747 127.599 89.9747C127.947 90.7737 128.256 91.5877 128.525 92.4177C128.793 93.2467 129.02 94.0877 129.207 94.9397C129.393 95.7917 129.536 96.6507 129.638 97.5167C129.739 98.3827 129.798 99.2517 129.815 100.123C129.831 100.995 129.804 101.866 129.735 102.735C129.666 103.604 129.554 104.468 129.4 105.326C129.246 106.184 129.05 107.033 128.812 107.872C128.575 108.71 128.297 109.536 127.978 110.347C127.659 111.159 127.302 111.953 126.905 112.73C126.509 113.506 126.075 114.261 125.604 114.995C125.133 115.729 124.627 116.438 124.087 117.122C123.546 117.806 122.974 118.462 122.369 119.09C121.764 119.718 121.129 120.315 120.466 120.88C119.802 121.446 119.113 121.978 118.397 122.476C117.681 122.973 116.942 123.435 116.181 123.86C115.42 124.285 114.64 124.672 113.841 125.021C113.041 125.37 112.227 125.678 111.397 125.947C110.568 126.215 109.727 126.443 108.875 126.628C108.023 126.814 107.165 126.958 106.299 127.06C105.433 127.161 104.564 127.22 103.692 127.236C102.82 127.253 101.95 127.226 101.08 127.157C100.211 127.087 99.3476 126.976 98.4886 126.822C97.6306 126.667 96.7826 126.472 95.9436 126.234C95.1046 125.996 94.2786 125.718 93.4676 125.4C92.6556 125.081 91.8615 124.723 91.0855 124.327C90.3085 123.93 89.5536 123.496 88.8196 123.025C88.0856 122.555 87.3765 122.049 86.6925 121.508C86.0085 120.968 85.3526 120.395 84.7246 119.79Z" fill="white" fill-opacity="0.2"/>
</g>
</g>
</g>
<g id="Mask group_17">
<mask id="mask17_105_6516" style="mask-type:luminance" maskUnits="userSpaceOnUse" x="-464" y="-63" width="1073" height="354">
<g id="Group_17">
<g id="Mask group_18">
<mask id="mask18_105_6516" style="mask-type:luminance" maskUnits="userSpaceOnUse" x="-464" y="-63" width="1073" height="354">
<g id="Group_18">
<g id="Mask group_19">
<mask id="mask19_105_6516" style="mask-type:luminance" maskUnits="userSpaceOnUse" x="-674" y="-63" width="1340" height="354">
<g id="Group_19">
<g id="Mask group_20">
<mask id="mask20_105_6516" style="mask-type:luminance" maskUnits="userSpaceOnUse" x="-674" y="-520" width="1441" height="811">
<g id="Group_20">
<path id="path159" fill-rule="evenodd" clip-rule="evenodd" d="M-673.61 -519.587H766.39V290.413H-673.61V-519.587Z" fill="white"/>
</g>
</mask>
<g mask="url(#mask20_105_6516)">
<g id="g160">
<path id="path160" d="M665.239 509.863L-190.258 1397.79L-784.372 825.383L71.1224 -62.5488L665.239 509.863Z" fill="white"/>
</g>
</g>
</g>
</g>
</mask>
<g mask="url(#mask19_105_6516)">
<g id="g161">
<path id="path161" d="M608.53 455.223L73.5817 1010.45L-463.821 492.673L71.1227 -62.5488L608.53 455.223Z" fill="white"/>
</g>
</g>
</g>
</g>
</mask>
<g mask="url(#mask18_105_6516)">
<g id="g162">
<path id="path162" d="M665.23 509.853L-190.265 1397.78L-784.379 825.373L71.1146 -62.5557L665.23 509.853Z" fill="white"/>
</g>
</g>
</g>
</g>
</mask>
<g mask="url(#mask17_105_6516)">
<g id="g163">
<path id="path163" d="M116.168 109.323C115.753 109.331 115.342 109.277 114.933 109.163C114.524 109.048 114.125 108.874 113.738 108.64C113.35 108.407 112.981 108.12 112.63 107.777C112.278 107.435 111.952 107.044 111.65 106.606C111.349 106.167 111.078 105.689 110.838 105.172C110.598 104.654 110.393 104.107 110.224 103.53C110.054 102.952 109.923 102.357 109.831 101.743C109.738 101.128 109.686 100.507 109.675 99.8799C109.663 99.2519 109.692 98.6289 109.761 98.0119C109.831 97.3949 109.94 96.795 110.087 96.212C110.235 95.629 110.42 95.074 110.64 94.548C110.861 94.021 111.114 93.534 111.399 93.084C111.684 92.635 111.995 92.2329 112.334 91.8769C112.672 91.5219 113.03 91.2209 113.409 90.9739C113.787 90.7259 114.179 90.537 114.583 90.407C114.988 90.277 115.397 90.209 115.812 90.201C116.227 90.193 116.638 90.2469 117.048 90.3619C117.456 90.4769 117.855 90.651 118.242 90.884C118.63 91.117 118.999 91.4049 119.351 91.7469C119.702 92.0889 120.028 92.48 120.33 92.918C120.631 93.357 120.902 93.8349 121.142 94.3529C121.382 94.8699 121.587 95.4179 121.757 95.9949C121.926 96.5719 122.057 97.167 122.149 97.782C122.242 98.396 122.294 99.0169 122.305 99.6449C122.317 100.272 122.288 100.895 122.219 101.512C122.149 102.129 122.041 102.73 121.893 103.313C121.745 103.896 121.561 104.45 121.34 104.976C121.119 105.503 120.866 105.991 120.582 106.44C120.297 106.889 119.985 107.292 119.647 107.647C119.308 108.002 118.95 108.303 118.571 108.551C118.193 108.798 117.801 108.987 117.397 109.117C116.992 109.247 116.583 109.316 116.168 109.323Z" fill="white"/>
</g>
</g>
</g>
<g id="Mask group_21">
<mask id="mask21_105_6516" style="mask-type:luminance" maskUnits="userSpaceOnUse" x="-464" y="-63" width="1073" height="354">
<g id="Group_21">
<g id="Mask group_22">
<mask id="mask22_105_6516" style="mask-type:luminance" maskUnits="userSpaceOnUse" x="-464" y="-63" width="1073" height="354">
<g id="Group_22">
<g id="Mask group_23">
<mask id="mask23_105_6516" style="mask-type:luminance" maskUnits="userSpaceOnUse" x="-674" y="-63" width="1340" height="354">
<g id="Group_23">
<g id="Mask group_24">
<mask id="mask24_105_6516" style="mask-type:luminance" maskUnits="userSpaceOnUse" x="-674" y="-520" width="1441" height="811">
<g id="Group_24">
<path id="path164" fill-rule="evenodd" clip-rule="evenodd" d="M-673.61 -519.587H766.39V290.413H-673.61V-519.587Z" fill="white"/>
</g>
</mask>
<g mask="url(#mask24_105_6516)">
<g id="g165">
<path id="path165" d="M665.239 509.863L-190.258 1397.79L-784.372 825.383L71.1224 -62.5488L665.239 509.863Z" fill="white"/>
</g>
</g>
</g>
</g>
</mask>
<g mask="url(#mask23_105_6516)">
<g id="g166">
<path id="path166" d="M608.53 455.223L73.5817 1010.45L-463.821 492.673L71.1227 -62.5488L608.53 455.223Z" fill="white"/>
</g>
</g>
</g>
</g>
</mask>
<g mask="url(#mask22_105_6516)">
<g id="g167">
<path id="path167" d="M665.23 509.853L-190.265 1397.78L-784.379 825.373L71.1146 -62.5557L665.23 509.853Z" fill="white"/>
</g>
</g>
</g>
</g>
</mask>
<g mask="url(#mask21_105_6516)">
<g id="g168">
<path id="path168" d="M113.147 88.0981C112.829 88.2431 112.481 88.2901 112.103 88.2401C111.725 88.1901 111.346 88.0461 110.966 87.8081C110.585 87.5701 110.233 87.256 109.909 86.867C109.584 86.478 109.312 86.0421 109.092 85.5611C108.873 85.0791 108.722 84.588 108.641 84.088C108.56 83.588 108.554 83.1161 108.624 82.6731C108.693 82.2301 108.833 81.849 109.043 81.531C109.252 81.213 109.516 80.981 109.834 80.836C110.152 80.691 110.5 80.6431 110.878 80.6941C111.256 80.7441 111.635 80.8881 112.015 81.1261C112.396 81.3641 112.748 81.677 113.073 82.067C113.397 82.456 113.669 82.8911 113.889 83.3731C114.108 83.8541 114.259 84.345 114.34 84.846C114.421 85.346 114.427 85.8181 114.357 86.2611C114.288 86.7041 114.148 87.084 113.938 87.403C113.729 87.721 113.465 87.9531 113.147 88.0981Z" fill="white"/>
</g>
</g>
</g>
</g>
<g id="g541">
<g id="Mask group_25">
<mask id="mask25_105_6516" style="mask-type:luminance" maskUnits="userSpaceOnUse" x="-464" y="-63" width="1073" height="354">
<g id="Group_25">
<g id="Mask group_26">
<mask id="mask26_105_6516" style="mask-type:luminance" maskUnits="userSpaceOnUse" x="-464" y="-63" width="1073" height="354">
<g id="Group_26">
<g id="Mask group_27">
<mask id="mask27_105_6516" style="mask-type:luminance" maskUnits="userSpaceOnUse" x="-674" y="-63" width="1340" height="354">
<g id="Group_27">
<g id="Mask group_28">
<mask id="mask28_105_6516" style="mask-type:luminance" maskUnits="userSpaceOnUse" x="-674" y="-520" width="1441" height="811">
<g id="Group_28">
<path id="path169" fill-rule="evenodd" clip-rule="evenodd" d="M-673.61 -519.587H766.39V290.413H-673.61V-519.587Z" fill="white"/>
</g>
</mask>
<g mask="url(#mask28_105_6516)">
<g id="g170">
<path id="path170" d="M665.239 509.863L-190.258 1397.79L-784.372 825.383L71.1224 -62.5488L665.239 509.863Z" fill="white"/>
</g>
</g>
</g>
</g>
</mask>
<g mask="url(#mask27_105_6516)">
<g id="g171">
<path id="path171" d="M608.53 455.223L73.5817 1010.45L-463.821 492.673L71.1227 -62.5488L608.53 455.223Z" fill="white"/>
</g>
</g>
</g>
</g>
</mask>
<g mask="url(#mask26_105_6516)">
<g id="g172">
<path id="path172" d="M665.23 509.853L-190.265 1397.78L-784.379 825.373L71.1146 -62.5557L665.23 509.853Z" fill="white"/>
</g>
</g>
</g>
</g>
</mask>
<g mask="url(#mask25_105_6516)">
<g id="g174">
<path id="path173" d="M5.38875 6.38382C5.81875 5.93782 6.26874 5.51379 6.74074 5.11179C7.21274 4.70979 7.70271 4.33179 8.21071 3.97879C8.71971 3.62479 9.24472 3.29678 9.78572 2.99478C10.3267 2.69178 10.8807 2.41683 11.4487 2.16983C12.0167 1.92183 12.5957 1.70281 13.1847 1.51181C13.7747 1.32081 14.3717 1.15983 14.9777 1.02683C15.5827 0.894828 16.1927 0.792798 16.8087 0.720798C17.4237 0.648798 18.0407 0.606821 18.6607 0.594821C19.2807 0.583821 19.8987 0.602828 20.5167 0.651828C21.1337 0.700828 21.7477 0.780804 22.3577 0.889804C22.9677 0.999804 23.5707 1.13883 24.1667 1.30783C24.7627 1.47683 25.3497 1.67379 25.9267 1.90079C26.5027 2.12679 27.0677 2.38081 27.6187 2.66281C28.1707 2.94481 28.7077 3.2528 29.2287 3.5878C29.7507 3.9218 30.2547 4.28181 30.7407 4.66581C31.2267 5.04981 31.6927 5.45681 32.1397 5.88681C32.5857 6.31681 33.0097 6.7668 33.4117 7.2388C33.8137 7.7108 34.1918 8.20081 34.5448 8.70981C34.8988 9.21781 35.2267 9.74279 35.5287 10.2838C35.8317 10.8248 36.1067 11.3788 36.3537 11.9468C36.6017 12.5148 36.8207 13.0938 37.0117 13.6828C37.2027 14.2728 37.3647 14.8698 37.4967 15.4758C37.6287 16.0808 37.7307 16.6918 37.8027 17.3068C37.8757 17.9218 37.9167 18.5398 37.9287 19.1588C37.9397 19.7788 37.9217 20.3968 37.8717 21.0148C37.8227 21.6328 37.7437 22.2458 37.6337 22.8558C37.5247 23.4658 37.3848 24.0688 37.2168 24.6648C37.0478 25.2608 36.8497 25.8478 36.6237 26.4248C36.3967 27.0018 36.1427 27.5658 35.8607 28.1178C35.5787 28.6688 35.2707 29.2058 34.9367 29.7278C34.6017 30.2488 34.2427 30.7528 33.8587 31.2388C33.4737 31.7248 33.0667 32.1918 32.6377 32.6378C32.2077 33.0838 31.7567 33.5078 31.2847 33.9098C30.8137 34.3118 30.3237 34.6898 29.8147 35.0428C29.3057 35.3968 28.7807 35.7248 28.2407 36.0268C27.6997 36.3298 27.1447 36.6048 26.5767 36.8518C26.0087 37.0998 25.4297 37.3188 24.8407 37.5098C24.2517 37.7008 23.6537 37.8618 23.0487 37.9948C22.4427 38.1268 21.8327 38.2288 21.2177 38.3008C20.6017 38.3728 19.9847 38.4148 19.3647 38.4268C18.7457 38.4378 18.1267 38.4188 17.5087 38.3698C16.8917 38.3208 16.2777 38.2408 15.6677 38.1318C15.0577 38.0218 14.4547 37.8828 13.8587 37.7138C13.2627 37.5448 12.6767 37.3478 12.0997 37.1208C11.5227 36.8948 10.9588 36.6408 10.4068 36.3588C9.85475 36.0768 9.31871 35.7688 8.79671 35.4338C8.27471 35.0998 7.77174 34.7398 7.28474 34.3558C6.79874 33.9718 6.33273 33.5648 5.88673 33.1348C5.44073 32.7048 5.01771 32.2538 4.61671 31.7818C4.21471 31.3098 3.8377 30.8188 3.4847 30.3108C3.1317 29.8018 2.8037 29.2768 2.5027 28.7358C2.2007 28.1948 1.92673 27.6398 1.67873 27.0718C1.43173 26.5048 1.21272 25.9258 1.02272 25.3358C0.83172 24.7468 0.670711 24.1498 0.538711 23.5448C0.406711 22.9388 0.304742 22.3288 0.232742 21.7138C0.160742 21.0988 0.118742 20.4818 0.107742 19.8618C0.0957422 19.2428 0.114711 18.6248 0.163711 18.0068C0.212711 17.3898 0.291749 16.7758 0.401749 16.1668C0.510749 15.5568 0.649703 14.9538 0.817703 14.3578C0.986703 13.7618 1.18374 13.1758 1.40974 12.5988C1.63574 12.0218 1.88973 11.4578 2.17073 10.9058C2.45173 10.3538 2.7597 9.81781 3.0937 9.29581C3.4277 8.77381 3.78575 8.26979 4.16975 7.78379C4.55275 7.29679 4.95875 6.83082 5.38875 6.38382ZM30.8208 30.8868C31.1938 30.5008 31.5457 30.0968 31.8787 29.6748C32.2117 29.2538 32.5227 28.8168 32.8127 28.3648C33.1027 27.9128 33.3707 27.4478 33.6147 26.9698C33.8587 26.4918 34.0787 26.0028 34.2757 25.5028C34.4717 25.0028 34.6427 24.4948 34.7887 23.9778C34.9357 23.4608 35.0557 22.9388 35.1507 22.4098C35.2457 21.8818 35.3147 21.3498 35.3577 20.8148C35.3997 20.2788 35.4168 19.7428 35.4068 19.2058C35.3968 18.6688 35.3607 18.1338 35.2977 17.6008C35.2347 17.0668 35.1468 16.5378 35.0318 16.0138C34.9178 15.4888 34.7777 14.9708 34.6117 14.4608C34.4467 13.9498 34.2567 13.4478 34.0417 12.9558C33.8267 12.4638 33.5887 11.9828 33.3267 11.5138C33.0647 11.0458 32.7807 10.5908 32.4737 10.1498C32.1677 9.70881 31.8397 9.28379 31.4917 8.87479C31.1437 8.46679 30.7757 8.07579 30.3887 7.70279C30.0027 7.33079 29.5987 6.97781 29.1767 6.64481C28.7557 6.31181 28.3187 6.00079 27.8667 5.71079C27.4147 5.42079 26.9497 5.15379 26.4717 4.90879C25.9937 4.66479 25.5047 4.44481 25.0047 4.24881C24.5047 4.05181 23.9968 3.88084 23.4798 3.73484C22.9628 3.58884 22.4407 3.46784 21.9117 3.37284C21.3837 3.27784 20.8518 3.20881 20.3158 3.16581C19.7808 3.12381 19.2447 3.10679 18.7077 3.11679C18.1707 3.12679 17.6357 3.1638 17.1027 3.2258C16.5687 3.2888 16.0397 3.37679 15.5157 3.49179C14.9907 3.60579 14.4727 3.74584 13.9617 3.91184C13.4507 4.07684 12.9497 4.26678 12.4577 4.48178C11.9647 4.69678 11.4847 4.93481 11.0157 5.19681C10.5467 5.45881 10.0917 5.74284 9.65175 6.04984C9.21075 6.35584 8.78572 6.68383 8.37672 7.03183C7.96872 7.37983 7.57773 7.74782 7.20473 8.13382C6.83273 8.52082 6.47974 8.92484 6.14674 9.34684C5.81374 9.76784 5.50272 10.2048 5.21272 10.6568C4.92272 11.1088 4.65572 11.5738 4.41072 12.0518C4.16672 12.5298 3.94675 13.0188 3.75075 13.5188C3.55375 14.0188 3.38271 14.5268 3.23671 15.0438C3.09071 15.5608 2.96971 16.0828 2.87471 16.6118C2.77971 17.1398 2.71072 17.6718 2.66872 18.2068C2.62572 18.7428 2.60971 19.2788 2.61971 19.8158C2.62971 20.3528 2.66574 20.8878 2.72774 21.4208C2.79074 21.9548 2.87973 22.4838 2.99373 23.0078C3.10873 23.5328 3.24871 24.0508 3.41371 24.5618C3.57971 25.0718 3.76972 25.5738 3.98372 26.0658C4.19872 26.5578 4.43675 27.0388 4.69875 27.5078C4.96075 27.9758 5.24471 28.4308 5.55171 28.8718C5.85771 29.3128 6.18571 29.7378 6.53371 30.1468C6.88271 30.5548 7.24973 30.9458 7.63673 31.3188C8.02373 31.6908 8.42775 32.0428 8.84975 32.3758C9.27175 32.7078 9.70772 33.0188 10.1607 33.3088C10.6127 33.5988 11.0777 33.8658 11.5557 34.1098C12.0347 34.3538 12.5237 34.5738 13.0237 34.7698C13.5237 34.9658 14.0317 35.1368 14.5487 35.2828C15.0647 35.4298 15.5877 35.5498 16.1157 35.6448C16.6447 35.7398 17.1767 35.8088 17.7117 35.8518C18.2467 35.8948 18.7837 35.9108 19.3197 35.9008C19.8567 35.8908 20.3917 35.8548 20.9257 35.7928C21.4587 35.7308 21.9877 35.6418 22.5127 35.5278C23.0377 35.4138 23.5548 35.2738 24.0658 35.1088C24.5768 34.9438 25.0787 34.7548 25.5717 34.5408C26.0637 34.3258 26.5447 34.0888 27.0137 33.8268C27.4827 33.5658 27.9377 33.2818 28.3787 32.9758C28.8197 32.6698 29.2457 32.3428 29.6547 31.9948C30.0637 31.6478 30.4547 31.2808 30.8277 30.8938L30.8208 30.8868Z" fill="white"/>
<path id="path174" d="M7.02558 31.9557C6.61858 31.5627 6.23059 31.1517 5.86359 30.7207C5.49659 30.2897 5.15162 29.8427 4.82862 29.3777C4.50562 28.9127 4.20557 28.4337 3.92957 27.9397C3.65357 27.4457 3.40258 26.9397 3.17658 26.4207C2.95058 25.9017 2.74957 25.3737 2.57557 24.8347C2.40157 24.2967 2.25361 23.7507 2.13361 23.1977C2.01261 22.6447 1.91858 22.0877 1.85358 21.5257C1.78758 20.9637 1.74859 20.3997 1.73859 19.8337C1.72759 19.2677 1.74462 18.7027 1.78962 18.1387C1.83462 17.5747 1.90757 17.0137 2.00757 16.4567C2.10757 15.8997 2.23461 15.3497 2.38861 14.8047C2.54361 14.2607 2.72361 13.7247 2.93061 13.1977C3.13761 12.6707 3.36959 12.1557 3.62659 11.6517C3.88459 11.1477 4.16556 10.6577 4.47156 10.1817C4.77656 9.70467 5.10457 9.24468 5.45557 8.80068C5.80657 8.35668 6.17862 7.93071 6.57062 7.52371C6.96362 7.11571 7.37561 6.72866 7.80561 6.36166C8.23661 5.99466 8.6846 5.64971 9.1496 5.32571C9.6136 5.00271 10.0926 4.7037 10.5866 4.4277C11.0806 4.1517 11.5876 3.90067 12.1066 3.67367C12.6246 3.44767 13.1536 3.24769 13.6916 3.07369C14.2306 2.89869 14.7756 2.7517 15.3286 2.6307C15.8816 2.5097 16.4396 2.41667 17.0016 2.35067C17.5636 2.28467 18.1276 2.24668 18.6936 2.23568C19.2586 2.22568 19.8236 2.24268 20.3876 2.28768C20.9526 2.33268 21.5126 2.4057 22.0696 2.5057C22.6266 2.6057 23.1776 2.73268 23.7216 2.88668C24.2666 3.04068 24.8026 3.22167 25.3286 3.42867C25.8556 3.63467 26.3716 3.86766 26.8756 4.12466C27.3796 4.38166 27.8696 4.66369 28.3456 4.96969C28.8216 5.27469 29.2816 5.6027 29.7256 5.9537C30.1706 6.3047 30.5956 6.67669 31.0036 7.06869C31.4106 7.46169 31.7986 7.87367 32.1656 8.30367C32.5326 8.73467 32.8776 9.18269 33.2006 9.64669C33.5236 10.1117 33.8236 10.5907 34.0996 11.0857C34.3756 11.5797 34.6266 12.0857 34.8526 12.6047C35.0796 13.1227 35.2796 13.6517 35.4536 14.1897C35.6286 14.7287 35.7756 15.2737 35.8966 15.8267C36.0176 16.3797 36.1106 16.9377 36.1766 17.4997C36.2426 18.0617 36.2806 18.6257 36.2916 19.1917C36.3016 19.7567 36.2846 20.3217 36.2396 20.8857C36.1946 21.4507 36.1216 22.0107 36.0216 22.5677C35.9216 23.1247 35.7946 23.6757 35.6406 24.2197C35.4866 24.7647 35.3056 25.3007 35.0996 25.8267C34.8926 26.3537 34.6606 26.8687 34.4026 27.3737C34.1456 27.8767 33.8636 28.3677 33.5586 28.8437C33.2526 29.3197 32.9246 29.7797 32.5736 30.2237C32.2226 30.6677 31.8506 31.0937 31.4586 31.5017C31.0656 31.9087 30.6536 32.2967 30.2236 32.6637C29.7926 33.0307 29.3446 33.3757 28.8806 33.6987C28.4156 34.0217 27.9366 34.3217 27.4426 34.5977C26.9486 34.8737 26.4416 35.1247 25.9236 35.3507C25.4046 35.5767 24.8756 35.7777 24.3376 35.9517C23.7996 36.1257 23.2536 36.2737 22.7006 36.3947C22.1476 36.5147 21.5906 36.6087 21.0286 36.6737C20.4666 36.7397 19.9026 36.7787 19.3366 36.7887C18.7706 36.7997 18.2056 36.7817 17.6416 36.7367C17.0776 36.6917 16.5166 36.6197 15.9596 36.5197C15.4026 36.4197 14.8516 36.2927 14.3076 36.1387C13.7626 35.9837 13.2276 35.8037 12.7006 35.5967C12.1736 35.3897 11.6586 35.1577 11.1546 34.9007C10.6506 34.6427 10.1606 34.3617 9.6836 34.0557C9.2076 33.7497 8.74759 33.4217 8.30359 33.0707C7.85959 32.7207 7.43358 32.3487 7.02558 31.9557Z" fill="white" fill-opacity="0.2"/>
</g>
</g>
</g>
<g id="Mask group_29">
<mask id="mask29_105_6516" style="mask-type:luminance" maskUnits="userSpaceOnUse" x="-464" y="-63" width="1073" height="354">
<g id="Group_29">
<g id="Mask group_30">
<mask id="mask30_105_6516" style="mask-type:luminance" maskUnits="userSpaceOnUse" x="-464" y="-63" width="1073" height="354">
<g id="Group_30">
<g id="Mask group_31">
<mask id="mask31_105_6516" style="mask-type:luminance" maskUnits="userSpaceOnUse" x="-674" y="-63" width="1340" height="354">
<g id="Group_31">
<g id="Mask group_32">
<mask id="mask32_105_6516" style="mask-type:luminance" maskUnits="userSpaceOnUse" x="-674" y="-520" width="1441" height="811">
<g id="Group_32">
<path id="path175" fill-rule="evenodd" clip-rule="evenodd" d="M-673.61 -519.587H766.39V290.413H-673.61V-519.587Z" fill="white"/>
</g>
</mask>
<g mask="url(#mask32_105_6516)">
<g id="g176">
<path id="path176" d="M665.239 509.863L-190.258 1397.79L-784.372 825.383L71.1224 -62.5488L665.239 509.863Z" fill="white"/>
</g>
</g>
</g>
</g>
</mask>
<g mask="url(#mask31_105_6516)">
<g id="g177">
<path id="path177" d="M608.53 455.223L73.5817 1010.45L-463.821 492.673L71.1227 -62.5488L608.53 455.223Z" fill="white"/>
</g>
</g>
</g>
</g>
</mask>
<g mask="url(#mask30_105_6516)">
<g id="g178">
<path id="path178" d="M665.23 509.853L-190.265 1397.78L-784.379 825.373L71.1146 -62.5557L665.23 509.853Z" fill="white"/>
</g>
</g>
</g>
</g>
</mask>
<g mask="url(#mask29_105_6516)">
<g id="g179">
<path id="path179" d="M27.4377 25.164C27.1687 25.169 26.9007 25.134 26.6357 25.06C26.3707 24.985 26.1117 24.872 25.8607 24.721C25.6087 24.57 25.3687 24.383 25.1407 24.16C24.9127 23.938 24.7017 23.685 24.5057 23.4C24.3097 23.115 24.1347 22.805 23.9787 22.469C23.8227 22.133 23.6897 21.778 23.5797 21.403C23.4697 21.028 23.3847 20.642 23.3247 20.243C23.2647 19.844 23.2307 19.441 23.2237 19.034C23.2157 18.626 23.2347 18.222 23.2797 17.821C23.3247 17.42 23.3957 17.031 23.4917 16.652C23.5877 16.274 23.7067 15.914 23.8497 15.572C23.9937 15.231 24.1577 14.914 24.3417 14.622C24.5267 14.331 24.7297 14.069 24.9487 13.839C25.1687 13.608 25.4007 13.413 25.6467 13.252C25.8927 13.091 26.1467 12.969 26.4087 12.885C26.6717 12.8 26.9377 12.755 27.2067 12.75C27.4757 12.745 27.7427 12.78 28.0077 12.855C28.2737 12.929 28.5317 13.042 28.7837 13.194C29.0347 13.345 29.2747 13.532 29.5027 13.754C29.7307 13.976 29.9427 14.23 30.1377 14.514C30.3337 14.799 30.5097 15.109 30.6657 15.446C30.8217 15.782 30.9537 16.137 31.0637 16.512C31.1737 16.886 31.2587 17.273 31.3187 17.672C31.3787 18.07 31.4127 18.474 31.4207 18.881C31.4277 19.289 31.4087 19.693 31.3637 20.093C31.3187 20.494 31.2487 20.884 31.1527 21.262C31.0567 21.641 30.9367 22.001 30.7937 22.342C30.6507 22.684 30.4867 23.001 30.3017 23.292C30.1167 23.584 29.9147 23.845 29.6947 24.076C29.4757 24.306 29.2427 24.502 28.9967 24.663C28.7517 24.823 28.4977 24.946 28.2347 25.03C27.9727 25.114 27.7067 25.159 27.4377 25.164Z" fill="white"/>
</g>
</g>
</g>
<g id="Mask group_33">
<mask id="mask33_105_6516" style="mask-type:luminance" maskUnits="userSpaceOnUse" x="-464" y="-63" width="1073" height="354">
<g id="Group_33">
<g id="Mask group_34">
<mask id="mask34_105_6516" style="mask-type:luminance" maskUnits="userSpaceOnUse" x="-464" y="-63" width="1073" height="354">
<g id="Group_34">
<g id="Mask group_35">
<mask id="mask35_105_6516" style="mask-type:luminance" maskUnits="userSpaceOnUse" x="-674" y="-63" width="1340" height="354">
<g id="Group_35">
<g id="Mask group_36">
<mask id="mask36_105_6516" style="mask-type:luminance" maskUnits="userSpaceOnUse" x="-674" y="-520" width="1441" height="811">
<g id="Group_36">
<path id="path180" fill-rule="evenodd" clip-rule="evenodd" d="M-673.61 -519.587H766.39V290.413H-673.61V-519.587Z" fill="white"/>
</g>
</mask>
<g mask="url(#mask36_105_6516)">
<g id="g181">
<path id="path181" d="M665.239 509.863L-190.258 1397.79L-784.372 825.383L71.1224 -62.5488L665.239 509.863Z" fill="white"/>
</g>
</g>
</g>
</g>
</mask>
<g mask="url(#mask35_105_6516)">
<g id="g182">
<path id="path182" d="M608.53 455.223L73.5817 1010.45L-463.821 492.673L71.1227 -62.5488L608.53 455.223Z" fill="white"/>
</g>
</g>
</g>
</g>
</mask>
<g mask="url(#mask34_105_6516)">
<g id="g183">
<path id="path183" d="M665.23 509.853L-190.265 1397.78L-784.379 825.373L71.1146 -62.5557L665.23 509.853Z" fill="white"/>
</g>
</g>
</g>
</g>
</mask>
<g mask="url(#mask33_105_6516)">
<g id="g184">
<path id="path184" d="M25.4746 11.3911C25.2686 11.4851 25.0426 11.5161 24.7976 11.4831C24.5526 11.4501 24.3066 11.3571 24.0596 11.2021C23.8136 11.0481 23.5846 10.8441 23.3736 10.5921C23.1626 10.3391 22.9866 10.056 22.8436 9.74404C22.7016 9.43104 22.6036 9.11205 22.5506 8.78805C22.4986 8.46305 22.4946 8.15704 22.5396 7.86904C22.5846 7.58104 22.6756 7.33408 22.8116 7.12808C22.9476 6.92108 23.1186 6.77103 23.3246 6.67703C23.5316 6.58303 23.7566 6.55205 24.0026 6.58505C24.2476 6.61705 24.4936 6.71108 24.7396 6.86508C24.9866 7.02008 25.2156 7.22304 25.4256 7.47604C25.6366 7.72904 25.8136 8.01206 25.9556 8.32406C26.0986 8.63706 26.1956 8.95606 26.2486 9.28006C26.3016 9.60506 26.3056 9.91106 26.2606 10.1991C26.2156 10.4861 26.1246 10.733 25.9886 10.94C25.8526 11.147 25.6816 11.2971 25.4746 11.3911Z" fill="white"/>
</g>
</g>
</g>
</g>
</g>
</g>
</g>
</g>
<defs>
<clipPath id="clip0_105_6516">
<rect width="131.568" height="128.503" fill="white" transform="translate(0.104248 0.592285)"/>
</clipPath>
</defs>
</svg>
