<svg width="30" height="30" viewBox="0 0 30 30" fill="none" xmlns="http://www.w3.org/2000/svg">
<g id="bolhinhapp" clip-path="url(#clip0_105_6511)">
<g id="Clip path group">
<mask id="mask0_105_6511" style="mask-type:luminance" maskUnits="userSpaceOnUse" x="-740" y="-521" width="1441" height="818">
<g id="clip0_103_8241">
<path id="rect532" d="M700.536 -520.726H-739.464V296.774H700.536V-520.726Z" fill="white"/>
</g>
</mask>
<g mask="url(#mask0_105_6511)">
<g id="g528">
<g id="g535">
<g id="Mask group">
<mask id="mask1_105_6511" style="mask-type:luminance" maskUnits="userSpaceOnUse" x="-530" y="-64" width="1073" height="354">
<g id="Group">
<g id="Mask group_2">
<mask id="mask2_105_6511" style="mask-type:luminance" maskUnits="userSpaceOnUse" x="-530" y="-64" width="1073" height="354">
<g id="Group_2">
<g id="Mask group_3">
<mask id="mask3_105_6511" style="mask-type:luminance" maskUnits="userSpaceOnUse" x="-740" y="-64" width="1340" height="354">
<g id="Group_3">
<g id="Mask group_4">
<mask id="mask4_105_6511" style="mask-type:luminance" maskUnits="userSpaceOnUse" x="-740" y="-521" width="1441" height="811">
<g id="Group_4">
<path id="path137" fill-rule="evenodd" clip-rule="evenodd" d="M-739.464 -520.726H700.536V289.274H-739.464V-520.726Z" fill="white"/>
</g>
</mask>
<g mask="url(#mask4_105_6511)">
<g id="g138">
<path id="path138" d="M599.385 508.724L-256.112 1396.65L-850.226 824.245L5.26837 -63.6875L599.385 508.724Z" fill="white"/>
</g>
</g>
</g>
</g>
</mask>
<g mask="url(#mask3_105_6511)">
<g id="g139">
<path id="path139" d="M542.676 454.084L7.72772 1009.31L-529.675 491.535L5.26868 -63.6875L542.676 454.084Z" fill="white"/>
</g>
</g>
</g>
</g>
</mask>
<g mask="url(#mask2_105_6511)">
<g id="g140">
<path id="path140" d="M599.376 508.715L-256.119 1396.64L-850.233 824.235L5.26056 -63.6943L599.376 508.715Z" fill="white"/>
</g>
</g>
</g>
</g>
</mask>
<g mask="url(#mask1_105_6511)">
<g id="g142">
<path id="path141" d="M4.17455 4.77819C4.85255 4.07519 5.59155 3.44514 6.39355 2.88714C7.19455 2.32914 8.04256 1.85514 8.93756 1.46514C9.83256 1.07414 10.7576 0.775156 11.7116 0.566156C12.6656 0.358156 13.6306 0.24519 14.6066 0.22619C15.5836 0.20819 16.5516 0.285185 17.5126 0.458185C18.4736 0.630185 19.4086 0.895191 20.3176 1.25219C21.2266 1.60919 22.0926 2.05118 22.9146 2.57818C23.7366 3.10518 24.4986 3.70819 25.2026 4.38519C25.9056 5.06219 26.5356 5.80218 27.0936 6.60418C27.6506 7.40518 28.1246 8.25416 28.5156 9.14916C28.9056 10.0442 29.2046 10.9682 29.4136 11.9222C29.6216 12.8762 29.7346 13.8412 29.7536 14.8182C29.7716 15.7942 29.6936 16.7632 29.5216 17.7242C29.3486 18.6852 29.0836 19.6202 28.7276 20.5292C28.3706 21.4382 27.9286 22.3032 27.4006 23.1252C26.8736 23.9472 26.2716 24.7092 25.5936 25.4122C24.9156 26.1152 24.1766 26.7462 23.3746 27.3032C22.5726 27.8612 21.7246 28.3352 20.8296 28.7252C19.9346 29.1152 19.0096 29.4142 18.0556 29.6232C17.1016 29.8312 16.1366 29.9442 15.1606 29.9622C14.1846 29.9802 13.2156 29.9032 12.2546 29.7302C11.2936 29.5572 10.3586 29.2922 9.44958 28.9352C8.54058 28.5782 7.67557 28.1362 6.85357 27.6092C6.03157 27.0812 5.26958 26.4791 4.56658 25.8011C3.86358 25.1231 3.23461 24.3831 2.67761 23.5821C2.12161 22.7801 1.6486 21.9322 1.2586 21.0372C0.8686 20.1422 0.569566 19.2182 0.361566 18.2642C0.153566 17.3112 0.040577 16.3462 0.022577 15.3702C0.00457697 14.3952 0.081595 13.4262 0.253595 12.4662C0.426595 11.5052 0.690564 10.5712 1.04656 9.66216C1.40256 8.75316 1.8446 7.88816 2.3706 7.06616C2.8966 6.24416 3.49855 5.48219 4.17455 4.77819ZM23.7736 23.6622C24.3366 23.0782 24.8366 22.4451 25.2746 21.7621C25.7126 21.0801 26.0806 20.3622 26.3766 19.6072C26.6726 18.8522 26.8926 18.0762 27.0366 17.2782C27.1796 16.4802 27.2445 15.6762 27.2295 14.8652C27.2145 14.0542 27.1206 13.2532 26.9476 12.4612C26.7746 11.6692 26.5266 10.9011 26.2026 10.1581C25.8786 9.41414 25.4846 8.71018 25.0216 8.04418C24.5586 7.37818 24.0356 6.76414 23.4516 6.20214C22.8686 5.63914 22.2346 5.13917 21.5526 4.70117C20.8706 4.26317 20.1516 3.89618 19.3966 3.59918C18.6426 3.30318 17.8656 3.08314 17.0676 2.93914C16.2696 2.79614 15.4656 2.73219 14.6546 2.74719C13.8446 2.76219 13.0426 2.85619 12.2506 3.02819C11.4586 3.20119 10.6906 3.45016 9.94757 3.77416C9.20457 4.09816 8.49959 4.49116 7.83459 4.95416C7.16859 5.41716 6.55457 5.94116 5.99157 6.52416C5.42957 7.10816 4.92857 7.74119 4.49157 8.42419C4.05357 9.10619 3.68658 9.82516 3.38958 10.5792C3.09358 11.3342 2.87358 12.1101 2.73058 12.9081C2.58658 13.7071 2.52259 14.5112 2.53759 15.3212C2.55259 16.1322 2.64657 16.9342 2.81957 17.7262C2.99257 18.5182 3.24161 19.2862 3.56561 20.0292C3.88961 20.7722 4.28358 21.4761 4.74658 22.1421C5.20958 22.8081 5.73258 23.4222 6.31658 23.9842C6.90058 24.5462 7.53361 25.0461 8.21661 25.4831C8.89861 25.9201 9.61758 26.2861 10.3716 26.5821C11.1266 26.8781 11.9026 27.0971 12.7006 27.2411C13.4976 27.3841 14.3016 27.4482 15.1116 27.4332C15.9226 27.4182 16.7236 27.3242 17.5156 27.1522C18.3066 26.9792 19.0746 26.7312 19.8176 26.4072C20.5606 26.0842 21.2646 25.6912 21.9306 25.2292C22.5966 24.7672 23.2106 24.2442 23.7736 23.6622Z" fill="white"/>
<path id="path142" d="M5.64557 24.68C5.01657 24.074 4.45261 23.412 3.95361 22.694C3.45461 21.977 3.0296 21.217 2.6806 20.416C2.3306 19.615 2.06359 18.787 1.87659 17.933C1.69059 17.079 1.58857 16.216 1.57257 15.342C1.55657 14.468 1.6256 13.601 1.7796 12.74C1.9346 11.88 2.1716 11.043 2.4906 10.23C2.8106 9.41598 3.20561 8.64101 3.67761 7.90601C4.14961 7.17001 4.68859 6.48797 5.29559 5.85797C5.90159 5.22897 6.56355 4.66502 7.28155 4.16602C7.99955 3.66702 8.75857 3.242 9.55957 2.893C10.3606 2.544 11.1886 2.27599 12.0426 2.08899C12.8956 1.90299 13.7596 1.80097 14.6336 1.78497C15.5076 1.76897 16.3746 1.83798 17.2356 1.99298C18.0956 2.14698 18.9326 2.384 19.7456 2.703C20.5596 3.023 21.3346 3.41899 22.0696 3.89099C22.8056 4.36299 23.4876 4.902 24.1176 5.508C24.7466 6.115 25.3116 6.77696 25.8106 7.49396C26.3096 8.21196 26.7336 8.97101 27.0826 9.77301C27.4326 10.574 27.7006 11.401 27.8866 12.255C28.0736 13.109 28.1746 13.973 28.1906 14.847C28.2066 15.721 28.1376 16.588 27.9836 17.448C27.8286 18.308 27.5916 19.145 27.2726 19.959C26.9536 20.772 26.5576 21.547 26.0856 22.283C25.6136 23.018 25.0746 23.701 24.4676 24.33C23.8616 24.96 23.1996 25.524 22.4816 26.023C21.7646 26.522 21.0046 26.946 20.2036 27.296C19.4026 27.645 18.5756 27.913 17.7216 28.099C16.8676 28.286 16.0036 28.387 15.1296 28.403C14.2556 28.42 13.3886 28.35 12.5286 28.196C11.6676 28.041 10.8306 27.804 10.0176 27.485C9.20358 27.166 8.4296 26.77 7.6936 26.298C6.9576 25.826 6.27557 25.287 5.64557 24.68Z" fill="white" fill-opacity="0.2"/>
</g>
</g>
</g>
<g id="Mask group_5">
<mask id="mask5_105_6511" style="mask-type:luminance" maskUnits="userSpaceOnUse" x="-530" y="-64" width="1073" height="354">
<g id="Group_5">
<g id="Mask group_6">
<mask id="mask6_105_6511" style="mask-type:luminance" maskUnits="userSpaceOnUse" x="-530" y="-64" width="1073" height="354">
<g id="Group_6">
<g id="Mask group_7">
<mask id="mask7_105_6511" style="mask-type:luminance" maskUnits="userSpaceOnUse" x="-740" y="-64" width="1340" height="354">
<g id="Group_7">
<g id="Mask group_8">
<mask id="mask8_105_6511" style="mask-type:luminance" maskUnits="userSpaceOnUse" x="-740" y="-521" width="1441" height="811">
<g id="Group_8">
<path id="path143" fill-rule="evenodd" clip-rule="evenodd" d="M-739.464 -520.726H700.536V289.274H-739.464V-520.726Z" fill="white"/>
</g>
</mask>
<g mask="url(#mask8_105_6511)">
<g id="g144">
<path id="path144" d="M599.385 508.724L-256.112 1396.65L-850.226 824.245L5.26837 -63.6875L599.385 508.724Z" fill="white"/>
</g>
</g>
</g>
</g>
</mask>
<g mask="url(#mask7_105_6511)">
<g id="g145">
<path id="path145" d="M542.676 454.084L7.72772 1009.31L-529.675 491.535L5.26868 -63.6875L542.676 454.084Z" fill="white"/>
</g>
</g>
</g>
</g>
</mask>
<g mask="url(#mask6_105_6511)">
<g id="g146">
<path id="path146" d="M599.376 508.715L-256.119 1396.64L-850.233 824.235L5.26056 -63.6943L599.376 508.715Z" fill="white"/>
</g>
</g>
</g>
</g>
</mask>
<g mask="url(#mask5_105_6511)">
<g id="g147">
<path id="path147" d="M21.3696 19.4485C21.1626 19.4525 20.9567 19.4255 20.7517 19.3685C20.5477 19.3105 20.3487 19.2235 20.1547 19.1075C19.9607 18.9905 19.7757 18.8465 19.6007 18.6755C19.4247 18.5045 19.2617 18.3085 19.1107 18.0895C18.9597 17.8705 18.8247 17.6315 18.7047 17.3725C18.5847 17.1135 18.4817 16.8395 18.3977 16.5515C18.3127 16.2625 18.2466 15.9645 18.2006 15.6575C18.1546 15.3505 18.1286 15.0395 18.1226 14.7255C18.1166 14.4115 18.1316 14.1006 18.1666 13.7916C18.2006 13.4826 18.2557 13.1825 18.3297 12.8915C18.4027 12.5995 18.4957 12.3225 18.6057 12.0585C18.7157 11.7955 18.8426 11.5515 18.9846 11.3275C19.1276 11.1025 19.2836 10.9015 19.4526 10.7235C19.6216 10.5455 19.8006 10.3955 19.9896 10.2715C20.1796 10.1475 20.3746 10.0535 20.5776 9.98851C20.7796 9.92351 20.9847 9.88851 21.1917 9.88451C21.3987 9.88151 21.6046 9.9075 21.8096 9.9655C22.0136 10.0225 22.2126 10.1096 22.4066 10.2266C22.6006 10.3436 22.7846 10.4875 22.9606 10.6585C23.1366 10.8295 23.2996 11.0245 23.4506 11.2445C23.6006 11.4635 23.7366 11.7025 23.8566 11.9615C23.9766 12.2205 24.0786 12.4945 24.1636 12.7825C24.2486 13.0715 24.3136 13.3695 24.3596 13.6765C24.4066 13.9835 24.4326 14.2945 24.4376 14.6085C24.4436 14.9225 24.4297 15.2335 24.3947 15.5425C24.3597 15.8505 24.3056 16.1516 24.2316 16.4426C24.1576 16.7346 24.0656 17.0115 23.9556 17.2745C23.8446 17.5375 23.7187 17.7815 23.5767 18.0065C23.4337 18.2315 23.2776 18.4325 23.1086 18.6105C22.9396 18.7875 22.7607 18.9385 22.5717 19.0625C22.3817 19.1855 22.1856 19.2805 21.9836 19.3455C21.7816 19.4105 21.5766 19.4445 21.3696 19.4485Z" fill="white"/>
</g>
</g>
</g>
<g id="Mask group_9">
<mask id="mask9_105_6511" style="mask-type:luminance" maskUnits="userSpaceOnUse" x="-530" y="-64" width="1073" height="354">
<g id="Group_9">
<g id="Mask group_10">
<mask id="mask10_105_6511" style="mask-type:luminance" maskUnits="userSpaceOnUse" x="-530" y="-64" width="1073" height="354">
<g id="Group_10">
<g id="Mask group_11">
<mask id="mask11_105_6511" style="mask-type:luminance" maskUnits="userSpaceOnUse" x="-740" y="-64" width="1340" height="354">
<g id="Group_11">
<g id="Mask group_12">
<mask id="mask12_105_6511" style="mask-type:luminance" maskUnits="userSpaceOnUse" x="-740" y="-521" width="1441" height="811">
<g id="Group_12">
<path id="path148" fill-rule="evenodd" clip-rule="evenodd" d="M-739.464 -520.726H700.536V289.274H-739.464V-520.726Z" fill="white"/>
</g>
</mask>
<g mask="url(#mask12_105_6511)">
<g id="g149">
<path id="path149" d="M599.385 508.724L-256.112 1396.65L-850.226 824.245L5.26837 -63.6875L599.385 508.724Z" fill="white"/>
</g>
</g>
</g>
</g>
</mask>
<g mask="url(#mask11_105_6511)">
<g id="g150">
<path id="path150" d="M542.676 454.084L7.72772 1009.31L-529.675 491.535L5.26868 -63.6875L542.676 454.084Z" fill="white"/>
</g>
</g>
</g>
</g>
</mask>
<g mask="url(#mask10_105_6511)">
<g id="g151">
<path id="path151" d="M599.376 508.715L-256.119 1396.64L-850.233 824.235L5.26056 -63.6943L599.376 508.715Z" fill="white"/>
</g>
</g>
</g>
</g>
</mask>
<g mask="url(#mask9_105_6511)">
<g id="g152">
<path id="path152" d="M19.8556 8.83757C19.6966 8.90957 19.5226 8.93355 19.3336 8.90855C19.1446 8.88355 18.9546 8.81161 18.7646 8.69261C18.5746 8.57361 18.3976 8.41658 18.2356 8.22258C18.0736 8.02758 17.9376 7.80956 17.8276 7.56956C17.7176 7.32856 17.6426 7.08256 17.6016 6.83256C17.5616 6.58256 17.5586 6.34659 17.5936 6.12559C17.6286 5.90359 17.6986 5.71357 17.8036 5.55357C17.9086 5.39457 18.0406 5.27858 18.1996 5.20658C18.3586 5.13358 18.5326 5.10956 18.7216 5.13456C18.9106 5.15956 19.1006 5.23157 19.2906 5.35057C19.4806 5.46957 19.6576 5.62657 19.8196 5.82157C19.9816 6.01557 20.1176 6.23359 20.2276 6.47459C20.3376 6.71459 20.4127 6.96055 20.4537 7.21055C20.4937 7.46055 20.4967 7.69656 20.4617 7.91856C20.4267 8.13956 20.3566 8.3306 20.2516 8.4896C20.1466 8.6486 20.0146 8.76457 19.8556 8.83757Z" fill="white"/>
</g>
</g>
</g>
</g>
</g>
</g>
</g>
</g>
<defs>
<clipPath id="clip0_105_6511">
<rect width="29.7361" height="29.7411" fill="white" transform="translate(0.0202637 0.223633)"/>
</clipPath>
</defs>
</svg>
