<svg width="90" height="90" viewBox="0 0 90 90" fill="none" xmlns="http://www.w3.org/2000/svg">
<g id="BOLHA" clip-path="url(#clip0_105_6514)">
<g id="Clip path group">
<mask id="mask0_105_6514" style="mask-type:luminance" maskUnits="userSpaceOnUse" x="-361" y="-536" width="1441" height="819">
<g id="clip0_103_12016">
<path id="rect387" d="M1079.86 -535.42H-360.138V282.08H1079.86V-535.42Z" fill="white"/>
</g>
</mask>
<g mask="url(#mask0_105_6514)">
<g id="g386">
<g id="g387">
<g id="Mask group">
<mask id="mask1_105_6514" style="mask-type:luminance" maskUnits="userSpaceOnUse" x="-361" y="-220" width="456" height="495">
<g id="Group">
<g id="Mask group_2">
<mask id="mask2_105_6514" style="mask-type:luminance" maskUnits="userSpaceOnUse" x="-361" y="-536" width="1441" height="811">
<g id="Group_2">
<path id="path243" fill-rule="evenodd" clip-rule="evenodd" d="M-360.138 -535.42H1079.86V274.58H-360.138V-535.42Z" fill="white"/>
</g>
</mask>
<g mask="url(#mask2_105_6514)">
<g id="g244">
<path id="path244" fill-rule="evenodd" clip-rule="evenodd" d="M-360.378 -219.062H94.7153V274.819H-360.378V-219.062Z" fill="white"/>
</g>
</g>
</g>
</g>
</mask>
<g mask="url(#mask1_105_6514)">
<g id="g246">
<path id="path245" d="M44.9294 89.1205C44.0354 89.1215 43.1424 89.0955 42.2494 89.0425C41.3574 88.9895 40.4674 88.9095 39.5794 88.8035C38.6924 88.6965 37.8084 88.5635 36.9284 88.4035C36.0494 88.2445 35.1754 88.0585 34.3074 87.8455C33.4384 87.6335 32.5774 87.3955 31.7234 87.1315C30.8694 86.8665 30.0244 86.5775 29.1874 86.2625C28.3504 85.9475 27.5244 85.6075 26.7084 85.2425C25.8924 84.8775 25.0874 84.4885 24.2954 84.0755C23.5024 83.6625 22.7224 83.2255 21.9564 82.7655C21.1894 82.3055 20.4374 81.8225 19.7004 81.3175C18.9634 80.8125 18.2414 80.2845 17.5354 79.7365C16.8304 79.1875 16.1414 78.6175 15.4704 78.0275C14.7984 77.4375 14.1454 76.8275 13.5114 76.1975C12.8764 75.5685 12.2614 74.9205 11.6654 74.2535C11.0694 73.5875 10.4944 72.9035 9.94037 72.2015C9.38537 71.5005 8.85237 70.7835 8.34137 70.0505C7.82937 69.3165 7.34136 68.5685 6.87436 67.8065C6.40836 67.0435 5.96538 66.2675 5.54538 65.4785C5.12638 64.6885 4.73038 63.8875 4.35938 63.0745C3.98738 62.2615 3.64137 61.4375 3.31937 60.6035C2.99737 59.7695 2.70036 58.9265 2.42936 58.0745C2.15836 57.2225 1.91337 56.3635 1.69437 55.4965C1.47437 54.6295 1.28138 53.7575 1.11438 52.8795C0.947384 52.0005 0.807363 51.1185 0.693363 50.2315C0.579363 49.3455 0.492377 48.4555 0.432377 47.5635C0.372377 46.6715 0.338371 45.7785 0.332371 44.8845C0.325371 43.9905 0.346376 43.0975 0.393376 42.2045C0.440376 41.3115 0.51436 40.4215 0.61536 39.5335C0.71636 38.6445 0.844356 37.7605 0.998356 36.8795C1.15236 35.9995 1.33237 35.1245 1.53937 34.2545C1.74637 33.3845 1.97837 32.5215 2.23737 31.6655C2.49637 30.8105 2.78037 29.9635 3.09037 29.1245C3.39937 28.2855 3.73436 27.4575 4.09336 26.6385C4.45336 25.8205 4.83737 25.0135 5.24537 24.2175C5.65337 23.4225 6.08538 22.6405 6.54038 21.8705C6.99538 21.1015 7.47337 20.3465 7.97437 19.6055C8.47437 18.8645 8.99736 18.1395 9.54136 17.4305C10.0854 16.7215 10.6504 16.0295 11.2364 15.3545C11.8224 14.6785 12.4284 14.0215 13.0534 13.3835C13.6794 12.7445 14.3234 12.1255 14.9864 11.5255C15.6484 10.9255 16.3294 10.3455 17.0264 9.78648C17.7244 9.22748 18.4384 8.69048 19.1684 8.17448C19.8984 7.65848 20.6424 7.16452 21.4024 6.69352C22.1624 6.22152 22.9354 5.77453 23.7224 5.34953C24.5084 4.92453 25.3074 4.5235 26.1184 4.1475C26.9284 3.7705 27.7504 3.41853 28.5824 3.09153C29.4144 2.76453 30.2554 2.46251 31.1054 2.18651C31.9554 1.90951 32.8134 1.65851 33.6784 1.43351C34.5434 1.20851 35.4144 1.01051 36.2914 0.837506C37.1684 0.665506 38.0504 0.519518 38.9364 0.399518C39.8224 0.280518 40.7114 0.187503 41.6024 0.121503C42.4944 0.0555029 43.3864 0.0164985 44.2804 0.00449852C45.1744 -0.00750148 46.0674 0.00750486 46.9604 0.0485049C47.8534 0.0905049 48.7444 0.158522 49.6334 0.253522C50.5224 0.348522 51.4074 0.470489 52.2894 0.619489C53.1704 0.767489 54.0474 0.942537 54.9184 1.14354C55.7894 1.34554 56.6534 1.57248 57.5104 1.82548C58.3684 2.07848 59.2174 2.35748 60.0574 2.66148C60.8984 2.96648 61.7284 3.29552 62.5494 3.64952C63.3704 4.00452 64.1794 4.3825 64.9774 4.7855C65.7754 5.1885 66.5604 5.61553 67.3324 6.06553C68.1054 6.51653 68.8634 6.98952 69.6064 7.48552C70.3504 7.98152 71.0784 8.4995 71.7914 9.0385C72.5044 9.5785 73.1994 10.1395 73.8784 10.7205C74.5574 11.3025 75.2184 11.9045 75.8614 12.5255C76.5034 13.1465 77.1274 13.7875 77.7314 14.4465C78.3354 15.1055 78.9194 15.7815 79.4824 16.4755C80.0464 17.1695 80.5884 17.8805 81.1084 18.6065C81.6294 19.3335 82.1274 20.0755 82.6034 20.8315C83.0804 21.5885 83.5324 22.3585 83.9624 23.1425C84.3924 23.9265 84.7984 24.7235 85.1794 25.5315C85.5614 26.3395 85.9184 27.1585 86.2504 27.9885C86.5834 28.8185 86.8904 29.6575 87.1724 30.5065C87.4544 31.3545 87.7104 32.2105 87.9414 33.0745C88.1714 33.9385 88.3754 34.8085 88.5534 35.6845C88.7314 36.5605 88.8834 37.4405 89.0084 38.3265C89.1334 39.2115 89.2324 40.0995 89.3034 40.9905C89.3754 41.8815 89.4194 42.7745 89.4374 43.6675C89.4554 44.5615 89.4464 45.4555 89.4104 46.3485C89.3744 47.2415 89.3124 48.1335 89.2224 49.0225C89.1334 49.9125 89.0174 50.7985 88.8744 51.6805C88.7314 52.5635 88.5624 53.4405 88.3664 54.3135C88.1704 55.1855 87.9494 56.0515 87.7014 56.9105C87.4534 57.7685 87.1804 58.6195 86.8814 59.4625C86.5824 60.3045 86.2584 61.1375 85.9094 61.9605C85.5604 62.7835 85.1864 63.5955 84.7884 64.3955C84.3904 65.1965 83.9694 65.9845 83.5234 66.7595C83.0784 67.5345 82.6104 68.2955 82.1194 69.0425C81.6284 69.7895 81.1144 70.5215 80.5794 71.2375C80.0444 71.9535 79.4884 72.6525 78.9114 73.3355C78.3334 74.0175 77.7364 74.6825 77.1194 75.3295C76.5014 75.9755 75.8654 76.6035 75.2104 77.2115C74.5554 77.8205 73.8824 78.4085 73.1924 78.9765C72.5024 79.5435 71.7954 80.0905 71.0714 80.6155C70.3484 81.1415 69.6104 81.6445 68.8564 82.1255C68.1024 82.6065 67.3354 83.0635 66.5544 83.4985C63.2494 85.3435 59.7654 86.7425 56.1014 87.6945C52.4384 88.6475 48.7144 89.1225 44.9294 89.1205ZM44.7914 2.03648C43.9024 2.03648 43.0144 2.06351 42.1274 2.11851C41.2394 2.17351 40.3544 2.2565 39.4724 2.3665C38.5904 2.4775 37.7124 2.6155 36.8384 2.7805C35.9654 2.9455 35.0974 3.1385 34.2364 3.3585C33.3744 3.5775 32.5204 3.82452 31.6744 4.09752C30.8284 4.37052 29.9914 4.66949 29.1644 4.99449C28.3364 5.32049 27.5204 5.67153 26.7154 6.04753C25.9094 6.42453 25.1164 6.82548 24.3364 7.25248C23.5554 7.67848 22.7894 8.12852 22.0374 8.60252C21.2854 9.07652 20.5484 9.57353 19.8274 10.0945C19.1064 10.6145 18.4024 11.1565 17.7154 11.7205C17.0284 12.2855 16.3594 12.8705 15.7094 13.4765C15.0584 14.0825 14.4274 14.7085 13.8164 15.3545C13.2054 15.9995 12.6144 16.6635 12.0444 17.3465C11.4744 18.0285 10.9274 18.7285 10.4014 19.4455C9.87537 20.1625 9.37236 20.8955 8.89136 21.6435C8.41136 22.3915 7.95538 23.1545 7.52338 23.9315C7.09038 24.7085 6.68238 25.4975 6.29938 26.3005C5.91638 27.1025 5.55936 27.9165 5.22736 28.7415C4.89536 29.5655 4.58936 30.4005 4.30936 31.2445C4.02936 32.0885 3.77638 32.9405 3.54938 33.7995C3.32238 34.6595 3.12338 35.5255 2.95038 36.3985C2.77838 37.2705 2.63336 38.1475 2.51636 39.0285C2.39836 39.9095 2.30837 40.7945 2.24637 41.6805C2.18437 42.5675 2.14938 43.4565 2.14338 44.3455C2.13638 45.2345 2.15736 46.1225 2.20636 47.0105C2.25536 47.8985 2.33237 48.7835 2.43637 49.6665C2.54137 50.5495 2.67337 51.4285 2.83237 52.3035C2.99137 53.1785 3.17837 54.0475 3.39237 54.9105C3.60537 55.7735 3.84638 56.6285 4.11338 57.4765C4.38138 58.3245 4.67436 59.1635 4.99436 59.9935C5.31436 60.8235 5.65937 61.6415 6.03037 62.4495C6.40137 63.2575 6.79736 64.0535 7.21836 64.8365C7.63936 65.6205 8.08437 66.3895 8.55237 67.1445C9.02137 67.9005 9.51436 68.6405 10.0294 69.3655C10.5444 70.0895 11.0814 70.7975 11.6414 71.4885C12.2014 72.1795 12.7814 72.8525 13.3834 73.5065C13.9844 74.1615 14.6064 74.7965 15.2474 75.4125C15.8894 76.0285 16.5494 76.6235 17.2274 77.1975C17.9064 77.7725 18.6024 78.3245 19.3154 78.8555C20.0284 79.3865 20.7584 79.8945 21.5034 80.3805C22.2484 80.8655 23.0074 81.3265 23.7814 81.7645C24.5554 82.2025 25.3424 82.6155 26.1414 83.0045C26.9414 83.3925 27.7524 83.7555 28.5754 84.0935C29.3974 84.4315 30.2294 84.7425 31.0714 85.0285C31.9134 85.3145 32.7634 85.5735 33.6224 85.8055C34.4804 86.0385 35.3444 86.2435 36.2154 86.4215C37.0874 86.6005 37.9624 86.7515 38.8434 86.8745C39.7234 86.9985 40.6074 87.0945 41.4934 87.1625C42.3804 87.2305 43.2674 87.2715 44.1574 87.2835C45.0464 87.2965 45.9344 87.2815 46.8224 87.2385C47.7104 87.1955 48.5964 87.1255 49.4804 87.0265C50.3634 86.9285 51.2434 86.8025 52.1194 86.6495C52.9954 86.4955 53.8654 86.3155 54.7294 86.1075C55.5944 85.8995 56.4514 85.6645 57.3014 85.4035C58.1504 85.1415 58.9914 84.8535 59.8234 84.5395C60.6554 84.2255 61.4764 83.8855 62.2874 83.5205C63.0974 83.1545 63.8954 82.7645 64.6814 82.3485C65.4674 81.9335 66.2404 81.4935 66.9984 81.0295C67.7574 80.5665 68.5004 80.0795 69.2284 79.5685C69.9564 79.0585 70.6684 78.5255 71.3634 77.9715C72.0574 77.4165 72.7344 76.8405 73.3934 76.2425C74.0524 75.6455 74.6914 75.0285 75.3114 74.3915C75.9314 73.7545 76.5314 73.0985 77.1104 72.4235C77.6894 71.7485 78.2464 71.0565 78.7824 70.3465C79.3184 69.6375 79.8314 68.9115 80.3214 68.1695C80.8114 67.4285 81.2784 66.6715 81.7214 65.9005C82.1644 65.1305 82.5834 64.3465 82.9764 63.5485C83.3704 62.7515 83.7394 61.9435 84.0824 61.1225C84.4264 60.3025 84.7434 59.4725 85.0344 58.6325C85.3264 57.7925 85.5914 56.9445 85.8294 56.0875C86.0674 55.2305 86.2794 54.3675 86.4634 53.4975C86.6474 52.6285 86.8044 51.7535 86.9344 50.8735C87.0634 49.9935 87.1654 49.1115 87.2394 48.2255C87.3144 47.3395 87.3604 46.4515 87.3794 45.5625C87.3984 44.6735 87.3894 43.7845 87.3524 42.8965C87.3154 42.0085 87.2514 41.1215 87.1584 40.2375C87.0664 39.3535 86.9464 38.4725 86.7994 37.5955C86.6514 36.7185 86.4774 35.8475 86.2754 34.9815C86.0734 34.1155 85.8444 33.2565 85.5884 32.4055C85.3334 31.5535 85.0514 30.7105 84.7424 29.8765C84.4344 29.0425 84.1004 28.2195 83.7404 27.4065C83.3804 26.5935 82.9954 25.7925 82.5854 25.0035C82.1754 24.2145 81.7404 23.4395 81.2824 22.6775C80.8234 21.9155 80.3414 21.1685 79.8364 20.4375C79.3314 19.7055 78.8034 18.9905 78.2534 18.2925C77.7034 17.5935 77.1324 16.9125 76.5394 16.2495C75.9464 15.5875 75.3344 14.9435 74.7014 14.3195C74.0684 13.6945 73.4164 13.0905 72.7454 12.5065C72.0744 11.9235 71.3864 11.3605 70.6804 10.8205C69.9744 10.2795 69.2524 9.76152 68.5144 9.26652C67.7764 8.77052 67.0224 8.29951 66.2554 7.85051C65.4874 7.40251 64.7064 6.97851 63.9114 6.57951C63.1174 6.17951 62.3114 5.80552 61.4934 5.45652C60.6754 5.10752 59.8474 4.78453 59.0094 4.48753C58.1724 4.19053 57.3254 3.91952 56.4704 3.67552C52.6534 2.58652 48.7604 2.04048 44.7914 2.03648Z" fill="white"/>
<path id="path246" d="M87.4414 44.5505C87.4414 45.9455 87.3734 47.3365 87.2364 48.7245C87.1004 50.1125 86.8954 51.4915 86.6234 52.8595C86.3514 54.2275 86.0124 55.5785 85.6084 56.9135C85.2034 58.2485 84.7334 59.5594 84.2004 60.8484C83.6664 62.1374 83.0704 63.3964 82.4134 64.6274C81.7554 65.8574 81.0394 67.0525 80.2644 68.2125C79.4894 69.3715 78.6594 70.4905 77.7744 71.5695C76.8904 72.6475 75.9544 73.6794 74.9684 74.6664C73.9814 75.6524 72.9494 76.5875 71.8714 77.4725C70.7934 78.3575 69.6744 79.1875 68.5144 79.9625C67.3544 80.7375 66.1594 81.4535 64.9294 82.1115C63.6994 82.7685 62.4404 83.3644 61.1514 83.8984C59.8624 84.4324 58.5514 84.9015 57.2164 85.3065C55.8814 85.7115 54.5304 86.0494 53.1624 86.3224C51.7944 86.5944 50.4164 86.7985 49.0284 86.9355C47.6404 87.0725 46.2484 87.1404 44.8534 87.1404C43.4594 87.1404 42.0674 87.0725 40.6794 86.9355C39.2914 86.7985 37.9134 86.5944 36.5454 86.3224C35.1774 86.0494 33.8254 85.7115 32.4914 85.3065C31.1564 84.9015 29.8444 84.4324 28.5564 83.8984C27.2674 83.3644 26.0084 82.7685 24.7784 82.1115C23.5474 81.4535 22.3524 80.7375 21.1934 79.9625C20.0334 79.1875 18.9144 78.3575 17.8364 77.4725C16.7584 76.5875 15.7254 75.6524 14.7394 74.6664C13.7534 73.6794 12.8174 72.6475 11.9324 71.5695C11.0484 70.4905 10.2184 69.3715 9.44336 68.2125C8.66836 67.0525 7.95237 65.8574 7.29437 64.6274C6.63737 63.3964 6.04135 62.1374 5.50735 60.8484C4.97335 59.5604 4.50437 58.2485 4.09937 56.9135C3.69437 55.5785 3.35635 54.2275 3.08435 52.8595C2.81235 51.4915 2.60737 50.1125 2.47037 48.7245C2.33437 47.3365 2.26538 45.9455 2.26538 44.5505C2.26538 43.1555 2.33437 41.7635 2.47037 40.3755C2.60737 38.9875 2.81235 37.6095 3.08435 36.2415C3.35635 34.8735 3.69437 33.5215 4.09937 32.1865C4.50437 30.8525 4.97335 29.5405 5.50735 28.2515C6.04135 26.9625 6.63637 25.7034 7.29437 24.4734C7.95137 23.2434 8.66836 22.0485 9.44336 20.8885C10.2184 19.7285 11.0484 18.6095 11.9324 17.5315C12.8174 16.4525 13.7534 15.4204 14.7394 14.4344C15.7254 13.4474 16.7574 12.5124 17.8364 11.6274C18.9144 10.7424 20.0334 9.91245 21.1934 9.13745C22.3524 8.36245 23.5474 7.64646 24.7774 6.98846C26.0084 6.33146 27.2674 5.73548 28.5564 5.20148C29.8444 4.66848 31.1564 4.19846 32.4914 3.79346C33.8254 3.38846 35.1774 3.05044 36.5454 2.77844C37.9134 2.50644 39.2914 2.30149 40.6794 2.16449C42.0674 2.02849 43.4594 1.95947 44.8534 1.95947C46.2484 1.95947 47.6404 2.02849 49.0284 2.16449C50.4164 2.30149 51.7944 2.50644 53.1624 2.77844C54.5304 3.05044 55.8814 3.38846 57.2164 3.79346C58.5514 4.19846 59.8624 4.66848 61.1514 5.20148C62.4404 5.73548 63.6994 6.33146 64.9294 6.98846C66.1594 7.64646 67.3544 8.36245 68.5144 9.13745C69.6744 9.91245 70.7934 10.7424 71.8714 11.6274C72.9494 12.5124 73.9814 13.4474 74.9684 14.4344C75.9544 15.4204 76.8904 16.4525 77.7744 17.5315C78.6594 18.6095 79.4894 19.7285 80.2644 20.8885C81.0394 22.0485 81.7554 23.2434 82.4134 24.4734C83.0704 25.7034 83.6664 26.9625 84.1994 28.2515C84.7334 29.5405 85.2034 30.8525 85.6084 32.1865C86.0124 33.5215 86.3514 34.8735 86.6234 36.2415C86.8954 37.6095 87.1004 38.9875 87.2364 40.3755C87.3734 41.7635 87.4414 43.1555 87.4414 44.5505Z" fill="white" fill-opacity="0.2"/>
</g>
</g>
</g>
<g id="Mask group_3">
<mask id="mask3_105_6514" style="mask-type:luminance" maskUnits="userSpaceOnUse" x="-361" y="-220" width="456" height="495">
<g id="Group_3">
<g id="Mask group_4">
<mask id="mask4_105_6514" style="mask-type:luminance" maskUnits="userSpaceOnUse" x="-361" y="-536" width="1441" height="811">
<g id="Group_4">
<path id="path247" fill-rule="evenodd" clip-rule="evenodd" d="M-360.138 -535.42H1079.86V274.58H-360.138V-535.42Z" fill="white"/>
</g>
</mask>
<g mask="url(#mask4_105_6514)">
<g id="g248">
<path id="path248" fill-rule="evenodd" clip-rule="evenodd" d="M-360.378 -219.062H94.7153V274.819H-360.378V-219.062Z" fill="white"/>
</g>
</g>
</g>
</g>
</mask>
<g mask="url(#mask3_105_6514)">
<g id="g249">
<path id="path249" d="M52.2592 14.8487C53.2252 15.1227 54.1652 15.4577 55.0772 15.8517C55.9892 16.2447 56.8572 16.6907 57.6802 17.1887C58.5032 17.6867 59.2662 18.2277 59.9692 18.8107C60.6712 19.3937 61.3002 20.0077 61.8552 20.6537C62.4102 21.2987 62.8802 21.9637 63.2662 22.6467C63.6522 23.3307 63.9462 24.0197 64.1482 24.7147C64.3502 25.4097 64.4562 26.0967 64.4672 26.7757C64.4782 27.4557 64.3922 28.1147 64.2112 28.7527C64.0292 29.3917 63.7552 29.9967 63.3892 30.5697C63.0222 31.1417 62.5712 31.6707 62.0332 32.1557C61.4962 32.6397 60.8832 33.0717 60.1962 33.4497C59.5082 33.8277 58.7582 34.1457 57.9472 34.4027C57.1362 34.6597 56.2782 34.8517 55.3742 34.9777C54.4692 35.1047 53.5362 35.1627 52.5742 35.1537C51.6122 35.1437 50.6402 35.0667 49.6572 34.9217C48.6742 34.7767 47.6992 34.5677 46.7332 34.2927C45.7672 34.0177 44.8272 33.6837 43.9152 33.2897C43.0032 32.8957 42.1352 32.4497 41.3122 31.9517C40.4892 31.4537 39.7262 30.9137 39.0232 30.3307C38.3212 29.7477 37.6922 29.1337 37.1372 28.4877C36.5822 27.8417 36.1122 27.1777 35.7262 26.4947C35.3402 25.8107 35.0462 25.1217 34.8442 24.4267C34.6422 23.7317 34.5362 23.0447 34.5252 22.3647C34.5152 21.6857 34.6002 21.0267 34.7812 20.3877C34.9632 19.7497 35.2372 19.1437 35.6032 18.5717C35.9702 17.9987 36.4222 17.4707 36.9592 16.9857C37.4962 16.5017 38.1092 16.0697 38.7962 15.6917C39.4842 15.3137 40.2342 14.9957 41.0452 14.7387C41.8572 14.4817 42.7142 14.2897 43.6192 14.1627C44.5232 14.0367 45.4562 13.9787 46.4182 13.9877C47.3802 13.9977 48.3532 14.0747 49.3362 14.2197C50.3192 14.3637 51.2932 14.5737 52.2592 14.8487Z" fill="white"/>
</g>
</g>
</g>
<g id="Mask group_5">
<mask id="mask5_105_6514" style="mask-type:luminance" maskUnits="userSpaceOnUse" x="-361" y="-220" width="456" height="495">
<g id="Group_5">
<g id="Mask group_6">
<mask id="mask6_105_6514" style="mask-type:luminance" maskUnits="userSpaceOnUse" x="-361" y="-536" width="1441" height="811">
<g id="Group_6">
<path id="path250" fill-rule="evenodd" clip-rule="evenodd" d="M-360.138 -535.42H1079.86V274.58H-360.138V-535.42Z" fill="white"/>
</g>
</mask>
<g mask="url(#mask6_105_6514)">
<g id="g251">
<path id="path251" fill-rule="evenodd" clip-rule="evenodd" d="M-360.378 -219.062H94.7153V274.819H-360.378V-219.062Z" fill="white"/>
</g>
</g>
</g>
</g>
</mask>
<g mask="url(#mask5_105_6514)">
<g id="g252">
<path id="path252" d="M30.3244 23.4835C30.3604 23.7575 30.3564 24.0356 30.3104 24.3156C30.2654 24.5956 30.1803 24.8725 30.0553 25.1475C29.9303 25.4215 29.7674 25.6885 29.5664 25.9475C29.3664 26.2065 29.1324 26.4526 28.8644 26.6856C28.5964 26.9186 28.2994 27.1346 27.9744 27.3336C27.6494 27.5316 27.3014 27.7096 26.9314 27.8656C26.5614 28.0216 26.1764 28.1536 25.7764 28.2616C25.3754 28.3686 24.9684 28.4506 24.5524 28.5056C24.1374 28.5616 23.7214 28.5896 23.3074 28.5896C22.8924 28.5906 22.4864 28.5646 22.0884 28.5106C21.6904 28.4566 21.3083 28.3766 20.9433 28.2696C20.5773 28.1636 20.2344 28.0325 19.9154 27.8775C19.5954 27.7225 19.3044 27.5465 19.0434 27.3485C18.7824 27.1515 18.5554 26.9366 18.3624 26.7046C18.1694 26.4716 18.0154 26.2265 17.8984 25.9685C17.7814 25.7095 17.7044 25.4435 17.6684 25.1685C17.6314 24.8945 17.6353 24.6176 17.6803 24.3376C17.7263 24.0576 17.8114 23.7796 17.9364 23.5056C18.0614 23.2306 18.2243 22.9636 18.4253 22.7046C18.6253 22.4456 18.8594 22.1996 19.1274 21.9666C19.3954 21.7336 19.6924 21.5175 20.0174 21.3195C20.3424 21.1205 20.6904 20.9436 21.0604 20.7876C21.4304 20.6306 21.8154 20.4996 22.2154 20.3916C22.6154 20.2836 23.0234 20.2016 23.4394 20.1466C23.8544 20.0916 24.2693 20.0635 24.6843 20.0625C25.0993 20.0615 25.5053 20.0885 25.9033 20.1425C26.3013 20.1965 26.6824 20.2765 27.0484 20.3825C27.4144 20.4895 27.7573 20.6196 28.0763 20.7746C28.3963 20.9296 28.6874 21.1056 28.9484 21.3036C29.2094 21.5006 29.4364 21.7156 29.6294 21.9486C29.8214 22.1806 29.9763 22.4255 30.0933 22.6845C30.2103 22.9425 30.2874 23.2095 30.3244 23.4835Z" fill="white"/>
</g>
</g>
</g>
</g>
</g>
</g>
</g>
</g>
<defs>
<clipPath id="clip0_105_6514">
<rect width="89.1153" height="89.1201" fill="white" transform="translate(0.330811 0.000488281)"/>
</clipPath>
</defs>
</svg>
