<svg width="86" height="85" viewBox="0 0 86 85" fill="none" xmlns="http://www.w3.org/2000/svg">
<g id="bolhao" clip-path="url(#clip0_105_6513)">
<g id="Clip path group">
<mask id="mask0_105_6513" style="mask-type:luminance" maskUnits="userSpaceOnUse" x="-1211" y="-371" width="1441" height="819">
<g id="clip0_103_8241">
<path id="rect532" d="M229.747 -370.375H-1210.25V447.125H229.747V-370.375Z" fill="white"/>
</g>
</mask>
<g mask="url(#mask0_105_6513)">
<g id="g528">
<g id="g534">
<g id="Mask group">
<mask id="mask1_105_6513" style="mask-type:luminance" maskUnits="userSpaceOnUse" x="-211" y="-27" width="441" height="467">
<g id="Group">
<g id="Mask group_2">
<mask id="mask2_105_6513" style="mask-type:luminance" maskUnits="userSpaceOnUse" x="-211" y="-27" width="441" height="467">
<g id="Group_2">
<g id="Mask group_3">
<mask id="mask3_105_6513" style="mask-type:luminance" maskUnits="userSpaceOnUse" x="-225" y="-27" width="455" height="467">
<g id="Group_3">
<g id="Mask group_4">
<mask id="mask4_105_6513" style="mask-type:luminance" maskUnits="userSpaceOnUse" x="-1211" y="-371" width="1441" height="811">
<g id="Group_4">
<path id="path105" fill-rule="evenodd" clip-rule="evenodd" d="M-1210.25 -370.375H229.747V439.625H-1210.25V-370.375Z" fill="white"/>
</g>
</mask>
<g mask="url(#mask4_105_6513)">
<g id="g106">
<path id="path106" d="M-132.703 -26.6709L923.467 110.206L831.897 816.795L-224.274 679.915L-132.703 -26.6709Z" fill="white"/>
</g>
</g>
</g>
</g>
</mask>
<g mask="url(#mask3_105_6513)">
<g id="g107">
<path id="path107" d="M-132.704 -26.6709L283.816 27.3091L206.506 623.82L-210.014 569.841L-132.704 -26.6709Z" fill="white"/>
</g>
</g>
</g>
</g>
</mask>
<g mask="url(#mask2_105_6513)">
<g id="g108">
<path id="path108" d="M-132.703 -26.6709L923.467 110.206L831.897 816.795L-224.274 679.925L-132.703 -26.6709Z" fill="white"/>
</g>
</g>
</g>
</g>
</mask>
<g mask="url(#mask1_105_6513)">
<g id="g110">
<path id="path109" d="M37.4466 84.4503C36.0766 84.2723 34.7066 84.0273 33.3566 83.7153C32.0066 83.4023 30.6766 83.0253 29.3566 82.5823C28.0466 82.1393 26.7566 81.6323 25.4866 81.0623C24.2266 80.4933 22.9966 79.8622 21.7866 79.1712C20.5866 78.4802 19.4267 77.7323 18.2967 76.9273C17.1667 76.1213 16.0766 75.2623 15.0366 74.3503C13.9866 73.4383 12.9966 72.4773 12.0366 71.4673C11.0866 70.4563 10.1966 69.4022 9.34658 68.3042C8.49658 67.2052 7.70658 66.0683 6.97658 64.8923C6.23658 63.7163 5.56656 62.5063 4.94656 61.2643C4.33656 60.0213 3.77664 58.7522 3.28664 57.4552C2.79664 56.1582 2.36661 54.8403 2.00661 53.5023C1.64661 52.1633 1.35661 50.8102 1.12661 49.4422C0.896609 48.0742 0.736618 46.6993 0.636618 45.3153C0.546618 43.9323 0.51655 42.5473 0.56655 41.1613C0.60655 39.7753 0.716628 38.3943 0.896628 37.0193C1.07663 35.6443 1.31661 34.2812 1.62661 32.9292C1.94661 31.5782 2.31662 30.2463 2.76662 28.9323C3.20662 27.6183 3.71664 26.3293 4.28664 25.0643C4.85664 23.8003 5.48666 22.5672 6.17666 21.3652C6.86666 20.1622 7.61665 18.9973 8.41665 17.8683C9.22665 16.7393 10.0866 15.6533 10.9966 14.6083C11.9066 13.5643 12.8666 12.5673 13.8766 11.6173C14.8866 10.6673 15.9467 9.76825 17.0467 8.92225C18.1367 8.07625 19.2766 7.28525 20.4566 6.55125C21.6266 5.81625 22.8366 5.14125 24.0866 4.52525C25.3266 3.90925 26.5966 3.35625 27.8966 2.86525C29.1866 2.37425 30.5066 1.94726 31.8466 1.58626C33.1866 1.22426 34.5366 0.929269 35.9066 0.700269C37.2766 0.472269 38.6466 0.311267 40.0366 0.217267C41.4166 0.124267 42.8065 0.098248 44.1865 0.141248C45.5765 0.183248 46.9566 0.294242 48.3266 0.472242C49.7066 0.650242 51.0666 0.896265 52.4166 1.20826C53.7666 1.52026 55.1066 1.89826 56.4166 2.34126C57.7366 2.78426 59.0266 3.29024 60.2866 3.86024C61.5466 4.43024 62.7866 5.06026 63.9866 5.75126C65.1866 6.44226 66.3566 7.19026 67.4866 7.99626C68.6166 8.80126 69.6966 9.66025 70.7466 10.5722C71.7866 11.4842 72.7866 12.4463 73.7366 13.4563C74.6866 14.4663 75.5867 15.5202 76.4267 16.6192C77.2767 17.7172 78.0667 18.8543 78.8067 20.0313C79.5367 21.2073 80.2166 22.4162 80.8266 23.6582C81.4466 24.9012 81.9966 26.1703 82.4866 27.4673C82.9766 28.7643 83.4066 30.0822 83.7666 31.4212C84.1266 32.7592 84.4266 34.1133 84.6566 35.4803C84.8866 36.8483 85.0466 38.2243 85.1366 39.6073C85.2266 40.9913 85.2566 42.3762 85.2166 43.7622C85.1666 45.1482 85.0566 46.5283 84.8866 47.9033C84.7066 49.2783 84.4566 50.6403 84.1466 51.9913C83.8266 53.3413 83.4466 54.6732 83.0066 55.9862C82.5666 57.2992 82.0566 58.5883 81.4866 59.8513C80.9166 61.1153 80.2866 62.3473 79.5966 63.5493C78.8966 64.7503 78.1566 65.9153 77.3466 67.0433C76.5366 68.1713 75.6766 69.2573 74.7666 70.3013C73.8566 71.3453 72.8966 72.3412 71.8866 73.2912C70.8766 74.2412 69.8166 75.1383 68.7266 75.9843C67.6266 76.8313 66.4866 77.6213 65.3166 78.3553C64.1366 79.0903 62.9265 79.7653 61.6865 80.3813C60.4465 80.9973 59.1766 81.5513 57.8766 82.0423C56.5766 82.5343 55.2667 82.9613 53.9267 83.3233C52.5867 83.6853 51.2366 83.9813 49.8666 84.2113C48.4966 84.4403 47.1266 84.6023 45.7466 84.6973C44.3566 84.7913 42.9766 84.8183 41.5866 84.7773C40.2066 84.7363 38.8266 84.6273 37.4466 84.4503ZM48.0467 2.63325C46.7467 2.46425 45.4366 2.35925 44.1166 2.31825C42.8066 2.27825 41.4967 2.30225 40.1767 2.39125C38.8667 2.47925 37.5666 2.63226 36.2666 2.84926C34.9666 3.06626 33.6866 3.34625 32.4166 3.68925C31.1466 4.03225 29.8966 4.43627 28.6666 4.90227C27.4366 5.36827 26.2267 5.89325 25.0467 6.47725C23.8767 7.06125 22.7266 7.70127 21.6066 8.39827C20.4966 9.09527 19.4166 9.84527 18.3766 10.6483C17.3266 11.4513 16.3266 12.3033 15.3766 13.2043C14.4166 14.1053 13.5066 15.0512 12.6366 16.0412C11.7666 17.0322 10.9566 18.0633 10.1966 19.1333C9.42656 20.2043 8.71655 21.3103 8.06655 22.4503C7.40655 23.5913 6.80662 24.7602 6.26662 25.9602C5.72662 27.1592 5.24656 28.3822 4.82656 29.6282C4.40656 30.8742 4.04661 32.1383 3.75661 33.4203C3.45661 34.7013 3.22666 35.9943 3.05666 37.2993C2.88666 38.6033 2.78659 39.9133 2.73659 41.2283C2.69659 42.5423 2.72655 43.8563 2.81655 45.1683C2.90655 46.4813 3.05663 47.7853 3.27663 49.0833C3.48663 50.3803 3.7666 51.6642 4.1166 52.9342C4.4566 54.2032 4.85656 55.4533 5.32656 56.6833C5.79656 57.9143 6.31663 59.1182 6.89663 60.2962C7.48663 61.4752 8.12656 62.6223 8.82656 63.7383C9.51656 64.8533 10.2666 65.9323 11.0766 66.9743C11.8766 68.0163 12.7266 69.0163 13.6266 69.9743C14.5266 70.9323 15.4766 71.8443 16.4666 72.7093C17.4566 73.5753 18.4867 74.3893 19.5567 75.1533C20.6267 75.9173 21.7366 76.6273 22.8766 77.2823C24.0166 77.9383 25.1866 78.5362 26.3866 79.0762C27.5866 79.6172 28.8067 80.0973 30.0567 80.5173C31.3067 80.9383 32.5666 81.2963 33.8466 81.5923C35.1266 81.8883 36.4266 82.1213 37.7266 82.2903C39.0266 82.4593 40.3366 82.5643 41.6566 82.6043C42.9666 82.6443 44.2866 82.6203 45.5966 82.5323C46.9066 82.4433 48.2166 82.2903 49.5166 82.0733C50.8066 81.8563 52.0966 81.5763 53.3666 81.2333C54.6366 80.8903 55.8866 80.4862 57.1166 80.0202C58.3466 79.5542 59.5466 79.0303 60.7266 78.4453C61.9066 77.8613 63.0566 77.2212 64.1666 76.5242C65.2866 75.8272 66.3666 75.0772 67.4066 74.2742C68.4466 73.4722 69.4466 72.6203 70.4066 71.7193C71.3666 70.8183 72.2766 69.8723 73.1366 68.8813C74.0066 67.8903 74.8166 66.8603 75.5866 65.7893C76.3466 64.7183 77.0566 63.6132 77.7166 62.4722C78.3666 61.3322 78.9666 60.1623 79.5066 58.9633C80.0466 57.7643 80.5266 56.5413 80.9466 55.2943C81.3666 54.0483 81.7266 52.7843 82.0266 51.5023C82.3166 50.2213 82.5566 48.9282 82.7266 47.6232C82.8866 46.3192 82.9966 45.0103 83.0366 43.6963C83.0666 42.3813 83.0466 41.0683 82.9566 39.7563C82.8666 38.4443 82.7166 37.1402 82.4966 35.8432C82.2766 34.5462 81.9966 33.2632 81.6566 31.9942C81.3066 30.7252 80.9065 29.4753 80.4365 28.2463C79.9665 27.0163 79.4466 25.8123 78.8666 24.6343C78.2766 23.4563 77.6365 22.3103 76.9365 21.1953C76.2465 20.0793 75.4965 19.0013 74.6865 17.9593C73.8865 16.9183 73.0366 15.9182 72.1366 14.9602C71.2366 14.0022 70.2867 13.0903 69.2967 12.2253C68.3067 11.3603 67.2766 10.5453 66.2066 9.78126C65.1366 9.01626 64.0366 8.30626 62.8966 7.65126C61.7566 6.99526 60.5866 6.39627 59.3866 5.85527C58.1866 5.31427 56.9666 4.83324 55.7166 4.41224C54.4766 3.99124 53.2067 3.63127 51.9267 3.33427C50.6467 3.03727 49.3567 2.80325 48.0467 2.63325Z" fill="white"/>
<path id="path110" d="M82.9168 47.6481C82.7468 48.9591 82.5167 50.258 82.2167 51.546C81.9167 52.834 81.5567 54.104 81.1367 55.356C80.7167 56.608 80.2267 57.837 79.6867 59.042C79.1467 60.247 78.5467 61.4221 77.8867 62.5681C77.2267 63.7141 76.5167 64.8251 75.7467 65.9011C74.9767 66.9761 74.1568 68.012 73.2868 69.007C72.4168 70.003 71.5068 70.9531 70.5368 71.8591C69.5768 72.7641 68.5767 73.6201 67.5267 74.4271C66.4767 75.2331 65.3967 75.9871 64.2767 76.6871C63.1567 77.3871 61.9967 78.0311 60.8167 78.6171C59.6367 79.2041 58.4266 79.7321 57.1866 80.2001C55.9466 80.6681 54.6968 81.0741 53.4168 81.4191C52.1468 81.7631 50.8568 82.0451 49.5468 82.2631C48.2468 82.4811 46.9367 82.6341 45.6167 82.7231C44.2967 82.8121 42.9767 82.8361 41.6567 82.7961C40.3367 82.7551 39.0167 82.6501 37.7067 82.4801C36.3967 82.3101 35.0968 82.0771 33.8068 81.7791C32.5168 81.4821 31.2467 81.1221 29.9967 80.6991C28.7467 80.2771 27.5167 79.7941 26.3167 79.2511C25.1067 78.7081 23.9267 78.1071 22.7867 77.4491C21.6367 76.7901 20.5267 76.0771 19.4567 75.3101C18.3767 74.5421 17.3367 73.7241 16.3467 72.8541C15.3467 71.9851 14.3967 71.069 13.4967 70.106C12.5867 69.143 11.7368 68.1381 10.9268 67.0911C10.1168 66.0441 9.36675 64.9601 8.66675 63.8401C7.96675 62.7191 7.3167 61.566 6.7367 60.382C6.1467 59.198 5.61673 57.9881 5.14673 56.7521C4.68673 55.5161 4.27665 54.2601 3.93665 52.9841C3.58665 51.7081 3.30667 50.418 3.08667 49.115C2.86667 47.811 2.71671 46.5001 2.62671 45.1811C2.53671 43.8631 2.51677 42.543 2.55677 41.222C2.59677 39.901 2.6967 38.5851 2.8667 37.2751C3.0367 35.9641 3.27665 34.6651 3.56665 33.3771C3.86665 32.0891 4.22673 30.819 4.64673 29.567C5.07673 28.315 5.55668 27.0861 6.09668 25.8811C6.64668 24.6761 7.24673 23.5011 7.89673 22.3551C8.55673 21.2091 9.27675 20.0981 10.0367 19.0221C10.8067 17.9471 11.6267 16.911 12.4967 15.916C13.3667 14.92 14.2867 13.9701 15.2467 13.0641C16.2067 12.1591 17.2167 11.3031 18.2567 10.4961C19.3067 9.69006 20.3867 8.93605 21.5167 8.23605C22.6367 7.53605 23.7867 6.89205 24.9667 6.30505C26.1567 5.71905 27.3667 5.19105 28.5967 4.72305C29.8367 4.25505 31.0967 3.84906 32.3667 3.50406C33.6467 3.15906 34.9367 2.87806 36.2367 2.66006C37.5467 2.44206 38.8568 2.28907 40.1768 2.20007C41.4868 2.11107 42.8067 2.08607 44.1267 2.12707C45.4567 2.16807 46.7667 2.27305 48.0767 2.44305C49.3867 2.61305 50.6867 2.84607 51.9767 3.14407C53.2667 3.44107 54.5367 3.80106 55.7867 4.22406C57.0367 4.64606 58.2667 5.12906 59.4767 5.67206C60.6767 6.21506 61.8567 6.81506 62.9967 7.47406C64.1467 8.13206 65.2567 8.84607 66.3367 9.61307C67.4067 10.3811 68.4467 11.1991 69.4367 12.0691C70.4367 12.9381 71.3868 13.854 72.2968 14.817C73.1968 15.78 74.0567 16.7851 74.8567 17.8321C75.6667 18.8791 76.4167 19.9621 77.1267 21.0831C77.8267 22.2041 78.4668 23.357 79.0568 24.541C79.6368 25.725 80.1667 26.935 80.6367 28.171C81.1067 29.407 81.5067 30.6631 81.8567 31.9391C82.1967 33.2151 82.4767 34.5051 82.6967 35.8081C82.9167 37.1121 83.0667 38.4231 83.1567 39.7411C83.2467 41.0601 83.2767 42.38 83.2367 43.701C83.1867 45.022 83.0868 46.3381 82.9168 47.6481Z" fill="white" fill-opacity="0.2"/>
</g>
</g>
</g>
<g id="Mask group_5">
<mask id="mask5_105_6513" style="mask-type:luminance" maskUnits="userSpaceOnUse" x="-211" y="-27" width="441" height="467">
<g id="Group_5">
<g id="Mask group_6">
<mask id="mask6_105_6513" style="mask-type:luminance" maskUnits="userSpaceOnUse" x="-211" y="-27" width="441" height="467">
<g id="Group_6">
<g id="Mask group_7">
<mask id="mask7_105_6513" style="mask-type:luminance" maskUnits="userSpaceOnUse" x="-225" y="-27" width="455" height="467">
<g id="Group_7">
<g id="Mask group_8">
<mask id="mask8_105_6513" style="mask-type:luminance" maskUnits="userSpaceOnUse" x="-1211" y="-371" width="1441" height="811">
<g id="Group_8">
<path id="path111" fill-rule="evenodd" clip-rule="evenodd" d="M-1210.25 -370.375H229.747V439.625H-1210.25V-370.375Z" fill="white"/>
</g>
</mask>
<g mask="url(#mask8_105_6513)">
<g id="g112">
<path id="path112" d="M-132.703 -26.6709L923.467 110.206L831.897 816.795L-224.274 679.915L-132.703 -26.6709Z" fill="white"/>
</g>
</g>
</g>
</g>
</mask>
<g mask="url(#mask7_105_6513)">
<g id="g113">
<path id="path113" d="M-132.704 -26.6709L283.816 27.3091L206.506 623.82L-210.014 569.841L-132.704 -26.6709Z" fill="white"/>
</g>
</g>
</g>
</g>
</mask>
<g mask="url(#mask6_105_6513)">
<g id="g114">
<path id="path114" d="M-132.703 -26.6709L923.467 110.206L831.897 816.795L-224.274 679.925L-132.703 -26.6709Z" fill="white"/>
</g>
</g>
</g>
</g>
</mask>
<g mask="url(#mask5_105_6513)">
<g id="g115">
<path id="path115" d="M41.7768 18.8099C42.1668 19.3079 42.4667 19.8579 42.6967 20.4599C42.9267 21.0609 43.0768 21.7029 43.1368 22.3859C43.2068 23.0679 43.1867 23.778 43.0867 24.515C42.9867 25.252 42.8068 26.001 42.5468 26.764C42.2868 27.527 41.9468 28.2889 41.5368 29.0479C41.1168 29.8079 40.6367 30.5519 40.0867 31.2789C39.5367 32.0059 38.9368 32.7029 38.2668 33.3699C37.6068 34.0369 36.8968 34.6609 36.1368 35.2419C35.3868 35.8229 34.5968 36.3499 33.7868 36.8219C32.9768 37.2949 32.1468 37.7039 31.2968 38.0509C30.4568 38.3969 29.6168 38.6729 28.7768 38.8789C27.9368 39.0859 27.1068 39.218 26.3068 39.277C25.5068 39.336 24.7267 39.3189 23.9967 39.2279C23.2567 39.1369 22.5668 38.972 21.9168 38.734C21.2768 38.497 20.6968 38.1899 20.1668 37.8149C19.6468 37.4399 19.1968 37.0029 18.8068 36.5049C18.4268 36.0069 18.1168 35.4569 17.8868 34.8559C17.6568 34.2539 17.5167 33.6119 17.4467 32.9289C17.3767 32.2469 17.3967 31.5369 17.4967 30.8009C17.5967 30.0639 17.7768 29.3139 18.0368 28.5509C18.3068 27.7879 18.6368 27.0269 19.0568 26.2669C19.4668 25.5069 19.9467 24.764 20.4967 24.036C21.0467 23.309 21.6567 22.612 22.3167 21.945C22.9867 21.278 23.6967 20.6539 24.4467 20.0729C25.2067 19.4919 25.9868 18.965 26.8068 18.493C27.6168 18.02 28.4468 17.611 29.2868 17.265C30.1368 16.918 30.9767 16.6419 31.8167 16.4359C32.6567 16.2289 33.4768 16.0969 34.2768 16.0379C35.0868 15.9799 35.8567 15.9959 36.5967 16.0869C37.3367 16.1789 38.0268 16.3429 38.6668 16.5809C39.3068 16.8189 39.8968 17.1249 40.4168 17.4999C40.9368 17.8749 41.3968 18.3119 41.7768 18.8099Z" fill="white"/>
</g>
</g>
</g>
<g id="Mask group_9">
<mask id="mask9_105_6513" style="mask-type:luminance" maskUnits="userSpaceOnUse" x="-211" y="-27" width="441" height="467">
<g id="Group_9">
<g id="Mask group_10">
<mask id="mask10_105_6513" style="mask-type:luminance" maskUnits="userSpaceOnUse" x="-211" y="-27" width="441" height="467">
<g id="Group_10">
<g id="Mask group_11">
<mask id="mask11_105_6513" style="mask-type:luminance" maskUnits="userSpaceOnUse" x="-225" y="-27" width="455" height="467">
<g id="Group_11">
<g id="Mask group_12">
<mask id="mask12_105_6513" style="mask-type:luminance" maskUnits="userSpaceOnUse" x="-1211" y="-371" width="1441" height="811">
<g id="Group_12">
<path id="path116" fill-rule="evenodd" clip-rule="evenodd" d="M-1210.25 -370.375H229.747V439.625H-1210.25V-370.375Z" fill="white"/>
</g>
</mask>
<g mask="url(#mask12_105_6513)">
<g id="g117">
<path id="path117" d="M-132.703 -26.6709L923.467 110.206L831.897 816.795L-224.274 679.915L-132.703 -26.6709Z" fill="white"/>
</g>
</g>
</g>
</g>
</mask>
<g mask="url(#mask11_105_6513)">
<g id="g118">
<path id="path118" d="M-132.704 -26.6709L283.816 27.3091L206.506 623.82L-210.014 569.841L-132.704 -26.6709Z" fill="white"/>
</g>
</g>
</g>
</g>
</mask>
<g mask="url(#mask10_105_6513)">
<g id="g119">
<path id="path119" d="M-132.703 -26.6709L923.467 110.206L831.897 816.795L-224.274 679.925L-132.703 -26.6709Z" fill="white"/>
</g>
</g>
</g>
</g>
</mask>
<g mask="url(#mask9_105_6513)">
<g id="g120">
<path id="path120" d="M18.6566 41.6499C18.8866 41.7769 19.0966 41.9369 19.2866 42.1289C19.4766 42.3209 19.6366 42.5429 19.7766 42.7929C19.9166 43.0429 20.0266 43.3179 20.1066 43.6159C20.1966 43.9149 20.2466 44.2319 20.2766 44.5679C20.2966 44.9029 20.2966 45.2509 20.2666 45.6099C20.2366 45.9699 20.1766 46.3349 20.0866 46.7039C19.9966 47.0739 19.8766 47.4419 19.7366 47.8079C19.5866 48.1729 19.4266 48.5299 19.2266 48.8779C19.0366 49.2249 18.8266 49.5569 18.5866 49.8739C18.3566 50.1899 18.1066 50.4839 17.8466 50.7569C17.5766 51.0299 17.2966 51.2749 17.0166 51.4939C16.7266 51.7119 16.4366 51.8999 16.1366 52.0559C15.8366 52.2119 15.5366 52.3339 15.2366 52.4209C14.9466 52.5089 14.6566 52.5609 14.3666 52.5759C14.0766 52.5919 13.8066 52.5719 13.5466 52.5149C13.2766 52.4579 13.0367 52.3669 12.8067 52.2399C12.5767 52.1129 12.3667 51.9529 12.1767 51.7609C11.9867 51.5679 11.8265 51.3469 11.6865 51.0969C11.5465 50.8469 11.4366 50.5719 11.3566 50.2729C11.2666 49.9749 11.2165 49.6579 11.1865 49.3219C11.1665 48.9859 11.1666 48.6389 11.1966 48.2789C11.2266 47.9199 11.2866 47.5549 11.3766 47.1849C11.4666 46.8149 11.5866 46.4479 11.7266 46.0819C11.8766 45.7159 12.0466 45.3599 12.2366 45.0119C12.4266 44.6639 12.6366 44.3319 12.8766 44.0159C13.1066 43.6999 13.3566 43.4049 13.6166 43.1329C13.8866 42.8599 14.1666 42.6149 14.4466 42.3959C14.7366 42.1779 15.0266 41.9899 15.3266 41.8339C15.6266 41.6779 15.9266 41.5559 16.2266 41.4689C16.5166 41.3809 16.8166 41.3289 17.0966 41.3129C17.3866 41.2979 17.6566 41.3179 17.9166 41.3749C18.1866 41.4309 18.4266 41.5229 18.6566 41.6499Z" fill="white"/>
</g>
</g>
</g>
</g>
</g>
</g>
</g>
</g>
<defs>
<clipPath id="clip0_105_6513">
<rect width="84.6915" height="84.6747" fill="white" transform="translate(0.54248 0.120605)"/>
</clipPath>
</defs>
</svg>
