<svg width="44" height="45" viewBox="0 0 44 45" fill="none" xmlns="http://www.w3.org/2000/svg">
<g id="bolhinha" clip-path="url(#clip0_105_6512)">
<g id="Clip path group">
<mask id="mask0_105_6512" style="mask-type:luminance" maskUnits="userSpaceOnUse" x="-1149" y="-494" width="1441" height="818">
<g id="clip0_103_8241">
<path id="rect532" d="M291.229 -493.839H-1148.77V323.661H291.229V-493.839Z" fill="white"/>
</g>
</mask>
<g mask="url(#mask0_105_6512)">
<g id="g528">
<g id="g532">
<g id="Mask group">
<mask id="mask1_105_6512" style="mask-type:luminance" maskUnits="userSpaceOnUse" x="-149" y="-151" width="441" height="468">
<g id="Group">
<g id="Mask group_2">
<mask id="mask2_105_6512" style="mask-type:luminance" maskUnits="userSpaceOnUse" x="-149" y="-151" width="441" height="468">
<g id="Group_2">
<g id="Mask group_3">
<mask id="mask3_105_6512" style="mask-type:luminance" maskUnits="userSpaceOnUse" x="-163" y="-151" width="455" height="468">
<g id="Group_3">
<g id="Mask group_4">
<mask id="mask4_105_6512" style="mask-type:luminance" maskUnits="userSpaceOnUse" x="-1149" y="-494" width="1441" height="811">
<g id="Group_4">
<path id="path89" fill-rule="evenodd" clip-rule="evenodd" d="M-1148.77 -493.839H291.229V316.161H-1148.77V-493.839Z" fill="white"/>
</g>
</mask>
<g mask="url(#mask4_105_6512)">
<g id="g90">
<path id="path90" d="M-71.2214 -150.135L984.948 -13.2578L893.379 693.331L-162.792 556.451L-71.2214 -150.135Z" fill="white"/>
</g>
</g>
</g>
</g>
</mask>
<g mask="url(#mask3_105_6512)">
<g id="g91">
<path id="path91" d="M-71.2212 -150.135L345.299 -96.1548L267.989 500.356L-148.531 446.377L-71.2212 -150.135Z" fill="white"/>
</g>
</g>
</g>
</g>
</mask>
<g mask="url(#mask2_105_6512)">
<g id="g92">
<path id="path92" d="M-71.2214 -150.135L984.948 -13.2578L893.379 693.331L-162.792 556.461L-71.2214 -150.135Z" fill="white"/>
</g>
</g>
</g>
</g>
</mask>
<g mask="url(#mask1_105_6512)">
<g id="g94">
<path id="path93" d="M19.0986 44.0471C18.3886 43.9551 17.6887 43.8301 16.9987 43.6691C16.3087 43.5091 15.6186 43.3161 14.9486 43.0881C14.2786 42.8611 13.6086 42.6011 12.9686 42.3091C12.3186 42.0171 11.6886 41.6941 11.0686 41.3391C10.4486 40.9851 9.84868 40.6011 9.26868 40.1881C8.69868 39.7751 8.13864 39.3341 7.59864 38.8661C7.06864 38.3991 6.55861 37.9061 6.06861 37.3881C5.57861 36.8691 5.1186 36.3291 4.6886 35.7651C4.2486 35.2021 3.84863 34.6191 3.46863 34.0151C3.08863 33.4121 2.74859 32.7921 2.42859 32.1551C2.10859 31.5171 1.82862 30.8661 1.57862 30.2011C1.32862 29.5361 1.10858 28.8601 0.918584 28.1741C0.738584 27.4871 0.588633 26.7931 0.468633 26.0911C0.348633 25.3901 0.268633 24.6842 0.218633 23.9752C0.168633 23.2652 0.158594 22.5551 0.178594 21.8441C0.198594 21.1331 0.258637 20.4251 0.348637 19.7201C0.438637 19.0141 0.568642 18.3151 0.728642 17.6221C0.888642 16.9291 1.0786 16.2461 1.3086 15.5721C1.5386 14.8981 1.79863 14.2371 2.08863 13.5881C2.37863 12.9401 2.6986 12.3071 3.0586 11.6911C3.4086 11.0741 3.79862 10.4761 4.20862 9.89712C4.61862 9.31812 5.05869 8.76112 5.52869 8.22512C5.99869 7.69012 6.48867 7.17812 7.00867 6.69112C7.52867 6.20412 8.06867 5.74314 8.62867 5.30914C9.19867 4.87514 9.77867 4.47013 10.3787 4.09313C10.9887 3.71613 11.6087 3.37013 12.2387 3.05413C12.8787 2.73813 13.5286 2.45411 14.1986 2.20211C14.8586 1.95011 15.5386 1.73214 16.2286 1.54614C16.9086 1.36114 17.6086 1.21013 18.3086 1.09213C19.0086 0.975125 19.7186 0.892139 20.4186 0.844139C21.1286 0.797139 21.8386 0.784138 22.5586 0.805138C23.2686 0.827138 23.9686 0.884121 24.6786 0.975121C25.3886 1.06712 26.0787 1.19211 26.7787 1.35311C27.4687 1.51311 28.1486 1.70614 28.8286 1.93414C29.4986 2.16114 30.1586 2.42113 30.8086 2.71313C31.4586 3.00513 32.0886 3.32813 32.7086 3.68313C33.3286 4.03713 33.9187 4.42113 34.4987 4.83413C35.0787 5.24713 35.6386 5.68811 36.1786 6.15511C36.7086 6.62311 37.2186 7.11612 37.7086 7.63412C38.1986 8.15312 38.6586 8.69313 39.0886 9.25713C39.5286 9.82013 39.9286 10.4031 40.3086 11.0071C40.6886 11.6101 41.0286 12.2301 41.3486 12.8671C41.6586 13.5041 41.9486 14.1561 42.1986 14.8211C42.4486 15.4861 42.6686 16.1621 42.8586 16.8481C43.0386 17.5351 43.1886 18.2291 43.3086 18.9311C43.4286 19.6321 43.5086 20.3381 43.5586 21.0471C43.6086 21.7571 43.6186 22.4672 43.5986 23.1782C43.5786 23.8892 43.5186 24.5971 43.4286 25.3021C43.3386 26.0071 43.2086 26.7061 43.0486 27.3991C42.8886 28.0911 42.6886 28.7741 42.4686 29.4481C42.2386 30.1211 41.9786 30.7821 41.6786 31.4301C41.3886 32.0781 41.0686 32.7101 40.7086 33.3271C40.3586 33.9431 39.9786 34.5401 39.5586 35.1191C39.1486 35.6981 38.7087 36.2542 38.2387 36.7902C37.7687 37.3252 37.2787 37.8361 36.7587 38.3231C36.2387 38.8101 35.6987 39.2711 35.1387 39.7051C34.5787 40.1391 33.9887 40.5441 33.3887 40.9211C32.7887 41.2981 32.1687 41.6441 31.5287 41.9601C30.8887 42.2761 30.2386 42.5601 29.5786 42.8121C28.9086 43.0641 28.2386 43.2831 27.5486 43.4691C26.8586 43.6551 26.1686 43.8061 25.4686 43.9241C24.7686 44.0421 24.0586 44.1251 23.3486 44.1731C22.6386 44.2221 21.9286 44.2351 21.2186 44.2141C20.5086 44.1931 19.7986 44.1371 19.0986 44.0471ZM24.3987 3.13812C23.7687 3.05612 23.1287 3.00513 22.4887 2.98513C21.8487 2.96513 21.2086 2.97713 20.5686 3.02013C19.9286 3.06313 19.2986 3.13813 18.6686 3.24313C18.0386 3.34913 17.4087 3.48512 16.7887 3.65212C16.1787 3.81912 15.5686 4.01512 14.9686 4.24212C14.3686 4.46912 13.7786 4.72411 13.2086 5.00811C12.6386 5.29211 12.0787 5.60414 11.5387 5.94314C10.9887 6.28214 10.4686 6.64713 9.95862 7.03713C9.45862 7.42813 8.96866 7.84212 8.49866 8.28112C8.03866 8.71912 7.58858 9.17913 7.16858 9.66113C6.74858 10.1431 6.34864 10.6451 5.97864 11.1651C5.60864 11.6861 5.26861 12.2241 4.94861 12.7791C4.62861 13.3341 4.33861 13.9031 4.06861 14.4861C3.80861 15.0701 3.57866 15.6641 3.36866 16.2711C3.16866 16.8771 2.98864 17.4921 2.84864 18.1161C2.70864 18.7391 2.58867 19.3681 2.50867 20.0031C2.42867 20.6371 2.37865 21.2741 2.35865 21.9141C2.33865 22.5531 2.34868 23.1921 2.38868 23.8311C2.43868 24.4691 2.50866 25.1041 2.61866 25.7351C2.71866 26.3661 2.85869 26.9911 3.02869 27.6091C3.18869 28.2261 3.38866 28.8341 3.61866 29.4331C3.83866 30.0311 4.09867 30.6171 4.37867 31.1901C4.66867 31.7641 4.97861 32.3221 5.31861 32.8641C5.65861 33.4071 6.0187 33.9321 6.4087 34.4391C6.7987 34.9451 7.2187 35.4321 7.6587 35.8981C8.0887 36.3641 8.5487 36.8081 9.0387 37.2291C9.5187 37.6501 10.0187 38.0461 10.5387 38.4181C11.0587 38.7891 11.5987 39.1341 12.1487 39.4531C12.7087 39.7721 13.2786 40.0631 13.8586 40.3261C14.4486 40.5891 15.0387 40.8222 15.6487 41.0272C16.2487 41.2312 16.8687 41.4051 17.4887 41.5491C18.1187 41.6931 18.7387 41.8062 19.3787 41.8892C20.0087 41.9712 20.6487 42.0221 21.2887 42.0411C21.9287 42.0611 22.5686 42.0491 23.2086 42.0061C23.8486 41.9631 24.4786 41.8881 25.1086 41.7831C25.7386 41.6771 26.3687 41.5411 26.9887 41.3741C27.5987 41.2071 28.2086 41.0101 28.8086 40.7841C29.4086 40.5571 29.9986 40.3021 30.5686 40.0171C31.1386 39.7331 31.6987 39.4221 32.2387 39.0831C32.7887 38.7441 33.3086 38.3792 33.8186 37.9882C34.3186 37.5982 34.8087 37.1831 35.2787 36.7451C35.7387 36.3061 36.1886 35.8461 36.6086 35.3641C37.0286 34.8821 37.4186 34.3811 37.7986 33.8601C38.1686 33.3391 38.5086 32.8011 38.8286 32.2461C39.1486 31.6911 39.4386 31.1221 39.6986 30.5391C39.9686 29.9551 40.1987 29.3601 40.4087 28.7541C40.6087 28.1481 40.7786 27.5331 40.9286 26.9091C41.0686 26.2861 41.1787 25.6571 41.2687 25.0221C41.3487 24.3881 41.3986 23.7511 41.4186 23.1121C41.4386 22.4721 41.4187 21.8331 41.3787 21.1951C41.3387 20.5571 41.2587 19.9231 41.1587 19.2921C41.0487 18.6611 40.9087 18.0371 40.7487 17.4191C40.5787 16.8021 40.3787 16.1941 40.1587 15.5961C39.9287 14.9981 39.6687 14.4121 39.3887 13.8401C39.0987 13.2661 38.7886 12.7091 38.4486 12.1661C38.1086 11.6241 37.7486 11.0991 37.3586 10.5931C36.9686 10.0861 36.5487 9.60012 36.1187 9.13412C35.6787 8.66812 35.2187 8.22412 34.7387 7.80312C34.2487 7.38212 33.7486 6.98613 33.2286 6.61413C32.7086 6.24313 32.1687 5.89712 31.6187 5.57812C31.0687 5.25912 30.4987 4.96813 29.9087 4.70513C29.3287 4.44213 28.7387 4.20814 28.1287 4.00314C27.5187 3.79814 26.9087 3.62412 26.2887 3.47912C25.6587 3.33412 25.0287 3.22112 24.3987 3.13812Z" fill="white"/>
<path id="path94" d="M41.8987 25.1053C41.8187 25.7603 41.6986 26.4104 41.5486 27.0544C41.3986 27.6974 41.2187 28.3333 41.0087 28.9593C40.7987 29.5853 40.5587 30.1993 40.2887 30.8023C40.0187 31.4043 39.7187 31.9923 39.3887 32.5653C39.0587 33.1383 38.6986 33.6934 38.3186 34.2314C37.9286 34.7694 37.5186 35.2874 37.0886 35.7854C36.6486 36.2834 36.1986 36.7584 35.7086 37.2104C35.2286 37.6634 34.7286 38.0913 34.2086 38.4953C33.6786 38.8983 33.1386 39.2753 32.5786 39.6253C32.0186 39.9753 31.4386 40.2974 30.8486 40.5904C30.2586 40.8844 29.6487 41.1473 29.0387 41.3813C28.4187 41.6153 27.7887 41.8194 27.1487 41.9914C26.5087 42.1634 25.8686 42.3044 25.2186 42.4134C24.5686 42.5224 23.9087 42.5984 23.2487 42.6434C22.5887 42.6884 21.9287 42.7004 21.2687 42.6794C20.6087 42.6594 19.9486 42.6064 19.2986 42.5224C18.6386 42.4374 17.9886 42.3204 17.3486 42.1714C16.6986 42.0224 16.0686 41.8423 15.4386 41.6313C14.8186 41.4203 14.1986 41.1793 13.5986 40.9073C12.9986 40.6363 12.4086 40.3353 11.8386 40.0063C11.2586 39.6773 10.7086 39.3204 10.1686 38.9364C9.62858 38.5524 9.10865 38.1434 8.60865 37.7084C8.11865 37.2744 7.6386 36.8153 7.1886 36.3343C6.7386 35.8533 6.30869 35.3504 5.89869 34.8274C5.49869 34.3034 5.11868 33.7613 4.76868 33.2013C4.41868 32.6403 4.0986 32.0643 3.8086 31.4723C3.5186 30.8803 3.24868 30.2753 3.01868 29.6573C2.77868 29.0393 2.5787 28.4114 2.4087 27.7734C2.2387 27.1354 2.08865 26.4904 1.98865 25.8384C1.87865 25.1864 1.79867 24.5314 1.75867 23.8714C1.70867 23.2124 1.69863 22.5523 1.71863 21.8913C1.73863 21.2313 1.78867 20.5734 1.87867 19.9184C1.95867 19.2624 2.07864 18.6134 2.22864 17.9694C2.37864 17.3254 2.55868 16.6904 2.76868 16.0634C2.97868 15.4374 3.21865 14.8233 3.48865 14.2203C3.75865 13.6183 4.05868 13.0303 4.38868 12.4573C4.71868 11.8843 5.07862 11.3294 5.45862 10.7914C5.84862 10.2534 6.2586 9.73535 6.6886 9.23735C7.1286 8.74035 7.5786 8.26436 8.0586 7.81236C8.5486 7.35936 9.04861 6.93136 9.56861 6.52836C10.0986 6.12436 10.6386 5.74835 11.1986 5.39735C11.7586 5.04735 12.3386 4.72635 12.9286 4.43235C13.5186 4.13935 14.1187 3.87537 14.7387 3.64137C15.3587 3.40737 15.9887 3.20435 16.6287 3.03135C17.2687 2.85935 17.9086 2.71836 18.5586 2.60936C19.2086 2.50036 19.8687 2.42434 20.5287 2.37934C21.1887 2.33534 21.8487 2.32336 22.5087 2.34336C23.1687 2.36336 23.8286 2.41635 24.4786 2.50135C25.1386 2.58635 25.7886 2.70336 26.4286 2.85136C27.0786 3.00036 27.7086 3.18037 28.3386 3.39137C28.9586 3.60237 29.5786 3.84437 30.1786 4.11537C30.7786 4.38737 31.3686 4.68737 31.9386 5.01637C32.5186 5.34637 33.0686 5.70234 33.6086 6.08634C34.1486 6.47034 34.6687 6.87937 35.1587 7.31437C35.6587 7.74937 36.1386 8.20736 36.5886 8.68836C37.0386 9.17036 37.4687 9.67236 37.8687 10.1964C38.2787 10.7194 38.6487 11.2614 38.9987 11.8224C39.3587 12.3824 39.6786 12.9584 39.9686 13.5504C40.2586 14.1434 40.5287 14.7483 40.7587 15.3663C40.9987 15.9843 41.1987 16.6123 41.3687 17.2503C41.5387 17.8883 41.6787 18.5324 41.7887 19.1844C41.8987 19.8364 41.9787 20.4923 42.0187 21.1513C42.0687 21.8103 42.0786 22.4703 42.0586 23.1313C42.0386 23.7913 41.9887 24.4493 41.8987 25.1053Z" fill="white" fill-opacity="0.2"/>
</g>
</g>
</g>
<g id="Mask group_5">
<mask id="mask5_105_6512" style="mask-type:luminance" maskUnits="userSpaceOnUse" x="-149" y="-151" width="441" height="468">
<g id="Group_5">
<g id="Mask group_6">
<mask id="mask6_105_6512" style="mask-type:luminance" maskUnits="userSpaceOnUse" x="-149" y="-151" width="441" height="468">
<g id="Group_6">
<g id="Mask group_7">
<mask id="mask7_105_6512" style="mask-type:luminance" maskUnits="userSpaceOnUse" x="-163" y="-151" width="455" height="468">
<g id="Group_7">
<g id="Mask group_8">
<mask id="mask8_105_6512" style="mask-type:luminance" maskUnits="userSpaceOnUse" x="-1149" y="-494" width="1441" height="811">
<g id="Group_8">
<path id="path95" fill-rule="evenodd" clip-rule="evenodd" d="M-1148.77 -493.839H291.229V316.161H-1148.77V-493.839Z" fill="white"/>
</g>
</mask>
<g mask="url(#mask8_105_6512)">
<g id="g96">
<path id="path96" d="M-71.2214 -150.135L984.948 -13.2578L893.379 693.331L-162.792 556.451L-71.2214 -150.135Z" fill="white"/>
</g>
</g>
</g>
</g>
</mask>
<g mask="url(#mask7_105_6512)">
<g id="g97">
<path id="path97" d="M-71.2212 -150.135L345.299 -96.1548L267.989 500.356L-148.531 446.377L-71.2212 -150.135Z" fill="white"/>
</g>
</g>
</g>
</g>
</mask>
<g mask="url(#mask6_105_6512)">
<g id="g98">
<path id="path98" d="M-71.2214 -150.135L984.948 -13.2578L893.379 693.331L-162.792 556.461L-71.2214 -150.135Z" fill="white"/>
</g>
</g>
</g>
</g>
</mask>
<g mask="url(#mask5_105_6512)">
<g id="g99">
<path id="path99" d="M21.3285 10.685C21.5285 10.934 21.6786 11.209 21.7886 11.51C21.9086 11.811 21.9786 12.132 22.0086 12.473C22.0486 12.815 22.0385 13.169 21.9885 13.538C21.9385 13.906 21.8485 14.281 21.7185 14.663C21.5885 15.044 21.4185 15.425 21.2085 15.805C20.9985 16.185 20.7585 16.557 20.4885 16.92C20.2085 17.284 19.9085 17.633 19.5785 17.966C19.2485 18.299 18.8886 18.611 18.5086 18.902C18.1386 19.192 17.7485 19.456 17.3385 19.692C16.9285 19.928 16.5185 20.133 16.0885 20.306C15.6685 20.479 15.2485 20.617 14.8285 20.72C14.4085 20.824 13.9985 20.89 13.5985 20.919C13.1985 20.948 12.8085 20.94 12.4385 20.894C12.0685 20.849 11.7286 20.766 11.4086 20.648C11.0786 20.529 10.7886 20.375 10.5286 20.188C10.2686 20 10.0385 19.782 9.84853 19.533C9.65853 19.284 9.49857 19.009 9.38857 18.708C9.26857 18.407 9.19847 18.086 9.16847 17.744C9.12847 17.403 9.13849 17.048 9.18849 16.68C9.23849 16.311 9.32851 15.936 9.45851 15.555C9.59851 15.173 9.75852 14.793 9.96852 14.413C10.1785 14.033 10.4185 13.661 10.6885 13.297C10.9685 12.934 11.2685 12.585 11.5985 12.252C11.9385 11.918 12.2885 11.606 12.6685 11.316C13.0485 11.025 13.4385 10.762 13.8385 10.526C14.2485 10.289 14.6685 10.085 15.0885 9.91202C15.5085 9.73802 15.9285 9.60002 16.3485 9.49702C16.7685 9.39402 17.1785 9.32802 17.5785 9.29902C17.9885 9.26902 18.3685 9.277 18.7385 9.323C19.1085 9.369 19.4586 9.45101 19.7786 9.57001C20.0986 9.68901 20.3886 9.84201 20.6486 10.03C20.9086 10.218 21.1385 10.436 21.3285 10.685Z" fill="white"/>
</g>
</g>
</g>
<g id="Mask group_9">
<mask id="mask9_105_6512" style="mask-type:luminance" maskUnits="userSpaceOnUse" x="-149" y="-151" width="441" height="468">
<g id="Group_9">
<g id="Mask group_10">
<mask id="mask10_105_6512" style="mask-type:luminance" maskUnits="userSpaceOnUse" x="-149" y="-151" width="441" height="468">
<g id="Group_10">
<g id="Mask group_11">
<mask id="mask11_105_6512" style="mask-type:luminance" maskUnits="userSpaceOnUse" x="-163" y="-151" width="455" height="468">
<g id="Group_11">
<g id="Mask group_12">
<mask id="mask12_105_6512" style="mask-type:luminance" maskUnits="userSpaceOnUse" x="-1149" y="-494" width="1441" height="811">
<g id="Group_12">
<path id="path100" fill-rule="evenodd" clip-rule="evenodd" d="M-1148.77 -493.839H291.229V316.161H-1148.77V-493.839Z" fill="white"/>
</g>
</mask>
<g mask="url(#mask12_105_6512)">
<g id="g101">
<path id="path101" d="M-71.2214 -150.135L984.948 -13.2578L893.379 693.331L-162.792 556.451L-71.2214 -150.135Z" fill="white"/>
</g>
</g>
</g>
</g>
</mask>
<g mask="url(#mask11_105_6512)">
<g id="g102">
<path id="path102" d="M-71.2212 -150.135L345.299 -96.1548L267.989 500.356L-148.531 446.377L-71.2212 -150.135Z" fill="white"/>
</g>
</g>
</g>
</g>
</mask>
<g mask="url(#mask10_105_6512)">
<g id="g103">
<path id="path103" d="M-71.2214 -150.135L984.948 -13.2578L893.379 693.331L-162.792 556.461L-71.2214 -150.135Z" fill="white"/>
</g>
</g>
</g>
</g>
</mask>
<g mask="url(#mask9_105_6512)">
<g id="g104">
<path id="path104" d="M9.76864 22.1042C10.0086 22.2322 10.1886 22.4232 10.3286 22.6752C10.4686 22.9282 10.5586 23.2242 10.5786 23.5632C10.6086 23.9012 10.5786 24.2582 10.4886 24.6312C10.3986 25.0042 10.2486 25.3663 10.0586 25.7173C9.86856 26.0683 9.63862 26.3812 9.36862 26.6562C9.09862 26.9312 8.80863 27.1482 8.50863 27.3052C8.20863 27.4632 7.91863 27.5502 7.62863 27.5652C7.33863 27.5812 7.0786 27.5253 6.8486 27.3973C6.6186 27.2693 6.42866 27.0782 6.28866 26.8262C6.14866 26.5732 6.06866 26.2772 6.03866 25.9382C6.00866 25.6002 6.04864 25.2442 6.13864 24.8702C6.22864 24.4972 6.36856 24.1352 6.55856 23.7842C6.75856 23.4332 6.98863 23.1203 7.25863 22.8453C7.51863 22.5703 7.80861 22.3532 8.10861 22.1962C8.40861 22.0382 8.70861 21.9523 8.98861 21.9363C9.27861 21.9203 9.53864 21.9762 9.76864 22.1042Z" fill="white"/>
</g>
</g>
</g>
</g>
</g>
</g>
</g>
</g>
<defs>
<clipPath id="clip0_105_6512">
<rect width="43.4393" height="43.4284" fill="white" transform="translate(0.168701 0.79541)"/>
</clipPath>
</defs>
</svg>
