<svg width="126" height="86" viewBox="0 0 126 86" fill="none" xmlns="http://www.w3.org/2000/svg">
<g clip-path="url(#clip0_107_453)">
<path d="M121.598 10.5092L120.703 8.76715L120.992 6.60913L115.507 4.48816L103.511 2.79315L96.0844 5.19714L96.0474 10.8411L84.2684 0.244141L80.1234 1.63513L95.2954 12.3201L90.2394 13.8922L76.1054 2.20215L74.7554 3.95215L87.6434 15.1541L83.3894 17.2512L68.9104 3.21313L66.1734 2.92413L80.9914 19.2991L76.8064 23.6951L60.9814 9.74713L57.8184 11.7332L75.0254 25.2161L71.8844 28.6161L52.5624 11.6851L51.2834 14.2101L69.3704 31.3602L67.4944 34.1581L47.1724 17.7222L46.3524 19.2592L65.0274 36.2651L60.4364 40.1862L44.0144 22.2111L42.6144 22.9291L42.1664 24.6251L58.3604 41.3632L55.1404 44.1132L40.5154 32.1262L39.5694 34.4871L52.7504 45.2001L48.5784 47.8082L38.1554 43.0981L37.5634 45.8732L46.6604 49.4471L39.9674 51.4622L12.6384 50.6851L0.286133 56.3411L6.65044 61.2941L23.7854 63.7332L22.7274 73.5931C24.8724 77.5521 27.0184 81.5112 29.1644 85.4702C32.7414 79.5002 36.3184 73.5301 39.8954 67.5601C41.5034 63.0301 43.1104 58.5012 44.7184 53.9722L49.3794 50.8261L46.2514 62.8422L48.4854 64.4861L51.2784 49.4431L54.1864 47.4362L55.6334 64.1132L57.6934 64.8602L56.9284 45.9291L59.1234 44.8911C60.8984 50.8911 62.6744 56.8911 64.4504 62.8901C65.7284 63.4701 67.0064 64.0491 68.2844 64.6281C65.7754 57.9021 63.2674 51.1751 60.7594 44.4481L65.0184 41.5272L72.5324 56.8422L74.4424 56.1652L67.4854 39.4191L71.8894 35.4191L80.3994 53.7042L82.2694 52.7042L74.8034 31.6161L77.8844 28.1481L84.3584 47.9341L86.2804 47.9641L81.4094 25.6151L85.8234 21.4861L89.6564 44.8411L91.5274 43.8401L88.8484 19.6182L91.6404 18.3082L96.6534 43.0441L98.2294 41.6981C100.31 33.5901 93.2164 16.9622 93.2164 16.9622L96.6264 15.9592L102.878 28.4111L109.314 29.8401L121.715 19.2471L125.539 10.1281L121.598 10.5092ZM114.748 8.94513C114.853 9.09613 114.935 9.27114 114.932 9.45514C114.927 9.74314 114.718 9.98015 114.52 10.1891C114.226 10.4991 113.927 10.8131 113.562 11.0361C113.197 11.2581 112.752 11.3832 112.335 11.2802C109.743 10.6412 112.825 6.15713 114.748 8.94513Z" fill="#E6D4B9"/>
</g>
<defs>
<clipPath id="clip0_107_453">
<rect width="125.253" height="85.226" fill="white" transform="translate(0.286133 0.244141)"/>
</clipPath>
</defs>
</svg>
