<svg width="53" height="31" viewBox="0 0 53 31" fill="none" xmlns="http://www.w3.org/2000/svg">
<g clip-path="url(#clip0_104_2464)">
<path d="M2.16583 9.55748C3.37083 8.12548 5.78086 8.87947 7.36286 9.02947C11.7319 9.48147 15.9498 7.59848 20.1678 6.54448C27.7748 4.58548 35.9098 5.26351 43.5928 6.84551C44.2708 6.99651 45.0238 7.14649 45.6268 7.67449C46.3048 8.27649 46.6058 9.18051 46.8318 10.0095C47.5848 12.5705 48.3378 15.1305 49.0908 17.6915C49.3928 18.7465 49.6938 19.9515 49.3168 21.0065C49.0158 21.9095 48.2628 22.5125 47.7358 23.2655C46.8318 24.5465 46.3799 26.3535 44.9489 27.1075C44.2709 27.4835 43.5178 27.5595 42.8398 27.7095C39.5258 28.1615 36.1358 28.6135 32.8218 29.0655C31.5408 29.2165 30.2608 29.4425 28.9798 29.2915C26.8708 29.0655 24.8378 28.1615 22.7288 28.0115C20.4688 27.8605 18.2088 28.7645 15.9498 28.9905C12.8608 29.2915 9.69782 28.4635 6.68482 27.5595C5.02782 27.1075 3.21985 26.5045 2.24085 25.1485C1.63785 24.3205 1.33684 23.2655 1.11084 22.2115C0.583841 19.8765 -0.0191984 17.4655 0.432802 15.0555C0.508802 13.5495 1.11083 10.7625 2.16583 9.55748Z" fill="#787878"/>
<path d="M11.5046 5.94174C13.0116 5.18874 14.5176 4.43569 15.0456 3.15469C15.1956 2.77869 15.2716 2.40173 15.5726 2.10073C15.7986 1.87473 16.0996 1.72372 16.4766 1.57272C18.4346 0.744719 20.6946 0.443715 22.9536 0.593715C25.6656 0.819715 28.1517 1.87471 30.6367 2.77871C34.2527 4.05871 38.0936 5.11274 42.0106 5.94174C42.7636 6.09274 43.5166 6.2427 44.1946 6.5447C46.0776 7.3727 46.6057 9.18073 46.6807 10.8377C46.7557 12.8717 46.3796 15.0557 44.3456 16.4117C43.2156 17.1647 41.7096 17.5417 40.2786 17.8427C31.9926 19.5747 23.1796 18.9727 14.6686 18.3697C13.6896 18.2947 12.7106 18.2197 11.8816 17.7677C11.0536 17.3157 10.6017 16.5617 9.84765 16.1107C8.34165 15.2067 6.00667 15.5077 4.34967 14.7547C2.54167 14.0017 0.733656 10.6117 2.24066 9.2557C3.06866 8.5027 5.25366 8.5027 6.38366 8.1257C8.19066 7.5237 9.84763 6.77074 11.5046 5.94174Z" fill="#828282"/>
<path d="M38.0186 19.0478C38.3956 19.3488 38.8476 19.6498 39.2236 20.0268C39.3746 20.1778 39.5256 20.2528 39.7516 20.1778C39.9016 20.1018 39.9776 19.8758 39.9776 19.7258C40.0526 18.3698 39.7516 16.9388 39.0736 15.7338C39.9016 16.4118 40.5796 17.3148 40.9566 18.3698C41.4836 17.7668 41.4836 16.9388 41.3326 16.1858C41.1826 15.4318 40.9566 14.6788 41.0316 13.9258C41.4836 15.2058 41.9356 16.5618 42.3876 17.8428C42.9906 16.7128 43.8186 15.8088 44.9486 15.1308C44.1956 16.6378 43.7436 18.2948 43.5176 20.0268C43.8936 19.4248 44.4966 18.9728 45.0996 18.6708C44.5716 20.1018 44.3456 21.6838 44.4966 23.2658C44.4966 23.4918 44.5716 23.7928 44.3456 23.9438C44.2706 24.0188 44.1196 24.0938 43.9696 24.1698C42.6886 24.6218 40.5046 25.6008 39.5256 24.0938C39.1486 23.4918 39.0736 22.7388 38.9976 22.0608C38.8476 20.9308 38.5456 19.9518 38.0186 19.0478ZM10.9786 28.9898C11.5806 29.4418 12.5596 29.6678 13.3136 29.6678C14.5936 29.6678 15.0456 29.0658 15.3466 27.9358C15.6486 26.7308 16.1756 25.6008 16.9286 24.6218C16.0996 24.6968 15.2716 25.0738 14.7446 25.7518C15.2716 24.3958 15.8736 23.0398 16.7026 21.8348C15.4976 21.9848 14.6686 23.1148 14.0666 24.1698C13.9906 22.9648 13.6896 21.7588 13.1626 20.6298C13.0116 21.6838 12.8616 22.7388 12.6356 23.7928C12.0326 22.8888 11.3546 22.0608 10.7526 21.1568C10.9026 21.9098 11.0536 22.6628 11.2046 23.4168C11.3546 24.0938 11.5056 24.8478 11.2046 25.4498C10.4506 24.8478 9.54655 24.3958 8.64355 24.0188C9.54655 25.4498 9.69758 27.8608 10.9786 28.9898Z" fill="#656565"/>
<path d="M24.612 8.50286C26.872 7.44786 29.7339 7.22187 32.1439 6.77087C32.3699 6.69487 32.596 6.69487 32.822 6.77087C33.048 6.84587 33.2739 6.99684 33.4249 7.14684C34.1029 7.74984 34.78 8.35185 35.082 9.25585C35.383 10.0849 35.0059 11.2149 34.1779 11.5159C33.5749 11.7419 32.8219 11.4409 32.2949 11.8169C31.9939 12.0429 31.918 12.3439 31.692 12.5699C31.24 13.0219 30.487 13.0978 29.809 13.0978C29.207 13.0978 28.604 13.0978 28.001 13.1728C26.947 13.1728 25.817 13.2479 24.913 12.7209C23.106 11.8169 22.804 9.33186 24.612 8.50286ZM36.588 23.7179C36.362 23.9439 36.2119 24.1699 36.1359 24.3959C36.0609 24.6219 36.061 24.7728 36.061 24.9988C36.061 25.7518 36.061 26.5049 36.061 27.1829C36.061 27.4089 36.0609 27.6348 36.1359 27.7848C36.2119 28.0868 36.438 28.2369 36.664 28.4629C37.191 28.9909 37.643 29.2169 38.245 29.5179C38.773 29.8189 39.3 30.0449 39.752 30.3459C39.902 30.4219 40.053 30.4968 40.279 30.5718C40.43 30.5718 40.58 30.5719 40.731 30.4969C42.237 30.1199 43.744 29.8938 45.25 29.7438C45.476 29.7438 45.778 29.6688 46.004 29.7438C46.305 29.8188 46.531 29.9699 46.832 30.0449C47.585 30.1959 48.2629 29.8189 48.9409 29.4429C49.6189 29.0659 50.372 28.6889 51.125 28.3129C51.728 28.0869 52.331 27.7849 52.255 27.0319C52.255 26.9569 52.255 26.8819 52.255 26.7309C52.331 26.5049 52.557 26.4298 52.707 26.2038C52.933 25.9018 52.858 25.5258 52.783 25.2248C52.707 24.6968 52.557 24.1699 52.331 23.7179C51.803 22.5129 50.297 21.7598 49.242 21.0818C48.489 20.5548 48.188 20.7798 47.359 21.0818C46.606 21.3828 45.9279 21.6838 45.1749 21.9858C43.8189 22.5878 42.388 23.1149 40.806 23.2659C40.354 23.3409 39.902 23.3409 39.45 23.1149C39.074 22.9649 38.773 22.5879 38.396 22.4379C37.643 22.2869 37.04 23.1909 36.588 23.7179Z" fill="#656565"/>
<path d="M25.5148 7.44841C26.1178 6.84541 26.7958 6.2434 27.6998 6.1674C28.3018 6.0924 28.9048 6.24242 29.5068 6.39342C30.2608 6.54442 31.0888 6.61943 31.9178 6.61943C32.2188 6.61943 32.4448 6.61944 32.6708 6.69444C33.0468 6.77044 33.1978 7.07141 33.3488 7.29741C33.6498 7.82441 33.8008 8.35245 33.8008 8.95445C33.8008 9.10545 33.8009 9.1804 33.7249 9.3314C33.6499 9.4814 33.4988 9.55743 33.2728 9.63243C31.5408 10.3854 29.5068 10.7624 27.4738 10.6114C27.2478 10.6114 27.0218 10.5364 26.7958 10.4614C26.1178 10.1594 24.3098 10.1594 23.9328 9.70744C23.3308 9.02944 25.0628 7.90041 25.5148 7.44841ZM37.1898 23.4914C37.1148 23.8684 36.9638 24.1694 36.8138 24.5464C36.6628 24.9224 36.8138 25.2994 37.1148 25.6004C37.4158 25.9024 37.8678 26.0524 38.2448 26.2784C38.3948 26.3544 38.5458 26.4294 38.6968 26.4294C38.8468 26.4294 39.0728 26.3544 39.2238 26.3544C40.2778 26.1284 40.8808 27.2574 41.8598 27.4834C42.6128 27.6344 43.4418 27.3334 44.0448 26.9564C44.6468 26.5804 45.2498 26.1284 46.0028 25.9774C46.6048 25.9024 47.2828 25.9774 47.8858 25.9774C49.4678 25.9024 50.7478 25.0734 51.8778 24.2454C52.0288 24.1694 52.1788 24.0194 52.2548 23.8684C52.2548 23.7174 52.2548 23.5674 52.1788 23.4164C51.4258 21.9854 50.3718 21.2324 48.5638 20.6294C48.0368 20.2524 47.5848 20.1024 47.0568 20.1024C46.6808 20.1024 46.3038 20.2524 45.9278 20.4034C44.7218 20.9304 43.4418 21.4584 42.2368 21.9854C42.0108 22.0604 41.7848 22.1354 41.5588 22.2114C41.1068 22.2864 40.7298 22.1354 40.2778 22.0604C39.3748 21.9104 38.4708 22.0604 37.7928 22.5124C37.4158 22.8894 37.2658 23.1154 37.1898 23.4914Z" fill="#6F6F6F"/>
</g>
<defs>
<clipPath id="clip0_104_2464">
<rect width="52.5838" height="29.8871" fill="white" transform="translate(0.273926 0.556641)"/>
</clipPath>
</defs>
</svg>
