<svg width="168" height="151" viewBox="0 0 168 151" fill="none" xmlns="http://www.w3.org/2000/svg">
<g id="alga 1">
<g id="alga 1_2">
<mask id="mask0_103_13868" style="mask-type:luminance" maskUnits="userSpaceOnUse" x="0" y="0" width="168" height="151">
<g id="clippath61">
<path id="Vector" fill-rule="evenodd" clip-rule="evenodd" d="M0.20459 0.396973H167.103V150.472H0.20459V0.396973Z" fill="white"/>
</g>
</mask>
<g mask="url(#mask0_103_13868)">
<g id="Group">
<g id="Group_2">
<path id="Vector_2" d="M112.506 0.432129C112.506 0.432129 111.525 10.1041 119.048 18.4211C126.57 26.7381 124.561 33.8403 123.58 50.4276C122.599 67.0148 128.72 67.6223 134.654 76.3131C140.588 85.0039 131.897 98.8344 130.682 108.319C130.168 112.525 131.523 117.664 133.158 122.01C132.411 118.085 132.364 112.665 134.233 106.497C136.99 97.3859 141.335 95.6104 143.531 88.1344C145.727 80.6117 142.13 64.2114 147.269 48.6053C152.409 32.9993 164.277 21.5984 164.277 21.5984C164.277 21.5984 161.333 26.5512 159.137 38.7931C156.941 51.035 162.315 55.3804 164.884 67.8559C167.454 80.3314 156.988 96.9187 151.054 107.198C145.12 117.478 153.998 126.168 155.399 136.822C156.801 147.475 148.484 160.324 148.484 160.324C148.484 160.324 150.447 163.875 146.522 173.173C142.55 182.472 135.635 184.247 135.635 184.247C135.635 184.247 128.72 179.481 127.925 171.398C127.131 163.314 133.439 162.1 132.458 152.615C131.476 143.129 126.523 144.298 120.216 137.803C113.908 131.261 112.506 122.197 112.693 106.964C112.88 91.7322 118.627 82.6676 117.038 69.2109C115.45 55.7542 105.357 47.0634 102.6 30.4761C99.8437 13.8888 112.506 0.432129 112.506 0.432129ZM60.5015 36.2233C60.5015 36.2233 59.0997 37.8119 63.2582 46.5027C67.4167 55.1935 71.5752 60.9406 85.5926 64.4917C99.6101 68.0428 108.114 83.275 101.993 94.3488C95.8721 105.423 101.806 116.683 110.871 127.757C119.935 138.831 119.001 151.026 119.001 151.026C119.001 151.026 123.767 161.305 121.758 170.604C119.795 179.902 114.842 186.21 114.842 186.21C108.908 184.434 111.665 181.07 111.665 181.07C111.665 181.07 103.769 184.808 98.4419 178.126C93.1153 171.398 97.2738 168.454 97.2738 168.454C97.2738 168.454 96.2926 164.903 92.9284 155.605C89.5642 146.307 66.0617 146.494 53.5862 148.316C41.1574 150.091 21.9536 147.335 11.9078 131.729C1.81522 116.123 -0.147217 96.9654 -0.147217 96.9654C-0.147217 96.9654 9.33789 97.7597 19.0099 99.909C28.6819 102.105 37.9802 110.002 40.3631 120.281C42.7461 130.56 62.5106 138.27 69.1923 134.719C75.9206 131.168 94.2835 132.149 94.2835 132.149C94.2835 132.149 86.2001 130.374 82.2285 119.113C78.2569 107.852 84.1909 103.507 83.6302 90.8444C83.0228 78.182 60.6884 77.3877 58.539 57.6232C56.3897 37.8586 60.5015 36.2233 60.5015 36.2233Z" fill="#10A959"/>
<path id="Vector_3" d="M111.104 6.45947C111.244 6.45947 111.384 6.5062 111.478 6.64637C111.571 6.78655 111.618 6.92672 111.571 7.0669C111.571 7.0669 109.609 16.7856 114.515 28.5135C119.468 40.4283 119.094 45.3344 119.094 53.1842C119.094 60.9872 121.243 70.2387 125.589 80.4714C126.71 83.1347 126.85 85.4242 126.43 87.5269C126.009 89.6762 125.075 91.6386 124.047 93.7412C122.038 97.8998 119.701 102.572 120.496 110.048C121.29 117.524 124.701 123.645 128.392 129.439C132.084 135.233 136.055 140.746 137.877 147.101C141.475 159.67 139.466 169.669 136.476 176.491C136.429 176.678 136.289 176.771 136.102 176.818C135.915 176.865 135.728 176.771 135.635 176.631C135.541 176.491 135.541 176.304 135.588 176.117C138.532 169.482 140.494 159.717 136.943 147.381C135.214 141.26 131.289 135.793 127.551 129.953C123.813 124.112 120.309 117.851 119.515 110.142C118.72 102.432 121.15 97.4792 123.159 93.3207C124.187 91.2181 125.075 89.3491 125.449 87.3867C125.822 85.4243 125.729 83.3684 124.654 80.892C120.309 70.5658 118.113 61.2209 118.113 53.2309C118.113 45.2877 118.533 40.7087 113.627 28.8874C108.628 16.8791 110.637 6.88002 110.637 6.88002C110.684 6.64637 110.87 6.45947 111.104 6.45947ZM156.193 38.5126C156.38 38.5126 156.521 38.6061 156.614 38.7463C156.707 38.8864 156.707 39.0733 156.614 39.2135C156.614 39.2135 155.726 40.8489 154.979 44.6336C154.231 48.3715 153.717 54.2121 154.511 62.4824C156.1 79.1631 153.297 85.6579 145.587 101.077C141.756 108.693 141.756 114.814 142.643 118.973C143.531 123.178 145.353 125.467 145.353 125.467C145.54 125.654 145.494 125.981 145.26 126.121C145.026 126.262 144.746 126.262 144.606 126.028C144.606 126.028 142.643 123.552 141.709 119.159C140.774 114.767 140.821 108.413 144.746 100.61C152.455 85.1906 155.166 79.0696 153.577 62.5291C152.783 54.1654 153.343 48.2781 154.091 44.3999C154.838 40.5685 155.82 38.7462 155.82 38.7462C155.82 38.6061 156.007 38.5126 156.193 38.5126ZM63.3047 54.3056C63.4916 54.3056 63.6785 54.4458 63.772 54.6327C66.7156 63.4169 71.4816 67.3885 80.4994 71.3601C85.1719 73.416 88.1623 77.3409 89.6575 82.247C91.1527 87.1531 91.2461 92.9936 90.2649 98.9744C89.2837 104.862 89.7977 108.88 91.8535 113.599C93.9094 118.318 97.5072 123.645 102.647 131.822C113.067 148.456 104.656 165.09 104.656 165.09C104.563 165.23 104.422 165.37 104.236 165.37C104.049 165.37 103.909 165.277 103.815 165.137C103.722 164.996 103.722 164.81 103.815 164.669C103.815 164.669 111.992 148.503 101.853 132.336C96.7129 124.159 93.1151 118.786 91.0125 113.973C88.9099 109.16 88.3492 104.815 89.3304 98.7875C90.3116 92.9002 90.2182 87.1998 88.7697 82.5273C87.3213 77.8549 84.5645 74.1636 80.1256 72.2479C70.9676 68.2763 65.8746 63.9776 62.8842 54.9597C62.8375 54.8196 62.8375 54.6327 62.931 54.5392C62.9777 54.399 63.1178 54.3056 63.3047 54.3056ZM150.026 56.0811C150.166 56.0811 150.259 56.1278 150.353 56.2213C150.446 56.3147 150.493 56.4549 150.493 56.5484C150.493 56.9222 150.353 57.2492 150.213 57.9501C150.073 58.6043 149.839 59.5388 149.699 60.7536C149.325 63.1833 149.045 66.8745 149.325 72.1544C149.325 72.3413 149.278 72.5282 149.138 72.6217C148.998 72.7151 148.811 72.7151 148.624 72.6684C148.484 72.575 148.39 72.4348 148.39 72.2479C148.11 66.8745 148.39 63.1366 148.764 60.6601C148.951 59.3986 149.138 58.4641 149.325 57.8099C149.465 57.1558 149.559 56.6885 149.559 56.6418C149.559 56.5016 149.605 56.4082 149.699 56.3147C149.792 56.2213 149.932 56.0811 150.026 56.0811ZM89.7509 70.0985C89.7977 70.0985 89.8444 70.0985 89.8911 70.0985C89.8911 70.0985 95.685 71.7806 97.3203 78.5557C97.3671 78.7426 97.3203 78.9295 97.1801 79.023C97.04 79.1631 96.8531 79.2099 96.7129 79.1164C96.526 79.0697 96.4326 78.9295 96.3858 78.7426C94.8439 72.4348 89.6107 70.9863 89.6107 70.9863C89.3771 70.9396 89.237 70.706 89.2837 70.4723C89.3304 70.2387 89.5173 70.0985 89.7509 70.0985ZM131.056 79.7705C131.242 79.7705 131.429 79.9107 131.523 80.0976C131.523 80.0976 133.766 87.1531 131.102 93.8347C131.056 93.9749 130.915 94.115 130.729 94.1618C130.542 94.2085 130.401 94.115 130.261 93.9749C130.168 93.8347 130.121 93.6478 130.215 93.5076C132.691 87.1998 130.588 80.378 130.588 80.378C130.542 80.2378 130.588 80.0509 130.635 79.9574C130.682 79.864 130.915 79.7705 131.056 79.7705ZM4.94557 100.563H4.99229C5.03902 100.563 5.08575 100.563 5.13246 100.61C5.13246 100.61 13.1691 103.413 18.963 110.422C24.8036 117.477 27.5136 128.177 39.1948 135.233C50.8292 142.242 66.3418 139.905 76.4344 138.504C86.8073 137.055 95.6382 146.166 95.6382 146.166C95.7784 146.307 95.8251 146.447 95.7784 146.634C95.7317 146.821 95.5915 146.914 95.4046 146.961C95.2177 147.007 95.0775 146.961 94.9374 146.821C94.9374 146.821 86.34 138.13 76.5746 139.438C66.482 140.84 50.7825 143.269 38.7275 136.027C26.7193 128.832 23.8691 117.804 18.2621 111.029C12.6084 104.254 4.85211 101.498 4.85211 101.498C4.61848 101.404 4.47832 101.217 4.52504 100.984C4.52505 100.75 4.71194 100.563 4.94557 100.563ZM22.7944 103.133C22.8879 103.133 22.9346 103.18 23.028 103.18C23.028 103.18 29.663 106.777 32.887 112.852C32.9804 112.992 32.9804 113.179 32.887 113.319C32.7935 113.459 32.6533 113.553 32.4664 113.553C32.2795 113.553 32.1394 113.459 32.0459 113.272C28.9621 107.525 22.5608 103.974 22.5608 103.974C22.3739 103.881 22.2805 103.647 22.3272 103.413C22.3739 103.273 22.5608 103.086 22.7944 103.133ZM86.1999 111.824C86.4335 111.824 86.6204 112.011 86.6671 112.198C86.7138 112.384 86.7138 112.571 86.7138 112.805C86.7138 113.039 86.7606 113.366 86.7606 113.739C86.8073 114.487 86.9007 115.422 87.1344 116.496C87.5549 118.646 88.4894 121.356 90.4985 123.832C90.6854 124.019 90.6387 124.346 90.4051 124.486C90.2182 124.673 89.8911 124.626 89.7509 124.393C87.6016 121.729 86.6671 118.879 86.1999 116.636C85.9662 115.515 85.8728 114.487 85.8261 113.739C85.7793 113.366 85.7793 113.039 85.7793 112.805C85.7793 112.571 85.7326 112.384 85.7326 112.384C85.6859 112.244 85.7326 112.104 85.826 111.964C85.9195 111.824 86.0597 111.824 86.1999 111.824ZM116.431 120.515H116.477C116.618 120.515 116.758 120.608 116.851 120.701C116.945 120.795 116.945 120.982 116.945 121.122C116.945 121.122 116.898 121.309 116.898 121.729C116.898 122.197 116.945 122.897 117.225 123.832C117.739 125.701 118.954 128.551 121.991 132.383C122.178 132.569 122.131 132.897 121.898 133.037C121.664 133.177 121.384 133.177 121.243 132.943C118.16 129.065 116.851 126.075 116.291 124.066C116.01 123.038 115.963 122.29 115.963 121.729C115.963 121.215 116.057 120.888 116.057 120.888C116.01 120.655 116.197 120.515 116.431 120.515ZM95.3112 132.383C95.3112 132.383 97.6941 132.523 99.8902 134.158C102.086 135.793 104.095 138.924 103.488 144.578C102.273 155.698 99.5164 159.903 98.9557 166.492C98.9557 166.678 98.8623 166.819 98.6753 166.912C98.4884 167.006 98.3016 166.959 98.1614 166.865C98.0212 166.772 97.9277 166.585 97.9745 166.398C98.5819 159.576 101.339 155.465 102.507 144.438C103.067 139.017 101.245 136.354 99.2828 134.906C97.3203 133.457 95.2177 133.317 95.2177 133.317C94.9374 133.317 94.7505 133.083 94.7972 132.803C94.8439 132.569 95.0308 132.383 95.3112 132.383ZM147.876 132.943C148.063 132.943 148.25 133.083 148.297 133.27C148.297 133.27 150.914 139.859 150.493 147.521C150.493 147.802 150.259 147.989 149.979 147.942C149.699 147.942 149.512 147.708 149.512 147.428C149.886 140.045 147.363 133.597 147.363 133.597C147.316 133.457 147.316 133.27 147.409 133.13C147.549 133.037 147.736 132.943 147.876 132.943ZM138.765 133.364H138.812C138.952 133.364 139.092 133.457 139.186 133.597C139.186 133.597 146.942 146.073 148.157 156.726C148.204 156.913 148.11 157.053 147.97 157.193C147.83 157.287 147.643 157.334 147.503 157.24C147.363 157.147 147.222 157.007 147.222 156.866C146.054 146.587 138.391 134.158 138.391 134.158C138.298 134.018 138.298 133.831 138.345 133.691C138.438 133.457 138.578 133.364 138.765 133.364ZM90.5452 134.532C90.5452 134.532 92.5544 134.532 94.7505 135.233C96.9465 135.934 99.4697 137.429 100.311 140.419C100.404 140.653 100.217 140.933 99.9836 141.027C99.75 141.12 99.4697 140.933 99.3762 140.7C98.6286 138.13 96.4793 136.868 94.4701 136.167C92.461 135.466 90.5452 135.513 90.5452 135.513C90.2649 135.513 90.078 135.28 90.078 135.046C90.078 134.812 90.3116 134.532 90.5452 134.532ZM24.1494 137.709C24.2429 137.709 24.3831 137.756 24.4298 137.803C24.4298 137.803 31.4385 143.643 42.9328 144.811C43.1664 144.858 43.3533 145.092 43.3533 145.325C43.3533 145.559 43.1197 145.793 42.8393 145.746C31.018 144.531 23.8224 138.504 23.8224 138.504C23.6822 138.363 23.5887 138.176 23.6822 137.943C23.7756 137.803 23.9625 137.709 24.1494 137.709ZM113.674 144.438C113.861 144.438 114.048 144.578 114.141 144.765C114.141 144.765 115.169 148.222 114.375 153.082C114.375 153.269 114.235 153.409 114.095 153.455C113.908 153.502 113.767 153.502 113.627 153.362C113.487 153.269 113.44 153.082 113.487 152.895C114.281 148.269 113.3 144.998 113.3 144.998C113.253 144.858 113.3 144.671 113.394 144.578C113.487 144.484 113.534 144.391 113.674 144.438ZM118.393 152.521H118.44C118.58 152.521 118.72 152.614 118.814 152.755C118.907 152.895 118.907 153.082 118.814 153.222C118.814 153.222 116.851 157.1 115.076 162.333C113.3 167.566 111.665 174.154 112.366 179.434C112.412 179.715 112.226 179.948 111.945 179.948C111.665 179.948 111.431 179.808 111.431 179.528C110.73 173.968 112.366 167.286 114.188 162.006C116.01 156.726 117.973 152.801 117.973 152.801C118.066 152.614 118.253 152.521 118.393 152.521ZM143.157 156.072C143.344 156.072 143.484 156.165 143.578 156.352C143.578 156.352 145.634 160.277 144.606 166.165C144.559 166.351 144.466 166.492 144.279 166.538C144.092 166.585 143.952 166.585 143.811 166.445C143.671 166.351 143.625 166.165 143.671 165.978C144.652 160.371 142.737 156.773 142.737 156.773C142.643 156.633 142.643 156.446 142.737 156.306C142.783 156.165 142.97 156.072 143.157 156.072ZM119.421 164.576C119.608 164.576 119.795 164.716 119.842 164.95C119.842 164.95 120.029 165.604 119.935 166.912C119.842 168.22 119.561 170.23 118.674 173.127C118.627 173.313 118.487 173.407 118.3 173.454C118.113 173.5 117.973 173.454 117.832 173.313C117.739 173.173 117.692 172.986 117.739 172.846C118.627 169.996 118.907 168.08 119.001 166.865C119.094 165.651 118.954 165.23 118.954 165.23C118.907 165.09 118.954 164.903 119.047 164.81C119.141 164.623 119.281 164.576 119.421 164.576Z" fill="#3F5725"/>
</g>
</g>
</g>
</g>
</g>
</svg>
