<svg width="36" height="108" viewBox="0 0 36 108" fill="none" xmlns="http://www.w3.org/2000/svg">
<g id="garrafa pet">
<g id="Group">
<path id="Vector" d="M33.4703 76.0548C33.5082 75.036 33.5816 74.0479 33.6982 73.0055C33.7159 72.8554 33.7335 72.7053 33.7512 72.5548C33.7701 72.4072 33.7891 72.2592 33.8082 72.1108C34.1975 70.5542 34.624 68.9934 34.95 67.4075C35.1123 66.613 35.243 65.8117 35.3343 65.0093C35.4233 64.2066 35.4743 63.4036 35.4931 62.6061C35.4987 62.3054 35.5289 61.9392 35.5319 61.5978C35.5357 61.3784 35.5395 61.1589 35.5432 60.9393C35.5448 60.7202 35.5463 60.5009 35.548 60.2817C35.5499 59.8432 35.5517 59.4046 35.5536 58.9656C35.5618 56.1427 35.5479 53.3023 35.6041 50.5251C35.6211 49.6815 35.6116 48.752 35.58 47.944C35.5537 47.2705 35.5531 46.622 35.5753 45.9315C35.6021 45.0985 35.5963 44.2069 35.5979 43.3209C35.5979 42.9166 35.5986 42.5459 35.5909 42.2047C35.5822 41.8626 35.5555 41.5591 35.5208 41.3028C35.4658 40.9085 35.3928 40.6277 35.3266 40.4839C35.2806 40.2078 35.2243 39.9333 35.1593 39.6612C35.1064 39.4373 35.0456 39.2163 34.9795 38.9976C34.9756 38.9839 34.972 38.9721 34.9689 38.9628C34.9272 38.8262 34.8839 38.6903 34.8378 38.5558C34.8496 38.56 34.8538 38.5433 34.8465 38.5024C34.8218 38.3645 34.7892 38.1991 34.7397 38.0219C34.6916 37.8442 34.6409 37.6489 34.5796 37.452C34.4849 37.1506 34.3011 36.7017 34.04 36.2C33.5441 35.2465 32.9795 34.336 32.3978 33.444C31.4734 32.0304 30.5117 30.6541 29.6211 29.236L29.2905 28.7023L29.1257 28.4353L28.9654 28.1658L28.6459 27.6263L28.3378 27.0806L28.1838 26.8077C28.1332 26.7164 28.0853 26.6237 28.0359 26.5316L27.7415 25.9787C27.6446 25.7939 27.5542 25.6058 27.4601 25.4195L27.3203 25.1394L27.2505 24.9993L27.1847 24.8574C26.719 23.8068 26.2365 22.6287 25.8423 21.5484C25.7815 21.3789 25.7213 21.2114 25.6617 21.0452C25.631 20.9624 25.6059 20.8782 25.5795 20.7948C25.5534 20.7113 25.5274 20.628 25.5016 20.5452C25.4504 20.3791 25.3996 20.2142 25.349 20.0501C25.3242 19.9679 25.2981 19.8862 25.2747 19.804C25.2526 19.7213 25.2305 19.6388 25.2084 19.5563C25.1215 19.2261 25.0303 18.8985 24.9463 18.5671C24.8686 18.234 24.7892 17.8995 24.7059 17.5603C24.4059 16.2506 24.1762 14.9247 23.9988 13.5899C24.1573 13.5403 24.3159 13.4842 24.4743 13.4157C24.5968 13.361 24.7194 13.3023 24.8409 13.2233C24.9617 13.1446 25.0842 13.051 25.1918 12.9143C25.2194 12.8828 25.2428 12.8407 25.267 12.8031C25.2896 12.7628 25.31 12.7183 25.3273 12.6735C25.3418 12.6259 25.3586 12.5792 25.3639 12.529L25.3691 12.4917L25.3714 12.4732L25.3725 12.4638L25.3731 12.4577L25.3737 12.4438L25.3739 12.3898L25.373 12.0237L25.3714 11.2914L25.3682 9.82662L25.368 9.77875C25.3678 9.77231 25.3675 9.75632 25.3671 9.75465L25.3661 9.74531L25.3639 9.72672L25.3589 9.68954C25.3561 9.66451 25.3503 9.64052 25.3436 9.61664C25.3368 9.59306 25.3317 9.56803 25.3221 9.54612C25.2892 9.45338 25.2398 9.37581 25.1876 9.30571C25.0801 9.17101 24.958 9.07786 24.8374 9.00018C24.661 8.88916 24.4831 8.80951 24.3051 8.74242C24.3039 8.13469 24.3027 7.52674 24.3015 6.9187C24.2987 5.4975 24.2972 4.09738 24.2551 2.75272C24.253 2.67182 24.2509 2.58968 24.2487 2.50639L24.2481 2.47513C24.2478 2.44428 24.2447 2.43203 24.2428 2.41479C24.2393 2.38135 24.2306 2.34916 24.222 2.31686C24.202 2.25424 24.1751 2.19338 24.141 2.1426C24.0744 2.03729 23.9911 1.962 23.908 1.89699C23.8242 1.83281 23.7377 1.7812 23.6506 1.73581C23.4762 1.64578 23.2985 1.57786 23.1204 1.5198C22.9422 1.46144 22.7634 1.41346 22.5856 1.37099C22.1541 1.2688 21.7169 1.19745 21.2776 1.14127C20.8383 1.0855 20.397 1.04624 19.9565 1.02028C19.2432 0.978534 18.5279 0.962749 17.813 0.976561C17.0986 0.990373 16.3849 1.02766 15.6712 1.0989C15.3142 1.13483 14.9574 1.18 14.6005 1.24013C14.2435 1.30151 13.8866 1.37504 13.5297 1.48803C13.3512 1.54546 13.1725 1.61161 12.9943 1.70518C12.9053 1.75222 12.8162 1.80612 12.729 1.87497C12.6424 1.94341 12.5551 2.0294 12.4863 2.14654C12.4528 2.20543 12.4235 2.27137 12.408 2.34365C12.4034 2.36141 12.3999 2.37938 12.3978 2.39766L12.3944 2.42497L12.3928 2.43868L12.3921 2.44553L12.3914 2.46204L12.3911 2.53578L12.3911 2.80132L12.3911 3.33231C12.3916 5.14274 12.3922 6.95515 12.3927 8.76174C12.2136 8.82882 12.0351 8.90817 11.8591 9.01762C11.742 9.09198 11.6243 9.18088 11.5202 9.30643C11.4691 9.3702 11.4207 9.44237 11.3869 9.52815C11.3682 9.56938 11.3571 9.6157 11.3455 9.66077C11.3414 9.68393 11.3382 9.7073 11.3352 9.73056L11.333 9.74811L11.332 9.75704L11.331 9.78186L11.331 9.8045C11.3296 10.2844 11.3282 10.7635 11.3268 11.2421C11.3261 11.4983 11.3253 11.7488 11.3246 11.9964C11.3245 12.1202 11.3244 12.2432 11.3243 12.3659L11.3243 12.4119L11.3243 12.4368C11.3244 12.4444 11.3248 12.4563 11.3253 12.4604L11.3265 12.4694L11.3289 12.4875C11.3356 12.5357 11.3423 12.5842 11.3588 12.6288C11.3661 12.6515 11.3734 12.6744 11.3818 12.6963L11.4119 12.7581C11.4316 12.8008 11.457 12.8349 11.4816 12.871C11.5834 13.0101 11.7039 13.1049 11.8232 13.1839C11.9433 13.2618 12.0657 13.3256 12.189 13.3783C12.3642 13.4544 12.5416 13.5145 12.7216 13.5668C12.5373 15.2356 12.2122 16.9526 11.7964 18.6086C11.7327 18.8572 11.6637 19.1035 11.5986 19.3505C11.5316 19.5968 11.4713 19.8447 11.3942 20.0873C11.3209 20.3311 11.2477 20.5748 11.1744 20.8185C11.1559 20.8794 11.1384 20.9406 11.1189 21.0012L11.0577 21.1821L10.9352 21.5441C10.5017 22.6745 10.0402 23.8072 9.5121 24.9144C8.98755 26.0228 8.41035 27.1108 7.77976 28.161C7.65649 28.3708 7.52855 28.5885 7.40175 28.8042C7.27567 29.0205 7.15417 29.2372 7.03308 29.4383C6.85383 29.7399 6.70917 29.9685 6.49565 30.2734C5.4587 31.766 4.30377 33.4698 3.31605 35.0276C3.26288 35.1221 3.20991 35.2164 3.15685 35.3107L3.00294 35.5966C2.90085 35.7873 2.79732 35.9771 2.70219 36.1722C2.50726 36.5596 2.32178 36.9538 2.14773 37.3587C1.97419 37.7635 1.80845 38.1992 1.66638 38.6321C1.52379 39.065 1.40561 39.495 1.3109 39.8843C1.11161 40.6879 1.01586 41.5177 1.00558 42.3475L1.00558 42.3485C1.00547 42.3567 1.00713 42.3646 1.00776 42.3726C1.00225 42.6046 1.00257 42.8095 1.00122 43.0225L0.99945 43.6978C1.00038 44.1481 1.00142 44.5987 1.00236 45.0496C1.00682 45.9515 1.01586 46.8551 1.02656 47.7617C1.03268 48.2729 1.04919 48.7433 1.03362 49.2938C0.980134 51.1732 0.997373 53.1427 1.00672 55.0759C1.01368 56.5123 1.01004 57.8734 0.976603 59.2571C0.965075 59.7323 0.956664 60.2108 0.951367 60.6902C0.945448 61.1708 0.947317 61.6556 0.962375 62.1378C0.991246 63.1027 1.06893 64.0637 1.20902 64.9913C1.27943 65.4595 1.35888 65.929 1.44694 66.3988C1.49347 66.6331 1.5401 66.8679 1.58693 67.1033C1.63439 67.3385 1.68528 67.5733 1.73731 67.8081C1.94553 68.7473 2.17753 69.6856 2.40621 70.6256C2.52938 71.1375 2.64684 71.6252 2.76761 72.1272C2.82764 72.6037 2.88943 73.0938 2.95673 73.6282C3.107 74.7917 3.12611 75.9237 3.19465 77.1972C3.24834 78.2008 3.25592 79.3508 3.21739 80.3268C3.1826 81.2342 3.18177 82.0699 3.11572 82.8577C3.02194 84.0302 2.98996 84.8845 2.9048 85.8183C2.83044 86.6025 2.76159 87.0299 2.63095 87.5024C2.52803 87.8752 2.47839 88.4224 2.37703 88.8703C2.30195 89.2031 2.21388 89.5318 2.11481 89.8511C2.08926 89.9303 2.06548 90.0113 2.03785 90.0873C2.01116 90.1642 1.98572 90.2403 1.95446 90.3224C1.89516 90.4844 1.83836 90.6494 1.78737 90.8138C1.65589 91.2359 1.55038 91.6591 1.46159 92.0852C1.41724 92.298 1.37684 92.5127 1.33998 92.7263C1.3028 92.9395 1.26583 93.1554 1.2326 93.3735C1.11981 94.1103 1.05096 94.8553 1.0224 95.5944C1.0169 95.7776 1.01129 95.9603 1.00579 96.1423C0.999866 96.3252 0.994985 96.5075 0.991558 96.6892C0.988131 96.8708 0.985742 97.0517 0.984703 97.2317C0.984392 97.4091 0.983976 97.5856 0.983665 97.761C0.983769 97.7736 0.9846 97.7877 0.986573 97.8005L0.987819 97.8087C1.02894 98.0838 1.06737 98.353 1.1033 98.6197C1.15637 99.0139 1.31505 99.7158 1.3595 99.7736C1.42482 99.8585 1.47903 99.8761 1.54571 99.9693C1.58963 100.031 1.64333 100.264 1.67064 100.489C1.68601 100.615 1.69016 100.715 1.68476 100.75C1.66742 100.865 1.63865 100.92 1.62297 101.043C1.59919 101.231 1.65589 101.715 1.78508 102.5C1.81406 102.676 1.84355 102.854 1.87304 103.032C1.8881 103.121 1.90316 103.21 1.91811 103.299C1.93483 103.389 1.95799 103.487 1.97824 103.58C1.9959 103.674 2.0283 103.764 2.05665 103.853C2.07129 103.898 2.08583 103.942 2.10027 103.986C2.11429 104.03 2.13537 104.071 2.15251 104.113C2.18958 104.196 2.2224 104.279 2.26259 104.356C2.30465 104.432 2.3464 104.505 2.38731 104.576L2.41577 104.625L2.44807 104.672L2.51328 104.767L2.57861 104.861L2.61142 104.908L2.64798 104.953C2.69668 105.012 2.7457 105.072 2.79482 105.132C2.8184 105.163 2.84571 105.191 2.87292 105.218L2.95403 105.303C3.05829 105.419 3.18198 105.517 3.29902 105.622C3.36123 105.671 3.42551 105.717 3.48886 105.765C3.52095 105.788 3.5519 105.813 3.58502 105.835L3.68638 105.899C4.22246 106.245 4.85927 106.459 5.5154 106.511C5.80213 106.529 6.06 106.524 6.32637 106.525C6.59171 106.526 6.85726 106.527 7.12166 106.528C7.38607 106.53 7.64943 106.532 7.91031 106.534C8.04074 106.535 8.17056 106.537 8.29964 106.538C8.42499 106.54 8.5654 106.543 8.70092 106.535C8.86147 106.527 9.02078 106.507 9.17749 106.477C9.25611 106.463 9.33285 106.441 9.41001 106.422C9.44844 106.412 9.48728 106.403 9.52529 106.392L9.63828 106.354C9.93924 106.254 10.2258 106.115 10.4929 105.945C11.0255 105.601 11.4778 105.134 11.8296 104.57C11.865 104.509 11.9072 104.444 11.9429 104.372C11.978 104.299 12.017 104.223 12.0525 104.142C12.0846 104.059 12.1198 103.974 12.1511 103.885C12.1782 103.795 12.2084 103.7 12.2333 103.609C12.3257 103.255 12.4196 102.881 12.5026 102.549C12.5544 102.342 12.604 102.137 12.6529 101.933C12.6697 101.933 12.6866 101.933 12.7034 101.932C12.8044 102.29 12.9042 102.646 12.9991 103.008C13.0528 103.213 13.1049 103.418 13.1561 103.624C13.1879 103.732 13.2185 103.841 13.252 103.949C13.2931 104.054 13.331 104.161 13.3756 104.266C13.5584 104.681 13.8166 105.068 14.1392 105.396C14.1667 105.423 14.1956 105.451 14.2254 105.481C14.255 105.51 14.2863 105.54 14.321 105.566C14.3888 105.621 14.4587 105.678 14.5276 105.73C14.6 105.778 14.6704 105.824 14.7343 105.864C14.797 105.907 14.8601 105.934 14.9084 105.96C15.1078 106.061 15.1398 106.036 15.2726 106.078C15.3048 106.088 15.3394 106.099 15.3756 106.11C15.4125 106.119 15.4509 106.128 15.4901 106.138C15.5288 106.147 15.5683 106.157 15.6075 106.167C15.6466 106.176 15.6851 106.186 15.7241 106.191C15.8017 106.225 15.9045 106.27 15.9953 106.303C16.0867 106.333 16.1635 106.361 16.1832 106.376C16.2049 106.393 16.2347 106.412 16.2732 106.426C16.3118 106.44 16.3586 106.453 16.4127 106.466C16.4669 106.477 16.5282 106.492 16.5966 106.5C16.6652 106.505 16.7405 106.51 16.8217 106.514C16.9052 106.52 16.9844 106.517 17.0722 106.517C17.1594 106.515 17.2515 106.514 17.3481 106.512C17.5411 106.507 17.7519 106.501 17.976 106.495C18.3657 106.484 18.9791 106.508 19.4682 106.521L19.6631 106.526L19.7607 106.528L19.8641 106.526L20.0722 106.521C20.1415 106.518 20.2104 106.507 20.2796 106.501C20.4185 106.49 20.554 106.457 20.6904 106.43C20.7247 106.424 20.7582 106.415 20.7913 106.405L20.8912 106.376L20.991 106.346L21.0408 106.331L21.0893 106.312C21.6085 106.122 22.0848 105.823 22.4488 105.438L22.5381 105.344C22.5679 105.312 22.5982 105.282 22.6245 105.247L22.7881 105.045L22.936 104.831C22.9481 104.813 22.961 104.796 22.9724 104.777L23.0051 104.721L23.0704 104.609C23.2394 104.307 23.3763 103.986 23.4638 103.651C23.6169 103.063 23.7737 102.479 23.9397 101.897C23.9746 101.898 24.0088 101.899 24.0436 101.9C24.1157 102.205 24.1886 102.508 24.2632 102.81C24.3075 102.987 24.3518 103.163 24.3959 103.339L24.4634 103.603C24.488 103.693 24.5184 103.787 24.5463 103.879C24.7915 104.612 25.2692 105.26 25.8889 105.706C26.5509 106.185 27.3478 106.447 28.1473 106.462C28.5304 106.467 28.9131 106.472 29.296 106.477C29.6776 106.483 30.0594 106.493 30.442 106.505C30.6595 106.512 30.8693 106.521 31.1013 106.509C31.2149 106.51 31.3264 106.49 31.4378 106.476C31.5499 106.466 31.6581 106.436 31.7664 106.412C32.198 106.306 32.5973 106.118 32.9368 105.875C33.2653 105.642 33.5794 105.348 33.8475 104.997C34.1156 104.645 34.3365 104.236 34.4821 103.787L34.5244 103.659C34.5381 103.616 34.546 103.572 34.5571 103.529C34.5768 103.442 34.6002 103.353 34.6168 103.269C34.6491 103.101 34.6814 102.933 34.7136 102.766C34.7775 102.43 34.8415 102.095 34.9063 101.755C35.0654 100.904 35.2262 100.044 35.3785 99.1822C35.443 98.8177 35.4957 98.4833 35.5318 98.2031C35.5499 98.063 35.5639 97.9364 35.5731 97.8264L35.5748 97.8059L35.5759 97.7927C35.5771 97.7821 35.5777 97.7714 35.5778 97.7609C35.5779 97.7543 35.5777 97.7528 35.5776 97.7516L35.5771 97.7467L35.5762 97.7369L35.5742 97.7177C35.5713 97.6924 35.5685 97.6682 35.5659 97.6452C35.5601 97.5992 35.5538 97.5578 35.5471 97.5214C35.5165 97.356 35.5028 97.0102 35.5218 96.7332C35.5333 96.5598 35.5454 96.3844 35.5532 96.2028C35.5568 96.1119 35.5605 96.0202 35.5641 95.9275C35.5654 95.8348 35.5666 95.7412 35.5678 95.6466C35.5686 95.2684 35.5575 94.8746 35.5228 94.4669C35.4561 93.6515 35.3172 92.7774 35.0774 91.8584C35.0406 91.7082 34.9963 91.5596 34.9559 91.4099C34.913 91.2609 34.8684 91.1121 34.8231 90.9634C34.7748 90.8156 34.7308 90.6663 34.6791 90.5193L34.6037 90.2981C34.5785 90.2247 34.5545 90.1559 34.5314 90.0835C34.3488 89.5079 34.2097 88.9082 34.0943 88.307C34.039 88.0054 33.9836 87.7042 33.9283 87.4038L33.8869 87.1785L33.852 86.9522C33.8285 86.8016 33.8051 86.651 33.7817 86.5008C33.6918 85.8992 33.6148 85.2997 33.5442 84.7065C33.4832 84.1931 33.4459 83.6956 33.4273 83.1785C33.404 82.5331 33.3787 81.8141 33.383 81.1953C33.3925 79.4979 33.4069 77.7318 33.4703 76.0548Z" fill="black"/>
<path id="Vector_2" d="M34.7102 39.0378C34.8143 39.363 34.8948 39.6739 34.9613 39.9979C34.9894 40.1618 35.015 40.3275 35.0373 40.4976C35.085 40.8613 35.1237 41.2425 35.151 41.659C32.1718 42.9766 25.7621 43.888 18.335 43.888C10.919 43.888 4.5176 42.9792 1.53261 41.6648C1.53116 41.6257 1.53012 41.5893 1.53023 41.558C1.52877 41.4163 1.52773 41.2907 1.543 41.1636C1.5565 41.0363 1.57415 40.9059 1.60874 40.7542C1.6265 40.6742 1.64114 40.5987 1.65848 40.528C1.67593 40.4575 1.69244 40.3913 1.70791 40.3286C1.7371 40.203 1.77043 40.0937 1.79671 39.9939C1.82257 39.894 1.84936 39.8051 1.87324 39.7217C1.89775 39.6385 1.91634 39.56 1.93929 39.4841C1.98291 39.3317 2.01926 39.1834 2.06724 39.0065C2.07856 38.9621 2.0904 38.9159 2.10286 38.8672C2.11636 38.8188 2.13048 38.768 2.14544 38.7143C2.16018 38.6605 2.17566 38.6037 2.19217 38.5435C2.21003 38.4835 2.22893 38.4202 2.24898 38.3529C2.31876 38.1182 2.40205 37.8749 2.49531 37.6273C2.50767 37.5985 2.51972 37.5695 2.53228 37.5409C2.68951 37.1835 2.859 36.8338 3.04177 36.4914C3.2232 36.1483 3.41398 35.8107 3.61326 35.4763C4.24094 34.3364 5.15254 33.0213 5.83692 31.9445C6.00453 31.681 6.14899 31.4594 6.33634 31.1913C6.53833 30.9027 6.69898 30.6545 6.78134 30.5068C6.85985 30.3638 6.95716 30.1947 7.08032 29.994C7.10992 29.9476 7.13983 29.9013 7.16922 29.8549C7.23849 29.7474 7.30693 29.6394 7.37484 29.5311C7.42719 29.4513 7.48243 29.3682 7.54142 29.2808C7.86699 28.7985 8.23265 28.211 8.58803 27.6004C8.94393 26.99 9.2885 26.3561 9.5879 25.7894C9.62363 25.726 9.76601 25.3973 9.83611 25.2309C9.93913 24.9874 10.0222 24.8046 10.1537 24.5465C10.4258 23.9992 10.5598 23.7086 10.6764 23.4347C10.7335 23.2973 10.7863 23.164 10.8476 23.0037C10.9068 22.8427 10.973 22.654 11.0599 22.407C11.0647 22.3931 11.0695 22.3785 11.0743 22.3645C11.0966 22.3152 11.1195 22.2648 11.1428 22.2134C11.1838 22.1121 11.2261 22.0071 11.2695 21.9C11.3546 21.6851 11.4431 21.4618 11.5301 21.2419C11.5735 21.1365 11.6109 21.0225 11.6512 20.9048C11.6904 20.7868 11.7309 20.6647 11.7721 20.5404C11.8119 20.4156 11.8524 20.2886 11.893 20.1611C11.9126 20.0973 11.9335 20.0335 11.9515 19.9692C11.9688 19.9046 11.986 19.8402 12.0031 19.7762C12.1364 19.2627 12.2629 18.7732 12.3115 18.4185C12.3424 18.2226 12.3599 18.0698 12.3736 17.9298C12.4116 17.7628 12.4482 17.5973 12.4811 17.4358C12.5308 17.1979 12.5771 16.9612 12.6207 16.7262C12.6435 16.6218 12.666 16.5168 12.688 16.4105C12.697 16.3768 12.7061 16.3424 12.7153 16.3066C12.7481 16.1865 12.7712 16.0503 12.7995 15.8917C12.8193 15.7758 12.8395 15.6475 12.8599 15.5033C12.9673 14.8869 13.0603 14.2541 13.1374 13.6283L13.1585 13.4438C13.1643 13.4448 13.1694 13.4464 13.1752 13.4473C13.3188 13.4702 13.4477 13.533 13.604 13.557C13.7269 13.5758 13.8653 13.6051 13.9819 13.6371C14.0905 13.6669 14.1947 13.6678 14.2896 13.6908C14.4311 13.725 14.5389 13.7162 14.6548 13.7192C14.7522 13.7219 14.8044 13.7306 14.8608 13.7641C14.9055 13.7902 14.9756 13.7743 15.0319 13.7818C15.1157 13.7932 15.198 13.815 15.2805 13.8227C15.3861 13.8323 15.4901 13.8287 15.5961 13.8357C15.81 13.8496 16.0251 13.8612 16.2248 13.9072C16.2728 13.9181 16.3616 13.9064 16.3705 13.8899C16.3837 13.8658 16.3885 13.8408 16.4026 13.8168C16.4118 13.801 16.4412 13.7963 16.4684 13.8039C16.4837 13.8082 16.4953 13.8154 16.4991 13.8214C16.5113 13.8406 16.5162 13.8597 16.5296 13.8789C16.55 13.9078 16.6085 13.9252 16.7054 13.934C16.7918 13.942 16.8845 13.9501 16.959 13.9404C17.0973 13.9222 17.2451 13.9238 17.3962 13.9287C17.5247 13.9333 17.6562 13.9372 17.7803 13.9477C17.9269 13.9602 18.0678 13.9273 18.2193 13.9546C18.2836 13.9663 18.3883 13.9629 18.4717 13.9594C18.5775 13.9549 18.6797 13.9382 18.7845 13.9357C18.8876 13.9333 18.9917 13.9446 19.0968 13.9452C19.1321 13.9453 19.1809 13.936 19.2058 13.9268C19.2313 13.9174 19.2328 13.903 19.2485 13.8911C19.2639 13.8796 19.2839 13.8685 19.3019 13.8572C19.3223 13.8673 19.3552 13.8765 19.3608 13.8875C19.3852 13.9361 19.4683 13.9205 19.5769 13.9035C19.6242 13.8961 19.6993 13.9053 19.7593 13.9087C19.8864 13.9166 20.0155 13.9145 20.1355 13.8889C20.299 13.8537 20.466 13.8418 20.634 13.8476C20.8268 13.8541 21.0137 13.8404 21.1977 13.7967C21.3827 13.7529 21.5665 13.7345 21.755 13.7361C21.8618 13.7371 21.9637 13.72 22.0568 13.6873C22.1467 13.6555 22.2496 13.6348 22.3595 13.6232C22.4435 13.6144 22.5259 13.6086 22.61 13.5982C22.7152 13.5851 22.8214 13.5709 22.9268 13.551C23.0159 13.5342 23.0872 13.507 23.1162 13.473C23.1329 13.4538 23.1725 13.4385 23.2076 13.4401C23.284 13.4442 23.3644 13.4394 23.4488 13.4272C23.4899 13.6959 23.532 13.951 23.5754 14.1875C23.5969 14.3047 23.6167 14.4204 23.6359 14.5353C23.6934 15.0127 23.7612 15.5073 23.8696 16.0709C23.9325 16.4015 23.9988 16.7263 24.0683 17.0497C24.0798 17.1099 24.0909 17.1701 24.1025 17.2303C24.1186 17.3119 24.1347 17.3936 24.1508 17.4753C24.1671 17.5571 24.1887 17.6379 24.208 17.7193C24.2396 17.8479 24.2726 17.9768 24.3067 18.1061C24.3522 18.3 24.3987 18.4951 24.4465 18.6926C24.664 19.5879 24.9315 20.4056 25.2223 21.2503C25.6615 22.5218 26.1465 23.7624 26.729 24.9805C26.8878 25.3319 27.0411 25.6631 27.1871 25.9766C27.3617 26.3496 27.4948 26.5951 27.7381 26.9973C27.8585 27.194 27.954 27.3428 28.1036 27.6114C28.331 28.0196 28.5658 28.4254 28.7793 28.7932C29.3084 29.7004 29.8509 30.5475 30.48 31.4413C31.0175 32.2669 31.5603 33.0628 32.1177 33.8906C32.1474 33.9348 32.1772 33.9798 32.207 34.0245C32.1976 34.0489 32.3104 34.2341 32.5686 34.6347C32.8259 35.0366 33.0765 35.4439 33.3147 35.8568C33.583 36.3546 33.8378 36.8613 34.0701 37.379C34.3126 37.9195 34.531 38.4719 34.7102 39.0378ZM18.3351 65.761C25.6819 65.761 32.0326 64.8691 35.0526 63.5744C35.0337 63.9123 35.0118 64.252 34.9857 64.5955C34.9546 65.007 34.9054 65.4322 34.8405 65.8589C34.7729 66.2852 34.6936 66.7137 34.5961 67.1311C34.292 68.4605 33.9355 69.7958 33.625 71.1503C33.5562 71.4495 33.4839 71.7332 33.4084 72.0186C33.4063 72.0266 33.4043 72.0361 33.4032 72.0445L33.403 72.0456C33.3742 72.2546 33.3413 72.4643 33.3125 72.6819C33.0485 74.6035 32.9201 76.551 32.893 78.5154C32.8611 80.9765 33.0081 83.4791 33.2216 85.8806C33.2345 86.026 33.2564 86.2131 33.2818 86.3988C33.3068 86.5846 33.3387 86.769 33.3638 86.9098C33.4286 87.2952 33.5147 87.6751 33.5859 88.0548C33.6233 88.2446 33.6565 88.4344 33.6949 88.6236C33.7353 88.8125 33.7754 89.0014 33.8191 89.19C33.9047 89.5676 33.9982 89.9442 34.1158 90.324C34.1448 90.4158 34.1738 90.5078 34.2027 90.5998C34.2309 90.6904 34.2598 90.7808 34.2852 90.8725C34.3112 90.964 34.3372 91.0556 34.3633 91.1474C34.3873 91.2397 34.4113 91.3323 34.4354 91.425C34.4901 91.641 34.5573 91.9121 34.6209 92.1791C34.6825 92.4465 34.7431 92.7092 34.7888 92.9074C34.9987 93.8117 35.1188 94.7307 35.1523 95.6541C35.1614 95.8853 35.1625 96.1154 35.1619 96.3481C35.1591 96.5826 35.1563 96.8173 35.1536 97.0525C35.1515 97.17 35.1494 97.2877 35.1475 97.4054L35.1439 97.5822L35.1421 97.6707L35.1411 97.7149L35.141 97.7202C35.1398 97.7199 35.1398 97.72 35.141 97.7202L35.1408 97.7309L35.1402 97.7342L35.1359 97.7559L35.1273 97.7993L35.11 97.8863L35.0751 98.0602C35.0515 98.1762 35.0279 98.2923 35.0044 98.4086C34.9732 98.5608 34.9315 98.7856 34.9123 98.923C34.7195 100.308 34.4336 101.637 34.1963 102.993C34.1848 103.059 34.1732 103.124 34.1617 103.19C34.1564 103.224 34.1491 103.253 34.1425 103.283L34.1225 103.373L34.1026 103.463C34.0959 103.493 34.0905 103.524 34.0799 103.553L34.0241 103.728C34.0145 103.757 34.0068 103.787 33.9957 103.816L33.9602 103.9C33.9369 103.957 33.9136 104.014 33.8904 104.07C33.8635 104.124 33.8343 104.178 33.8069 104.232C33.7787 104.286 33.7534 104.341 33.719 104.39C33.4705 104.803 33.1477 105.151 32.8062 105.419C32.7513 105.457 32.6964 105.496 32.6411 105.535C32.6131 105.554 32.5864 105.576 32.5571 105.593L32.4685 105.644C32.4088 105.676 32.351 105.714 32.2888 105.743C32.226 105.772 32.1632 105.8 32.1002 105.828C31.8438 105.931 31.5732 106.014 31.2926 106.044L31.188 106.059C31.1531 106.064 31.1175 106.063 31.0823 106.065L30.8705 106.075C30.7216 106.075 30.5701 106.073 30.42 106.072C30.1191 106.069 29.8183 106.064 29.5189 106.057C29.0731 106.047 28.6641 106.04 28.2573 106.041C27.875 106.04 27.4999 105.992 27.1071 105.872C27.0653 105.857 27.0191 105.841 26.9697 105.823C26.9451 105.814 26.9197 105.804 26.8935 105.794C26.8804 105.789 26.8672 105.784 26.8538 105.779C26.841 105.773 26.8279 105.767 26.8147 105.76C26.7095 105.709 26.5935 105.656 26.4858 105.585C26.3733 105.522 26.2709 105.441 26.1716 105.367C26.122 105.331 26.0794 105.288 26.0359 105.25C25.994 105.211 25.9503 105.178 25.9165 105.14C25.5696 104.784 25.2908 104.381 25.1125 103.94C25.09 103.885 25.0675 103.83 25.0452 103.775C25.0273 103.719 25.0096 103.663 24.9918 103.606C24.9545 103.498 24.9226 103.369 24.8882 103.249C24.819 103.006 24.7502 102.764 24.6817 102.522C24.5507 102.069 24.5014 101.831 24.4641 101.62C24.4465 101.521 24.3635 101.441 24.258 101.433L24.2177 101.43C24.106 101.421 24.0042 101.413 23.8833 101.403C23.8481 101.401 23.8137 101.398 23.7839 101.396C23.6675 101.388 23.5555 101.459 23.5171 101.575L23.5048 101.612C23.2703 102.319 23.1767 102.706 23.0527 103.473C23.0411 103.542 23.0268 103.602 23.0133 103.665C22.999 103.726 22.9875 103.787 22.965 103.842C22.9638 103.845 22.9627 103.848 22.9615 103.851C22.9538 103.87 22.946 103.889 22.9381 103.908C22.9178 103.956 22.8994 104.005 22.8772 104.054C22.8613 104.086 22.8445 104.116 22.8248 104.144C22.7976 104.187 22.7709 104.229 22.7441 104.272C22.7174 104.314 22.6851 104.353 22.656 104.394C22.6266 104.436 22.5966 104.478 22.5653 104.521C22.5309 104.563 22.496 104.606 22.46 104.652C22.3124 104.833 22.1335 105.051 21.8339 105.303C21.6537 105.445 21.458 105.587 21.2365 105.691C21.1296 105.751 21.0123 105.791 20.898 105.839C20.84 105.861 20.7797 105.876 20.7205 105.895C20.6611 105.913 20.6019 105.933 20.5404 105.943L20.3581 105.982C20.2971 105.993 20.235 105.998 20.1738 106.006C20.0516 106.025 19.9281 106.022 19.8068 106.028C19.7774 106.029 19.7446 106.029 19.7118 106.028C19.6793 106.028 19.6468 106.027 19.6145 106.027C19.5498 106.026 19.4855 106.025 19.4218 106.024C19.2942 106.021 19.1688 106.019 19.0459 106.016C18.3872 106.002 17.7331 105.991 17.082 105.985L16.96 105.983L16.8991 105.983L16.8433 105.98L16.6206 105.968L16.3999 105.939L16.3448 105.931L16.2904 105.92L16.1819 105.896L16.0734 105.872L15.9673 105.84L15.8611 105.807C15.8435 105.802 15.8256 105.797 15.8082 105.791L15.7567 105.771C15.6881 105.743 15.6187 105.717 15.5507 105.688L15.3516 105.591C15.091 105.451 14.8481 105.28 14.6291 105.081L14.47 104.927L14.3234 104.76L14.2866 104.719L14.2536 104.674L14.1874 104.585L14.1211 104.496L14.0623 104.401C13.979 104.278 13.9145 104.144 13.8465 104.012L13.7602 103.806C13.7444 103.773 13.7333 103.737 13.7221 103.701L13.6875 103.595L13.6526 103.488L13.6199 103.371L13.5542 103.136C13.51 102.98 13.4658 102.824 13.4216 102.667C13.3339 102.358 13.2402 101.981 13.1519 101.615C13.1239 101.5 13.0211 101.413 12.8969 101.411L12.887 101.411C12.7386 101.408 12.5925 101.405 12.4533 101.402C12.3311 101.4 12.2178 101.48 12.1834 101.603L12.1805 101.613C12.1792 101.618 12.178 101.622 12.1768 101.627C12.0811 101.968 11.989 102.305 11.9023 102.639C11.859 102.806 11.817 102.972 11.7766 103.137C11.7566 103.22 11.7368 103.302 11.717 103.385L11.6879 103.507L11.6579 103.62C11.5791 103.917 11.4592 104.2 11.2953 104.464C11.1313 104.727 10.9228 104.971 10.6662 105.182C10.3457 105.449 10.0028 105.655 9.64275 105.807C9.28291 105.958 8.89887 106.043 8.50849 106.043C8.29186 106.039 8.07803 106.036 7.86565 106.033C7.65162 106.031 7.43903 106.029 7.22676 106.028C6.80212 106.027 6.37851 106.029 5.94597 106.034C5.81149 106.031 5.69569 106.018 5.57574 106.011C5.51582 106.009 5.45715 105.998 5.39837 105.988C5.33969 105.98 5.28102 105.971 5.22255 105.962C5.1646 105.95 5.10758 105.935 5.05026 105.922L4.96437 105.902L4.92138 105.892L4.87953 105.879L4.71222 105.825C4.6845 105.816 4.65594 105.809 4.62904 105.798L4.54814 105.764L4.38603 105.698C4.33307 105.674 4.28197 105.646 4.22973 105.62L4.15164 105.581L4.11259 105.561L4.07541 105.538L3.92628 105.447C3.87519 105.419 3.82877 105.384 3.78183 105.349L3.64007 105.246C3.5951 105.209 3.55169 105.17 3.50714 105.132C3.46363 105.093 3.41617 105.057 3.37702 105.013C3.33537 104.971 3.2822 104.911 3.22778 104.848C3.17689 104.783 3.12871 104.711 3.08603 104.652C2.85745 104.315 2.69503 103.959 2.58733 103.599L2.56532 103.532C2.55888 103.51 2.55452 103.487 2.54891 103.464C2.53811 103.419 2.52731 103.373 2.51651 103.328C2.49324 103.241 2.47455 103.141 2.45451 103.045C2.41442 102.851 2.37236 102.661 2.32823 102.473C2.18772 101.874 2.07711 101.144 1.95769 100.459C1.85155 99.6015 1.70117 98.6778 1.53803 97.7336C1.53512 97.5881 1.53221 97.4421 1.5293 97.2956C1.52722 97.143 1.52619 96.9898 1.52639 96.8366C1.5266 96.6834 1.52795 96.53 1.53065 96.3769C1.53418 96.2226 1.53771 96.0684 1.54124 95.9146C1.55475 95.2158 1.6156 94.5039 1.69827 93.8351C1.7289 93.5861 1.76338 93.3402 1.80243 93.0963C1.84272 92.8512 1.88229 92.6074 1.92944 92.3669C1.9473 92.2749 1.9662 92.183 1.98552 92.0911C2.06154 91.7842 2.14233 91.4831 2.22739 91.187C2.26924 91.059 2.30507 90.9492 2.33975 90.843C2.38129 90.71 2.42481 90.5832 2.47123 90.4294C2.50643 90.3085 2.54444 90.1698 2.59003 90.0021C2.64954 89.812 2.70583 89.6249 2.75619 89.4374C2.89006 88.9517 3.00523 88.4667 3.09953 87.9375C3.18956 87.4281 3.25831 86.9091 3.31502 86.4028C3.34856 86.1117 3.37473 85.7958 3.39986 85.5039C3.40152 85.4898 3.40329 85.4757 3.40495 85.4616C3.42437 85.2686 3.44379 85.0757 3.46331 84.882C3.46695 84.8444 3.47069 84.8065 3.47432 84.7688C3.52365 84.3528 3.55875 83.9515 3.58482 83.5586C3.59344 83.453 3.60216 83.3478 3.61078 83.2431C3.61701 83.1271 3.62325 83.0114 3.62948 82.896C3.65232 82.4343 3.67652 81.9767 3.68026 81.5162C3.68234 81.399 3.69314 81.2033 3.70061 81.0606C3.72564 80.6606 3.72689 80.2767 3.73042 79.905C3.73146 79.7191 3.73135 79.5362 3.73 79.3558C3.72845 79.2825 3.72585 79.2098 3.72315 79.1372C3.73333 78.9096 3.74589 78.6976 3.7622 78.5049C3.80062 78.0568 3.80727 77.3919 3.73748 76.6942C3.63799 75.6677 3.55595 74.3828 3.39425 73.2957L3.39176 73.2752C3.36933 73.095 3.3469 72.9149 3.32447 72.7353C3.31969 72.6965 3.31481 72.6572 3.30993 72.6182C3.28916 72.4366 3.26641 72.2467 3.24232 72.0555L3.24232 72.0462L3.23796 72.0294C3.19621 71.8689 3.15363 71.7081 3.11136 71.5518C3.03971 71.2491 2.96587 70.9412 2.8831 70.6291C2.66076 69.7888 2.45139 68.9067 2.24234 68.131C2.09425 67.581 2.02249 67.1516 1.96257 66.7041C1.92217 66.4243 1.89506 66.167 1.86339 65.8817C1.83099 65.5964 1.79163 65.2835 1.72797 64.8908C1.65787 64.4444 1.6372 64.0168 1.61217 63.5716C4.62924 64.868 10.9835 65.761 18.3351 65.761ZM18.1602 95.595C18.1197 95.5724 18.0596 95.56 17.9961 95.5776C17.8988 95.6044 17.7762 95.5929 17.6739 95.6137C17.6005 95.6286 17.523 95.6023 17.4412 95.6048C17.362 95.6064 17.2793 95.5978 17.2056 95.613C17.1533 95.6237 17.1137 95.6143 17.0724 95.6037C17.0208 95.5905 16.9782 95.5651 16.9048 95.5797C16.8423 95.5921 16.7855 95.5628 16.7199 95.5766C16.681 95.5848 16.616 95.5921 16.5842 95.5848C16.4636 95.5565 16.3362 95.5566 16.2077 95.551C16.1291 95.5475 16.0516 95.5357 15.9736 95.5276C15.8422 95.5514 15.6829 95.5312 15.5545 95.5566C15.5231 95.563 15.4966 95.5652 15.4642 95.5564C15.4293 95.5468 15.3998 95.5472 15.3826 95.5592C15.349 95.5821 15.3026 95.6006 15.2379 95.575C15.1235 95.5296 14.9635 95.5325 14.8373 95.5008C14.8301 95.499 14.7938 95.5138 14.7755 95.5223C14.7486 95.5349 14.7285 95.5345 14.7003 95.5226C14.5807 95.4728 14.5754 95.4708 14.4697 95.4997C14.393 95.5207 14.3045 95.5311 14.2195 95.5453C14.1127 95.5629 14.0084 95.5631 13.8979 95.5345C13.7943 95.5082 13.6793 95.5045 13.5673 95.4987C13.3901 95.4891 13.2128 95.484 13.0359 95.4725C12.9526 95.4675 12.88 95.4524 12.8165 95.4263C12.7813 95.4117 12.738 95.3998 12.696 95.3881C12.6152 95.3658 12.4966 95.3656 12.4301 95.3898C12.3986 95.4012 12.3785 95.4176 12.3563 95.4324C12.3355 95.4462 12.3099 95.449 12.2901 95.4361C12.2539 95.4126 12.2237 95.3892 12.1443 95.3983C12.0862 95.4042 12.0258 95.4103 11.9678 95.4162C11.9355 95.4199 11.9054 95.4184 11.8776 95.4068C11.8173 95.3813 11.7584 95.3564 11.6983 95.3309C11.6599 95.3147 11.6187 95.3096 11.5692 95.3138C11.4631 95.3232 11.349 95.3107 11.2368 95.3025C11.1189 95.2937 11.0188 95.2704 10.9333 95.2302C10.894 95.2116 10.8661 95.2123 10.8175 95.2281C10.7936 95.2359 10.775 95.2452 10.7448 95.2389C10.699 95.2294 10.6532 95.218 10.6121 95.2047C10.5092 95.1716 10.4095 95.1521 10.2964 95.1677C10.2279 95.177 10.1501 95.1797 10.076 95.1843C10.0221 95.1873 9.98493 95.1715 9.99012 95.1482C9.99583 95.1225 9.97589 95.1112 9.92303 95.1117C9.8008 95.1128 9.67794 95.1133 9.55706 95.1166C9.49288 95.1182 9.43431 95.1143 9.37397 95.0945C9.34645 95.085 9.31675 95.0742 9.28653 95.0695C9.15921 95.0495 9.03147 95.0305 8.90363 95.0129C8.79241 94.9976 8.66997 94.9686 8.57266 94.9776C8.4361 94.9913 8.33007 94.9225 8.20617 94.9207C8.14511 94.9199 8.08041 94.9146 8.02215 94.9166C7.95579 94.9184 7.89857 94.9046 7.84114 94.8843C7.7834 94.8637 7.76107 94.877 7.72908 94.8865C7.67009 94.9041 7.61505 94.9007 7.56583 94.8785C7.52823 94.8616 7.49448 94.8433 7.45959 94.8255C7.4032 94.7967 7.33549 94.8126 7.28148 94.793C7.16268 94.7507 7.0364 94.7294 6.90908 94.7035C6.79816 94.6878 6.68278 94.6618 6.57831 94.6533C6.42617 94.6418 6.27766 94.6407 6.14723 94.6555C6.12822 94.6577 6.1168 94.6747 6.12479 94.6857C6.14453 94.7131 6.17454 94.7414 6.20652 94.7689C6.23103 94.79 6.27174 94.8081 6.3218 94.8189L6.60718 94.8788C6.75808 94.9101 6.90991 94.9358 7.06132 94.9644C7.21274 94.9928 7.36425 95.0206 7.51619 95.045C7.61734 95.0817 7.73375 95.0994 7.83927 95.1119C7.97137 95.1285 8.0882 95.1648 8.21604 95.1823C8.58512 95.2347 8.95514 95.2802 9.32485 95.3269C9.45394 95.342 9.58126 95.3565 9.70588 95.3508C9.7658 95.348 9.83164 95.3601 9.89551 95.3731C9.97299 95.3886 10.0519 95.4057 10.1314 95.4143C10.3886 95.4436 10.6459 95.4724 10.9036 95.4984C11.1615 95.5229 11.42 95.5462 11.6768 95.5744C11.7729 95.5845 11.8605 95.592 11.9574 95.5933C12.1158 95.5949 12.2795 95.6133 12.4407 95.6194C12.5352 95.623 12.6288 95.6208 12.7226 95.6212C12.9424 95.6676 13.171 95.6583 13.3951 95.6749C13.4396 95.6784 13.4881 95.6718 13.5315 95.6667C13.5639 95.6629 13.5887 95.6649 13.6223 95.6726C13.7867 95.7099 13.9756 95.7014 14.141 95.736C14.2199 95.733 14.2981 95.727 14.3776 95.728C14.4571 95.7289 14.5454 95.7292 14.6168 95.7427C14.8537 95.7889 15.0923 95.788 15.3331 95.7821C15.38 95.7808 15.4232 95.7742 15.4731 95.7839C15.6438 95.818 15.8239 95.8143 16.0007 95.8142C16.132 95.8143 16.2563 95.8195 16.3822 95.8396C16.5554 95.8682 16.734 95.8686 16.9041 95.8431C17.0758 95.8172 17.2514 95.8197 17.4278 95.8347C17.5218 95.842 17.6071 95.8587 17.7105 95.847C17.8182 95.8347 17.9217 95.8675 18.039 95.8597C18.1313 95.8535 18.2367 95.8569 18.3264 95.8683C18.4098 95.8781 18.4866 95.8613 18.5592 95.8689C18.6673 95.88 18.7457 95.8552 18.8317 95.8419C18.9039 95.8307 18.9436 95.8328 18.9888 95.8584C19.0244 95.8786 19.0748 95.8537 19.1173 95.8543C19.1805 95.8555 19.2436 95.8677 19.3054 95.8651C19.3846 95.8621 19.4615 95.847 19.5409 95.8426C19.701 95.8339 19.8622 95.8256 20.0142 95.8551C20.0507 95.8621 20.116 95.8434 20.1215 95.8261C20.1296 95.801 20.1315 95.7757 20.1404 95.7506C20.1462 95.7341 20.1679 95.727 20.1887 95.7323C20.2004 95.7353 20.2096 95.7416 20.2128 95.7472C20.2233 95.7653 20.2281 95.784 20.2395 95.8021C20.2566 95.8294 20.3014 95.842 20.3742 95.8437C20.4392 95.8454 20.5086 95.8473 20.5637 95.8327C20.6658 95.8058 20.7764 95.7987 20.8896 95.7963C20.9858 95.7947 21.0844 95.7913 21.1777 95.7964C21.2878 95.8021 21.3918 95.7637 21.5063 95.7862C21.5549 95.7958 21.6331 95.7893 21.6956 95.7838C21.7746 95.7769 21.8505 95.7582 21.9289 95.7531C22.0061 95.7483 22.0844 95.7575 22.1631 95.7568C22.1896 95.7565 22.2258 95.7465 22.2442 95.7372C22.263 95.7276 22.2637 95.7132 22.2751 95.7013C22.2864 95.6896 22.3011 95.6784 22.3143 95.667C22.3299 95.6768 22.3548 95.6859 22.3593 95.6969C22.3789 95.7456 22.4407 95.7293 22.5218 95.7127C22.5571 95.7054 22.6137 95.7148 22.6587 95.7189C22.7541 95.7269 22.8507 95.7258 22.9403 95.7017C23.0623 95.6687 23.1876 95.6604 23.3138 95.6712C23.4585 95.6843 23.5983 95.6769 23.7365 95.6414C23.8755 95.606 24.0137 95.5981 24.1551 95.6129C24.2351 95.6213 24.3118 95.6126 24.3823 95.5866C24.4504 95.5619 24.5283 95.5498 24.611 95.5486C24.6743 95.5488 24.7361 95.5489 24.7995 95.5491C24.8789 95.5477 24.959 95.5462 25.0387 95.5405C25.1062 95.536 25.1608 95.5177 25.1848 95.4887C25.1984 95.4719 25.2293 95.4622 25.2554 95.4691C25.3856 95.5041 25.5329 95.5024 25.7027 95.4762C25.9239 95.4431 26.1529 95.4216 26.3675 95.3714C26.4139 95.3604 26.4594 95.3565 26.5074 95.3592C26.5673 95.3629 26.6332 95.3595 26.6909 95.3637C26.8489 95.376 27.0097 95.3513 27.16 95.3131C27.2514 95.29 27.3406 95.2721 27.4353 95.2546C27.7515 95.1977 28.0779 95.1708 28.3874 95.0901C28.4141 95.0833 28.4484 95.0863 28.4793 95.0828C28.5587 95.0734 28.6385 95.0645 28.7178 95.0528C28.9727 95.0127 29.2279 94.9661 29.4825 94.9466C29.5599 94.9407 29.6426 94.9204 29.7123 94.8914C29.7705 94.8672 29.8286 94.856 29.8928 94.8554C29.9704 94.8552 30.0495 94.8349 30.1292 94.8196C30.2741 94.7911 30.3732 94.7543 30.3756 94.687C30.3762 94.6711 30.4134 94.6639 30.4432 94.6728C30.4534 94.6758 30.4616 94.6804 30.4741 94.6817C30.4845 94.6829 30.508 94.6816 30.5115 94.6793C30.567 94.6419 30.5308 94.5697 30.4529 94.5693C30.3814 94.5689 30.3097 94.5616 30.2281 94.5827C30.1363 94.6065 30.0489 94.6327 29.9522 94.6395C29.8549 94.6455 29.7706 94.6838 29.6792 94.7062C29.5235 94.7429 29.3651 94.7523 29.2085 94.7915C29.0546 94.8307 28.8936 94.8391 28.736 94.8681C28.6748 94.8797 28.6079 94.8835 28.5487 94.8832C28.4205 94.8828 28.3003 94.8989 28.1778 94.9388C28.1048 94.9624 28.0245 94.9756 27.9451 94.9745C27.8185 94.9727 27.6934 94.9873 27.5706 95.0228C27.5242 95.0362 27.48 95.0386 27.4324 95.0421C27.2572 95.0564 27.082 95.0763 26.9058 95.1011C26.7954 95.1163 26.6843 95.1346 26.5732 95.1482C26.462 95.1604 26.3508 95.1675 26.2405 95.1615C26.2138 95.1601 26.1726 95.1658 26.1474 95.1737C26.0101 95.2168 25.8737 95.227 25.7304 95.2182C25.6887 95.2159 25.6267 95.221 25.5901 95.2324C25.4227 95.2839 25.2541 95.2968 25.0797 95.2857C25.0655 95.2849 25.0446 95.2853 25.0323 95.2887C24.9077 95.3233 24.7821 95.3072 24.6573 95.3173C24.5606 95.3251 24.4609 95.3308 24.3779 95.3592C24.2753 95.3949 24.1643 95.4014 24.0545 95.3959C23.9728 95.3917 23.905 95.3939 23.8268 95.4156C23.7927 95.425 23.7299 95.4243 23.6897 95.4195C23.5918 95.4075 23.5002 95.422 23.4098 95.4403C23.3461 95.4536 23.3275 95.4363 23.2937 95.4256C23.2185 95.402 23.1826 95.4061 23.1115 95.4487C23.0864 95.4636 23.0639 95.4722 23.043 95.4625C23.0022 95.4435 22.9673 95.4323 22.8913 95.4507C22.8017 95.4721 22.6968 95.4762 22.6068 95.4696C22.3656 95.4523 22.1333 95.4669 21.898 95.5075C21.8571 95.5146 21.8036 95.5108 21.7582 95.5076C21.6934 95.5033 21.6308 95.504 21.5699 95.5169C21.5097 95.5297 21.4513 95.5379 21.3857 95.529C21.3032 95.5179 21.2302 95.5535 21.1538 95.5475C21.074 95.5409 20.9985 95.5441 20.9199 95.5512C20.8242 95.5325 20.7338 95.5465 20.6424 95.563C20.6308 95.5651 20.6111 95.5613 20.5968 95.5589C20.5165 95.5455 20.4435 95.5501 20.3738 95.5743C20.3184 95.5935 20.2509 95.5871 20.1876 95.5888C20.0572 95.5574 19.9096 95.567 19.7655 95.5703C19.7011 95.5717 19.6349 95.5716 19.5727 95.5777C19.4801 95.5869 19.3916 95.6035 19.2989 95.6125C19.199 95.6227 19.1161 95.5898 19.019 95.5906C18.9723 95.5907 18.925 95.5968 18.8789 95.6016C18.8325 95.6064 18.7793 95.6218 18.7429 95.617C18.626 95.6019 18.5239 95.6207 18.4162 95.6297C18.3141 95.6387 18.2252 95.6311 18.1602 95.595Z" fill="#B3E9C0"/>
<path id="Vector_3" d="M12.125 10.4017C12.2094 10.4277 12.2822 10.489 12.3731 10.5228C12.4606 10.5554 12.5497 10.5949 12.6361 10.6072C12.6972 10.6158 12.7386 10.6377 12.7816 10.6619C12.8355 10.6914 12.8768 10.7296 12.9632 10.7377C13.0365 10.7442 13.0936 10.7887 13.1711 10.7932C13.2169 10.7955 13.2918 10.8054 13.3263 10.8202C13.4573 10.8773 13.6028 10.9046 13.7485 10.9356C13.8377 10.9545 13.9244 10.9806 14.0126 11.0021C14.1661 11.0016 14.346 11.0472 14.496 11.0379C14.5327 11.0355 14.5633 11.0367 14.5995 11.0496C14.6385 11.0632 14.6724 11.0663 14.6933 11.0565C14.734 11.0379 14.7886 11.0244 14.8604 11.0572C14.9878 11.1147 15.1718 11.1274 15.3151 11.1693C15.3232 11.1717 15.3658 11.1595 15.3874 11.1522C15.419 11.1416 15.4419 11.1434 15.4739 11.157C15.609 11.2144 15.6155 11.2164 15.7381 11.1934C15.8271 11.1763 15.9289 11.17 16.0265 11.1592C16.1493 11.1454 16.2685 11.1493 16.3954 11.1787C16.5143 11.2063 16.6465 11.2106 16.7752 11.2159C16.9788 11.2244 17.1822 11.2286 17.3858 11.2324C17.4815 11.2343 17.5655 11.2459 17.6399 11.2692C17.6812 11.2821 17.7317 11.2918 17.7807 11.3012C17.8751 11.3193 18.0115 11.3126 18.0858 11.2842C18.1209 11.2708 18.1426 11.2531 18.1668 11.2367C18.1895 11.2214 18.2184 11.2164 18.2421 11.2276C18.2857 11.248 18.3224 11.2691 18.4123 11.253C18.4781 11.2419 18.5465 11.2304 18.6123 11.2193C18.6488 11.2125 18.6831 11.2114 18.7162 11.22C18.7881 11.2392 18.8582 11.2581 18.9298 11.2773C18.9756 11.2892 19.0234 11.2906 19.0795 11.28C19.1994 11.2577 19.3312 11.2553 19.4603 11.2482C19.596 11.2407 19.7134 11.2492 19.8175 11.2761C19.8652 11.2886 19.8971 11.2838 19.9498 11.2601C19.9756 11.2484 19.9952 11.2362 20.0306 11.2371C20.0842 11.2385 20.1382 11.2419 20.1875 11.2476C20.3104 11.2619 20.4278 11.2628 20.5529 11.2256C20.6286 11.2033 20.7163 11.1854 20.7988 11.1655C20.859 11.1507 20.9042 11.158 20.9036 11.1819C20.9029 11.2083 20.9279 11.2151 20.9875 11.2027C21.1255 11.1743 21.2636 11.1445 21.3984 11.112C21.4699 11.0946 21.5365 11.084 21.6092 11.0876C21.6424 11.0894 21.6786 11.0918 21.7136 11.0879C21.8612 11.0724 22.009 11.0541 22.1562 11.0325C22.2842 11.0138 22.4293 11.0039 22.5334 10.9612C22.6785 10.9019 22.8184 10.9291 22.9545 10.8847C23.0212 10.8627 23.0935 10.8429 23.1557 10.8183C23.2267 10.7902 23.2931 10.7786 23.363 10.7729C23.4332 10.7671 23.4516 10.7448 23.4814 10.7224C23.5364 10.6802 23.5955 10.6588 23.657 10.6558C23.7041 10.6536 23.7478 10.6538 23.7926 10.6531C23.8654 10.6513 23.9282 10.6036 23.9931 10.5913C24.1364 10.5643 24.2767 10.5104 24.4172 10.449C24.5355 10.3913 24.6626 10.3276 24.7586 10.2437C24.7928 10.2137 24.8255 10.1817 24.8549 10.1477L24.8542 11.3659C24.8536 11.6007 24.8529 11.8407 24.8521 12.0826C24.8514 12.1973 24.8507 12.3126 24.85 12.4279C24.8427 12.4911 24.8128 12.555 24.753 12.6214C24.7087 12.6706 24.6507 12.7172 24.5863 12.76C24.5302 12.7913 24.4702 12.818 24.409 12.8391C24.3773 12.8499 24.3304 12.8735 24.3022 12.8914C24.1489 12.9905 23.9762 13.0443 23.7934 13.0775C23.7401 13.0872 23.662 13.1091 23.6165 13.1296C23.409 13.2235 23.1896 13.2714 22.9609 13.2896C22.9422 13.2911 22.915 13.2955 22.8992 13.3011C22.7391 13.3574 22.573 13.3602 22.4097 13.3864C22.283 13.4068 22.152 13.4236 22.0435 13.4607C21.9092 13.5063 21.7626 13.5248 21.6173 13.5284C21.5091 13.531 21.4196 13.5384 21.3162 13.5654C21.2713 13.5771 21.1879 13.5805 21.1346 13.5778C21.0049 13.5719 20.8833 13.5892 20.7635 13.6126C20.6789 13.6288 20.6543 13.6123 20.6097 13.6032C20.5102 13.5822 20.4627 13.5879 20.3676 13.6325C20.3342 13.6481 20.3041 13.6575 20.2766 13.6481C20.2227 13.6299 20.1768 13.6199 20.0754 13.6392C19.9561 13.6624 19.8165 13.666 19.6973 13.6605C19.3776 13.6452 19.0691 13.657 18.7546 13.6899C18.7001 13.6958 18.6291 13.69 18.5691 13.6856C18.4832 13.6797 18.4001 13.6779 18.3187 13.6886C18.2381 13.6988 18.16 13.7047 18.0734 13.6926C17.9645 13.6775 17.8655 13.7089 17.7644 13.6982C17.6589 13.6871 17.5587 13.6842 17.4539 13.6866C17.3284 13.6616 17.2075 13.6693 17.085 13.6784C17.0695 13.6795 17.0437 13.6741 17.0249 13.6706C16.9196 13.6504 16.8226 13.6486 16.7282 13.6659C16.653 13.6798 16.5642 13.6665 16.4803 13.6614C16.3105 13.6159 16.1144 13.6107 15.9236 13.5956C15.8383 13.5887 15.7511 13.5802 15.6683 13.5776C15.545 13.5741 15.4264 13.5773 15.303 13.5717C15.1701 13.5652 15.0649 13.5209 14.9373 13.5047C14.8758 13.497 14.8129 13.4944 14.7516 13.491C14.69 13.4871 14.618 13.4926 14.5708 13.4806C14.4199 13.4427 14.2832 13.4399 14.1412 13.424C14.0075 13.409 13.8925 13.3817 13.8151 13.3295C13.7667 13.2973 13.6916 13.27 13.6062 13.2698C13.475 13.2698 13.32 13.2228 13.1846 13.2096C13.087 13.2003 12.9953 13.148 12.8917 13.1199C12.7913 13.0926 12.6909 13.052 12.5954 13.0347C12.5275 13.022 12.4821 12.995 12.4364 12.9655C12.379 12.928 12.3388 12.884 12.2489 12.8573C12.1717 12.8337 12.1231 12.774 12.0492 12.7427C12.0051 12.7241 11.9382 12.6822 11.9169 12.6517C11.8747 12.5951 11.8404 12.5395 11.8264 12.4909L11.8218 12.4731C11.8213 12.4673 11.8204 12.4614 11.8193 12.4557C11.8184 12.45 11.8191 12.4444 11.8184 12.4388L11.8181 12.4345L11.8182 12.4267L11.8183 12.4107C11.8187 12.3681 11.8191 12.3253 11.8194 12.2824C11.8207 12.1774 11.8304 12.0737 11.8364 11.9693C11.8118 11.8126 11.8224 11.6247 11.8022 11.4648C11.8067 11.39 11.8112 11.3157 11.8156 11.2406C11.8338 10.9305 11.841 10.609 11.8371 10.2555C11.931 10.311 12.0288 10.372 12.125 10.4017ZM11.8441 9.87919C11.8617 9.91325 11.8915 9.94732 11.9248 9.97504C12.0091 10.0449 12.0865 10.1309 12.1947 10.1752C12.2983 10.2163 12.3768 10.2687 12.4712 10.314C12.6482 10.3984 12.838 10.4582 13.0305 10.4829C13.2214 10.5067 13.4155 10.5525 13.6024 10.6157C13.7384 10.6619 13.8764 10.6908 14.0232 10.7137C14.2209 10.7445 14.4233 10.7678 14.6124 10.8217C14.6679 10.8375 14.7174 10.8359 14.7703 10.84C15.043 10.8607 15.3121 10.8828 15.5791 10.9418C15.6595 10.9595 15.76 10.9646 15.8502 10.9692C15.9406 10.9738 16.0296 10.9712 16.1191 10.9709C16.3067 11.0124 16.5216 11.0042 16.7092 11.0418C16.7476 11.0495 16.7758 11.0514 16.8126 11.0475C16.862 11.0423 16.9169 11.035 16.9677 11.0383C17.2233 11.0538 17.4825 11.0341 17.7349 11.0696C17.8418 11.0654 17.9479 11.0579 18.0553 11.0554C18.2387 11.0515 18.426 11.0547 18.6056 11.0418C18.7155 11.034 18.8152 11.0329 18.9252 11.0328C19.2187 11.0331 19.5136 11.0199 19.8076 11.0061C20.1014 10.9921 20.395 10.9728 20.688 10.9509C20.7785 10.9444 20.8699 10.9427 20.9595 10.9409C21.0333 10.9394 21.1093 10.9361 21.1752 10.9194C21.312 10.8844 21.4561 10.8685 21.6022 10.8495C22.0208 10.7955 22.4378 10.7297 22.8484 10.643C22.9904 10.613 23.1279 10.6036 23.2719 10.563C23.3869 10.5308 23.5138 10.4966 23.6332 10.4832C23.799 10.4361 23.963 10.3843 24.1217 10.3236C24.2799 10.2626 24.4353 10.194 24.5724 10.1088C24.6579 10.0551 24.7378 9.99447 24.792 9.92852C24.8156 9.89975 24.8359 9.87857 24.855 9.8633L24.855 9.86309L24.8551 9.81615L24.8551 9.79268L24.8551 9.78874L24.8548 9.78687C24.8534 9.77856 24.8523 9.77025 24.8516 9.76184C24.8506 9.75343 24.8469 9.74533 24.8453 9.73702C24.8352 9.70389 24.8204 9.66952 24.7941 9.63514C24.7461 9.56525 24.6655 9.49775 24.5754 9.43845C24.416 9.33377 24.2256 9.25204 24.0293 9.18194C24.029 9.18962 24.0287 9.19731 24.0284 9.20499C24.0262 9.25297 24.0236 9.29731 24.02 9.34706C24.0157 9.4102 23.9931 9.46877 23.9631 9.51748C23.9239 9.58207 23.8759 9.63036 23.8303 9.67481C23.7842 9.71874 23.739 9.7581 23.6965 9.79569C23.6084 9.87358 23.4991 9.9306 23.3806 9.96445C23.1714 10.0243 22.9717 10.0837 22.7713 10.1638C22.5718 10.2429 22.3631 10.2867 22.1462 10.3068C21.9572 10.3246 21.7712 10.3561 21.5905 10.4089C21.4578 10.4476 21.3127 10.4621 21.1694 10.4661C21.1019 10.4679 21.0167 10.4657 20.9642 10.477C20.8432 10.5031 20.7508 10.5254 20.7203 10.4785C20.7134 10.4679 20.6759 10.4614 20.6524 10.453C20.6329 10.4656 20.611 10.4781 20.5945 10.4908C20.5774 10.5037 20.5766 10.5182 20.5486 10.5295C20.5211 10.5406 20.4667 10.5533 20.427 10.5558C20.309 10.5625 20.1913 10.5584 20.0754 10.5671C19.9577 10.5762 19.8437 10.5988 19.7248 10.6092C19.6311 10.6173 19.5135 10.6262 19.4406 10.6178C19.269 10.598 19.1121 10.6374 18.9466 10.6313C18.8066 10.6259 18.6585 10.6273 18.5138 10.6275C18.3438 10.6278 18.1773 10.6315 18.0227 10.6539C17.9392 10.666 17.8348 10.6606 17.7373 10.6551C17.6281 10.6488 17.5616 10.633 17.5376 10.6045C17.5218 10.5857 17.5157 10.5666 17.5012 10.5478C17.4967 10.542 17.4834 10.5351 17.4662 10.5312C17.4354 10.5242 17.4025 10.5295 17.3926 10.5455C17.3776 10.5698 17.373 10.5949 17.3591 10.6193C17.3496 10.6362 17.2501 10.6499 17.1959 10.64C16.9698 10.598 16.7276 10.5904 16.4867 10.5788C16.3674 10.5734 16.2506 10.5776 16.1316 10.569C16.0387 10.5619 15.9455 10.5405 15.851 10.5293C15.7875 10.5219 15.7091 10.538 15.6582 10.5118C15.5938 10.4784 15.535 10.4693 15.4255 10.4664C15.2954 10.4626 15.1744 10.4709 15.0147 10.4348C14.9076 10.4104 14.7904 10.408 14.6679 10.3756C14.5362 10.3409 14.3803 10.3076 14.2421 10.2837C14.0663 10.2533 13.9212 10.1839 13.7601 10.1507C13.6051 10.1185 13.485 10.0613 13.352 10.0027C13.2271 9.94669 13.1032 9.88822 12.982 9.81698C12.9214 9.78115 12.8613 9.74221 12.8028 9.69516C12.745 9.64739 12.6869 9.59142 12.6415 9.51259C12.619 9.47375 12.6024 9.42692 12.5947 9.37717L12.5908 9.33989L12.589 9.31569L12.5859 9.26719C12.5853 9.25702 12.5854 9.24663 12.5849 9.23645C12.5721 9.24206 12.5593 9.24777 12.5463 9.25307C12.4835 9.27883 12.4143 9.29295 12.351 9.32037C12.3079 9.33844 12.2699 9.38444 12.227 9.38372C12.1724 9.38299 12.1323 9.40179 12.0734 9.45163C12.0043 9.51187 11.9545 9.57823 11.8869 9.64168C11.8636 9.66328 11.8499 9.69018 11.8415 9.7151C11.8343 9.73629 11.8311 9.75509 11.8277 9.77461C11.8268 9.78686 11.826 9.79912 11.8272 9.81148C11.8275 9.81968 11.8276 9.82747 11.8279 9.83557C11.8312 9.8498 11.8362 9.86423 11.8441 9.87919ZM12.8963 8.05547C12.8904 8.17282 12.8806 8.28944 12.8793 8.40762C12.877 8.60068 12.8809 8.79166 12.8554 8.97371C12.8486 9.02159 12.8571 9.11879 12.8659 9.17695C12.8734 9.22607 12.8699 9.27208 12.8664 9.31757C12.8648 9.34529 12.8628 9.3509 12.8647 9.36368C12.8657 9.37541 12.8709 9.38766 12.8796 9.39909C12.8998 9.42557 12.9173 9.45112 12.934 9.47781C12.9504 9.50439 12.967 9.5316 12.99 9.55777C13.0268 9.59942 13.0693 9.63826 13.1392 9.66422C13.2373 9.70067 13.3427 9.7555 13.4513 9.79445C13.5631 9.83412 13.6637 9.89446 13.7717 9.91097C13.9214 9.93413 14.0941 9.98917 14.2404 9.99436C14.3356 9.99789 14.4198 10.0276 14.4744 10.0616C14.5619 10.116 14.6911 10.1468 14.8412 10.1641C15.0007 10.1823 15.1539 10.187 15.3241 10.2261C15.3774 10.2381 15.458 10.2334 15.5273 10.2372C15.5961 10.241 15.6667 10.2435 15.7359 10.2512C15.8795 10.2672 15.999 10.3115 16.1484 10.3168C16.2871 10.3217 16.4203 10.317 16.5588 10.3191C16.6518 10.3203 16.7501 10.328 16.8461 10.3332C17.061 10.3451 17.2814 10.3462 17.4738 10.3877C17.5683 10.3908 17.6686 10.4017 17.7526 10.3858C17.858 10.3657 17.967 10.3649 18.0861 10.3816C18.1073 10.3846 18.1365 10.3892 18.154 10.3875C18.2911 10.3745 18.4267 10.3629 18.5686 10.3829C18.6863 10.3767 18.7989 10.3754 18.9179 10.3822C19.0319 10.3885 19.1418 10.3529 19.2645 10.3627C19.3623 10.3707 19.4497 10.3612 19.5396 10.3465C19.6305 10.3319 19.7238 10.3287 19.8204 10.3298C19.888 10.3307 19.9678 10.3321 20.0287 10.3229C20.3796 10.2704 20.724 10.2366 21.0821 10.2235C21.2157 10.2185 21.3714 10.2012 21.5025 10.1657C21.6139 10.1356 21.6658 10.1408 21.7274 10.1526C21.7588 10.1588 21.7915 10.1461 21.8273 10.1264C21.9287 10.0704 21.9807 10.059 22.093 10.0663C22.1434 10.0694 22.1725 10.0826 22.2644 10.0541C22.3943 10.0134 22.5256 9.97629 22.6685 9.95853C22.7272 9.95158 22.8178 9.93153 22.8647 9.91056C22.9724 9.86206 23.0671 9.83423 23.1814 9.80255C23.3338 9.76028 23.4852 9.6933 23.5915 9.59329C23.6338 9.5532 23.6791 9.51343 23.7161 9.47272C23.7342 9.45237 23.7498 9.43211 23.7619 9.4129C23.7732 9.39369 23.7801 9.37624 23.7831 9.36077C23.7866 9.35329 23.787 9.29181 23.7894 9.24778L23.7961 9.10727C23.7998 9.01349 23.8004 8.9193 23.7885 8.82386C23.7861 8.80496 23.7873 8.7737 23.7896 8.75241C23.7934 8.71731 23.7966 8.68242 23.7994 8.64752C23.7999 8.47368 23.8004 8.29993 23.801 8.1263C23.797 8.07832 23.7922 8.03023 23.7856 7.98194C23.7779 7.92545 23.7787 7.83209 23.7851 7.77019C23.807 7.5574 23.8135 7.3523 23.7852 7.14023C23.78 7.1015 23.7788 7.03887 23.7832 6.99931C23.8191 6.67197 23.8032 6.33103 23.8003 5.99642C23.7979 5.72921 23.7973 5.46439 23.8082 5.20072C23.8112 5.12906 23.8149 5.06291 23.8079 4.99114C23.7895 4.80141 23.7922 4.61188 23.8112 4.42422C23.8141 4.39525 23.8163 4.36596 23.8178 4.33668C23.8156 4.25079 23.8133 4.1647 23.8111 4.07861C23.8108 4.07591 23.8107 4.0731 23.8105 4.07051C23.7948 3.9275 23.7921 3.78928 23.8001 3.64908C23.7932 3.37834 23.7861 3.10677 23.7791 2.83489C23.7674 2.84673 23.7556 2.85836 23.7433 2.86958C23.6628 2.94258 23.555 2.99607 23.4552 3.0454C23.3363 3.09691 23.218 3.1427 23.0962 3.16254C23.0411 3.17157 22.9895 3.21581 22.9273 3.21446C22.8889 3.21332 22.8515 3.21125 22.8116 3.21145C22.7592 3.21197 22.7098 3.23077 22.6645 3.27044C22.6399 3.29163 22.6252 3.31302 22.5656 3.31624C22.5063 3.31946 22.4503 3.32849 22.3911 3.35414C22.3391 3.37658 22.2784 3.39382 22.2224 3.41365C22.1083 3.45374 21.9892 3.42279 21.8679 3.47793C21.781 3.51761 21.6584 3.52394 21.5507 3.53973C21.4268 3.5579 21.3024 3.57317 21.1781 3.58584C21.1487 3.58895 21.1182 3.58594 21.09 3.58355C21.0286 3.57857 20.9727 3.58791 20.9127 3.60411C20.7996 3.63433 20.6835 3.66185 20.5677 3.68823C20.5176 3.69986 20.4964 3.6927 20.4966 3.66632C20.4968 3.64243 20.4586 3.63454 20.4081 3.64856C20.3389 3.66736 20.2652 3.68418 20.2017 3.70568C20.0967 3.7414 19.9978 3.73922 19.8942 3.72385C19.8526 3.71773 19.8072 3.71388 19.762 3.71201C19.7322 3.71077 19.7159 3.72281 19.6942 3.73434C19.65 3.7576 19.6232 3.76207 19.5829 3.7493C19.4952 3.72157 19.3963 3.71233 19.2822 3.71897C19.1737 3.72541 19.0628 3.72718 18.9619 3.74909C18.9148 3.75947 18.8746 3.75792 18.836 3.74597C18.7756 3.72655 18.7165 3.70765 18.6561 3.68813C18.6283 3.6794 18.5994 3.68055 18.5686 3.68719C18.5134 3.6982 18.4558 3.70973 18.4005 3.72074C18.3248 3.73683 18.2939 3.71575 18.2573 3.69529C18.2374 3.68408 18.213 3.68896 18.1939 3.70443C18.1736 3.72084 18.1553 3.7386 18.1257 3.752C18.0632 3.78056 17.9483 3.78751 17.869 3.76965C17.8278 3.7603 17.7853 3.75085 17.7506 3.73808C17.6881 3.71503 17.6175 3.70371 17.5369 3.70225C17.3656 3.69945 17.1944 3.69654 17.0232 3.68958C16.9149 3.68532 16.8037 3.68221 16.7039 3.65583C16.5973 3.62769 16.4971 3.62519 16.3935 3.64036C16.3111 3.6523 16.2252 3.66009 16.1501 3.67837C16.0464 3.70308 16.0409 3.70111 15.9279 3.64586C15.9011 3.63288 15.8818 3.63143 15.855 3.64254C15.8367 3.65012 15.8006 3.6631 15.7939 3.66082C15.6736 3.62135 15.5185 3.61211 15.4122 3.55728C15.3522 3.52602 15.3059 3.54056 15.2712 3.56008C15.2533 3.57026 15.2247 3.56787 15.192 3.5551C15.1617 3.54305 15.136 3.54253 15.1049 3.54575C14.9778 3.55852 14.8268 3.5175 14.6968 3.52217C14.6226 3.50317 14.5499 3.4796 14.4748 3.4635C14.3522 3.43712 14.2294 3.41469 14.1199 3.36256C14.0911 3.34906 14.0277 3.34199 13.9887 3.34137C13.9228 3.33992 13.8757 3.29806 13.8134 3.29464C13.7399 3.29017 13.706 3.25424 13.6612 3.22755C13.6253 3.20574 13.591 3.18591 13.5387 3.1803C13.4649 3.1724 13.3901 3.13793 13.316 3.11082C13.2389 3.08268 13.179 3.02722 13.1065 3.00728C13.0539 2.99274 13.0013 2.96626 12.949 2.93708C12.9472 3.07053 12.9414 3.20678 12.9315 3.35986C12.8857 4.06583 12.8588 4.84471 12.8494 5.71104C12.8545 5.74095 12.86 5.77013 12.8661 5.79827C12.9002 5.95457 12.8984 5.96288 12.8546 6.14544C12.8442 6.18865 12.8447 6.21876 12.8586 6.25823C12.8681 6.28512 12.8847 6.33861 12.8831 6.34941C12.8629 6.49501 12.8631 6.66844 12.8464 6.81985C12.8468 6.93835 12.8472 7.05715 12.8476 7.17596C12.8581 7.20182 12.8593 7.24325 12.8517 7.29279C12.8499 7.30442 12.8488 7.31553 12.8481 7.32633C12.8481 7.34077 12.8482 7.3551 12.8482 7.36953C12.8494 7.38864 12.8516 7.40775 12.8549 7.42821C12.8855 7.6196 12.8689 7.8595 12.8963 8.05547ZM13.1819 2.78421C13.269 2.81651 13.3333 2.86272 13.4117 2.90156C13.5589 2.97405 13.7183 3.0241 13.8807 3.0403C14.0419 3.05578 14.2044 3.09389 14.3605 3.15059C14.474 3.19203 14.5898 3.21654 14.7132 3.23523C14.8793 3.26026 15.0493 3.27854 15.2076 3.32807C15.254 3.34251 15.2958 3.33981 15.3403 3.34282C15.5697 3.35767 15.7957 3.37491 16.0195 3.42985C16.0869 3.44636 16.1713 3.44999 16.2473 3.45332C16.3232 3.45675 16.3981 3.4529 16.4733 3.45155C16.6306 3.49081 16.8114 3.48053 16.9688 3.51646C17.001 3.52373 17.0247 3.52549 17.0557 3.52134C17.0973 3.51573 17.1435 3.50805 17.1861 3.51096C17.4008 3.52466 17.6187 3.50369 17.8308 3.53858C17.9206 3.53401 18.0097 3.52622 18.1001 3.52363C18.2542 3.51937 18.4115 3.52269 18.5624 3.51002C18.6547 3.50234 18.7384 3.5014 18.8309 3.50171C19.0775 3.50285 19.3252 3.49122 19.5721 3.4797C19.819 3.46786 20.0655 3.45155 20.3118 3.43348C20.3878 3.42808 20.4646 3.42767 20.54 3.42715C20.6021 3.42673 20.6661 3.42466 20.7213 3.40897C20.8358 3.37626 20.9569 3.36276 21.0795 3.34656C21.431 3.30066 21.781 3.24479 22.1252 3.17095C22.2442 3.1454 22.3602 3.14052 22.4808 3.10552C22.5771 3.07769 22.6833 3.04861 22.7841 3.04041C22.923 3.00094 23.0603 2.95743 23.193 2.90665C23.3251 2.85566 23.4547 2.79833 23.568 2.72782C23.6386 2.68358 23.7043 2.63352 23.7473 2.58128C23.7558 2.5709 23.764 2.56238 23.772 2.5547L23.771 2.51762L23.7703 2.48636L23.7699 2.47224C23.7697 2.47432 23.7699 2.47754 23.7701 2.48044C23.7704 2.48408 23.77 2.48055 23.7699 2.48096L23.7692 2.47795C23.7675 2.46185 23.7606 2.44659 23.754 2.42987C23.7444 2.41325 23.735 2.39529 23.7183 2.37649C23.6566 2.29954 23.5345 2.22196 23.4035 2.16079C23.1354 2.03742 22.8224 1.95662 22.509 1.89223C22.2363 1.83761 22.0417 1.80458 21.9215 1.77499C21.801 1.74601 21.7542 1.72161 21.7721 1.69762C21.8027 1.65847 21.4578 1.58016 20.9529 1.54039C20.9389 1.54049 20.9251 1.53987 20.911 1.54018C20.8028 1.54267 20.6915 1.53769 20.5826 1.51775C19.8582 1.48005 19.1072 1.47153 18.4486 1.49916C17.847 1.52491 17.2708 1.55171 16.7022 1.58193C16.1339 1.61287 15.5723 1.64704 15.0032 1.70624C14.8456 1.72327 14.682 1.74393 14.5165 1.76938C14.4916 1.77395 14.466 1.77789 14.4411 1.78163C14.4393 1.78194 14.438 1.78184 14.4362 1.78215C14.3537 1.79565 14.2711 1.81061 14.1883 1.82702C14.1691 1.84238 14.1343 1.85796 14.1098 1.85869C14.0645 1.85962 14.0194 1.86492 13.9743 1.87292C13.9167 1.88631 13.8596 1.90075 13.8027 1.91591C13.7603 1.9292 13.7183 1.94385 13.6767 1.95911C13.6071 1.98508 13.5437 2.02142 13.4764 2.04915C13.424 2.07086 13.3655 2.08072 13.3126 2.10336C13.2766 2.11832 13.2469 2.16027 13.2097 2.15664C13.2064 2.15633 13.2035 2.15685 13.2003 2.15674C13.1217 2.20794 13.056 2.2635 13.0051 2.32425C12.9764 2.35884 12.9575 2.39061 12.9482 2.41626C12.9386 2.44223 12.937 2.46102 12.9378 2.47826L12.9377 2.4847C12.9375 2.49259 12.939 2.46383 12.9386 2.47317L12.9391 2.48314C12.9397 2.49644 12.9404 2.50952 12.9411 2.52261C12.9422 2.54867 12.9432 2.57443 12.9443 2.59987C12.9443 2.60112 12.9444 2.60237 12.9444 2.60361C12.9497 2.60849 12.9551 2.61337 12.9607 2.61794C13.0298 2.67319 13.0908 2.74931 13.1819 2.78421Z" fill="#E6D4B9"/>
<path id="Vector_4" d="M18.3355 43.8882C25.7627 43.8882 32.1722 42.9767 35.1514 41.6592C35.1534 41.6894 35.1555 41.7193 35.1573 41.7498C35.1665 41.8772 35.1703 42.0041 35.1751 42.1306C35.1779 42.2567 35.1806 42.383 35.1812 42.5124C35.1831 42.7692 35.185 43.025 35.1868 43.2813C35.1888 43.7938 35.1865 44.3083 35.1736 44.8373C35.1478 45.9005 35.1936 46.8921 35.2033 47.9242C35.2038 47.984 35.2038 48.0435 35.2044 48.1032C35.2054 49.2948 35.2017 50.4818 35.1815 51.6413C35.1772 51.8916 35.1783 52.2869 35.1835 52.5317C35.2119 53.8714 35.2054 55.1677 35.1834 56.5121C35.1771 56.9031 35.1762 57.493 35.1839 57.8499C35.1882 58.0495 35.1919 58.2488 35.1951 58.4478C35.1969 59.1308 35.1843 59.8641 35.1661 60.5054C35.1559 60.8516 35.1458 61.1945 35.1357 61.5357C35.129 61.8763 35.1157 62.2146 35.1027 62.5529C35.0884 62.8931 35.0723 63.233 35.0532 63.5746C32.0331 64.8692 25.6823 65.7612 18.3356 65.7612C10.984 65.7612 4.62977 64.8681 1.61197 63.5721C1.5994 63.3488 1.5858 63.1215 1.56409 62.8844C1.5238 62.464 1.48911 61.7566 1.49991 61.4077C1.51954 60.7464 1.53429 60.0612 1.53813 59.3694C1.5402 58.6767 1.54239 57.974 1.54457 57.2678C1.54727 56.4032 1.56669 55.5493 1.57863 54.6906C1.5238 53.256 1.55682 51.5004 1.49482 50.1009C1.47966 49.7585 1.47312 49.4683 1.48828 49.11C1.50469 48.7238 1.50157 48.4 1.47654 48.2151C1.45744 48.0732 1.43957 47.9086 1.42773 47.7174C1.4322 47.5581 1.44103 47.4667 1.45318 47.4784C1.47945 47.5033 1.48828 47.3032 1.48132 46.8054C1.47706 46.5118 1.47281 46.2178 1.46855 45.924C1.48464 45.4873 1.4942 45.0194 1.50199 44.544C1.50791 44.1709 1.51393 43.7934 1.51985 43.4233C1.52359 43.2382 1.52743 43.055 1.53107 42.8753C1.53345 42.7853 1.53574 42.6962 1.53802 42.6082C1.54145 42.5271 1.54477 42.4469 1.5481 42.3678L1.5482 42.3654C1.54862 42.3537 1.5481 42.3423 1.54716 42.331C1.54934 42.2899 1.55142 42.2505 1.55339 42.2117C1.55641 42.173 1.54779 42.0582 1.54342 41.9288C1.54145 41.8411 1.53626 41.747 1.53314 41.6651C4.51802 42.9794 10.9194 43.8882 18.3355 43.8882Z" fill="#D8B880"/>
</g>
</g>
</svg>
