<svg width="576" height="820" viewBox="0 0 576 820" fill="none" xmlns="http://www.w3.org/2000/svg">
<g id="Vector_Raiz">
<path id="Vector_Raiz_2" d="M201.031 324.866C200.283 329.782 198.939 334.529 197.002 339.109C195.064 343.688 192.592 347.958 189.585 351.919C184.61 358.158 179.12 363.906 173.116 369.163C166.65 375.005 160.183 380.61 153.307 385.912C148.994 389.487 144.884 393.281 140.977 397.294C138.002 400.139 135.092 403.071 131.966 405.787C128.841 408.503 126.75 411.758 123.689 414.409C120.973 416.694 118.278 418.979 115.368 421.027C114.991 421.381 114.565 421.658 114.088 421.858C113.612 422.058 113.115 422.169 112.599 422.191C112.083 422.213 111.579 422.144 111.087 421.984C110.596 421.825 110.147 421.585 109.742 421.264C107.586 419.841 107.91 418.139 107.888 416.306C107.862 415.863 107.955 415.446 108.17 415.057C108.384 414.668 108.685 414.366 109.074 414.151C117.914 407.949 125.947 400.835 133.173 392.81C133.436 392.451 133.738 392.127 134.079 391.84C139.554 388.24 143.305 382.679 148.392 378.756C153.479 374.833 158.135 371.578 162.576 367.504C166.867 363.883 170.869 359.967 174.582 355.756C177.428 352.263 180.812 349.289 183.722 345.624C187.731 340.688 189.003 334.846 190.965 329.134C192.689 324.111 192.107 318.593 194.155 313.592C194.576 312.428 194.576 311.264 194.155 310.1C192.646 306.349 192.732 302.318 191.676 298.46C188.984 289.609 188.057 280.577 188.895 271.364C189.183 268.253 188.939 265.185 188.163 262.16C187.697 260.272 187.585 258.365 187.827 256.436C188.068 254.507 188.647 252.686 189.564 250.972C191.045 247.47 192.87 244.157 195.039 241.035C200.342 234.568 205.343 227.778 210.538 221.182C215.733 214.586 220.863 206.912 226.209 199.906C227.976 197.599 230.52 195.896 232.46 193.698C236.337 189.447 240.799 185.941 245.846 183.178C252.938 179.169 260.785 177.682 268.588 181.626C272.317 183.523 275.766 182.489 279.086 181.044C288.7 176.927 298.098 172.271 308.035 168.887C314.239 167.01 320.282 164.711 326.164 161.989C332.135 158.971 338.559 156.535 343.603 151.858C345.758 149.853 348.151 148.172 350.285 146.145C352.675 143.798 354.609 141.122 356.088 138.117C357.567 135.111 358.507 131.946 358.907 128.62C359.08 127.586 358.8 126.228 359.382 125.602C361.774 122.994 360.265 120.645 359.166 118.273C357.068 113.704 354.912 109.17 352.699 104.672C350.242 99.6922 349.768 94.1523 348.237 88.9142C346.707 83.6761 345.78 78.8907 344.659 73.825C344.211 72.1079 343.92 70.3646 343.786 68.5951C343.652 66.8256 343.677 65.0583 343.861 63.2933C344.045 61.5283 344.385 59.7939 344.881 58.0901C345.378 56.3864 346.022 54.7406 346.814 53.1528C349.832 47.2465 353.173 41.491 355.846 35.4123C356.167 34.642 356.618 33.9572 357.199 33.3579C357.779 32.7587 358.449 32.2866 359.209 31.9417C359.718 31.646 360.258 31.4304 360.83 31.2949C361.403 31.1594 361.982 31.1099 362.569 31.1464C363.156 31.1828 363.725 31.3036 364.277 31.5089C364.828 31.7141 365.337 31.9949 365.805 32.3513C366.174 32.863 366.455 33.4189 366.648 34.019C366.842 34.6191 366.938 35.2344 366.938 35.8649C366.938 36.4954 366.842 37.1107 366.648 37.7108C366.455 38.3109 366.174 38.8668 365.805 39.3785C362.637 43.6897 360.74 48.7122 358.153 53.3468C356.786 56.0043 355.926 58.8169 355.574 61.7845C355.221 64.7521 355.399 67.6878 356.105 70.5916C357.456 77.6763 359.087 84.7035 360.998 91.6733C363.299 99.643 366.317 107.331 370.052 114.738C375.807 126.551 382.985 137.588 389.646 148.883C395.574 158.885 401.804 168.736 406.007 179.686C409.695 189.413 411.772 199.473 412.237 209.865C412.56 216.482 413.099 223.079 411.245 229.718C410.737 232.294 410.479 234.895 410.469 237.521C409.866 245.626 406.438 252.912 404.002 260.5C403.713 261.517 403.21 262.415 402.494 263.194C402.13 263.466 401.854 263.809 401.666 264.222C401.479 264.636 401.402 265.069 401.437 265.522C402.472 269.963 400.101 273.843 399.433 277.982C397.988 287.035 395.984 296.024 395.121 305.142C394.707 311.324 394.628 317.511 394.884 323.702C395.057 330.945 395.682 338.101 396.35 345.258C397.084 351.42 398.305 357.485 400.015 363.451C401.219 368.205 403.124 372.66 405.727 376.816C410.426 384.209 415.75 391.043 423.554 395.85C427.856 398.384 431.808 401.38 435.41 404.838C440.538 410.143 445.108 415.891 449.119 422.083C454.271 429.368 460.299 435.834 467.205 441.484C467.924 442.007 468.599 442.582 469.231 443.208C476.301 451.83 485.204 458.297 493.072 466.1C497.167 470.11 501.91 473.473 506.242 477.266C508.315 479.051 510.21 481.008 511.928 483.137C513.646 485.265 515.158 487.531 516.466 489.933C517.773 492.336 518.853 494.836 519.707 497.435C520.561 500.033 521.174 502.687 521.547 505.397C522.381 512.614 521.985 519.764 520.362 526.845C519.004 534.282 515.598 541.094 514.283 548.401C512.645 557.498 510.489 566.573 511.093 575.95C511.48 584.105 510.818 592.174 509.109 600.157C507.665 607.4 507.428 614.858 504.69 621.842C503.785 624.17 503.117 626.606 502.319 628.977C501.177 632.469 499.711 635.897 500.724 639.755C500.866 640.432 500.809 641.091 500.555 641.733C500.3 642.376 499.89 642.895 499.323 643.291C497.965 644.325 496.736 643.291 495.615 642.709C495.045 642.371 494.541 641.953 494.102 641.457C493.663 640.96 493.311 640.408 493.046 639.801C492.781 639.193 492.616 638.56 492.55 637.901C492.485 637.241 492.522 636.588 492.662 635.94C494.171 629.947 495.852 624.02 497.491 618.07C498.868 613.923 500.01 609.713 500.918 605.438C501.996 598.584 503.85 591.837 503.72 584.831C503.72 583.408 504.087 581.856 502.621 580.52C501.285 582.093 501.78 584.163 501.069 585.887C498.676 591.815 494.063 595.63 489.299 599.424C482.596 604.727 475.525 609.556 468.692 614.686C464.602 617.739 461.333 621.504 458.884 625.981C454.357 634.453 448.774 642.234 443.795 650.361C442.286 652.775 439.807 652.517 437.544 652.926C436.703 653.055 436.293 652.279 436.186 651.482C435.992 650.738 435.967 649.989 436.111 649.234C436.254 648.479 436.552 647.792 437.005 647.171C442.997 640.359 446.964 632.189 451.965 624.731C454.463 620.779 457.42 617.205 460.834 614.01C464.248 610.815 468.01 608.101 472.119 605.869C476.646 603.52 479.772 599.403 483.803 596.449C486.18 594.475 488.444 592.377 490.593 590.155C492.314 588.628 493.442 586.746 493.977 584.507C495.529 576.639 500.25 570.388 504.044 563.663C504.588 562.772 504.997 561.824 505.272 560.817C506.566 555.127 508.118 549.5 508.98 543.573C509.734 539.06 510.718 534.597 511.933 530.186C514.131 522.057 514.914 513.794 514.283 505.397C513.918 503.507 513.286 501.71 512.386 500.008C510.008 493.242 506.293 487.315 501.241 482.224C497.318 478.431 492.792 475.434 488.717 471.921C485.172 468.452 481.314 465.377 477.142 462.695C475.327 461.393 473.761 459.841 472.443 458.039C467.636 452.801 461.406 449.114 457.03 443.467C455.026 440.837 451.727 439.716 449.464 437.366C445.75 433.334 442.394 429.023 439.397 424.433C435.854 419.149 431.81 414.281 427.264 409.83C422.718 405.378 417.767 401.437 412.409 398.005C410.299 396.405 408.388 394.594 406.675 392.573C405.641 391.582 404.951 390.18 403.205 390.224C403.054 389.642 403.744 390.224 403.205 389.836C402.666 389.448 402.795 389.663 402.795 390.03C402.795 390.396 402.795 389.771 403.14 390.224C402.364 395.44 404.412 400.398 404.52 405.55C404.52 407.705 404.52 409.861 404.412 412.146C403.528 427.235 398.721 441.16 392.211 454.697C389.064 461.164 385.572 467.631 382.403 474.098C378.76 481.513 374.514 488.627 370.311 495.762C368.155 499.448 366.387 503.349 364.404 507.143C357.352 520.796 351.453 534.929 346.707 549.544C344.844 554.891 343.968 560.395 344.077 566.056C344.51 569.516 345.128 572.944 345.931 576.338C346.793 582.805 347.892 589.164 348.69 595.566C349.891 603.508 349.518 611.376 347.569 619.17C346.823 623.017 346.342 626.897 346.125 630.81C344.995 637.365 343.486 643.832 341.598 650.21C340.065 657.133 338.003 663.894 335.411 670.494C332.135 678.168 329.527 686.122 325.086 693.301C323.577 695.736 322.801 698.646 321.508 701.298C317.973 708.519 312.885 714.555 308.1 720.935C304.177 726.141 300.929 731.738 298.357 737.727C297.656 739.828 297.24 741.984 297.106 744.194C296.072 752.946 295.964 761.87 291.674 770.061C290.18 773.011 289.339 776.137 289.152 779.438C289.08 781.53 288.642 783.542 287.837 785.474C287.626 786.063 287.316 786.595 286.908 787.069C286.5 787.544 286.02 787.929 285.468 788.226C284.917 788.522 284.331 788.71 283.71 788.79C283.089 788.869 282.474 788.834 281.866 788.686C280.142 788.254 279.15 785.668 279.452 783.146C280.293 776.183 283.095 769.867 285.466 763.379C287.785 756.616 288.877 749.661 288.743 742.513C288.743 740.702 287.492 740.077 286.091 741.241C281.78 744.862 276.628 747.212 272.597 751.2C270.291 753.485 267.295 754.907 265.053 757.322C263.587 758.895 261.798 757.085 260.138 756.998C259.168 756.998 259.276 753.571 260.138 752.299C264.018 746.91 269.709 743.677 275.227 740.336C281.587 736.312 287.464 731.678 292.86 726.432C297.02 722.379 301.353 718.478 305.233 714.145C309.318 709.31 312.752 704.05 315.537 698.366C319.546 690.8 322.262 682.652 326.315 675.15C327.166 673.29 327.827 671.364 328.298 669.373C331.596 659.199 335.153 649.089 336.554 638.376C337.353 633.908 338.46 629.518 339.873 625.205C341.034 621.25 341.652 617.212 341.727 613.091C341.857 607.943 341.684 602.806 341.21 597.678C340.067 588.194 339.248 578.666 338.386 569.138C338.328 567.788 337.818 566.638 336.856 565.689C336.329 565.762 335.842 565.941 335.394 566.228C334.946 566.514 334.578 566.88 334.29 567.327C328.621 574.031 321.68 579.312 315.084 585.003C307.246 591.259 299.903 598.049 293.054 605.374C288.152 611.039 283.783 617.089 279.948 623.524C277.209 628.426 274.874 633.513 272.942 638.785C270.377 645.591 267.136 652.057 263.22 658.186C261.457 660.547 259.539 662.774 257.465 664.868C253.154 669.632 248.282 673.641 244.165 678.492C243.415 679.21 242.618 679.871 241.772 680.475C241.396 680.762 240.984 680.982 240.536 681.134C240.087 681.286 239.627 681.361 239.153 681.361C238.68 681.361 238.219 681.286 237.771 681.134C237.322 680.982 236.91 680.762 236.534 680.475C235.047 679.613 236.232 677.414 237.289 676.164C241.535 670.909 246.033 665.879 250.783 661.074C254.048 658.011 256.635 654.455 258.543 650.404C260.698 645.877 262.983 641.415 265.182 636.953C268.739 629.71 271.045 621.864 275.766 615.225C278.547 611.388 280.896 606.969 285.057 604.231C285.319 604.081 285.535 603.879 285.703 603.628C288.268 598.713 293.119 595.824 296.481 591.513C298.424 589.541 300.522 587.752 302.776 586.146C306.656 582.524 310.967 579.464 314.976 576.015C319.676 571.962 324.267 567.759 328.772 563.534C331.734 560.833 334.268 557.777 336.375 554.367C338.481 550.957 340.078 547.323 341.167 543.465C343.07 537.376 345.542 531.527 348.582 525.918C350.738 521.823 351.32 517.296 353.734 513.244C356.975 508.106 359.648 502.688 361.753 496.99C362.119 495.934 362.96 495.352 363.52 494.49C365.73 490.849 367.75 487.106 369.578 483.259C372.013 478.56 374.708 474.012 377.446 469.485C382.382 461.251 385.292 452.068 389.409 443.445C392.123 437.992 393.861 432.244 394.626 426.201C395.057 422.083 396.264 418.139 396.781 414C397.475 406.312 397.008 398.696 395.38 391.151C394.583 387.27 394.302 383.283 393.742 379.338C393.074 374.574 392.578 369.724 389.431 365.693C389.073 365.013 388.958 364.295 389.086 363.537C389.424 357.849 388.433 352.402 386.111 347.198C385.411 345.525 385.145 343.787 385.314 341.981C385.852 338.015 385.055 334.006 386.003 330.061C386.822 326.72 385.831 323.357 385.4 320.037C384.419 313.102 384.599 306.197 385.939 299.322C386.887 294.558 387.21 289.687 387.706 284.836C388.567 277.657 390.119 270.629 392.362 263.755C394.367 257.159 396.932 250.821 398.829 244.074C400.859 236.126 401.65 228.057 401.2 219.867C399.232 221.797 397.932 224.104 397.299 226.786C395.329 231.756 392.773 236.404 389.631 240.729C386.488 245.054 382.858 248.921 378.739 252.33C376.078 254.93 373.758 257.804 371.776 260.952C369.06 264.639 365.784 267.893 363.154 271.515C359.123 276.969 354.359 281.819 350.565 287.423C350.351 287.808 350.099 288.167 349.811 288.501C346.47 291.908 343.854 295.803 341.965 300.184C338.451 307.643 334.506 314.885 332.243 322.883C331.044 327.129 330.16 331.441 329.591 335.816C328.086 345.473 327.317 355.187 327.285 364.96C327.441 372.991 326.514 380.895 324.504 388.672C323.254 393.543 323.836 398.738 322.176 403.524C319.805 410.378 320.279 417.88 317.11 424.541C316.773 425.539 316.679 426.559 316.83 427.602C316.942 429.808 316.662 431.964 315.99 434.068C313.597 441.829 312.131 449.804 310.213 457.78C308.931 463.381 308.14 469.05 307.841 474.788C307.712 476.598 306.979 478.237 306.742 479.983C306.203 483.647 305.168 487.182 304.586 490.761C303.401 498.909 299.241 506.001 296.244 513.502C294.089 519.107 290.338 524.086 289.389 530.187C289.321 530.636 289.177 531.06 288.958 531.458C287.967 533.269 286.803 535.209 284.647 535.382C283.052 535.511 280.961 532.364 280.896 529.885C280.84 527.592 281.358 525.436 282.448 523.418C286.436 515.55 290.101 507.51 293.377 499.318C297.338 489.236 299.494 478.781 299.844 467.954C300.038 463.04 302.215 458.922 302.97 454.31C304.069 447.347 306.031 440.535 307.475 433.637C308.117 429.874 309.079 426.195 310.363 422.601C312.519 417.513 312.174 411.823 313.252 406.542C314.33 401.26 314.826 395.764 316.205 390.504C317.061 386.577 317.327 382.611 317.003 378.605C314.587 381.513 312.762 384.754 311.527 388.327C311.159 390.086 310.44 391.688 309.372 393.134C305.513 397.984 303.703 404.084 299.564 408.762C298.508 409.969 297.861 411.758 296.568 412.534C292.041 415.272 290.467 420.337 287.126 423.851C282.147 429.067 278.633 435.383 272.985 440.169C264.322 447.541 256.418 455.653 249.274 464.505C245.899 468.404 242.306 472.09 238.496 475.564C232.568 481.341 227.459 487.872 221.876 493.951C211.718 505.12 202.241 516.839 193.444 529.109C190.569 532.804 188.273 536.83 186.557 541.187C184.841 545.543 183.774 550.054 183.356 554.717C182.86 562.089 183.981 569.397 183.183 576.747C182.256 585.262 181.631 593.755 178.872 601.989C176.997 607.572 175.897 613.414 172.599 618.415C170.962 621.039 169.18 623.561 167.253 625.981C165.239 628.473 163.574 631.18 162.259 634.102C160.944 637.024 160.022 640.066 159.493 643.226C156.612 656.102 152.365 668.511 146.754 680.453C141.982 690.458 136.521 700.072 130.371 709.295C128.409 712.442 125.78 713.154 123.452 711.451C123.209 711.316 122.983 711.157 122.775 710.973C122.567 710.789 122.382 710.585 122.219 710.36C122.056 710.135 121.92 709.895 121.81 709.64C121.701 709.385 121.62 709.121 121.569 708.848C121.517 708.575 121.496 708.3 121.505 708.023C121.515 707.745 121.554 707.472 121.624 707.203C121.693 706.934 121.791 706.676 121.918 706.429C122.044 706.182 122.196 705.952 122.374 705.738C127.569 698.086 132.117 690.024 136.902 682.027C140.459 676.164 142.141 669.546 144.878 663.359C147.61 657.142 149.479 650.675 150.483 643.959C151.3 639.496 152.712 635.23 154.719 631.161C156.726 627.092 159.252 623.375 162.295 620.01C167.663 613.543 169.409 606.042 171.78 598.584C172.513 596.256 172.728 593.69 173.44 591.276C174.269 588.719 174.549 586.104 174.281 583.43C173.849 579.873 175.682 576.532 175.423 572.91C175.034 569.138 175.034 565.366 175.423 561.593C176.027 557.282 174.647 552.971 175.66 549.069C177.071 543.464 179.227 538.161 182.127 533.161C186.468 525.637 191.612 518.711 197.561 512.381C200.536 509.256 202.325 504.966 205.386 501.711C210.193 496.581 214.827 491.278 219.656 486.148C220.901 484.889 222.065 483.56 223.148 482.16C225.304 479.056 227.459 475.693 231.167 474.098C231.717 473.853 232.133 473.465 232.417 472.934C234.573 468.256 239.875 466.467 241.988 461.811C246.601 460.086 247.786 454.913 251.58 452.326C252.139 451.934 252.588 451.442 252.928 450.85C253.267 450.258 253.465 449.622 253.52 448.942C252.507 447.713 251.365 448.425 250.287 448.748C242.749 450.882 235.111 452.563 227.373 453.792C220.906 454.891 214.267 455.948 207.671 456.422C205.205 456.799 202.769 457.317 200.363 457.974C194.78 459.009 189.262 460.41 183.765 461.832C182.35 462.256 181.057 462.917 179.885 463.816C174.625 467.566 169.495 471.576 164.128 475.197C160.679 477.525 158.286 480.974 154.794 483.237C150.687 486.33 146.821 489.7 143.197 493.347C139.273 496.923 135.572 500.717 132.095 504.729C130.111 506.944 127.955 508.977 125.629 510.829C124.465 511.778 124.098 512.424 124.896 513.696C125.151 514.112 125.325 514.56 125.416 515.04C125.506 515.52 125.509 516 125.424 516.481C125.338 516.961 125.17 517.411 124.92 517.83C124.669 518.249 124.352 518.61 123.969 518.913C122.603 520.49 121.626 522.279 121.037 524.28C120.673 525.565 120.113 526.758 119.356 527.858C116.015 531.48 115.368 536.028 114.721 540.533C114.413 542.694 113.914 544.809 113.222 546.878C112.53 548.948 111.657 550.938 110.604 552.849C109.551 554.76 108.334 556.561 106.954 558.252C105.574 559.942 104.053 561.494 102.391 562.908C98.5328 566.336 94.2216 569.375 90.4709 572.824C89.3321 573.772 88.311 574.833 87.4075 576.008C86.504 577.182 85.7401 578.441 85.1158 579.785C84.4915 581.128 84.0219 582.524 83.707 583.972C83.3922 585.42 83.2397 586.884 83.2496 588.366C83.5514 596.988 85.7286 605.288 87.3668 613.673C88.186 617.855 89.7164 621.929 89.5224 626.305C89.5491 627.484 89.3982 628.641 89.0697 629.775C88.574 631.09 88.0135 632.577 86.0735 632.534C85.6624 632.571 85.2579 632.535 84.8599 632.426C84.4619 632.316 84.0956 632.141 83.761 631.899C83.4263 631.658 83.1445 631.365 82.9156 631.022C82.6866 630.679 82.5249 630.306 82.4305 629.904C82.1128 629.077 81.9188 628.222 81.8485 627.339C82.0425 621.627 80.3611 616.216 79.154 610.741C78.6798 608.585 79.154 606.257 77.8175 604.274C77.2786 603.434 77.4511 602.119 76.1577 601.515C72.8091 605.774 69.7338 610.222 66.9318 614.858C64.7762 618.48 62.1463 621.605 59.883 625.054C59.8148 625.209 59.7305 625.354 59.6301 625.49C59.5297 625.626 59.4156 625.75 59.2877 625.861C59.1599 625.971 59.0215 626.067 58.8725 626.147C58.7235 626.227 58.5675 626.289 58.4046 626.335C58.2417 626.38 58.0758 626.407 57.9069 626.416C57.738 626.424 57.5702 626.414 57.4035 626.385C57.2368 626.357 57.0754 626.31 56.9191 626.245C56.7628 626.181 56.6154 626.1 56.4771 626.003C55.1622 625.205 53.6102 624.903 53.7395 622.597C53.8467 621.106 54.2345 619.692 54.9029 618.355C55.5713 617.019 56.4697 615.86 57.598 614.88C60.7282 612.074 63.0706 608.719 64.6253 604.813C65.6967 602.521 67.1337 600.488 68.9365 598.713C70.3235 597.361 71.3798 595.788 72.1052 593.992C73.571 588.991 76.4164 584.594 78.2271 579.787C79.9777 575.815 82.4423 572.352 85.6208 569.397C90.0002 565.01 94.7066 561.008 99.74 557.39C103.081 554.997 104.568 551.117 106.207 547.453C107.129 545.436 107.798 543.338 108.211 541.158C109.435 534.901 111.476 528.923 114.333 523.224C114.7 522.836 115.045 522.405 114.527 521.974C114.398 521.844 113.902 522.168 113.557 522.297C111.078 522.987 110.151 525.444 108.384 526.953C101.033 533.29 93.9198 539.887 86.677 546.353C81.6114 550.837 76.0715 554.803 71.0058 559.287C68.0527 561.938 65.1426 564.633 62.1679 567.284C61.9374 567.543 61.6803 567.771 61.3966 567.97C61.1129 568.169 60.8101 568.332 60.4884 568.46C60.1666 568.588 59.8344 568.678 59.4918 568.728C59.1492 568.779 58.8054 568.79 58.4603 568.761C58.1152 568.731 57.7781 568.663 57.4489 568.555C57.1198 568.447 56.8074 568.303 56.5119 568.123C56.2163 567.942 55.9454 567.73 55.6992 567.487C55.453 567.243 55.2381 566.974 55.0544 566.681C53.1791 564.116 53.7611 561.982 56.24 559.891C62.8361 554.329 70.3592 549.953 76.3517 543.637C76.5457 543.422 76.6751 543.077 76.9337 542.969C81.2449 541.158 83.9825 537.365 87.4099 534.455C91.5487 530.941 95.4719 527.19 99.6322 523.677C104.719 519.365 110.108 515.55 115.066 511.174C118.602 508.28 121.871 505.111 124.874 501.668C127.03 498.952 130.371 497.357 132.591 494.447C136.17 489.855 141.106 486.6 145.029 482.332C147.012 480.177 149.599 478.926 151.69 476.835C156.477 472.083 161.658 467.808 167.232 464.01C171.349 461.229 175.186 457.888 179.864 456.12C182.752 454.646 185.806 453.711 189.025 453.318C191.18 453.318 193.207 451.874 195.362 451.658C199.138 451.254 202.853 450.535 206.507 449.502L225.67 446.894C226.6 446.927 227.398 446.618 228.063 445.967C233.667 445.465 239.099 444.215 244.359 442.216C249.317 440.061 254.9 439.414 260.203 438.164C260.968 437.928 261.687 438.029 262.358 438.466C263.652 439.35 264.514 438.595 265.484 437.776C271.412 432.301 278.008 427.494 283.16 421.242C287.837 415.552 292.192 409.581 296.675 403.717C297.038 403.065 297.483 402.476 298.012 401.95C302.97 398.264 303.983 392.724 304.888 387.206C305.751 381.447 307.784 376.137 310.988 371.276C313.144 367.87 313.36 363.71 314.976 360.045C316.421 356.812 317.283 353.341 318.555 350.043C319.374 347.888 319.568 345.732 320.171 343.576C322.327 336.161 322.327 328.487 323.879 321.007C325.69 312.859 330.346 305.918 334.528 298.761C335.35 297.695 335.853 296.495 336.036 295.162C336.083 294.485 336.263 293.847 336.579 293.246C336.894 292.646 337.317 292.135 337.847 291.713C339.861 289.761 341.37 287.476 342.374 284.858C343.536 282.804 344.93 280.921 346.556 279.21C350.263 275.05 353.755 270.588 357.334 266.277C360.589 262.267 364.016 258.387 366.883 254.119C371.194 247.652 376.928 242.63 381.8 236.745C385.046 232.314 387.468 227.472 389.064 222.216C389.84 220.061 390.702 218.121 391.5 216.073C393.221 212.107 394.32 207.975 394.798 203.678C394.992 201.199 394.798 198.462 396.091 196.327C399.325 191.24 397.126 186.843 394.884 182.338C392.642 177.832 390.832 173.715 388.655 169.62C384.343 161.364 379.041 153.733 374.363 145.692C373.177 143.645 371.927 141.64 370.72 139.614C369.897 137.916 368.812 136.407 367.465 135.087C366.021 135.518 366.086 136.79 365.784 137.631C362.076 148.128 354.294 155.048 345.219 160.609C334.378 167.301 322.881 172.56 310.73 176.388C308.337 177.143 306.074 178.264 303.746 179.19C303.216 179.324 302.757 179.585 302.371 179.971C301.984 180.358 301.724 180.816 301.59 181.346C301.294 182.285 300.827 183.129 300.187 183.878C299.547 184.626 298.786 185.219 297.904 185.657C296.579 186.513 295.421 187.555 294.43 188.782C293.438 190.009 292.664 191.36 292.105 192.835C288.604 201.492 286.118 210.43 284.647 219.651C283.85 225.514 283.332 231.528 283.095 237.521C282.585 242.987 282.966 248.391 284.238 253.731C284.466 254.895 284.509 256.067 284.367 257.245C283.879 262.986 283.772 268.734 284.044 274.489C284.432 278.693 281.651 282.228 281.371 286.302C281.09 290.376 278.719 293.653 277.641 297.382C276.739 299.376 275.733 301.316 274.624 303.202C274.063 304.689 273.072 306.047 270.916 305.164C268.437 304.151 266.82 302.318 267.489 300.249C268.127 297.486 269.248 294.935 270.851 292.596C272.027 291.096 272.637 289.393 272.683 287.488C273.843 280.65 274.561 273.767 274.839 266.837C274.839 258.581 274.473 250.325 274.279 242.091C274.085 233.231 273.804 224.243 276.24 215.728C277.794 209.129 279.777 202.663 282.19 196.328C282.971 194.408 283.596 192.439 284.065 190.421C284.475 188.805 283.612 188.028 282.147 188.675C279.365 189.704 276.534 190.573 273.654 191.283C272.425 191.801 271.147 192.006 269.818 191.9C268.49 191.793 267.261 191.387 266.131 190.68C264.228 189.528 262.194 188.694 260.03 188.179C259.168 187.956 258.292 187.832 257.402 187.806C256.512 187.781 255.63 187.855 254.757 188.028C253.884 188.202 253.04 188.471 252.228 188.835C251.415 189.198 250.653 189.648 249.942 190.184C243.193 195.014 237.064 200.533 231.555 206.739C227.644 210.8 224.181 215.211 221.165 219.974C220.283 221.565 219.198 223.002 217.91 224.286C210.775 231.054 206.011 239.677 199.975 247.307C198.832 248.901 198.024 250.649 197.551 252.553C197.078 254.456 196.973 256.379 197.238 258.323C197.785 264.781 197.914 271.248 197.626 277.723C197.603 284.118 198.415 290.405 200.061 296.584C200.759 299.306 201.305 302.058 201.7 304.84C202.166 307.681 203.018 310.401 204.257 312.999C205.496 315.598 207.072 317.973 208.986 320.124C214.333 326.302 218.35 333.25 221.035 340.968C222.743 345.647 223.26 350.454 222.587 355.389C221.488 362.438 222.135 369.551 221.122 376.557C220.195 383.024 220.906 389.491 220.108 395.957C220.103 397.743 220.405 399.474 221.014 401.152C221.833 404.882 221.617 408.805 223.062 412.426C223 413.48 222.726 414.475 222.237 415.411C221.748 416.347 221.089 417.141 220.259 417.794C218.384 418.44 217.414 417.018 216.681 415.854C214.959 412.874 213.953 409.669 213.663 406.24C212.24 395.573 211.808 384.867 212.37 374.121C212.693 369.185 212.93 364.162 213.577 359.248C214.849 349.849 212.09 341.593 207.606 333.661C206.072 330.276 203.996 327.265 201.376 324.629C201.376 324.176 201.161 323.81 200.643 324.284C200.76 324.487 200.889 324.681 201.031 324.866Z" fill="#9E644A"/>
</g>
</svg>
