<svg width="107" height="61" viewBox="0 0 107 61" fill="none" xmlns="http://www.w3.org/2000/svg">
<path fill-rule="evenodd" clip-rule="evenodd" d="M86.4396 22.4841C68.8902 21.6769 55.3472 24.5935 45.8134 31.2285C42.2506 33.65 39.8879 36.2061 38.7306 38.8967C37.6615 41.3182 37.8406 43.0213 39.2652 44.0088C42.4725 46.1612 46.2144 47.8671 50.4908 49.1209C56.2827 50.824 63.8092 52.0805 73.0757 52.8877C81.6286 53.6061 89.6924 51.9002 97.2643 47.7756C101.006 45.7119 103.946 43.5594 106.084 41.3182L86.4396 22.4841Z" fill="black"/>
<path fill-rule="evenodd" clip-rule="evenodd" d="M55.5681 14.9503L49.0198 42.1252L76.683 52.0803L106.083 41.318C105.728 35.3099 104.571 29.9288 102.609 25.1745L99.8025 19.7933C97.3088 16.4758 94.4569 13.2014 91.2496 9.9727C84.8349 3.60408 79.9785 0.601395 76.683 0.959242C73.2966 1.31709 68.7529 3.73861 63.0518 8.22382C60.2 10.5539 57.7063 12.7978 55.5681 14.9503Z" fill="#94897B"/>
<path fill-rule="evenodd" clip-rule="evenodd" d="M104.613 31.6321H104.48C101.184 32.9774 98.2443 33.6958 95.6597 33.7846C92.7196 33.8733 89.7796 33.2464 86.8395 31.9012C84.5249 31.0052 81.2721 30.5559 77.0839 30.5559C72.7193 30.6446 69.5119 30.3325 67.4619 29.6142C64.7892 28.7182 62.4291 26.789 60.3791 23.8294C58.4199 20.9612 57.0381 17.7756 56.2363 14.2778L55.5681 14.9505L49.0198 42.1254L76.683 52.0805L106.083 41.3182C105.816 37.8204 105.327 34.5917 104.613 31.6321Z" fill="#787066"/>
<path fill-rule="evenodd" clip-rule="evenodd" d="M84.434 32.1701L84.5677 31.4975C83.2313 32.2159 81.9831 33.5154 80.8258 35.3988C78.9548 38.1782 77.843 39.7952 77.4848 40.2419C74.2775 44.0087 69.9129 44.7728 64.3882 42.5316C61.2691 41.3638 59.0427 39.3029 57.7063 36.3432C55.3008 34.371 53.4753 31.8123 52.2271 28.6724L49.0225 42.1253L76.683 52.0804L106.083 41.3181L105.816 38.0894C100.826 42.1253 94.9487 44.232 88.1759 44.415C87.2859 44.415 86.4841 44.1432 85.7704 43.6051C85.0568 42.9809 84.6131 42.2598 84.434 41.4526C83.5413 38.3127 83.5413 35.2186 84.434 32.1701Z" fill="#635C55"/>
<path fill-rule="evenodd" clip-rule="evenodd" d="M1.84583 45.758C0.33036 46.7454 0.685844 48.4028 2.91493 50.7356C5.32043 53.1571 8.79504 54.7714 13.3387 55.5786C20.1998 57.193 25.5881 58.4037 29.509 59.2109C36.6373 60.5562 43.1402 60.871 49.0203 60.1526C54.9886 59.3454 59.845 58.1347 63.5869 56.5203C65.4578 55.7131 66.7488 54.9517 67.4624 54.2333L41.9374 43.0674C34.6327 40.3768 26.1681 39.8387 16.5461 41.4531C9.41779 42.6181 4.5186 44.0548 1.84583 45.758Z" fill="black"/>
<path fill-rule="evenodd" clip-rule="evenodd" d="M31.6473 25.1748L23.0944 31.9013C17.2143 36.7443 13.7852 40.1506 12.8016 42.1255C10.0406 47.8672 12.0452 52.0806 18.8153 54.7712C22.6481 56.3856 26.4354 57.5075 30.1746 58.1344C34.3629 58.8528 39.4839 59.1649 45.5431 59.0762C50.5331 58.9874 54.8523 58.3147 58.5087 57.0582C63.4961 55.3551 66.4816 54.4161 67.4625 54.2331C70.4934 53.695 70.0898 51.5425 66.2597 47.7784C60.4678 42.8439 56.4132 38.9452 54.0986 36.0717C50.8913 32.3049 48.0394 29.8833 45.5457 28.8071C45.1903 28.7156 40.5557 27.5075 31.6473 25.1748Z" fill="#94897B"/>
<path fill-rule="evenodd" clip-rule="evenodd" d="M12.8046 42.1253C10.0436 47.867 12.0482 52.0805 18.8183 54.771C22.6511 56.3854 26.4384 57.5074 30.1776 58.1343C34.3658 58.8527 39.4868 59.1648 45.546 59.076C50.5361 58.9872 54.8553 58.3145 58.5116 57.058C63.499 55.3549 66.4845 54.4159 67.4654 54.2329C69.5155 53.8751 70.1382 52.9334 69.3364 51.4078C68.7136 50.2401 67.0645 48.4482 64.3917 46.0267C60.0271 48.2679 54.9462 49.8392 49.1569 50.7352C43.4532 51.6311 38.3777 51.5854 33.9221 50.6006C31.6957 50.0625 29.4212 47.8643 27.1066 44.0087C25.9466 41.945 25.3238 40.8688 25.2356 40.78C24.4338 39.7065 23.4529 39.0769 22.2956 38.8966C20.2429 38.5388 18.6847 37.9119 17.6182 37.0159L17.4819 36.7441C14.9882 39.1657 13.4273 40.9603 12.8046 42.1253Z" fill="#787066"/>
<path fill-rule="evenodd" clip-rule="evenodd" d="M19.219 42.7979C16.7226 45.3109 14.408 47.4606 12.2698 49.2553C13.3389 51.6768 15.5199 53.5144 18.8181 54.7709C22.6508 56.3853 26.4381 57.5073 30.1773 58.1342C34.3656 58.8526 39.4866 59.1647 45.5458 59.0759C50.5359 58.9871 54.8551 58.3144 58.5114 57.0579C63.4988 55.3548 66.4843 54.4158 67.4652 54.2328C69.0689 53.9638 69.7825 53.2911 69.6034 52.2149C69.4244 51.4077 68.5798 50.197 67.0643 48.5826C64.036 52.5297 59.626 55.3091 53.8341 56.9234C48.5767 58.3575 43.3648 58.6292 38.1957 57.7306C33.831 57.0122 30.0437 55.0884 26.8364 51.9485C23.5382 47.91 21.0017 44.8588 19.219 42.7979Z" fill="#635C55"/>
</svg>
