<svg width="107" height="61" viewBox="0 0 107 61" fill="none" xmlns="http://www.w3.org/2000/svg">
<path fill-rule="evenodd" clip-rule="evenodd" d="M86.4396 22.4841C68.8902 21.6769 55.3472 24.5935 45.8134 31.2285C42.2506 33.65 39.8879 36.2061 38.7306 38.8967C37.6615 41.3182 37.8406 43.0213 39.2652 44.0088C42.4725 46.1612 46.2144 47.8671 50.4908 49.1209C56.2827 50.824 63.8092 52.0805 73.0757 52.8877C81.6286 53.6061 89.6924 51.9002 97.2643 47.7756C101.006 45.7119 103.946 43.5594 106.084 41.3182L86.4396 22.4841Z" fill="black"/>
<path fill-rule="evenodd" clip-rule="evenodd" d="M55.5681 14.9503L49.0198 42.1252L76.683 52.0803L106.083 41.318C105.728 35.3099 104.571 29.9288 102.609 25.1745L99.8025 19.7933C97.3088 16.4758 94.4569 13.2014 91.2496 9.9727C84.8349 3.60408 79.9785 0.601395 76.683 0.959242C73.2966 1.31709 68.7529 3.73861 63.0518 8.22382C60.2 10.5539 57.7063 12.7978 55.5681 14.9503Z" fill="#94897B"/>
<path fill-rule="evenodd" clip-rule="evenodd" d="M104.613 31.6321H104.48C101.184 32.9774 98.2443 33.6958 95.6597 33.7846C92.7196 33.8733 89.7796 33.2464 86.8395 31.9012C84.5249 31.0052 81.2721 30.5559 77.0839 30.5559C72.7193 30.6446 69.5119 30.3325 67.4619 29.6142C64.7892 28.7182 62.4291 26.789 60.3791 23.8294C58.4199 20.9612 57.0381 17.7756 56.2363 14.2778L55.5681 14.9505L49.0198 42.1254L76.683 52.0805L106.083 41.3182C105.816 37.8204 105.327 34.5917 104.613 31.6321Z" fill="#787066"/>
<path fill-rule="evenodd" clip-rule="evenodd" d="M84.434 32.1701L84.5677 31.4975C83.2313 32.2159 81.9831 33.5154 80.8258 35.3988C78.9548 38.1782 77.843 39.7952 77.4848 40.2419C74.2775 44.0087 69.9129 44.7728 64.3882 42.5316C61.2691 41.3638 59.0427 39.3029 57.7063 36.3432C55.3008 34.371 53.4753 31.8123 52.2271 28.6724L49.0225 42.1253L76.683 52.0804L106.083 41.3181L105.816 38.0894C100.826 42.1253 94.9487 44.232 88.1759 44.415C87.2859 44.415 86.4841 44.1432 85.7704 43.6051C85.0568 42.9809 84.6131 42.2598 84.434 41.4526C83.5413 38.3127 83.5413 35.2186 84.434 32.1701Z" fill="#635C55"/>
</svg>
