<svg width="107" height="61" viewBox="0 0 107 61" fill="none" xmlns="http://www.w3.org/2000/svg">
<path fill-rule="evenodd" clip-rule="evenodd" d="M1.84583 45.758C0.33036 46.7454 0.685844 48.4028 2.91493 50.7356C5.32043 53.1571 8.79504 54.7714 13.3387 55.5786C20.1998 57.193 25.5881 58.4037 29.509 59.2109C36.6373 60.5562 43.1402 60.871 49.0203 60.1526C54.9886 59.3454 59.845 58.1347 63.5869 56.5203C65.4578 55.7131 66.7488 54.9517 67.4624 54.2333L41.9374 43.0674C34.6327 40.3768 26.1681 39.8387 16.5461 41.4531C9.41779 42.6181 4.5186 44.0548 1.84583 45.758Z" fill="black"/>
<path fill-rule="evenodd" clip-rule="evenodd" d="M31.6473 25.1748L23.0944 31.9013C17.2143 36.7443 13.7852 40.1506 12.8016 42.1255C10.0406 47.8672 12.0452 52.0806 18.8153 54.7712C22.6481 56.3856 26.4354 57.5075 30.1746 58.1344C34.3629 58.8528 39.4839 59.1649 45.5431 59.0762C50.5331 58.9874 54.8523 58.3147 58.5087 57.0582C63.4961 55.3551 66.4816 54.4161 67.4625 54.2331C70.4934 53.695 70.0898 51.5425 66.2597 47.7784C60.4678 42.8439 56.4132 38.9452 54.0986 36.0717C50.8913 32.3049 48.0394 29.8833 45.5457 28.8071C45.1903 28.7156 40.5557 27.5075 31.6473 25.1748Z" fill="#94897B"/>
<path fill-rule="evenodd" clip-rule="evenodd" d="M12.8046 42.1253C10.0436 47.867 12.0482 52.0805 18.8183 54.771C22.6511 56.3854 26.4384 57.5074 30.1776 58.1343C34.3658 58.8527 39.4868 59.1648 45.546 59.076C50.5361 58.9872 54.8553 58.3145 58.5116 57.058C63.499 55.3549 66.4845 54.4159 67.4654 54.2329C69.5155 53.8751 70.1382 52.9334 69.3364 51.4078C68.7136 50.2401 67.0645 48.4482 64.3917 46.0267C60.0271 48.2679 54.9462 49.8392 49.1569 50.7352C43.4532 51.6311 38.3777 51.5854 33.9221 50.6006C31.6957 50.0625 29.4212 47.8643 27.1066 44.0087C25.9466 41.945 25.3238 40.8688 25.2356 40.78C24.4338 39.7065 23.4529 39.0769 22.2956 38.8966C20.2429 38.5388 18.6847 37.9119 17.6182 37.0159L17.4819 36.7441C14.9882 39.1657 13.4273 40.9603 12.8046 42.1253Z" fill="#787066"/>
<path fill-rule="evenodd" clip-rule="evenodd" d="M19.219 42.7979C16.7226 45.3109 14.408 47.4606 12.2698 49.2553C13.3389 51.6768 15.5199 53.5144 18.8181 54.7709C22.6508 56.3853 26.4381 57.5073 30.1773 58.1342C34.3656 58.8526 39.4866 59.1647 45.5458 59.0759C50.5359 58.9871 54.8551 58.3144 58.5114 57.0579C63.4988 55.3548 66.4843 54.4158 67.4652 54.2328C69.0689 53.9638 69.7825 53.2911 69.6034 52.2149C69.4244 51.4077 68.5798 50.197 67.0643 48.5826C64.036 52.5297 59.626 55.3091 53.8341 56.9234C48.5767 58.3575 43.3648 58.6292 38.1957 57.7306C33.831 57.0122 30.0437 55.0884 26.8364 51.9485C23.5382 47.91 21.0017 44.8588 19.219 42.7979Z" fill="#635C55"/>
</svg>
